<svg xmlns="http://www.w3.org/2000/svg" width="567.107" height="601.312" viewBox="0 0 567.107 601.312">
  <g id="Group_96" data-name="Group 96" transform="translate(-310.479 -1369)">
    <rect id="Rectangle_12" data-name="Rectangle 12" width="482" height="600" rx="50" transform="translate(360 1369)" fill="#fff" opacity="0.2"/>
    <g id="Layer_2" data-name="Layer 2" transform="translate(310.438 1474.727)">
      <g id="Layer_3" data-name="Layer 3" transform="translate(0.542 0.476)">
        <path id="Path_152" data-name="Path 152" d="M178.079,95.533s71.816-19.57,112.6-.786c0,0,1.858,54.972,0,136.164-3.024,21.354-20,40.082-46.846,42.741-58.228-.512-125.426-.955-125.426-.955L94.05,155.886l84.029-60.353" transform="translate(239.883 220.955)" fill="#ffc400" stroke="#1d1d1b" stroke-miterlimit="10" stroke-width="1"/>
        <path id="Path_153" data-name="Path 153" d="M141.514,106S108.266,141.319,75.59,222.955l90.279-.286s-1.5-99.742-24.355-116.67" transform="translate(192.42 270.841)" fill="#ffc400" stroke="#1d1d1b" stroke-miterlimit="10" stroke-width="1"/>
        <path id="Path_154" data-name="Path 154" d="M100.7,130.254s-3.571,34.426,30.676,30.891A43.711,43.711,0,0,0,170.656,126.9s2.75-19.784-17.856-34.247" transform="translate(256.699 236.516)" fill="#ffc400" stroke="#1d1d1b" stroke-miterlimit="10" stroke-width="1"/>
        <path id="Path_155" data-name="Path 155" d="M102.3,122.557s5.808,39.275,40.091,14.956c31.283-22.141-2.357-42.532-2.357-42.532S103.087,118.593,102.3,122.557Z" transform="translate(261.892 242.507)" fill="#dda864" stroke="#1d1d1b" stroke-miterlimit="10" stroke-width="1"/>
        <path id="Path_156" data-name="Path 156" d="M100.62,130.281s44.211-39,52.032-37.6" transform="translate(256.776 236.49)" fill="#dda864" stroke="#1d1d1b" stroke-miterlimit="10" stroke-width="1"/>
        <path id="Path_157" data-name="Path 157" d="M121.4,89.71c2.428.607,77.994,29.748,99.171,69.173" transform="translate(310.204 228.957)" fill="none" stroke="#1d1d1b" stroke-miterlimit="10" stroke-width="1"/>
        <path id="Path_158" data-name="Path 158" d="M85.387,45.228s-8.214-5-16.642,53.032a248.731,248.731,0,0,1-17.606,62.709c-9.356,21.677-8.035,11.606-28.569,52.96C-7.5,274.1-4.714,317.85,18.427,323.778s21.427-10.071,21.427-10.071.571,30.855,29.069,11.856c0,0,3.571,30.891,28.569,5.964,0,0,14.285,27.891,29.1,1.75,0,0,17.213,23.748,31.462-10.071,0,0,23.748,17.213,25-13.678,0,0,25,13.07,23.141-22.57,0,0,27.534,11.5,20-20.356C225.912,266.532,404.434,42.871,85.387,45.228Z" transform="translate(-0.542 114.309)" fill="#f2b578" stroke="#1d1d1b" stroke-miterlimit="10" stroke-width="1"/>
        <path id="Path_159" data-name="Path 159" d="M34.6,59.938a96.421,96.421,0,0,0,3.964,68.495s9.5,36.39,2.357,64.5-22.963,67.316-16.606,83.137,16.963,18.463,16.963,18.463,12.285-1.178,15.427-10.713c0,0-1.678,15.035,10.214,13.57S84.771,279.85,84.771,279.85s1.464,13.07,12.178,11.57,24.034-23.141,25.534-31.176c0,0,4.143,11.892,15.142,6.25s14.535-19.284,14.535-19.284a9.035,9.035,0,0,0,7.142,2.964c4.464-.321,6.25-7.749,6.25-7.749l6.785-86.208L42.6,53.51Z" transform="translate(56.784 135.881)" fill="#b58451" opacity="0.495"/>
        <path id="Path_160" data-name="Path 160" d="M262,273.953s-5.035,28.569-28.783,13.535c0,0-13.07,25.677-37.426,13.106,0,0-5.535,21.855-24.748,6a267.229,267.229,0,0,0,1-142.846s20.784-16.142-2.964-25.677c0,0,13.642-19.713-11.285-23.284,0,0,12.463-29.283-16.034-28.069,0,0,13.642-26.891-16.034-25.677,0,0,9.5-29.855-14.285-25A19.57,19.57,0,0,0,96.62,13.366S109.119-7.6,136.438,10.9,240.823,76.433,289.212,168.461c47.5,90.493,25.534,95.6,23.57,97.528-7.785,7.428-21.427,4.393-31.462-3.571C281.32,262.383,288.141,279.024,262,273.953Z" transform="translate(246.491 6.717)" fill="#f2b578" stroke="#1d1d1b" stroke-miterlimit="10" stroke-width="1"/>
        <path id="Path_161" data-name="Path 161" d="M175.67,171.124s39.283-7.749,5.357-85.529C155.779,27.278,129.245,12.029,117.639,8.03a6.785,6.785,0,0,0-8.285,3.785L99.14,35.135l58.1,137.882Z" transform="translate(252.97 18.124)" fill="#b58451" opacity="0.5"/>
        <path id="Path_162" data-name="Path 162" d="M363.948,305.145c-4.665,12.78-16.69,27.5-26.926,36.461a189.843,189.843,0,0,1-76.173,39.283c-30,7.785-57.825,8.377-83.609-5.015C132.495,352.518,133.931,300,133.931,300a15.784,15.784,0,0,1-15.427,5.142C107.79,303.573,99.112,283.4,99.112,283.4c-19,14.285-21.427-8.321-21.427-8.321-17,1.571-17.856-19-17.856-19-23.355-.786-16.642-25-16.642-25-28.891-15.035-8.321-32.14-8.321-32.14C13.9,188.225,30.9,172.4,30.9,172.4c-16.749-29.783,13.5-32.569,13.5-32.569s-20.177-25,11.892-33.855c0,0-16.034-34.426,21.427-32.14,0,0-14.82-31.462,21.963-25.534,0,0-2.964-30.855,26.748-20.784,0,0,6.535-31.462,27.891-12.463,0,0,13.678-25,28.569,0,0,0,14.856-30.283,33.247-3.571,0,0,16.034-24.355,33.247,1.75,0,0,19.034-18.391,23.784,10.106a23.962,23.962,0,0,1,11.678-2.678c6.285.393,13.213,4.321,15.606,18.713,0,0,21.427-5.357,14.285,25,0,0,27.926,1.214,16.034,25.534,0,0,25.534,0,16.034,27.926,0,0,25.534,4.143,11.285,23.141,0,0,23.177,5.928,2.964,25.534C360.7,166.619,384.911,250.506,363.948,305.145Z" transform="translate(60.799 -0.476)" fill="#f2b578" stroke="#1d1d1b" stroke-miterlimit="10" stroke-width="1"/>
        <path id="Path_163" data-name="Path 163" d="M99.462,37.05s19.427-11.392,41.247,7.428c19.32,16.642,14.57,32.962,14.57,32.962s-9.821,28.926-37.711,23.463S84.892,66.44,84.892,66.44,81.035,46.263,99.462,37.05Z" transform="translate(215.472 84.775)" fill="#0b0c0d"/>
        <path id="Path_164" data-name="Path 164" d="M69.827,93.024C69.4,94.952,71.755,96.6,73.719,96.6a70.1,70.1,0,0,0,19.5-2.75,30.21,30.21,0,0,0,8.321-4.178,63.855,63.855,0,0,0,6.821-12.32c.357-1,7.142-12.856,2.678-17.07-3.571-3.571-17.177,5.821-25.284,12A51.5,51.5,0,0,0,72.469,86.917a20.712,20.712,0,0,0-2.643,6.107Z" transform="translate(177.47 151.256)" fill="#6d4e2d" stroke="#1d1d1b" stroke-miterlimit="10" stroke-width="1"/>
        <path id="Path_165" data-name="Path 165" d="M60.022,61.338S88.806,44.7,102.876,83.586,77.628,131.4,77.628,131.4s-29.391,3.571-31.176-42.461C46.345,88.943,46.345,68.445,60.022,61.338Z" transform="translate(117.458 146.909)" fill="#0b0c0d"/>
        <path id="Path_166" data-name="Path 166" d="M63.31,121.635C78.969,78.92,114.878,46.64,161.374,56.89l-.321,1.964c-47.175-6.142-74.771,12.493-97.743,62.781Z" transform="translate(160.846 139.68)" fill="#1d1d1b"/>
        <path id="Path_167" data-name="Path 167" d="M50.652,71.089c-1.214,7.142-.75,17.5,10.5,19.927a13.249,13.249,0,0,0,7.964-.857c5.071-2.143,12.356-7.428,7.714-19.177a16.606,16.606,0,0,0-8.321-9.214,14.571,14.571,0,0,0-4.214-1.25A12.356,12.356,0,0,0,50.652,71.089Z" transform="translate(127.115 153.692)" fill="#fff" stroke="#1d1d1b" stroke-miterlimit="10" stroke-width="1"/>
        <path id="Path_168" data-name="Path 168" d="M117,50.869a15.32,15.32,0,0,1-14.856,15.249,14.285,14.285,0,0,1-14.285-14.5,13.356,13.356,0,0,1,13.463-14.285A14.535,14.535,0,0,1,117,50.869Z" transform="translate(223.893 94.169)" fill="#fff" stroke="#1d1d1b" stroke-miterlimit="10" stroke-width="1"/>
        <path id="Path_169" data-name="Path 169" d="M106.159,30.919c-2.643,6.035-5.5,12.106-11.535,15.677l-1.464-3.25c5.25-2.178,9.142-7.928,12.035-12.856l.964.464Z" transform="translate(237.595 76.693)" fill="#1d1d1b"/>
        <path id="Path_170" data-name="Path 170" d="M105.012,33.646a17.177,17.177,0,0,1-7.464,8.678L96.37,38.967a15.463,15.463,0,0,0,7.714-5.857l.928.536Z" transform="translate(245.848 83.43)" fill="#1d1d1b"/>
        <path id="Path_171" data-name="Path 171" d="M42.661,67.475c5.678-.214,12.606-.928,17-4.535l2.214,2.821C55.8,69.332,49.161,69.082,42.59,68.547V67.475Z" transform="translate(107.571 160.127)" fill="#1d1d1b"/>
        <path id="Path_172" data-name="Path 172" d="M44,70.125a15.963,15.963,0,0,0,8.821-4.035L55.213,68.7A17.57,17.57,0,0,1,44,71.2Z" transform="translate(111.197 168.226)" fill="#1d1d1b"/>
        <path id="Path_173" data-name="Path 173" d="M75.273,109.955a43.03,43.03,0,0,0,27.89,41.787c30.141,12.32,54.639-20.606,54.639-20.606s18.106-22.105-5.5-46.175c0,0-14.711-18.536-25.961-17.393a37.583,37.583,0,0,1-23.357,12.778c-2.478.33-8.27,2.466-11.249,1.9C91.735,82.247,86.333,103.967,75.273,109.955Z" transform="translate(192.952 170.71)" fill="#ce8ab2" stroke="#1d1d1b" stroke-miterlimit="10" stroke-width="1"/>
        <path id="Path_174" data-name="Path 174" d="M85.227,120.886s-4.321-10.713-2.75-13.856,9.464-21.427,24.07-26.962,25.641-2.75,28.819,1.607,9.178,9.892,8.928,13.463S115.9,144.277,85.227,120.886Z" transform="translate(209.244 196.245)" fill="#f1accc"/>
        <g id="Group_93" data-name="Group 93" transform="translate(244.507 217.797)">
          <g id="Group_94" data-name="Group 94" transform="translate(0 0)">
            <path id="Path_176" data-name="Path 176" d="M72.9.522a2.007,2.007,0,0,1,2.248-.3c3.981,2.818,4.027,8.738,3.305,13.108-3.809,16.792-23.524,21.37-38.393,22.4l.675-.624C37.948,51.282,26.159,68.4,8.387,68.886c-7.372-.148-9.881-6.037-7.54-12.5l1.428.476C0,62.431,1.9,67.544,8.457,67.739c16.894-.777,28.231-17.378,30.826-32.847l.105-.581.574-.047c14.388-.948,33.487-5.093,37.522-21.14.753-3.637.652-7.817-1.417-11.005-.663-1-1.834-1.8-2.658-1Z" transform="translate(-0.001 0.001)" fill="#161615"/>
          </g>
        </g>
      </g>
    </g>
  </g>
</svg>
