<svg xmlns="http://www.w3.org/2000/svg" width="388.161" height="401.784" viewBox="0 0 388.161 401.784">
  <g id="Group_22" data-name="Group 22" transform="matrix(0.966, 0.259, -0.259, 0.966, -809.388, -512.171)" opacity="0.441" style="mix-blend-mode: lighten;isolation: isolate">
    <g id="Group_13" data-name="Group 13" transform="translate(958.813 229.33)">
      <path id="Path_6" data-name="Path 6" d="M141.624,849.939c-13.684,18.837-.706,52.366,29.17,74.753,29.766,22.322,65.024,25.17,78.773,6.222,13.686-18.837.6-52.431-29.169-74.752s-65.025-25.169-78.775-6.222" transform="translate(-76.947 -809.263)" fill="#f2b578" fill-rule="evenodd"/>
      <path id="Path_7" data-name="Path 7" d="M173.565,924.517c-9.448,21.384,10.4,51.353,44.218,66.937s68.859,10.911,78.306-10.473-10.293-51.286-44.218-66.937c-33.814-15.585-68.859-10.911-78.306,10.473" transform="translate(-171.211 -778.886)" fill="#f2b578" fill-rule="evenodd"/>
      <path id="Path_8" data-name="Path 8" d="M151.079,1030.055c1.291,21.477,30.04,37.864,64.431,36.494s61.183-19.875,59.957-41.46c-1.182-21.412-30.04-37.865-64.322-36.429-34.39,1.37-61.292,19.809-60.066,41.4" transform="translate(-119.011 -741.174)" fill="#f2b578" fill-rule="evenodd"/>
      <path id="Path_9" data-name="Path 9" d="M71.562,824.754C55.6,839.266,60.969,871.919,83.516,897.888c22.613,25.861,53.846,35.162,69.919,20.716,15.964-14.511,10.594-47.165-12.019-73.025-22.549-25.969-53.846-35.161-69.854-20.825" transform="translate(122.476 -817.997)" fill="#f2b578" fill-rule="evenodd"/>
      <path id="Path_10" data-name="Path 10" d="M.124,985.669c.6,6.869,3.578,13.98,8.29,22.134,4.669,7.982,11.249,16.962,16.005,26.03a91.458,91.458,0,0,1,9.677,28.439c1.6,10.131,1.726,21,3.287,29.479a68.488,68.488,0,0,0,7.2,20c2.714,5.327,5.168,9.612,10.578,13.9a68.856,68.856,0,0,0,21.47,11.273,48.4,48.4,0,0,0,20.346,1.578A63.8,63.8,0,0,0,114,1133.8a31.626,31.626,0,0,0,12.9-10.144c3.807-5.105,7.29-12.624,10.315-20.122s5.53-14.865,8.122-22.625c2.7-7.693,5.641-15.538,8.492-22.253,2.96-6.65,5.833-12.17,8.554-17.19a92.052,92.052,0,0,1,22.539-29.637c4.524-4.084,8.417-6.624,13.439-10.557a101.813,101.813,0,0,0,15.487-14.946c4.351-5.519,7.224-11.039,8.4-17.429a60.474,60.474,0,0,0-.225-20.542,71.477,71.477,0,0,0-5.836-19.329,43.413,43.413,0,0,0-10.9-14.831,47.4,47.4,0,0,0-17.583-8.642,63.809,63.809,0,0,0-21.952-2.1c-7.543.5-15.2,2.4-23.35,4.9-8.263,2.431-17.2,5.49-25.743,7.9a135.866,135.866,0,0,1-25.72,5.4c-9,.952-18.826.814-27.63,1.439a103.5,103.5,0,0,0-23.261,3.768A41.8,41.8,0,0,0,24.328,935.3a71.063,71.063,0,0,0-12.552,14.491A75.474,75.474,0,0,0,3.332,966.3C1.219,972.279-.483,978.8.124,985.669" transform="translate(152.534 -779.6)" fill="#f2b578" fill-rule="evenodd"/>
    </g>
  </g>
</svg>
