<?xml version="1.0" encoding="utf-8"?>
<!-- Generator: Adobe Illustrator 26.0.3, SVG Export Plug-In . SVG Version: 6.00 Build 0)  -->
<svg version="1.1" id="Layer_1" xmlns="http://www.w3.org/2000/svg" xmlns:xlink="http://www.w3.org/1999/xlink" x="0px" y="0px"
	 viewBox="0 0 232.8 232.8" style="enable-background:new 0 0 232.8 232.8;" xml:space="preserve">
<style type="text/css">
	.st0{opacity:4.000000e-02;}
	.st1{fill:#7C7C7C;}
</style>
<g id="Group_11" class="st0">
	<path id="Path_51" class="st1" d="M191.4,69.3c-5-5-11.8-7.6-18.8-7.2c0.7-13.7-9.9-25.3-23.6-26s-25.3,9.9-26,23.6
		c-0.3,5.9,1.5,11.7,5.2,16.4l-54.1,54.1c-10.8-8.4-26.4-6.4-34.8,4.5s-6.4,26.4,4.5,34.8c4.7,3.6,10.5,5.4,16.4,5.2
		c-0.7,13.7,9.9,25.3,23.6,26s25.3-9.9,26-23.6c0.3-5.9-1.5-11.7-5.2-16.4l54.1-54.1c10.9,8.4,26.5,6.4,34.8-4.5
		C201.1,92.1,200.2,78.1,191.4,69.3"/>
</g>
</svg>
