<svg xmlns="http://www.w3.org/2000/svg" viewBox="0 0 77.42 123.76"><defs><style>.cls-1{fill:#f2b578;stroke:#f2b578;}.cls-1,.cls-2{stroke-miterlimit:10;}.cls-2{fill:#fff;stroke:#fff;}</style></defs><g id="Layer_2" data-name="Layer 2"><g id="Layer_1-2" data-name="Layer 1"><path class="cls-1" d="M13.28,1.05S8.1,7,6.89,36A26.27,26.27,0,0,1,6.1,41.4c-1,3.77-2.69,10.21-3.63,11.86-2.92,5.09-2.49,9,.58,11.12a6.92,6.92,0,0,0,7.29.26,4.61,4.61,0,0,0,1.77-1.57c1.17-2,3.79,1.41,7.32-.17,1.07-.48,6.65-4,2.83-13.14,0,0-4.71-7.2-6.32-10.3-1.51-2.91-2.63-17.53.09-37.11A1.61,1.61,0,0,0,15.34.73,1.64,1.64,0,0,0,13.28,1.05Z"/><path class="cls-1" d="M3.47,72.13s20,.83,24.44-1S41.13,58.41,46.2,61.49c3.9,2.36,3.86,5.56,3.64,6.92a1.4,1.4,0,0,0,.33,1.16c1.39,1.59,4.93,6.44-.65,9.13-6.73,3.24-10.14-1.34-14.46-1.58S4.37,76.66,2.55,75.2C1.64,74.47,1.22,72.88,3.47,72.13Z"/><path class="cls-1" d="M76.63,12.74c-.68-11.26-8.79-8-11.94-6.2A1.21,1.21,0,0,1,63,6c-.45-.9-1.49-2-3.88-2.72-5.76-1.66-8.2,5.43-5.43,13.41s5.54,50.44,1.22,70-10,24.83-5.43,31.48c4.39,6.42,9,2.54,10.84.53a.85.85,0,0,1,1.37.13,9.48,9.48,0,0,0,10.73,4.1c3.88-.94,4.81-5.46,4.44-9.64-.33-3.77-2.4-6.15-3.88-9.76C69,94,62.55,45.55,68.87,32,68.87,32,77,18.28,76.63,12.74Z"/><path class="cls-2" d="M5.66,53.18C5,54.43-.66,64.88,8.74,62.75c0,0,.06-.11,0-.12C7.5,62.4,3,61,5.68,53.2,5.69,53.18,5.67,53.17,5.66,53.18Z"/><path class="cls-2" d="M40,75.37c1.3.59,12.22,5.25,9.25-3.92a.06.06,0,0,0-.12,0C49,72.72,48,77.33,40,75.35,40,75.35,40,75.37,40,75.37Z"/><path class="cls-2" d="M71,104.83c.77,2,6.92,18.41-2.67,14.19-.06,0-.08-.17,0-.18,1.25-.22,5.74-1.88,2.68-14C71,104.83,71,104.81,71,104.83Z"/><path class="cls-2" d="M71,23.1c.76-2,6.91-18.41-2.68-14.2-.06,0-.07.17,0,.19,1.24.22,5.74,1.87,2.67,14C70.93,23.1,71,23.12,71,23.1Z"/></g></g></svg>