<svg xmlns="http://www.w3.org/2000/svg" viewBox="0 0 69.06 114.19"><defs><style>.cls-1{fill:#f2b578;stroke:#f2b578;}.cls-1,.cls-2{stroke-miterlimit:10;}.cls-2{fill:#fff;stroke:#fff;}</style></defs><g id="Layer_2" data-name="Layer 2"><g id="Layer_1-2" data-name="Layer 1"><path class="cls-1" d="M43.89,64.39a2.63,2.63,0,0,0,1.16,2.45c4.29,3,21.18,16,9.28,29.38C40.78,111.43,21.16,96,21.16,96s-8.23-10.56-13.8-5.24-.5,8.65-.5,8.65S-1.7,101.45,1,107.27s13.14,3.41,16.8,2.75,13.68,3.36,23.44,3.65c16.79.5,25.19-11.11,26.69-18.62,2.52-12.66-2.66-26.43-21-31.84C46.93,63.21,44.18,62.31,43.89,64.39Z"/><path class="cls-1" d="M18.42,19.57c6.78,4.51,11.89-2,14.46-4.58A11.7,11.7,0,0,1,37,13.08c12.9-2.87,17.74,5.74,17.74,5.74,14,18-8.6,28.6-14.64,29.93-4.16.91-11.83-1.08-17.95,1.33-4.38,1.72-2.44,7.16-.89,7.31s3.69.42,2.44,2.22c-.59.86-1.37,1.27-1.47,2.25A4.2,4.2,0,0,0,24,65.6c3.82,2.94,7.66,2.67,16.86-5.55,10.42-9.31,30.07-12.33,27.32-34.42-3-24.45-33.53-21.89-38.63-23s-9.25-4.35-14.32.31c-5.42,5,2.57,11,2.57,11S15.09,17.35,18.42,19.57Z"/><path class="cls-2" d="M26.79,5.23c-1.27-.65-11.92-5.9-9.45,3.41,0,.06.11.07.11,0,.19-1.25,1.43-5.81,9.32-3.4C26.79,5.26,26.81,5.24,26.79,5.23Z"/><path class="cls-2" d="M17.5,97.57c-.72-1.23-6.89-11.37-9.81-2.19,0,.06.06.12.1.07.83-1,4.32-4.13,9.69,2.13C17.49,97.59,17.51,97.59,17.5,97.57Z"/></g></g></svg>