<svg xmlns="http://www.w3.org/2000/svg" viewBox="0 0 31.12 121.06"><defs><style>.cls-1{fill:#f2b578;stroke:#f2b578;}.cls-1,.cls-2{stroke-miterlimit:10;}.cls-2{fill:#fff;stroke:#fff;}</style></defs><g id="Layer_2" data-name="Layer 2"><g id="Layer_1-2" data-name="Layer 1"><path class="cls-1" d="M16.47,4.09s5-5.28,10.23.33a8.05,8.05,0,0,1,2.07,7.06,9.9,9.9,0,0,1-2,4.4C25.17,18,21.44,23.66,20.21,33c-1.58,12-3.41,48.8,4.66,62.52,4,6.76,5.35,12.13,5.71,15.84A8.22,8.22,0,0,1,23,120.55c-2.73.11-5.78-1.2-8.32-5.89,0,0-.58-1.64-1.74-.67,0,0-2.54,7.53-9.27,2.16s-.5-15.79-.5-15.79,7.16-9.9,6.69-39.16c0,0,.42-23.94-.66-33.59-1-8.82-7.82-22.77-1.28-26.1S15.25,4,15.25,4,15.64,5.06,16.47,4.09Z"/><path class="cls-2" d="M12.64,3.63C8.21,6.44,8.83,11.5,9.88,19.15a.14.14,0,0,1-.28.06C8.18,14.39,5.52,3,11.9,2.5,12.51,2.45,13.15,3.3,12.64,3.63Z"/><path class="cls-2" d="M4.61,101.24C3.86,103-2,118.11,11.37,113.32a.08.08,0,0,0,0-.16c-1.9,0-8.89-1-6.72-11.9C4.65,101.24,4.62,101.22,4.61,101.24Z"/></g></g></svg>