<svg xmlns="http://www.w3.org/2000/svg" viewBox="0 0 71.44 112.13"><defs><style>.cls-1{fill:#f2b578;stroke:#f2b578;}.cls-1,.cls-2{stroke-miterlimit:10;}.cls-2{fill:#fff;stroke:#fff;}</style></defs><g id="Layer_2" data-name="Layer 2"><g id="Layer_1-2" data-name="Layer 1"><path class="cls-1" d="M9.38,10.41s-2,7,3.23,5.9c1.26-.27,3.51-2,5.06-4.74,2.76-4.83,14.8-3.77,19.06-3.16C48.08,10,68.57,27.7,51.28,47.82c-4.15,4.83-14.54,5.86-10.81,11.64,0,0,2.42,2.74,4.91.66,1.56-1.3,1.36.16,1,1.44s-.51,2.12.5,3.11c1.21,1.18,5.12,2.6,9.28-.23,4.41-3,4-9.95,7.18-22,1.08-4.15,3.4-13.56-1.34-22.94A33.17,33.17,0,0,0,44.58,4,44.75,44.75,0,0,0,21.16,1a40.16,40.16,0,0,1-5.38.63C13.62,1.65,3.81.43,4,7.25S9.38,10.41,9.38,10.41Z"/><path class="cls-1" d="M38.88,65.62c-3,4-13,17.18-20.52,19.77a74.22,74.22,0,0,1-12.8,1.25c-5-.13-8.48,13.55.5,12.39,0,0,1.49-.08,1.08,3.32s.66,7.32,5.07,5.57c3.55-1.4,7.53-8,8.94-10.49a16.26,16.26,0,0,1,1.35-2c3.57-4.65,17.79-23.12,19.39-25.3a4.46,4.46,0,0,0,.52-4.34A2.1,2.1,0,0,0,38.88,65.62Z"/><path class="cls-1" d="M22.86,104c4.62.36,20,1.21,26.59-2.56A56.38,56.38,0,0,0,58.55,93c3-3.75,14.62,2.22,8,7.92,0,0-1,1,1.55,2.8s4.51,4.94.49,7c-3.3,1.7-10.51.45-13-.06a14,14,0,0,0-1.93-.25c-5.22-.3-27.87-1.62-29.76-1.62a3.7,3.7,0,0,1-3.27-2.28A2.09,2.09,0,0,1,22.86,104Z"/><path class="cls-2" d="M9.48,88c-1.34.49-12.41,4.77-3.89,9.27,0,0,.12,0,.08-.09-.79-1-3.3-5,3.81-9.15C9.5,88,9.5,88,9.48,88Z"/><path class="cls-2" d="M55.75,99.13c1-1.07,9-9.81,10-.23,0,.06-.08.1-.11,0-.63-1.1-3.43-4.9-9.92.19C55.76,99.15,55.73,99.14,55.75,99.13Z"/><path class="cls-2" d="M17.77,4.38C16.23,3.93,3.41.37,7.64,9c0,.05.14,0,.14,0,0-1.23.7-5.8,10-4.58C17.77,4.41,17.79,4.39,17.77,4.38Z"/></g></g></svg>