<?xml version="1.0" encoding="utf-8"?>
<!-- Generator: Adobe Illustrator 26.0.3, SVG Export Plug-In . SVG Version: 6.00 Build 0)  -->
<svg version="1.1" id="Layer_1" xmlns="http://www.w3.org/2000/svg" xmlns:xlink="http://www.w3.org/1999/xlink" x="0px" y="0px"
	 viewBox="0 0 232.8 232.8" style="enable-background:new 0 0 232.8 232.8;" xml:space="preserve">
<style type="text/css">
	.st0{fill:#DF6F2A;}
	.st1{fill:#FFFFFF;}
	.st2{font-family:'Nunito-Bold';}
	.st3{font-size:30px;}
</style>
<g id="Group_101" transform="translate(-453.302 -5208.586)">
	<path id="Path_213" class="st0" d="M657.4,5343.4c0-7-3-13.7-8.2-18.4c10.2-9.2,10.9-24.9,1.7-35.1s-24.9-10.9-35.1-1.7
		c-4.4,4-7.2,9.4-8,15.2h-76.5c-1.7-13.6-14.2-23.2-27.8-21.5s-23.2,14.2-21.5,27.8c0.8,5.9,3.6,11.3,8,15.3
		c-10.2,9.2-10.9,24.9-1.7,35.1c9.2,10.2,24.9,10.9,35.1,1.7c4.4-4,7.2-9.4,8-15.3h76.5c1.8,13.6,14.2,23.2,27.8,21.5
		C648.2,5366.4,657.4,5355.9,657.4,5343.4"/>
	<text transform="matrix(1 0 0 1 539.1174 5335.5)" class="st1 st2 st3">BUY</text>
</g>
</svg>
