<svg xmlns="http://www.w3.org/2000/svg" xmlns:xlink="http://www.w3.org/1999/xlink" width="112.025" height="115.656" viewBox="0 0 112.025 115.656">
  <defs>
    <linearGradient id="linear-gradient" x1="0.5" y1="0.994" x2="0.5" y2="-0.004" gradientUnits="objectBoundingBox">
      <stop offset="0" stop-color="#99421c"/>
      <stop offset="0.11" stop-color="#9e4b25"/>
      <stop offset="0.28" stop-color="#ac643e"/>
      <stop offset="0.51" stop-color="#c28d67"/>
      <stop offset="0.77" stop-color="#e1c5a0"/>
      <stop offset="1" stop-color="#fffbd6"/>
    </linearGradient>
    <linearGradient id="linear-gradient-2" x1="0.922" y1="0.166" x2="0.099" y2="0.817" gradientUnits="objectBoundingBox">
      <stop offset="0" stop-color="#ed9f5a"/>
      <stop offset="0.17" stop-color="#feebc0"/>
      <stop offset="0.21" stop-color="#fbdcac"/>
      <stop offset="0.31" stop-color="#f3bb7f"/>
      <stop offset="0.39" stop-color="#efa663"/>
      <stop offset="0.44" stop-color="#ed9e59"/>
      <stop offset="0.49" stop-color="#efa562"/>
      <stop offset="0.58" stop-color="#f3b77b"/>
      <stop offset="0.69" stop-color="#fbd5a4"/>
      <stop offset="0.75" stop-color="#ffe7bc"/>
      <stop offset="1" stop-color="#ec9d58"/>
    </linearGradient>
    <linearGradient id="linear-gradient-3" x1="0.5" y1="-0.005" x2="0.5" y2="0.999" xlink:href="#linear-gradient"/>
    <linearGradient id="linear-gradient-4" x1="0.97" y1="0.122" x2="0.08" y2="0.838" xlink:href="#linear-gradient-2"/>
    <clipPath id="clip-path">
      <path id="Rectangle_18" data-name="Rectangle 18" d="M52.807,0,83.652,41.862,33.288,79.106,0,39.342Z" fill="none"/>
    </clipPath>
  </defs>
  <g id="Group_103" data-name="Group 103" transform="translate(-1182.44 -549.131)">
    <g id="Layer_2" data-name="Layer 2" transform="translate(1226.588 549.131) rotate(30)">
      <g id="Layer_1" data-name="Layer 1">
        <path id="Path_83" data-name="Path 83" d="M0,44.148v.071c0,.265,0,.529.006.793Q.024,46.275.1,47.518q.023.4.053.793Q.245,49.574.4,50.817q.048.4.1.793.17,1.266.4,2.506c.048.265.1.529.151.793q.251,1.268.56,2.506c.065.265.133.53.2.793q.337,1.271.733,2.506c.085.265.171.53.261.792q.431,1.278.923,2.507.158.4.323.792.536,1.278,1.136,2.507.194.4.4.792.656,1.285,1.382,2.507.237.4.481.792.8,1.293,1.68,2.507.284.4.587.792.989,1.306,2.06,2.506.359.4.727.793,1.253,1.328,2.6,2.507.465.407.94.793a33.558,33.558,0,0,0,3.515,2.509q.667.416,1.349.793a30,30,0,0,0,5.238,2.292v.213l-.013.793-.006.4H34.9a27.878,27.878,0,0,0,4.695-.4,28.211,28.211,0,0,0,3.384-.793A29.921,29.921,0,0,0,48.905,84.6q.683-.379,1.349-.793A33.525,33.525,0,0,0,53.764,81.3q.476-.387.941-.793,1.349-1.177,2.6-2.506.369-.39.729-.793,1.071-1.2,2.06-2.507.3-.392.585-.792.878-1.214,1.68-2.507.244-.392.481-.792.727-1.221,1.385-2.508c.135-.262.266-.526.4-.792q.6-1.227,1.136-2.507.165-.393.325-.792.491-1.232.923-2.507.133-.393.261-.792.4-1.236.733-2.506c.071-.263.138-.528.2-.793q.154-.623.3-1.255t.263-1.251q.077-.4.15-.793.227-1.24.4-2.506.053-.4.1-.793.15-1.242.243-2.507.03-.4.053-.793.075-1.243.094-2.507.006-.4.006-.793v-.071q0-1.225-.053-2.435c-.011-.264-.024-.529-.04-.793q-.071-1.264-.2-2.506c-.027-.264-.055-.529-.087-.793q-.149-1.266-.355-2.506-.065-.4-.136-.793-.227-1.267-.512-2.506-.092-.4-.188-.792-.313-1.271-.683-2.507c-.08-.265-.161-.53-.244-.792q-.4-1.274-.865-2.51c-.1-.266-.2-.529-.307-.792q-.5-1.278-1.072-2.507-.185-.394-.373-.789-.621-1.283-1.309-2.506c-.149-.267-.3-.531-.455-.793q-.757-1.291-1.589-2.506-.272-.4-.554-.793-.93-1.3-1.941-2.506-.337-.4-.683-.793Q57,9.908,55.739,8.722q-.426-.4-.869-.793A34.72,34.72,0,0,0,51.68,5.423q-.591-.41-1.2-.793a31.071,31.071,0,0,0-4.856-2.506q-1.077-.44-2.185-.793a28.133,28.133,0,0,0-8-1.325h-.023C35.246,0,35.077,0,34.9,0c-.152,0-.3,0-.456,0L26.336,0l1.025,1.034q-.5.142-.994.3-1.108.355-2.187.793A31.038,31.038,0,0,0,19.326,4.63q-.514.323-1.011.667l-.181.126a34.512,34.512,0,0,0-3.19,2.506q-.44.388-.869.793-1.258,1.185-2.427,2.506-.344.39-.682.793-1.01,1.207-1.943,2.506-.281.392-.553.793-.832,1.215-1.591,2.507c-.154.262-.306.526-.455.793q-.688,1.222-1.308,2.506-.192.394-.375.792-.568,1.229-1.073,2.507-.156.394-.305.792Q2.9,26.45,2.5,27.725c-.084.262-.165.527-.244.792q-.372,1.237-.683,2.507-.1.394-.189.792Q1.1,33.055.868,34.322q-.071.395-.136.793-.2,1.242-.355,2.506c-.031.264-.06.528-.087.793q-.128,1.243-.2,2.506-.022.4-.04.793Q0,42.922,0,44.148Z" transform="translate(8.569)" fill="url(#linear-gradient)"/>
        <g id="Group_41" data-name="Group 41" transform="translate(8.569 1.331)" opacity="0.65">
          <path id="Path_84" data-name="Path 84" d="M340.42,19.533h21.45q-1.077-.44-2.185-.793H342.607Q341.5,19.093,340.42,19.533Z" transform="translate(-316.239 -18.74)" fill="#99421c"/>
          <path id="Path_85" data-name="Path 85" d="M255.27,65.983h33.546q-.591-.41-1.2-.793H256.465q-.514.323-1.011.667Q255.36,65.919,255.27,65.983Z" transform="translate(-237.138 -61.891)" fill="#99421c"/>
          <path id="Path_86" data-name="Path 86" d="M198.13,112.433h41.663q-.426-.4-.869-.793H199Q198.558,112.028,198.13,112.433Z" transform="translate(-184.056 -105.042)" fill="#99421c"/>
          <path id="Path_87" data-name="Path 87" d="M154.37,158.883h47.88q-.337-.4-.683-.793H155.052Q154.707,158.48,154.37,158.883Z" transform="translate(-143.405 -148.193)" fill="#99421c"/>
          <path id="Path_88" data-name="Path 88" d="M119.24,205.333h52.871q-.272-.4-.554-.793H119.793Q119.513,204.932,119.24,205.333Z" transform="translate(-110.771 -191.343)" fill="#99421c"/>
          <path id="Path_89" data-name="Path 89" d="M90.46,251.783h56.959c-.149-.267-.3-.531-.455-.793H90.915C90.761,251.252,90.609,251.516,90.46,251.783Z" transform="translate(-84.035 -234.494)" fill="#99421c"/>
          <path id="Path_90" data-name="Path 90" d="M66.75,298.232h60.326q-.185-.4-.373-.792H67.127Q66.933,297.835,66.75,298.232Z" transform="translate(-62.008 -277.645)" fill="#99421c"/>
          <path id="Path_91" data-name="Path 91" d="M47.34,344.642h63.084c-.1-.266-.2-.529-.307-.792H47.645Q47.49,344.247,47.34,344.642Z" transform="translate(-43.977 -320.759)" fill="#99421c"/>
          <path id="Path_92" data-name="Path 92" d="M31.69,391.132H97c-.08-.265-.161-.53-.244-.792H31.934C31.851,390.6,31.769,390.867,31.69,391.132Z" transform="translate(-29.438 -363.947)" fill="#99421c"/>
          <path id="Path_93" data-name="Path 93" d="M19.44,437.582H86.488q-.092-.4-.188-.792H19.628Q19.531,437.184,19.44,437.582Z" transform="translate(-18.06 -407.098)" fill="#99421c"/>
          <path id="Path_94" data-name="Path 94" d="M10.3,484.023H78.646q-.065-.4-.136-.793H10.436Q10.365,483.625,10.3,484.023Z" transform="translate(-9.568 -450.239)" fill="#99421c"/>
          <path id="Path_95" data-name="Path 95" d="M4.11,530.473H73.335c-.027-.264-.055-.529-.087-.793H4.2C4.164,529.944,4.137,530.208,4.11,530.473Z" transform="translate(-3.818 -493.39)" fill="#99421c"/>
          <path id="Path_96" data-name="Path 96" d="M.74,576.923h69.7c-.011-.264-.024-.529-.04-.793H.78Q.757,576.526.74,576.923Z" transform="translate(-0.688 -536.541)" fill="#99421c"/>
          <path id="Path_97" data-name="Path 97" d="M0,622.58c0,.265,0,.529.006.793H69.8q.006-.4.006-.793Z" transform="translate(0 -579.692)" fill="#99421c"/>
          <path id="Path_98" data-name="Path 98" d="M1.42,669q.023.4.053.793h69.5q.03-.4.053-.793Z" transform="translate(-1.32 -622.815)" fill="#99421c"/>
          <path id="Path_99" data-name="Path 99" d="M5.58,715.48q.048.4.1.793H74.5q.053-.4.1-.793Z" transform="translate(-5.184 -665.994)" fill="#99421c"/>
          <path id="Path_100" data-name="Path 100" d="M12.59,761.93c.048.265.1.529.151.793H80.461q.077-.4.15-.793Z" transform="translate(-11.697 -709.144)" fill="#99421c"/>
          <path id="Path_101" data-name="Path 101" d="M22.55,808.38c.065.265.133.53.2.793h66.2c.071-.263.138-.528.2-.793Z" transform="translate(-20.946 -752.295)" fill="#99421c"/>
          <path id="Path_102" data-name="Path 102" d="M35.75,854.83c.085.265.171.53.261.792h64.207q.133-.393.261-.792Z" transform="translate(-33.209 -795.446)" fill="#99421c"/>
          <path id="Path_103" data-name="Path 103" d="M52.43,901.28q.158.4.323.792h61.712q.165-.393.325-.792Z" transform="translate(-48.705 -838.597)" fill="#99421c"/>
          <path id="Path_104" data-name="Path 104" d="M73.01,947.73q.194.4.4.792h58.646c.135-.262.266-.526.4-.792Z" transform="translate(-67.825 -881.748)" fill="#99421c"/>
          <path id="Path_105" data-name="Path 105" d="M98.05,994.18q.237.4.481.792h54.92q.244-.392.481-.792Z" transform="translate(-91.087 -924.899)" fill="#99421c"/>
          <path id="Path_106" data-name="Path 106" d="M128.48,1040.63q.284.4.587.792h50.387q.3-.392.585-.792Z" transform="translate(-119.355 -968.05)" fill="#99421c"/>
          <path id="Path_107" data-name="Path 107" d="M165.74,1087.07q.359.4.727.793h44.809q.369-.39.729-.793Z" transform="translate(-153.967 -1011.191)" fill="#99421c"/>
          <path id="Path_108" data-name="Path 108" d="M212.64,1133.52q.465.407.94.793H251.3q.476-.387.941-.793Z" transform="translate(-197.537 -1054.342)" fill="#99421c"/>
          <path id="Path_109" data-name="Path 109" d="M275.31,1180q.667.415,1.35.793h28q.683-.379,1.349-.793Z" transform="translate(-255.755 -1097.521)" fill="#99421c"/>
          <path id="Path_110" data-name="Path 110" d="M377.69,1227.213h13.471a28.208,28.208,0,0,0,3.384-.793H377.7Z" transform="translate(-351.562 -1140.644)" fill="#99421c"/>
        </g>
        <path id="Path_111" data-name="Path 111" d="M120.659,44.148c0,24.382,15.626,44.148,34.9,44.148,15.986,0,29.461-13.591,33.6-32.136a55.225,55.225,0,0,0,1.308-12.013C190.469,19.766,174.842,0,155.564,0a29.186,29.186,0,0,0-16.591,5.3C128.067,12.763,120.659,27.361,120.659,44.148Z" transform="translate(-120.659)" fill="url(#linear-gradient-2)"/>
        <ellipse id="Ellipse_14" data-name="Ellipse 14" cx="28.435" cy="35.965" rx="28.435" ry="35.965" transform="translate(5.294 8.183)" fill="url(#linear-gradient-3)"/>
        <ellipse id="Ellipse_15" data-name="Ellipse 15" cx="27.179" cy="33.785" rx="27.179" ry="33.785" transform="translate(7.553 10.363)" fill="url(#linear-gradient-4)"/>
      </g>
    </g>
    <g id="Group_45" data-name="Group 45" transform="translate(1193.758 562.881)" clip-path="url(#clip-path)" style="mix-blend-mode: soft-light;isolation: isolate">
      <path id="Path_112" data-name="Path 112" d="M10.678,34.694a.374.374,0,0,0,.063-.052.347.347,0,0,0,.046-.059.406.406,0,0,0,.033-.066.588.588,0,0,0,.023-.072q.03-.12.061-.239t.063-.24l.064-.24.064-.24a.093.093,0,0,0,0-.013V33.46a.091.091,0,0,1,0-.013.043.043,0,0,1,0-.012,1.045,1.045,0,0,0,.1-.221c.024-.075.042-.15.059-.225s.036-.15.06-.225a1.012,1.012,0,0,1,.1-.22.984.984,0,0,0,.065-.123c.018-.042.034-.083.05-.126s.031-.084.047-.126a1.278,1.278,0,0,1,.057-.125,1.32,1.32,0,0,0,.059-.131c.017-.044.033-.089.047-.134s.028-.09.043-.135.029-.09.045-.134c.005-.015.011-.029.017-.044l.019-.044.02-.044.02-.044a.072.072,0,0,1,.007-.012l.009-.012.008-.012a.033.033,0,0,0,0-.012.875.875,0,0,1,.026-.129c.012-.043.026-.085.042-.127s.034-.084.052-.126l.056-.126.027-.063.026-.063.026-.063.027-.063c.013-.029.027-.058.041-.087l.043-.087c.014-.029.027-.059.039-.089a.656.656,0,0,0,.028-.092.319.319,0,0,1,.021-.062.643.643,0,0,1,.032-.062c.012-.021.025-.041.038-.062l.038-.061.062-.1.062-.1c.021-.035.041-.072.061-.109s.039-.076.057-.117l-.061.013-.056.01a.377.377,0,0,0-.049.013.154.154,0,0,0-.04.02.826.826,0,0,1-.151.086c-.052.023-.106.043-.16.061s-.108.037-.16.057a.989.989,0,0,0-.154.075.178.178,0,0,0-.087.014.415.415,0,0,0-.077.044c-.025.017-.05.035-.075.051a.254.254,0,0,1-.083.033l-.077.017c-.026.006-.052.014-.078.022a.777.777,0,0,0-.075.029.555.555,0,0,0-.07.037c-.034.022-.069.042-.1.061l-.106.056-.106.055c-.035.019-.07.038-.1.059l-.072.041-.073.037-.073.035-.074.035c-.063.03-.127.057-.191.083s-.128.054-.192.082-.126.059-.187.094a1.315,1.315,0,0,0-.176.12.132.132,0,0,1-.036.02.379.379,0,0,1-.042.013l-.044.012a.213.213,0,0,0-.041.017c-.035.02-.071.037-.107.054L9.454,31a1.111,1.111,0,0,0-.106.055.6.6,0,0,0-.1.072,1.448,1.448,0,0,0-.151.054c-.05.021-.1.043-.148.066l-.147.069c-.049.022-.1.044-.15.063l-.18.068-.179.071-.178.073-.177.076-.138.058-.138.054-.139.05-.14.049a.578.578,0,0,0-.067.028c-.022.011-.044.023-.066.036l-.064.042-.061.044c-.023.017-.046.032-.07.047s-.047.027-.071.039-.049.022-.074.031-.052.018-.079.025c-.047.013-.093.027-.14.042l-.139.046-.14.045c-.047.014-.094.027-.142.038a.943.943,0,0,1-.114.02.378.378,0,0,1-.1,0,.2.2,0,0,1-.082-.032.21.21,0,0,1-.063-.07.188.188,0,0,0-.035-.045.2.2,0,0,0-.046-.032.243.243,0,0,0-.054-.019.313.313,0,0,0-.059-.008.288.288,0,0,1-.084-.016.253.253,0,0,1-.065-.034.358.358,0,0,1-.052-.048c-.016-.017-.031-.036-.046-.055l-.038-.047L5.4,31.9l-.039-.047-.04-.046c-.018-.021-.036-.043-.053-.065s-.035-.044-.054-.065a.384.384,0,0,0-.063-.056.3.3,0,0,0-.083-.04.093.093,0,0,1-.031-.017.182.182,0,0,1-.025-.026l-.023-.03c-.007-.01-.015-.02-.023-.029l-.035-.041a.4.4,0,0,0-.038-.038.223.223,0,0,0-.045-.031.212.212,0,0,0-.058-.019.115.115,0,0,1-.03-.01.142.142,0,0,1-.027-.018A.123.123,0,0,1,4.71,31.3a.076.076,0,0,1-.012-.025.231.231,0,0,0-.038-.082.41.41,0,0,0-.06-.064l-.068-.058a.465.465,0,0,1-.062-.063l-.057-.072-.058-.07L4.3,30.795l-.057-.072a.237.237,0,0,0-.05-.046l-.057-.039a.223.223,0,0,1-.05-.048.159.159,0,0,1-.028-.072.153.153,0,0,0-.026-.063.422.422,0,0,0-.047-.056c-.017-.018-.036-.036-.053-.055a.3.3,0,0,1-.043-.06.548.548,0,0,1-.026-.06.6.6,0,0,1-.019-.064.6.6,0,0,1-.012-.067.574.574,0,0,1,0-.068c0-.032,0-.064,0-.1s.006-.064.01-.1.008-.065.013-.1.009-.065.012-.1.011-.087.017-.13.012-.087.017-.13.01-.086.013-.129,0-.085,0-.128a.974.974,0,0,1,.016-.186,1.067,1.067,0,0,1,.05-.181,1.239,1.239,0,0,1,.082-.174,1.481,1.481,0,0,1,.11-.167.851.851,0,0,1,.086-.1,1.211,1.211,0,0,1,.1-.09c.037-.028.075-.055.115-.08s.079-.048.118-.069.106-.053.161-.077.11-.046.165-.067l.167-.063c.056-.021.111-.043.166-.065a.808.808,0,0,1,.166-.049,1.186,1.186,0,0,1,.163-.017c.054,0,.108,0,.161,0s.108,0,.162,0c.029,0,.057,0,.085,0l.084,0,.084,0c.028,0,.056,0,.085,0a.4.4,0,0,1,.087,0,.466.466,0,0,1,.077.019c.025.008.048.018.071.028l.068.031a.244.244,0,0,1,.057.036.187.187,0,0,1,.041.05.173.173,0,0,1,.021.064.221.221,0,0,1,0,.077c0,.015-.006.03-.009.045l-.008.045-.008.045-.008.044a.23.23,0,0,0,.049.033.1.1,0,0,0,.047.01.092.092,0,0,0,.048-.019.226.226,0,0,0,.05-.053.612.612,0,0,1,.147.041.39.39,0,0,1,.112.072.357.357,0,0,1,.077.105.5.5,0,0,1,.043.141c.008.052.019.1.032.154s.027.1.042.153.031.1.047.154.032.1.047.158l.128-.043c.041-.014.082-.029.121-.045a.99.99,0,0,0,.113-.055.737.737,0,0,0,.106-.074l.036-.028.04-.026a.316.316,0,0,1,.041-.02A.169.169,0,0,1,8,28.867a.643.643,0,0,0,.132-.032.893.893,0,0,0,.121-.054c.039-.021.077-.044.116-.068l.115-.074a.885.885,0,0,1,.1-.051c.033-.015.068-.029.1-.042l.105-.036.105-.033.079-.024c.026-.008.051-.017.076-.027a.581.581,0,0,0,.073-.036.459.459,0,0,0,.069-.049c.017-.015.035-.029.053-.043a.54.54,0,0,1,.057-.037.391.391,0,0,1,.061-.028.328.328,0,0,1,.067-.016l.014,0,.014-.006.014-.008.012-.009a1.929,1.929,0,0,1,.232-.172c.081-.052.164-.1.248-.148s.167-.1.248-.148a1.974,1.974,0,0,0,.232-.171l.025-.019.026-.018.024-.018a.1.1,0,0,0,.019-.021.876.876,0,0,1,.127-.149,1.587,1.587,0,0,1,.151-.125c.053-.039.107-.076.161-.114s.107-.076.157-.118c.023-.019.048-.037.072-.055s.049-.035.073-.054a.479.479,0,0,0,.064-.061.3.3,0,0,0,.048-.076.081.081,0,0,1,.011-.017l.016-.017.019-.015.019-.012a.926.926,0,0,0,.157-.108,1.717,1.717,0,0,0,.135-.128l.127-.135A1.728,1.728,0,0,1,12,26.162a.55.55,0,0,0,.053-.051c.016-.018.032-.037.048-.056L12.149,26c.016-.019.032-.037.05-.054s.033-.03.051-.044l.052-.042a.455.455,0,0,0,.047-.046.269.269,0,0,0,.038-.056.124.124,0,0,1,.02-.027.291.291,0,0,1,.027-.026l.031-.025.03-.024c.027-.023.056-.044.085-.066l.087-.065c.028-.022.056-.044.081-.068a.516.516,0,0,0,.066-.075.429.429,0,0,1,.066-.07c.024-.021.05-.042.075-.063a.5.5,0,0,0,.068-.067.236.236,0,0,0,.044-.084.078.078,0,0,1,.015-.027.209.209,0,0,1,.027-.027l.033-.025L13.174,25a.911.911,0,0,0,.141-.106,1.252,1.252,0,0,0,.116-.123c.036-.043.069-.087.1-.132s.065-.09.1-.134c.022-.029.043-.057.064-.087l.062-.089.062-.091.064-.093a.339.339,0,0,1-.072-.05.227.227,0,0,1-.048-.062.191.191,0,0,1-.021-.072.232.232,0,0,1,.008-.081.571.571,0,0,0,.016-.081.564.564,0,0,0,0-.077.627.627,0,0,0-.006-.074c0-.024-.008-.048-.013-.072a.549.549,0,0,1-.011-.175.779.779,0,0,1,.038-.172,1.5,1.5,0,0,1,.07-.17c.027-.057.056-.113.086-.17a.476.476,0,0,1,.03-.05A.459.459,0,0,1,14,22.791a.477.477,0,0,1,.042-.042.534.534,0,0,1,.048-.038l.088-.062.088-.062.086-.064c.028-.022.056-.044.082-.068a1.23,1.23,0,0,1,.334-.21,1.407,1.407,0,0,1,.183-.063,1.8,1.8,0,0,1,.194-.041l.025-.083.025-.084c.008-.028.017-.056.024-.084s.015-.056.022-.085a1.785,1.785,0,0,1,.071-.215c.03-.078.067-.16.107-.241s.083-.159.127-.231a1.611,1.611,0,0,1,.131-.187l.02-.023.023-.022a.185.185,0,0,1,.024-.019.1.1,0,0,1,.025-.011.753.753,0,0,0,.125-.047c.041-.019.08-.041.12-.063s.079-.044.119-.063a.8.8,0,0,1,.123-.049.441.441,0,0,1,.048-.012l.049-.007.049,0h.048c.023,0,.045,0,.068,0s.045,0,.069,0a.3.3,0,0,0,.072-.008.275.275,0,0,0,.077-.032c0-.01,0-.02,0-.031s0-.021,0-.032a.245.245,0,0,0,0-.031.111.111,0,0,0,0-.029.379.379,0,0,1-.011-.1.624.624,0,0,1,.012-.1c.006-.034.015-.069.024-.1s.018-.069.026-.1a.631.631,0,0,1,.034-.108.579.579,0,0,1,.052-.1.624.624,0,0,1,.072-.089.774.774,0,0,1,.092-.081l.077-.06c.025-.02.049-.041.073-.063s.047-.044.07-.067.045-.048.066-.073a.733.733,0,0,1,.072-.074c.026-.024.054-.046.083-.068s.059-.042.09-.062l.092-.056a.276.276,0,0,1,.058-.024.507.507,0,0,1,.063-.014l.066-.009.065-.008.157-.025c.052-.008.1-.016.156-.022s.1-.011.156-.013a1.386,1.386,0,0,1,.155,0,.35.35,0,0,0,.079,0,.119.119,0,0,0,.054-.022.144.144,0,0,0,.039-.047.519.519,0,0,0,.033-.079l.011-.032.01-.033.01-.034.011-.035.063-.046.062-.046.062-.046.061-.046c.02-.015.039-.031.058-.047l.055-.05.053-.052.052-.053a2.353,2.353,0,0,1,.19-.175,1.568,1.568,0,0,1,.206-.144,1.189,1.189,0,0,1,.227-.1,1.074,1.074,0,0,1,.253-.05c.049,0,.1-.009.148-.015l.148-.021.149-.023.149-.022a.379.379,0,0,1,.1,0,.345.345,0,0,1,.086.023.437.437,0,0,1,.076.041.762.762,0,0,1,.069.052l.033.025.037.024.042.026.048.03a.45.45,0,0,1,.046-.084.752.752,0,0,1,.056-.071l.059-.065a.687.687,0,0,0,.054-.068.569.569,0,0,1,.068-.082.623.623,0,0,1,.187-.129.591.591,0,0,1,.113-.037l.142-.033.142-.035.142-.033c.047-.01.094-.019.141-.025a.653.653,0,0,1,.091-.006c.03,0,.06,0,.091,0l.09.007.09.006a.286.286,0,0,0,.045,0,.128.128,0,0,0,.038-.01.3.3,0,0,0,.044-.025l.065-.046c-.005-.036-.011-.071-.017-.107s-.012-.07-.017-.105-.01-.07-.014-.1-.006-.07-.007-.106a.44.44,0,0,0-.006-.064.341.341,0,0,0-.015-.058.316.316,0,0,0-.025-.053.357.357,0,0,0-.035-.049l-.076-.1-.075-.1-.075-.1-.076-.1a.71.71,0,0,1-.074-.111.693.693,0,0,1-.051-.121.754.754,0,0,1-.028-.131.9.9,0,0,1-.006-.141.019.019,0,0,1,0-.007l0-.007,0-.007a.007.007,0,0,0,0-.005,1.123,1.123,0,0,1-.046-.153,1.519,1.519,0,0,1-.027-.159c-.006-.054-.011-.108-.013-.163s0-.11,0-.166a.067.067,0,0,0-.005-.023.138.138,0,0,0-.011-.021l-.014-.021a.207.207,0,0,1-.013-.021c-.022-.045-.044-.091-.063-.138s-.037-.094-.052-.143a1.214,1.214,0,0,1-.036-.149,1.052,1.052,0,0,1-.015-.157.789.789,0,0,0-.012-.12c-.007-.039-.016-.077-.025-.114s-.02-.075-.03-.112-.019-.075-.026-.114a.084.084,0,0,0-.008-.023l-.013-.022a.146.146,0,0,1-.011-.022.055.055,0,0,1,0-.023c.005-.076.006-.151.006-.227s0-.15,0-.226a2.21,2.21,0,0,1,.013-.228,1.341,1.341,0,0,1,.047-.232c0-.011.008-.022.012-.034L22,12.889a.2.2,0,0,0,.01-.033.073.073,0,0,0,0-.03.34.34,0,0,1,0-.132.563.563,0,0,1,.041-.127c.018-.042.041-.083.063-.125s.046-.083.066-.124c.009-.018.017-.035.023-.052a.369.369,0,0,0,.016-.05.256.256,0,0,0,.007-.05.244.244,0,0,0,0-.053.314.314,0,0,1-.005-.05.354.354,0,0,1,0-.054.326.326,0,0,1,.011-.054.262.262,0,0,1,.021-.05c.034-.063.064-.127.094-.191s.057-.129.087-.193.06-.128.095-.191a1.605,1.605,0,0,1,.117-.184c.034-.045.066-.091.1-.137s.065-.092.1-.136a1.666,1.666,0,0,1,.11-.13,1.149,1.149,0,0,1,.131-.119.5.5,0,0,0,.059-.054c.018-.02.036-.041.053-.062l.051-.065c.017-.022.035-.043.054-.063l.067-.071.067-.07c.023-.023.046-.046.071-.067a.954.954,0,0,1,.078-.062.2.2,0,0,0,.038-.035.176.176,0,0,0,.025-.04.111.111,0,0,0,.01-.039.053.053,0,0,0-.007-.032.25.25,0,0,1-.036-.111.416.416,0,0,1,.008-.116c.008-.039.019-.079.029-.118a1.114,1.114,0,0,0,.027-.117.755.755,0,0,1,.017-.079c.007-.026.014-.053.02-.079a.37.37,0,0,0,.009-.078A.2.2,0,0,0,23.7,9.19a.054.054,0,0,1,0-.018.1.1,0,0,1,0-.021.122.122,0,0,1,.007-.021.1.1,0,0,1,.01-.019c.028-.042.053-.085.078-.128s.049-.087.077-.129a.846.846,0,0,1,.094-.122.642.642,0,0,1,.129-.106c.041-.026.081-.053.121-.08s.08-.055.12-.08a1.2,1.2,0,0,1,.125-.07.707.707,0,0,1,.134-.048c.064-.016.129-.033.194-.047a1.22,1.22,0,0,1,.191-.028.512.512,0,0,1,.176.017.343.343,0,0,1,.15.091.34.34,0,0,0,.059.048c.021.014.043.026.065.038s.044.024.064.037a.348.348,0,0,1,.058.045.086.086,0,0,0,.019.014l.023.011.025.009.025.009a.331.331,0,0,1,.071.036.268.268,0,0,1,.055.05.237.237,0,0,1,.037.061.244.244,0,0,1,.017.072.44.44,0,0,0,.019.1.27.27,0,0,0,.039.078.246.246,0,0,0,.063.059.354.354,0,0,0,.09.042.171.171,0,0,1,.059.03.113.113,0,0,1,.033.045.141.141,0,0,1,.009.059.268.268,0,0,1-.015.072c-.006.02-.012.039-.017.059s-.009.04-.013.061l-.012.064c0,.022-.009.044-.014.068l.087.021.085.021.084.02.083.019a.626.626,0,0,1,.1.037c.043.019.092.042.139.068a1.384,1.384,0,0,1,.131.079.3.3,0,0,1,.078.07.224.224,0,0,0,.061.062.514.514,0,0,0,.076.043c.026.013.053.025.079.039a.31.31,0,0,1,.07.049.027.027,0,0,0,.019.006.165.165,0,0,0,.03,0l.037-.007.039-.006c0-.01.007-.021.01-.031l.01-.032c0-.011.007-.021.011-.031a.2.2,0,0,1,.015-.03c.02-.032.038-.066.058-.1a.638.638,0,0,1,.064-.094.287.287,0,0,1,.087-.071.291.291,0,0,1,.127-.03c.057-.034.114-.066.172-.095s.117-.056.176-.081.119-.048.18-.07.121-.043.182-.063a.169.169,0,0,0,.033-.015l.032-.021.032-.023.033-.021.066-.036.068-.036.072-.038.079-.041.018-.116.019-.122.02-.126.02-.128.086-.071a.808.808,0,0,0,.078-.073.324.324,0,0,0,.056-.082.227.227,0,0,0,.021-.1.03.03,0,0,1,0-.012.079.079,0,0,1,.008-.013l.011-.013.011-.01a.613.613,0,0,0,.1-.076c.029-.028.056-.057.082-.088s.052-.061.078-.09a.892.892,0,0,1,.085-.084c.033-.028.066-.054.1-.08s.07-.049.106-.071a1.154,1.154,0,0,1,.114-.06,1.042,1.042,0,0,1,.123-.048l.188-.061c.063-.02.125-.04.188-.058s.126-.034.189-.048a1.7,1.7,0,0,1,.19-.03h.04l.04,0,.04,0,.04,0a.2.2,0,0,0,.072-.009.242.242,0,0,0,.067-.032.218.218,0,0,0,.052-.05.157.157,0,0,0,.028-.062c0-.024.008-.049.012-.073s.006-.048.009-.073.006-.048.01-.073.009-.048.015-.073a1.123,1.123,0,0,1,.044-.14.788.788,0,0,1,.066-.131A.673.673,0,0,1,31.3,6.62a.72.72,0,0,1,.131-.1l.051-.034.049-.037.049-.038.05-.037c.033-.023.065-.048.1-.073s.065-.049.1-.071a.565.565,0,0,1,.106-.055.373.373,0,0,1,.119-.025.767.767,0,0,1,.083-.056.841.841,0,0,1,.087-.044c.03-.013.06-.024.091-.034s.062-.018.093-.026a1.634,1.634,0,0,1,.18-.032,1.3,1.3,0,0,1,.174-.009,1.078,1.078,0,0,1,.168.016A.968.968,0,0,1,33.083,6l.03.011.031.01.032.01.033.011.065-.108.064-.107.063-.106.064-.1a.866.866,0,0,1,.1-.127.8.8,0,0,1,.115-.1.814.814,0,0,1,.133-.08.9.9,0,0,1,.15-.056l.12-.035c.04-.012.08-.023.12-.032a.7.7,0,0,1,.12-.017.426.426,0,0,1,.119.01.049.049,0,0,0,.018,0l.021,0,.022-.007.021-.006c.091-.021.168-.037.238-.047a.974.974,0,0,1,.189-.009.78.78,0,0,1,.173.03,1.488,1.488,0,0,1,.191.072.241.241,0,0,1,.032.017l.03.021.028.023.028.024a.378.378,0,0,0,.062.043.141.141,0,0,0,.057.018.124.124,0,0,0,.058-.011.28.28,0,0,0,.066-.043.654.654,0,0,1,.121-.078c.042-.022.086-.04.129-.059s.087-.037.129-.06a.627.627,0,0,0,.12-.081A.174.174,0,0,1,36.21,5a.329.329,0,0,1,.049-.018l.053-.012.051-.009.092-.013.092-.011.092-.009.092-.008h.018l.018.006.018.008.018.007c.049.016.1.032.146.05a1.438,1.438,0,0,1,.139.059.822.822,0,0,1,.126.076.6.6,0,0,1,.107.1.067.067,0,0,0,.018.014l.023.011.024.01a.109.109,0,0,1,.022.013.671.671,0,0,1,.06.052.466.466,0,0,1,.05.058.38.38,0,0,1,.065.145c.006.026.013.052.02.077a.635.635,0,0,1,.016.077.294.294,0,0,1,0,.081.284.284,0,0,1-.028.088.115.115,0,0,0-.01.03.219.219,0,0,0,0,.032c0,.011,0,.023,0,.034s0,.024,0,.036l.093-.017c.03-.006.059-.012.088-.021a.576.576,0,0,0,.083-.031.484.484,0,0,0,.08-.047.24.24,0,0,1,.037-.021L38,5.834l.043-.014.043-.014a.848.848,0,0,1,.1-.029c.033-.008.065-.013.1-.018l.1-.014.1-.015c.034-.006.067-.01.1-.014l.1-.008.1-.005.1-.007a.907.907,0,0,1,.185,0,.892.892,0,0,1,.165.034,1.125,1.125,0,0,1,.151.059c.049.023.1.048.143.075.014.008.028.017.042.028a.339.339,0,0,1,.04.033.178.178,0,0,1,.03.038A.088.088,0,0,1,39.634,6a.36.36,0,0,0,.009.071.369.369,0,0,0,.02.063.516.516,0,0,0,.029.058c.011.019.023.037.035.056a.16.16,0,0,1,.014.026.2.2,0,0,1,.01.029.249.249,0,0,1,.006.031.278.278,0,0,1,0,.031q0,.083,0,.166t0,.166q0,.083,0,.167t0,.167l.012.006.012.006.012,0a.017.017,0,0,0,.01,0A.889.889,0,0,1,39.977,7a1.165,1.165,0,0,1,.161-.018c.053,0,.106,0,.159,0l.158,0a.18.18,0,0,1,.038,0l.037.01.036.013.036.012.067.021.067.021.068.019c.023.006.046.011.07.015a.625.625,0,0,1,.091.021.437.437,0,0,1,.08.034.35.35,0,0,1,.124.114c.015.022.03.043.046.064l.049.062c.016.021.032.041.048.063s.03.043.044.066.026.045.037.068.023.046.034.07.021.048.03.072.018.049.027.073.011.035.015.052.008.036.011.055a.566.566,0,0,1,.006.056.5.5,0,0,1,0,.057.373.373,0,0,1-.009.057c0,.019-.009.039-.013.058a.283.283,0,0,0-.006.058.153.153,0,0,0,.011.058.048.048,0,0,1,0,.026.157.157,0,0,1-.01.033c0,.011-.01.023-.016.035l-.017.033L41.4,8.5l-.061.113-.062.114-.063.115.056.075c.051-.01.089-.018.122-.022a.428.428,0,0,1,.09,0,.634.634,0,0,1,.1.017c.041.009.091.023.157.041l.049.014.049.014.05.013.05.011a.581.581,0,0,1,.082.023.445.445,0,0,1,.072.033.388.388,0,0,1,.063.045.4.4,0,0,1,.054.059c.019.025.036.052.054.079a.812.812,0,0,0,.056.077.337.337,0,0,0,.071.064.282.282,0,0,0,.1.04.04.04,0,0,1,.015.007.069.069,0,0,1,.013.013.084.084,0,0,1,.01.017.068.068,0,0,1,.005.018.679.679,0,0,0,.032.118c.014.038.03.075.046.112s.032.073.045.111a.642.642,0,0,1,.031.116.909.909,0,0,1,.011.191.83.83,0,0,1-.032.19.871.871,0,0,1-.08.188,1.059,1.059,0,0,1-.134.184l-.016.016-.017.015-.017.015a.135.135,0,0,0-.015.017.139.139,0,0,0-.024.049.113.113,0,0,0,0,.049.1.1,0,0,0,.019.043.109.109,0,0,0,.038.031l.022.012.022.012.022.011.024.008a.21.21,0,0,0,.06,0l.063,0a.21.21,0,0,1,.06,0,.091.091,0,0,1,.048.029.621.621,0,0,0,.091.086c.033.026.068.051.1.077a.689.689,0,0,1,.093.084.335.335,0,0,1,.066.107c.012.031.026.061.041.091a.753.753,0,0,1,.039.093.3.3,0,0,1,.016.1.293.293,0,0,1-.028.115l0,.007,0,.007,0,.007a.011.011,0,0,0,0,.005.289.289,0,0,1,.014.122.46.46,0,0,1-.03.121,1.144,1.144,0,0,1-.056.119c-.021.04-.042.079-.062.118-.029.056-.056.113-.086.17s-.06.113-.1.167a1.281,1.281,0,0,1-.118.159,1.068,1.068,0,0,1-.155.145l.02.041.019.039.02.037a.383.383,0,0,0,.022.034l.107.145.108.144.109.143.109.143a.5.5,0,0,1,.067.116.41.41,0,0,1,.029.126.454.454,0,0,1-.012.136.66.66,0,0,1-.056.148c-.025.049-.051.1-.079.144a1.616,1.616,0,0,1-.092.136,1.325,1.325,0,0,1-.108.127,1.223,1.223,0,0,1-.129.116l-.031.022-.032.022a.325.325,0,0,0-.029.024.149.149,0,0,0-.023.026.787.787,0,0,1-.084.106.722.722,0,0,1-.1.086.782.782,0,0,1-.112.068.986.986,0,0,1-.127.053.257.257,0,0,0-.076.039.152.152,0,0,0-.045.054.14.14,0,0,0-.013.067.217.217,0,0,0,.019.077.26.26,0,0,1,.016.048.223.223,0,0,1,.005.048.246.246,0,0,1,0,.049.34.34,0,0,1-.015.051,1.361,1.361,0,0,0-.057.2c-.014.065-.024.129-.031.194s-.013.128-.018.193-.01.128-.018.192c-.009.082-.015.162-.018.242s0,.16,0,.239.005.158.01.236.011.157.017.235.014.164.022.247.015.164.021.247.013.165.018.247.009.166.011.249,0,.153.007.229.005.153.008.229,0,.153,0,.23,0,.154,0,.232a.482.482,0,0,1-.008.064c0,.022-.009.043-.014.065s-.01.043-.014.065a.48.48,0,0,0-.008.064c0,.036-.005.072-.008.108s-.005.072-.005.107a.5.5,0,0,0,.01.1.306.306,0,0,0,.037.1.628.628,0,0,0-.022.123.884.884,0,0,0,0,.119c0,.039.006.078.01.116s.008.077.011.116.005.078.008.117.007.078.011.118l.012.121c0,.041.008.082.012.125l.05,0h.048l.047,0a.305.305,0,0,0,.046-.008.657.657,0,0,1,.1-.018.486.486,0,0,1,.095,0,.376.376,0,0,1,.086.019.324.324,0,0,1,.076.039.693.693,0,0,0,.1.055c.035.016.071.032.1.049a.47.47,0,0,1,.094.061.256.256,0,0,1,.068.089.132.132,0,0,1,.068.042.215.215,0,0,1,.035.065c.009.024.016.048.025.071a.181.181,0,0,0,.039.062.026.026,0,0,1,.006.009.049.049,0,0,1,0,.012.068.068,0,0,1,0,.013.061.061,0,0,1,0,.012.37.37,0,0,0-.018.1.7.7,0,0,0,0,.094c0,.031.005.061.007.092a.464.464,0,0,1,0,.092c-.007.042-.011.084-.014.126s-.006.084-.01.126-.008.084-.015.127a.957.957,0,0,1-.029.13c-.01.033-.021.066-.033.1s-.025.063-.039.094-.029.062-.045.092-.033.061-.051.092a.92.92,0,0,1-.1.139.773.773,0,0,1-.12.111.752.752,0,0,1-.141.083.858.858,0,0,1-.164.054l-.055.014-.056.015-.056.016-.055.017a.437.437,0,0,0-.093.04.241.241,0,0,0-.064.053.155.155,0,0,0-.033.066.168.168,0,0,0,0,.078.861.861,0,0,1,.026.2,1.174,1.174,0,0,1-.015.2,1.934,1.934,0,0,1-.045.206c-.019.069-.041.139-.064.209-.032.029-.065.057-.1.085l-.1.084c-.034.028-.067.057-.1.088a1.123,1.123,0,0,0-.093.1.7.7,0,0,1-.081.082c-.03.026-.062.05-.1.074s-.068.046-.1.068l-.1.065a.531.531,0,0,1-.093.048.554.554,0,0,1-.1.028.64.64,0,0,1-.1.012.8.8,0,0,1-.1,0q-.074-.006-.149-.006t-.151.005q-.076.006-.153.017t-.155.028a.455.455,0,0,0-.051.014.307.307,0,0,0-.045.019.269.269,0,0,0-.041.027.309.309,0,0,0-.038.036c-.011.012-.023.023-.035.035l-.038.034c-.012.011-.024.023-.035.034a.264.264,0,0,0-.029.037.143.143,0,0,0-.017.036.4.4,0,0,0-.01.039c0,.013-.005.027-.009.04a.16.16,0,0,1-.015.037.471.471,0,0,1-.032.046l-.037.045-.037.044c-.012.015-.024.03-.034.046a1.781,1.781,0,0,1-.143.183,1.564,1.564,0,0,1-.352.294,1.75,1.75,0,0,1-.216.112c-.091.04-.171.072-.246.1a1.193,1.193,0,0,1-.212.052.947.947,0,0,1-.209.006,1.52,1.52,0,0,1-.238-.04l-.045-.009-.046-.006-.047,0-.047,0a.194.194,0,0,0-.051,0,.118.118,0,0,0-.041.017.116.116,0,0,0-.032.033.189.189,0,0,0-.023.051.12.12,0,0,1-.013.028.22.22,0,0,1-.021.028.305.305,0,0,1-.027.026l-.028.022c-.036.025-.071.053-.106.081s-.069.056-.105.082a.582.582,0,0,1-.114.064.374.374,0,0,1-.131.029.571.571,0,0,1-.111.073c-.039.02-.08.037-.121.055a1.3,1.3,0,0,0-.12.057.519.519,0,0,0-.109.08.365.365,0,0,1-.052.042.371.371,0,0,1-.058.031.405.405,0,0,1-.062.021.467.467,0,0,1-.066.012l-.049.008-.049.012-.049.016-.048.018a.778.778,0,0,1-.172.047,1.021,1.021,0,0,1-.165.012c-.054,0-.108,0-.162-.007s-.107-.008-.161-.009a.354.354,0,0,1-.068-.009.309.309,0,0,1-.065-.022A.254.254,0,0,1,35.335,27a.219.219,0,0,1-.044-.052.631.631,0,0,0-.048-.066c-.017-.021-.035-.042-.051-.064a.377.377,0,0,1-.042-.07.256.256,0,0,1-.022-.084.113.113,0,0,0-.012-.042.248.248,0,0,0-.026-.04l-.032-.04a.541.541,0,0,1-.033-.044,1.2,1.2,0,0,1-.135.084c-.045.025-.091.047-.136.069s-.09.043-.133.067a1.036,1.036,0,0,0-.126.079l-.024.018-.026.018-.026.015a.129.129,0,0,1-.026.01c-.056.013-.111.029-.167.044s-.111.032-.167.047a1.706,1.706,0,0,1-.167.036.934.934,0,0,1-.168.012l-.1-.005c-.031,0-.062-.006-.091-.011a.813.813,0,0,1-.087-.02.652.652,0,0,1-.083-.03l-.016-.01-.015-.011-.015-.01a.047.047,0,0,0-.017-.005.7.7,0,0,1-.272-.083.777.777,0,0,1-.2-.158,2.01,2.01,0,0,1-.154-.2c-.049-.069-.1-.138-.15-.2a.114.114,0,0,1-.022-.054c0-.02-.005-.042-.009-.063a.124.124,0,0,0-.019-.054.076.076,0,0,0-.054-.029.209.209,0,0,0-.058,0c-.02,0-.042.008-.063.013s-.042.01-.063.013a.224.224,0,0,1-.059,0,1.02,1.02,0,0,0-.144-.006,1.344,1.344,0,0,0-.145.012c-.049.007-.1.015-.146.026s-.1.022-.148.035a.57.57,0,0,1-.089.015.529.529,0,0,1-.087,0,.515.515,0,0,1-.085-.014.529.529,0,0,1-.082-.028c-.044-.019-.087-.039-.128-.06a1.325,1.325,0,0,1-.119-.068.95.95,0,0,1-.108-.081.81.81,0,0,1-.1-.1,1.68,1.68,0,0,1-.113-.153,1.256,1.256,0,0,1-.09-.163,1.058,1.058,0,0,1-.094-.371.239.239,0,0,0,0-.03c0-.01,0-.019-.007-.029l-.01-.028-.011-.028A.023.023,0,0,0,30.473,25l-.01-.007-.011-.006-.011-.006a1.378,1.378,0,0,1-.227.03,2.6,2.6,0,0,1-.268,0,2.446,2.446,0,0,1-.262-.026,1.111,1.111,0,0,1-.208-.05c-.026-.01-.053-.021-.079-.033a.681.681,0,0,1-.076-.04.421.421,0,0,1-.068-.051.312.312,0,0,1-.054-.066c-.01-.017-.021-.034-.033-.05l-.036-.048-.038-.046-.039-.046a.329.329,0,0,1-.029-.039A.231.231,0,0,1,29,24.477a.2.2,0,0,1-.011-.046.211.211,0,0,1,0-.052A.949.949,0,0,0,29,24.236c0-.047,0-.094-.007-.142a1.3,1.3,0,0,1,0-.143.68.68,0,0,1,.024-.148.132.132,0,0,0,.005-.058A.074.074,0,0,0,29,23.7a.114.114,0,0,0-.046-.026.28.28,0,0,0-.069-.011c-.031,0-.064,0-.1,0s-.065,0-.1,0a.4.4,0,0,1-.091-.012.218.218,0,0,1-.08-.04.68.68,0,0,1-.178-.035.627.627,0,0,1-.146-.073.778.778,0,0,1-.121-.1,1.246,1.246,0,0,1-.1-.123l-.065-.085c-.022-.028-.043-.056-.063-.086a.7.7,0,0,1-.053-.093.5.5,0,0,1-.036-.1.2.2,0,0,0-.021-.054.332.332,0,0,0-.034-.049c-.013-.016-.027-.031-.042-.046l-.044-.043a.236.236,0,0,1-.041-.054.28.28,0,0,1-.024-.06.448.448,0,0,1-.013-.065c0-.022,0-.045-.006-.068a.322.322,0,0,1,0-.037c0-.013,0-.025,0-.038s0-.025,0-.038a.2.2,0,0,0,0-.036.231.231,0,0,1,0-.06.176.176,0,0,1,.013-.056.185.185,0,0,1,.032-.051.264.264,0,0,1,.053-.046.336.336,0,0,0,.06-.05A.325.325,0,0,0,27.728,22a.451.451,0,0,0,.031-.064c.009-.022.017-.046.024-.07q-.095-.034-.192-.065t-.2-.057q-.1-.027-.205-.051t-.213-.046c-.007.019-.017.038-.026.056s-.019.037-.027.055a.3.3,0,0,0-.02.05.087.087,0,0,0,0,.043.386.386,0,0,1,.011.1.539.539,0,0,1-.013.1.992.992,0,0,1-.029.1c-.012.034-.024.068-.037.1a1.252,1.252,0,0,0-.041.135c-.011.045-.02.09-.029.134s-.017.089-.026.133-.019.087-.032.13a1.076,1.076,0,0,1-.117.107,1.006,1.006,0,0,1-.125.084,1.067,1.067,0,0,1-.133.064,1.278,1.278,0,0,1-.143.047c-.04.011-.079.022-.119.035l-.119.041-.121.044-.124.044a.278.278,0,0,0-.028.048.166.166,0,0,0-.014.048.107.107,0,0,0,0,.046.106.106,0,0,0,.025.042.217.217,0,0,1,.042.062.275.275,0,0,1,.02.07.447.447,0,0,1,0,.074c0,.025,0,.049,0,.073a.809.809,0,0,0,0,.1c0,.034,0,.067,0,.1a.523.523,0,0,1-.008.1.37.37,0,0,1-.037.1l-.006.013,0,.014a.071.071,0,0,0,0,.013.033.033,0,0,0,0,.011.394.394,0,0,1,.009.186.524.524,0,0,1-.067.169,1.168,1.168,0,0,1-.117.158c-.044.052-.092.1-.139.154a.487.487,0,0,0-.032.04l-.03.041c-.01.014-.02.027-.031.04a.3.3,0,0,1-.035.036l-.078.069c-.026.023-.053.046-.081.066a.6.6,0,0,1-.089.055.426.426,0,0,1-.1.036.3.3,0,0,0-.057.019.313.313,0,0,0-.052.03.383.383,0,0,0-.047.04.526.526,0,0,0-.043.049c0,.034,0,.069,0,.1s0,.071,0,.106,0,.071,0,.1a.634.634,0,0,0,.017.1.4.4,0,0,1,.014.11.5.5,0,0,1-.014.109.72.72,0,0,1-.034.106c-.014.035-.031.069-.048.1-.031.058-.063.115-.1.171a1.8,1.8,0,0,1-.116.163,1.465,1.465,0,0,1-.139.151,1.333,1.333,0,0,1-.167.133l-.068.048-.068.05-.069.053-.073.055.045.1c.014.032.028.064.038.1a.544.544,0,0,1,.024.1.437.437,0,0,1,0,.107.082.082,0,0,0,0,.033.146.146,0,0,0,.015.033.278.278,0,0,0,.022.031l.024.027a.3.3,0,0,1,.068.1.253.253,0,0,1,.014.112.4.4,0,0,1-.032.121.863.863,0,0,1-.071.131c-.03.046-.061.091-.093.136s-.065.088-.1.132l-.1.13-.1.13a.485.485,0,0,1-.039.045.524.524,0,0,1-.047.042.385.385,0,0,1-.051.035.208.208,0,0,1-.05.021.485.485,0,0,0-.109.041.741.741,0,0,0-.1.06c-.031.022-.06.046-.091.071s-.062.049-.1.072c.005.011.01.022.014.034l.013.033c0,.011.009.021.014.032a.192.192,0,0,0,.018.029l.069.09.068.087.066.083.062.077c0,.05,0,.1,0,.146s0,.094,0,.139,0,.09,0,.134,0,.088,0,.131c0,.027,0,.054,0,.081a.523.523,0,0,1,0,.08.321.321,0,0,1-.022.08.343.343,0,0,1-.051.082.156.156,0,0,0-.021.034.291.291,0,0,0-.014.038c0,.013-.007.026-.011.039s-.007.025-.012.037c-.054.046-.109.092-.164.135s-.112.085-.17.124a1.848,1.848,0,0,1-.181.107,1.49,1.49,0,0,1-.2.084.273.273,0,0,0,.021.085.323.323,0,0,0,.04.068.714.714,0,0,0,.05.058c.017.019.035.037.051.055a.633.633,0,0,1,.065.093.725.725,0,0,1,.048.1.946.946,0,0,1,.034.107c.009.037.017.074.024.112a.138.138,0,0,0,.007.024l.009.024a.1.1,0,0,1,.006.024.043.043,0,0,1,0,.022.3.3,0,0,0-.024.11.537.537,0,0,0,.008.1c.005.034.012.068.015.1a.348.348,0,0,1,0,.105c-.006.028-.013.056-.02.084s-.014.056-.022.084l-.022.084c-.007.028-.014.056-.021.084a.271.271,0,0,1-.018.053.274.274,0,0,1-.028.047.333.333,0,0,1-.038.043.463.463,0,0,1-.047.039l-.1.076-.1.077-.1.076-.1.075-.038.025-.04.022-.041.018-.041.013a.41.41,0,0,0-.106.04.29.29,0,0,0-.076.06.3.3,0,0,0-.05.078.434.434,0,0,0-.029.094c0,.011-.005.022-.008.033l-.01.033a.27.27,0,0,0-.007.032.108.108,0,0,0,0,.03.144.144,0,0,0,.008.032.3.3,0,0,0,.014.032l.018.035c.006.012.013.025.02.04.018-.013.037-.024.055-.035l.052-.031a.356.356,0,0,0,.043-.03.112.112,0,0,0,.028-.033.221.221,0,0,1,.045-.059.216.216,0,0,1,.054-.036.328.328,0,0,1,.058-.021l.059-.013.147-.027.147-.024c.049-.007.1-.014.146-.019s.1-.008.144-.01a.54.54,0,0,1,.092,0A.87.87,0,0,1,23,33.2l.088.023.087.023.075.02.073.022.073.022.074.021.031.006.033,0h.034l.034,0a1.065,1.065,0,0,1,.112-.134,1,1,0,0,1,.127-.108,1.083,1.083,0,0,1,.143-.086,1.359,1.359,0,0,1,.16-.068l.172-.062c.057-.021.114-.041.172-.061s.115-.037.173-.052a1.644,1.644,0,0,1,.176-.036,1,1,0,0,1,.1-.01.446.446,0,0,1,.091,0,.258.258,0,0,1,.08.026.226.226,0,0,1,.068.056.141.141,0,0,0,.02.02.165.165,0,0,0,.026.017.147.147,0,0,0,.029.012.11.11,0,0,0,.03,0,.83.83,0,0,1,.135.009.725.725,0,0,1,.24.08.828.828,0,0,1,.107.07l.325-.24.3-.221h.432l.144,0a.1.1,0,0,1,.025,0l.024.008.023.01.023.009.089.031.089.031.089.031.089.031c.028.01.056.02.083.031a.581.581,0,0,1,.076.039.371.371,0,0,1,.065.05.3.3,0,0,1,.052.067.411.411,0,0,0,.029.044l.033.041.034.041c.011.014.022.028.032.043l.015.024a.258.258,0,0,1,.013.026.19.19,0,0,1,.009.028.145.145,0,0,1,0,.029c0,.047,0,.095,0,.142a.951.951,0,0,1-.015.143.7.7,0,0,1-.123.287c-.014.019-.027.039-.039.059s-.024.04-.035.061l-.033.062L27.581,34a.832.832,0,0,1-.1.138.746.746,0,0,1-.12.109.791.791,0,0,1-.142.082.977.977,0,0,1-.165.056c-.054.014-.108.025-.162.034s-.107.017-.16.023-.106.011-.159.015l-.158.01c-.035,0-.069,0-.1.008a.372.372,0,0,0-.09.021.229.229,0,0,0-.077.049.308.308,0,0,0-.063.092.154.154,0,0,1-.026.04.192.192,0,0,1-.038.032.249.249,0,0,1-.047.024.314.314,0,0,1-.054.015.31.31,0,0,0-.077.025.331.331,0,0,0-.065.041.48.48,0,0,0-.057.054c-.018.02-.035.042-.053.065l-.059.079c-.02.026-.04.053-.062.079s-.044.051-.067.076a.892.892,0,0,1-.077.07.236.236,0,0,0-.034.034.445.445,0,0,0-.029.04l-.027.043c-.009.014-.018.029-.028.043a1.184,1.184,0,0,1-.116.039,1.114,1.114,0,0,1-.117.026,1.074,1.074,0,0,1-.234.013l-.06-.005-.057-.008-.056-.012-.055-.017c-.041-.015-.083-.028-.126-.041l-.129-.036-.131-.034-.131-.034a.261.261,0,0,0-.055.025.232.232,0,0,0-.044.034.27.27,0,0,0-.035.043.394.394,0,0,0-.028.051c-.01.023-.022.045-.034.068l-.037.067-.037.067c-.012.022-.023.045-.033.067a.493.493,0,0,1-.065.109.6.6,0,0,1-.087.09.8.8,0,0,1-.1.072,1.1,1.1,0,0,1-.11.057c-.046.021-.093.04-.141.058s-.1.033-.145.048l-.146.042-.146.04a.277.277,0,0,1-.061.01.3.3,0,0,1-.059,0,.4.4,0,0,1-.058-.013c-.019-.006-.038-.013-.056-.021a.683.683,0,0,0-.07-.025l-.074-.019-.076-.017-.077-.018-.043.031-.04.028-.037.028a.39.39,0,0,0-.033.029.334.334,0,0,0-.032.039l-.029.041c-.009.014-.019.027-.029.039a.207.207,0,0,1-.035.033.185.185,0,0,1-.044.023l-.049.016c-.017,0-.033.01-.049.016a.173.173,0,0,0-.043.023.691.691,0,0,1-.09.058.812.812,0,0,1-.092.043c-.031.012-.063.023-.1.033l-.1.028a1.237,1.237,0,0,1-.14.028c-.046.007-.092.011-.138.016l-.138.013c-.046,0-.092.011-.139.02a.454.454,0,0,1-.081.008.527.527,0,0,1-.08-.006.632.632,0,0,1-.078-.017.759.759,0,0,1-.075-.025.509.509,0,0,0-.054-.017l-.057-.013-.06-.012-.062-.013c-.006.016-.012.032-.018.047l-.017.043c-.005.014-.01.027-.014.04a.247.247,0,0,0-.009.038.518.518,0,0,1-.031.116.834.834,0,0,1-.053.111c-.02.036-.043.072-.066.107l-.07.106a.758.758,0,0,1-.128.122c-.064.052-.143.112-.225.171s-.165.115-.235.16a1.053,1.053,0,0,1-.159.088l-.063.021c-.021.006-.041.012-.062.016a.476.476,0,0,1-.062.008.391.391,0,0,1-.063,0l-.068,0h-.069l-.07,0-.07.006a.182.182,0,0,0-.038.009l-.041.016-.044.021-.048.022a.309.309,0,0,1,.04.17.372.372,0,0,1-.049.155.944.944,0,0,1-.1.146c-.04.048-.082.095-.122.142l-.033.037-.033.037L18.3,38.6l-.032.038a.937.937,0,0,1-.077.087.73.73,0,0,1-.088.075.613.613,0,0,1-.1.06.577.577,0,0,1-.117.039l-.168.04-.168.042-.168.041c-.056.013-.112.025-.168.036a.5.5,0,0,1-.112.009.524.524,0,0,1-.1-.014.67.67,0,0,1-.1-.031c-.031-.013-.062-.027-.091-.043l-.016-.009-.015-.009-.014-.009-.014-.009-.134.046c-.044.015-.088.031-.131.049a.876.876,0,0,0-.125.064.649.649,0,0,0-.116.092,1.294,1.294,0,0,0-.166,0c-.055,0-.111.009-.167.017s-.111.019-.167.031-.112.026-.168.04-.1.023-.149.031a1.315,1.315,0,0,1-.146.015,1.054,1.054,0,0,1-.143,0A.9.9,0,0,1,15,39.3a.287.287,0,0,0-.039-.007l-.04,0-.04,0a.269.269,0,0,1-.038-.007,1.03,1.03,0,0,1-.1-.034.463.463,0,0,1-.091-.047.275.275,0,0,1-.07-.068.257.257,0,0,1-.041-.1c0-.01,0-.019-.008-.029s-.006-.019-.009-.028-.007-.018-.011-.027-.009-.017-.014-.026-.013-.019-.02-.029l-.023-.029-.026-.03L14.4,38.8l-.044.025-.041.023-.038.023-.034.025a.459.459,0,0,1-.115.068.539.539,0,0,1-.061.021c-.021.006-.042.01-.064.014-.06.011-.119.018-.177.023a1.55,1.55,0,0,1-.172.005,1.25,1.25,0,0,1-.166-.015,1.075,1.075,0,0,1-.16-.038l-.025-.007c-.056-.017-.111-.036-.163-.057a1.014,1.014,0,0,1-.148-.074.672.672,0,0,1-.125-.1.559.559,0,0,1-.1-.13.041.041,0,0,0-.01-.013l-.015-.01-.018-.01-.019-.011a.559.559,0,0,0-.146.075.665.665,0,0,0-.112.1,1.207,1.207,0,0,0-.09.118c-.028.04-.054.081-.08.121s-.072.1-.111.148-.08.1-.12.142-.081.094-.12.142-.076.1-.109.147l0,.006-.006.005-.006,0-.006.005a.893.893,0,0,1-.143.115.261.261,0,0,1-.119.043.182.182,0,0,1-.108-.028.469.469,0,0,1-.11-.1c-.026-.03-.05-.061-.074-.091s-.049-.061-.075-.091a.708.708,0,0,0-.086-.082.509.509,0,0,0-.107-.065.088.088,0,0,1-.033-.027.206.206,0,0,1-.024-.04c-.007-.015-.013-.031-.02-.046a.382.382,0,0,0-.021-.044.27.27,0,0,1-.015-.033c0-.012-.009-.024-.015-.035a.137.137,0,0,0-.018-.03.05.05,0,0,0-.025-.017.294.294,0,0,1-.082-.039.359.359,0,0,1-.062-.055c-.019-.02-.035-.042-.052-.064s-.033-.044-.05-.065l-.264-.317-.263-.318q-.131-.159-.261-.32T9.514,37.5a.717.717,0,0,0-.1-.1,1.252,1.252,0,0,0-.11-.084c-.038-.026-.077-.051-.116-.077s-.077-.051-.114-.079a.239.239,0,0,0-.03-.019l-.033-.017-.032-.018a.156.156,0,0,1-.028-.022c-.017-.017-.033-.034-.049-.052s-.032-.035-.049-.051a.365.365,0,0,0-.056-.045.287.287,0,0,0-.071-.032.093.093,0,0,1-.031-.016.166.166,0,0,1-.026-.026c-.008-.01-.015-.02-.023-.03l-.022-.03a.907.907,0,0,0-.1-.111,1.3,1.3,0,0,0-.114-.1c-.04-.03-.081-.059-.124-.087l-.128-.083a.516.516,0,0,1-.063-.047.5.5,0,0,1-.055-.057A.42.42,0,0,1,8,36.263a.324.324,0,0,1-.029-.069,1.057,1.057,0,0,0-.042-.119c-.016-.039-.034-.076-.054-.112s-.04-.072-.062-.107-.044-.069-.066-.1-.044-.067-.064-.1-.04-.069-.058-.1-.035-.071-.05-.107-.029-.073-.04-.11A.735.735,0,0,0,7.5,35.24a.87.87,0,0,0-.044-.083c-.016-.027-.033-.052-.051-.078s-.037-.05-.056-.076l-.026-.033L7.3,34.938,7.272,34.9c-.008-.011-.017-.022-.024-.034l-.015-.026a.237.237,0,0,1-.013-.028.131.131,0,0,1-.007-.029.079.079,0,0,1,0-.028.527.527,0,0,0,.015-.13.652.652,0,0,0-.013-.121c-.008-.039-.018-.078-.03-.116s-.023-.076-.034-.115c0-.017-.01-.034-.016-.051l-.016-.051c-.005-.017-.01-.034-.015-.052S7.1,34.088,7.1,34.07a.291.291,0,0,1,0-.036.3.3,0,0,1,0-.038.279.279,0,0,1,.006-.038.243.243,0,0,1,.011-.037c.024-.059.045-.118.066-.178s.042-.119.066-.178.049-.118.078-.176a1.352,1.352,0,0,1,.1-.172.538.538,0,0,0,.033-.053c.01-.018.019-.037.027-.056s.016-.038.023-.058l.021-.057a.419.419,0,0,1,.074-.129.6.6,0,0,1,.106-.1c.039-.029.081-.055.124-.081s.086-.05.128-.077a.441.441,0,0,0,.121-.025.858.858,0,0,0,.113-.051l.111-.06a1.042,1.042,0,0,1,.113-.054c.032-.013.063-.024.093-.032a.491.491,0,0,1,.088-.018.31.31,0,0,1,.084,0,.277.277,0,0,1,.082.028.3.3,0,0,0,.053.021l.058.016a.488.488,0,0,1,.055.018.166.166,0,0,1,.046.027.879.879,0,0,0,.094.068c.033.021.066.042.1.064a.611.611,0,0,1,.089.072.327.327,0,0,1,.066.093c.009.02.018.04.026.06l.025.06c.008.02.017.04.026.06s.018.039.028.058l.028.051.027.051c.009.017.017.035.025.053s.015.037.022.056l.039.117c.013.039.027.078.043.116a.919.919,0,0,0,.055.111.656.656,0,0,0,.074.1q.1.113.2.229t.191.233l.189.234.189.234.03.038a.192.192,0,0,0,.034.033.111.111,0,0,0,.045.02.157.157,0,0,0,.063,0M29.568,21.687l.107-.105.1-.1.1-.1.1-.1.052-.054.051-.055.05-.055.05-.056.1-.117.1-.117.1-.117.1-.117.08-.089.08-.089.08-.089.08-.089.292-.32.292-.32.293-.32.293-.32.062-.066.064-.064.066-.063.068-.061c.132-.115.258-.234.381-.356s.24-.248.356-.375.231-.255.345-.383.23-.256.347-.382a.049.049,0,0,0,.009-.017.113.113,0,0,0,0-.022.083.083,0,0,0,0-.02c0-.005,0-.009,0-.01l-.023-.007-.026,0a.112.112,0,0,0-.026,0,.05.05,0,0,0-.021.007l-.056.039-.055.041-.053.043q-.026.022-.049.046c-.1.1-.2.2-.309.3l-.314.295c-.1.1-.208.2-.31.3s-.2.2-.3.309l-.026.027-.027.027-.027.026-.028.026q-.216.2-.422.4t-.406.413q-.2.209-.4.42l-.39.424-.233.253-.232.253-.231.254-.229.255a.7.7,0,0,1-.073.073.355.355,0,0,1-.076.05.247.247,0,0,1-.083.023.281.281,0,0,1-.094-.008l-.039-.007-.041,0h-.084a1.857,1.857,0,0,0-.205.01,1.73,1.73,0,0,0-.2.034,1.693,1.693,0,0,0-.2.06,1.749,1.749,0,0,0-.2.088l-.032.018-.032.021-.03.023-.028.025a.124.124,0,0,0-.033.049.09.09,0,0,0,0,.049.078.078,0,0,0,.023.04.091.091,0,0,0,.047.022.275.275,0,0,0,.049,0,.222.222,0,0,0,.048-.005.214.214,0,0,0,.047-.017.251.251,0,0,0,.046-.03.576.576,0,0,1,.064-.044.525.525,0,0,1,.067-.034A.489.489,0,0,1,28.6,21.7a.468.468,0,0,1,.071-.012l.113-.009.112-.008.112-.005.111,0,.116,0,.113.007.111.008.107.007" transform="translate(23.467 24.502)" fill="#161615"/>
      <path id="Path_113" data-name="Path 113" d="M15.173,20.469l.022.015.022.014.02.015a.113.113,0,0,1,.017.017l.3.377.3.377.3.376.3.376a.953.953,0,0,1-.05.132,1.28,1.28,0,0,1-.066.123c-.024.04-.05.079-.076.117s-.054.076-.082.113-.059.08-.09.119l-.094.117-.095.116-.094.117a1.7,1.7,0,0,1-.178.19,2.379,2.379,0,0,1-.2.165c-.07.052-.142.1-.215.148s-.148.093-.222.139q-.212.132-.429.256t-.436.242q-.219.118-.441.233l-.444.228a3.316,3.316,0,0,1-.346.153,3,3,0,0,1-.349.107,2.829,2.829,0,0,1-.708.078l-.156,0-.156,0-.155-.006-.155-.008-.239-.014-.242-.015-.247-.016-.256-.017-.052-.066-.057-.071-.06-.075L10,24.556c-.073-.085-.142-.172-.21-.259s-.136-.176-.2-.263-.139-.174-.213-.257a3.154,3.154,0,0,0-.236-.241l-.013-.013-.012-.014L9.1,23.494l-.009-.016a1.384,1.384,0,0,0-.118-.182c-.043-.057-.09-.112-.139-.166s-.1-.106-.149-.159-.1-.106-.147-.16-.08-.094-.12-.142L8.3,22.525l-.116-.145-.116-.145-.156-.193-.157-.195-.159-.2-.161-.2c.009-.05.016-.1.023-.151s.014-.1.024-.154a1.415,1.415,0,0,1,.037-.157,1.016,1.016,0,0,1,.062-.159.736.736,0,0,0,.038-.09.67.67,0,0,0,.024-.092.609.609,0,0,0,.01-.093.56.56,0,0,0,0-.092c0-.008,0-.017,0-.026a.226.226,0,0,1,0-.027.128.128,0,0,1,0-.026.076.076,0,0,1,.01-.023,1.116,1.116,0,0,0,.084-.157c.024-.054.045-.108.067-.162s.044-.108.071-.161a.912.912,0,0,1,.1-.154L8,19.7l.026-.029a.268.268,0,0,0,.022-.029.109.109,0,0,0,.014-.03,1.321,1.321,0,0,1,.087-.22,2.38,2.38,0,0,1,.118-.209c.043-.069.088-.136.133-.2s.09-.136.132-.2l.077-.125.078-.124.078-.122.076-.12a.074.074,0,0,0-.027-.024.041.041,0,0,0-.026,0,.077.077,0,0,0-.025.011l-.024.017-.444.337-.444.337-.443.338-.443.338-.123.095-.122.1-.121.1-.122.095-.03.021-.033.02-.034.019-.036.021c-.049-.046-.1-.09-.146-.135s-.1-.088-.142-.134a1.722,1.722,0,0,1-.129-.142,1.114,1.114,0,0,1-.108-.161,1.26,1.26,0,0,0-.084-.131c-.031-.042-.063-.083-.1-.123s-.068-.08-.1-.119-.069-.079-.1-.119l-.4-.488-.4-.488-.405-.489-.406-.49-.04-.049-.04-.05L3.7,16.924l-.043-.053.045-.044.041-.042.039-.038a.469.469,0,0,1,.041-.033l.283-.2.283-.2.285-.2.286-.2.033.016.029.013.025.013a.077.077,0,0,1,.018.015l.129.155.128.155.128.156.127.156.043.053.043.054.043.054.043.054.073.094.073.094.073.094.074.093.036.042.039.041.041.043.044.046.053-.035.048-.032.045-.031.043-.031.2-.146.2-.146.2-.147.2-.147.993-.734.993-.734.993-.734.994-.734.22-.16.221-.158.221-.158.221-.159.063-.045a.617.617,0,0,0,.06-.05.332.332,0,0,0,.051-.061.282.282,0,0,0,.035-.079,1.108,1.108,0,0,0-.07-.124.7.7,0,0,0-.089-.11.575.575,0,0,0-.116-.09.625.625,0,0,0-.151-.063c-.1-.027-.2-.051-.3-.069a2.556,2.556,0,0,0-.3-.039,2.143,2.143,0,0,0-.313,0,2.072,2.072,0,0,0-.326.053l-.066.016-.066.015-.066.013-.066.011a.822.822,0,0,0-.1.021,1.018,1.018,0,0,0-.1.033c-.033.013-.066.027-.1.043s-.065.032-.1.05l-.171.092-.172.09-.172.089-.173.087q-.139.069-.276.141t-.272.148q-.135.076-.267.159t-.26.173l-.052.034-.053.032-.054.031-.054.032-.179.109-.179.109-.179.109-.179.109-.032.022-.031.024-.032.023a.226.226,0,0,1-.033.018c-.085.037-.169.077-.252.119s-.165.086-.246.131l-.243.136-.244.136a3.539,3.539,0,0,1-.4.189,3.728,3.728,0,0,1-.411.134,4.229,4.229,0,0,1-.417.087c-.14.022-.28.038-.422.048q-.143.011-.285.018l-.285.014-.285.011-.285.011a1.275,1.275,0,0,1-.189-.006,1.369,1.369,0,0,1-.178-.031,1.643,1.643,0,0,1-.169-.051c-.055-.02-.109-.042-.162-.066l-.115-.053L2.4,14.992l-.11-.059q-.055-.03-.107-.062a.841.841,0,0,1-.12-.089,1.008,1.008,0,0,1-.1-.1,1.4,1.4,0,0,1-.088-.116c-.027-.04-.053-.081-.078-.123a1.57,1.57,0,0,1-.086-.169,1.811,1.811,0,0,1-.066-.178c-.019-.061-.036-.122-.05-.185s-.026-.127-.035-.191-.019-.129-.029-.193-.018-.129-.027-.194-.017-.129-.024-.194-.015-.13-.021-.2c0-.05-.007-.1-.007-.152s0-.1.006-.154.01-.1.017-.156.016-.1.026-.157a2.5,2.5,0,0,1,.073-.285c.03-.094.064-.188.1-.281s.075-.186.114-.279.078-.186.114-.279l.014-.034c.005-.011.011-.023.017-.034s.013-.022.02-.032a.3.3,0,0,1,.023-.029c.065-.072.128-.146.192-.22s.129-.147.2-.217.137-.139.211-.2a2.028,2.028,0,0,1,.236-.178l.222-.142c.075-.047.15-.093.228-.135A2.3,2.3,0,0,1,3.5,9.859a1.58,1.58,0,0,1,.252-.079l.089-.019a.425.425,0,0,1,.065-.008.516.516,0,0,1,.073,0l.113.014a.068.068,0,0,1,0,.037.065.065,0,0,1-.017.028.139.139,0,0,1-.029.022l-.034.018L3.9,9.93c-.036.019-.071.039-.106.06s-.069.044-.1.068a1.247,1.247,0,0,0-.1.08,1.275,1.275,0,0,0-.136.142,1.258,1.258,0,0,0-.105.15,1.52,1.52,0,0,0-.082.159c-.024.055-.046.111-.067.168s-.043.128-.059.191a1.772,1.772,0,0,0-.038.188,1.563,1.563,0,0,0-.016.186,1.472,1.472,0,0,0,.007.186.9.9,0,0,0,.063.26.652.652,0,0,0,.132.2.683.683,0,0,0,.2.142,1.015,1.015,0,0,0,.272.081,1.725,1.725,0,0,0,.19.02,1.894,1.894,0,0,0,.193,0q.1-.005.2-.019t.2-.037q.111-.025.216-.059t.207-.078q.1-.043.2-.1t.195-.114l.04-.024.041-.022.042-.022.041-.021.249-.128.249-.128.249-.128.25-.128c.16-.082.32-.162.481-.238s.323-.151.486-.22.328-.134.494-.194.335-.113.505-.159c.109-.029.217-.055.324-.075a2.837,2.837,0,0,1,.319-.042,2.093,2.093,0,0,1,.313,0,1.7,1.7,0,0,1,.305.052l.053.014.054.013a.539.539,0,0,0,.055.008.377.377,0,0,0,.057,0,1.054,1.054,0,0,1,.2.009,1.31,1.31,0,0,1,.181.039c.059.017.116.037.172.058l.168.065a.347.347,0,0,1,.047.022c.015.008.029.018.044.027l.042.03.042.03.16.108c.054.036.108.071.163.105s.113.067.172.1.121.06.186.087c0-.009,0-.017.006-.025L11.565,11a.087.087,0,0,0,0-.018.019.019,0,0,0,0-.013l-.24-.316-.241-.316-.242-.315L10.6,9.711l-.218-.278-.219-.277-.219-.277L9.725,8.6q.061-.22.141-.434t.176-.422q.1-.208.21-.412t.242-.405q.084-.132.178-.255t.2-.24q.1-.117.214-.229t.227-.22l.238-.223.238-.223.239-.222.24-.221q.128-.116.263-.222t.276-.206q.14-.1.285-.194t.289-.186q.132-.083.266-.164t.269-.159q.135-.078.272-.154t.274-.149q.078-.042.159-.08t.163-.072q.082-.034.166-.065t.167-.057q.149-.048.3-.092l.3-.086.3-.084.3-.085c.143-.041.286-.075.428-.1s.285-.052.427-.071.284-.034.426-.047.283-.022.425-.03a.909.909,0,0,1,.192.008.666.666,0,0,1,.164.047.608.608,0,0,1,.139.085.71.71,0,0,1,.117.121l.12.156.12.155.12.155.12.155.731.944.729.942.727.94.726.937.081.1.082.1.082.1.081.1.025.035.024.037.024.04L22.451,8c-.039.035-.078.067-.117.1l-.119.092-.117.089c-.039.03-.077.06-.114.091l-.081.07-.081.071-.081.071-.082.07-.078.064-.079.063-.079.062-.08.061-.223.168-.224.167-.224.167-.223.168-.06.046a.67.67,0,0,0-.058.051.422.422,0,0,0-.052.063.393.393,0,0,0-.041.081l.084-.018.077-.016.072-.015.07-.014.073-.012.073-.011.073-.012.072-.014.123-.028.123-.026c.041-.008.082-.015.123-.021s.082-.01.124-.013A.858.858,0,0,0,21.42,9.6c.031-.006.063-.013.095-.02l.1-.025.1-.025c.059-.015.117-.029.175-.041s.116-.022.174-.029.116-.013.173-.016.115,0,.173,0l.078,0h.079l.079,0,.079-.005a2.154,2.154,0,0,1,.261-.007c.085,0,.168.01.251.021s.163.025.244.041.16.034.24.053a.452.452,0,0,1,.071.023.387.387,0,0,1,.061.032.4.4,0,0,1,.053.041.5.5,0,0,1,.047.05l.317.392.317.391q.159.2.32.388t.327.383q.129.148.254.3t.249.3l.245.3.244.3a.578.578,0,0,1,.07.107.4.4,0,0,1,.037.113.4.4,0,0,1,0,.123.6.6,0,0,1-.038.138c-.015.037-.028.075-.041.113s-.024.076-.035.114l-.032.114c-.011.038-.022.076-.034.114-.016.053-.034.106-.053.159s-.04.1-.062.157-.047.1-.075.154-.058.1-.091.152-.067.1-.1.158-.06.107-.089.161-.055.109-.081.164-.051.111-.075.166a1.055,1.055,0,0,1-.053.106c-.02.035-.042.069-.064.1l-.068.1c-.023.034-.045.069-.066.1-.061.1-.123.206-.186.308s-.127.2-.194.3-.136.2-.208.3-.149.194-.23.287c-.064.075-.129.149-.2.221s-.135.144-.207.212-.145.135-.222.2a2.946,2.946,0,0,1-.243.179l-.076.051c-.026.017-.051.033-.078.047a.45.45,0,0,1-.082.034.3.3,0,0,1-.088.013c-.036-.034-.136-.152-.268-.314s-.3-.369-.461-.577-.328-.42-.459-.593-.229-.306-.262-.36a.165.165,0,0,1,.026-.062.257.257,0,0,1,.044-.049c.017-.015.035-.028.054-.042s.037-.026.054-.04l.225-.176.226-.175.226-.175.226-.175.292-.228.292-.228.291-.228.291-.229.017-.015.017-.018.019-.021.023-.025-.016-.031-.015-.032-.017-.031a.267.267,0,0,0-.019-.029c-.046-.058-.093-.116-.141-.173l-.142-.172c-.047-.058-.094-.115-.14-.174s-.091-.118-.135-.178c-.081-.112-.168-.221-.256-.327s-.18-.211-.271-.316-.184-.209-.274-.314-.179-.213-.264-.323l-.069-.088-.071-.087-.073-.086-.074-.085a.24.24,0,0,0-.057-.048A.16.16,0,0,0,22.035,11a.207.207,0,0,0-.072.005.428.428,0,0,0-.085.031l-.047.025-.046.028-.045.031-.044.032-.239.185-.238.185-.238.185-.238.185-.171.133-.172.132-.172.132-.172.131-.364.276-.364.276-.364.276-.363.277-.6.462-.6.462-.6.462-.6.462-.62.475-.62.475-.62.475-.62.475-.582.448-.582.448-.582.447-.582.447-.282.216-.282.216-.282.216-.282.217-.12.094-.121.1-.123.1-.126.1c.053.078.109.153.165.226s.115.145.173.215.118.14.177.208l.178.206.182.212.182.212.183.211.184.21c.06.068.116.138.172.209s.111.142.167.212.114.139.176.2a1.845,1.845,0,0,0,.2.183A.462.462,0,0,0,12,22.789a.574.574,0,0,0,.077-.046c.024-.017.046-.034.068-.052s.044-.035.066-.051l.669-.5.669-.5.669-.5.669-.5.066-.051c.022-.017.044-.035.067-.052a.7.7,0,0,1,.072-.046.475.475,0,0,1,.082-.036m-1.055-9,.041-.03.042-.031.043-.032.043-.032.248-.187.248-.186.248-.187.247-.188.381-.294.381-.294.381-.294.383-.292.57-.431.571-.43.572-.429.571-.43.038-.028.037-.028.037-.029.035-.03a.308.308,0,0,0,.051-.061.185.185,0,0,0,.025-.062.15.15,0,0,0,0-.062.188.188,0,0,0-.026-.061l-.011-.015-.011-.015L19.249,7.3l-.012-.015-.184-.239L18.869,6.8l-.185-.238q-.093-.119-.188-.236l-.25-.308L18,5.717l-.251-.3-.249-.3-.061-.007L17.38,5.1,17.329,5.1l-.05,0-.056,0-.057,0H17.11a.417.417,0,0,0-.056.007.264.264,0,0,0-.048.016l-.048.024-.048.026c-.016.009-.032.017-.049.023l-.036.013-.037.01-.037.008-.037.008c-.061.015-.121.031-.181.05s-.119.039-.177.062a1.83,1.83,0,0,0-.172.079,1.61,1.61,0,0,0-.166.1.325.325,0,0,1-.039.023l-.041.018-.043.017-.043.017-.049.02-.05.019-.049.02a.386.386,0,0,0-.046.025l-.223.143-.222.144-.222.145-.222.145-.035.02-.036.02a.252.252,0,0,0-.032.022.1.1,0,0,0-.022.026.419.419,0,0,1-.062.08.642.642,0,0,1-.075.064c-.027.02-.054.038-.082.056s-.056.037-.083.057l-.151.11-.15.111-.149.112-.148.113c-.03.024-.059.049-.088.075l-.084.079c-.028.026-.056.052-.086.076a.82.82,0,0,1-.092.066,1.535,1.535,0,0,0-.142.1c-.045.035-.087.072-.127.11s-.079.078-.117.118-.074.082-.111.125l-.034.041-.034.041c-.012.013-.024.026-.036.039a.44.44,0,0,1-.039.035c-.081.063-.161.133-.24.208s-.156.155-.229.238-.144.171-.209.26-.126.181-.181.273l.024.039.025.04.027.041.029.04.161.2.161.2.162.2.163.2.279.342.279.341.28.34.281.339c.02.024.04.048.061.072a.517.517,0,0,0,.072.066.389.389,0,0,0,.093.052.482.482,0,0,0,.126.029" transform="translate(19.773 19.653)" fill="#161615"/>
    </g>
  </g>
</svg>
