<svg xmlns="http://www.w3.org/2000/svg" xmlns:xlink="http://www.w3.org/1999/xlink" width="211.722" height="228.744" viewBox="0 0 211.722 228.744">
  <defs>
    <linearGradient id="linear-gradient" x1="0.5" y1="0.994" x2="0.5" y2="-0.004" gradientUnits="objectBoundingBox">
      <stop offset="0" stop-color="#99421c"/>
      <stop offset="0.11" stop-color="#9e4b25"/>
      <stop offset="0.28" stop-color="#ac643e"/>
      <stop offset="0.51" stop-color="#c28d67"/>
      <stop offset="0.77" stop-color="#e1c5a0"/>
      <stop offset="1" stop-color="#fffbd6"/>
    </linearGradient>
    <linearGradient id="linear-gradient-2" x1="0.922" y1="0.166" x2="0.099" y2="0.817" gradientUnits="objectBoundingBox">
      <stop offset="0" stop-color="#ed9f5a"/>
      <stop offset="0.17" stop-color="#feebc0"/>
      <stop offset="0.21" stop-color="#fbdcac"/>
      <stop offset="0.31" stop-color="#f3bb7f"/>
      <stop offset="0.39" stop-color="#efa663"/>
      <stop offset="0.44" stop-color="#ed9e59"/>
      <stop offset="0.49" stop-color="#efa562"/>
      <stop offset="0.58" stop-color="#f3b77b"/>
      <stop offset="0.69" stop-color="#fbd5a4"/>
      <stop offset="0.75" stop-color="#ffe7bc"/>
      <stop offset="1" stop-color="#ec9d58"/>
    </linearGradient>
    <linearGradient id="linear-gradient-3" x1="0.5" y1="-0.005" x2="0.5" y2="0.999" xlink:href="#linear-gradient"/>
    <linearGradient id="linear-gradient-4" x1="0.97" y1="0.122" x2="0.08" y2="0.838" xlink:href="#linear-gradient-2"/>
    <clipPath id="clip-path">
      <path id="Rectangle_17" data-name="Rectangle 17" d="M0,3.53,119.767,0l5.87,166.858L6.333,149Z" fill="none"/>
    </clipPath>
  </defs>
  <g id="Group_95" data-name="Group 95" transform="translate(-1148.277 -227.995)">
    <g id="Layer_2" data-name="Layer 2" transform="matrix(0.978, -0.208, 0.208, 0.978, 1148.277, 264.304)">
      <g id="Layer_1" data-name="Layer 1">
        <path id="Path_83" data-name="Path 83" d="M0,98.367v.158c0,.59,0,1.179.014,1.766q.04,2.814.209,5.585.052.886.119,1.766.2,2.815.54,5.585.106.886.225,1.766.378,2.82.885,5.585c.106.59.22,1.179.335,1.766q.56,2.825,1.247,5.585c.146.59.3,1.181.454,1.766q.75,2.833,1.633,5.585c.188.59.381,1.181.581,1.765q.961,2.849,2.057,5.586.351.888.72,1.765,1.193,2.849,2.532,5.586.432.888.883,1.765,1.462,2.863,3.08,5.586.527.891,1.071,1.765,1.79,2.882,3.744,5.586.633.893,1.307,1.765,2.2,2.91,4.589,5.585.8.9,1.619,1.766,2.792,2.959,5.8,5.585,1.035.907,2.094,1.766a74.77,74.77,0,0,0,7.832,5.59q1.486.926,3.007,1.766a66.85,66.85,0,0,0,11.671,5.107v.475l-.028,1.766-.014.883H77.771a62.116,62.116,0,0,0,10.461-.883,62.859,62.859,0,0,0,7.541-1.766,66.668,66.668,0,0,0,13.2-5.585q1.522-.845,3.007-1.766a74.7,74.7,0,0,0,7.819-5.585q1.06-.862,2.1-1.766,3.007-2.622,5.8-5.585.823-.869,1.624-1.766,2.386-2.673,4.589-5.585.662-.874,1.3-1.765,1.956-2.7,3.744-5.586.543-.874,1.071-1.765,1.621-2.72,3.086-5.588c.3-.584.593-1.171.883-1.765q1.337-2.735,2.532-5.586.367-.875.723-1.765,1.094-2.744,2.057-5.586.3-.877.582-1.765.881-2.754,1.633-5.585c.158-.586.307-1.176.454-1.766q.343-1.388.66-2.8t.586-2.788q.173-.881.334-1.766.5-2.763.885-5.585.119-.881.225-1.766.334-2.766.541-5.585.066-.881.117-1.766.168-2.769.21-5.585.014-.881.014-1.766v-.158q0-2.73-.117-5.427c-.024-.589-.054-1.179-.089-1.766q-.158-2.815-.445-5.585c-.06-.589-.123-1.179-.193-1.766q-.332-2.82-.791-5.585-.144-.885-.3-1.766-.5-2.823-1.141-5.585-.2-.886-.419-1.765-.7-2.833-1.521-5.586c-.177-.59-.359-1.181-.544-1.765q-.9-2.839-1.928-5.593c-.223-.592-.449-1.179-.684-1.765q-1.124-2.849-2.388-5.586-.413-.878-.831-1.758-1.385-2.858-2.917-5.585c-.332-.6-.669-1.182-1.014-1.766q-1.687-2.875-3.54-5.585-.606-.893-1.234-1.766-2.073-2.9-4.325-5.585-.75-.9-1.521-1.766-2.6-2.942-5.4-5.585-.95-.9-1.937-1.766a77.359,77.359,0,0,0-7.106-5.585q-1.317-.913-2.665-1.766a69.23,69.23,0,0,0-10.82-5.585q-2.4-.98-4.868-1.766A62.683,62.683,0,0,0,78.967.013h-.052C78.534,0,78.157,0,77.771,0c-.339,0-.679,0-1.016.011L58.681,0l2.284,2.3q-1.108.317-2.216.662-2.469.791-4.873,1.766a69.158,69.158,0,0,0-10.815,5.585q-1.144.72-2.252,1.486-.2.138-.4.28A76.9,76.9,0,0,0,33.3,17.667q-.98.864-1.935,1.766-2.8,2.64-5.408,5.585-.768.869-1.519,1.766-2.25,2.69-4.328,5.585-.625.874-1.233,1.766-1.855,2.706-3.545,5.586c-.343.584-.682,1.171-1.014,1.766q-1.532,2.724-2.915,5.585-.427.878-.836,1.765Q9.3,51.577,8.174,54.424q-.347.878-.68,1.765Q6.46,58.934,5.561,61.774c-.187.584-.369,1.174-.544,1.765Q4.187,66.3,3.5,69.125,3.277,70,3.075,70.89q-.633,2.76-1.141,5.585-.158.88-.3,1.766-.456,2.766-.791,5.585C.769,84.413.706,85,.646,85.592Q.361,88.361.2,91.176q-.049.881-.089,1.766Q0,95.636,0,98.367Z" transform="translate(19.092)" fill="url(#linear-gradient)"/>
        <g id="Group_41" data-name="Group 41" transform="translate(19.092 2.966)" opacity="0.65">
          <path id="Path_84" data-name="Path 84" d="M340.42,20.506h47.793q-2.4-.98-4.868-1.766H345.293Q342.824,19.527,340.42,20.506Z" transform="translate(-286.542 -18.74)" fill="#99421c"/>
          <path id="Path_85" data-name="Path 85" d="M255.27,66.956h74.745q-1.317-.913-2.665-1.766H257.932q-1.146.72-2.254,1.486Q255.471,66.814,255.27,66.956Z" transform="translate(-214.869 -57.839)" fill="#99421c"/>
          <path id="Path_86" data-name="Path 86" d="M198.13,113.406h92.83q-.95-.9-1.937-1.766H200.065Q199.084,112.5,198.13,113.406Z" transform="translate(-166.772 -96.938)" fill="#99421c"/>
          <path id="Path_87" data-name="Path 87" d="M154.37,159.856H261.052q-.75-.9-1.521-1.766H155.889Q155.122,158.959,154.37,159.856Z" transform="translate(-129.939 -136.037)" fill="#99421c"/>
          <path id="Path_88" data-name="Path 88" d="M119.24,206.306h117.8q-.606-.893-1.234-1.766H120.473Q119.848,205.414,119.24,206.306Z" transform="translate(-100.37 -175.136)" fill="#99421c"/>
          <path id="Path_89" data-name="Path 89" d="M90.46,252.756H217.372c-.332-.6-.669-1.182-1.014-1.766H91.474C91.131,251.574,90.792,252.161,90.46,252.756Z" transform="translate(-76.144 -214.236)" fill="#99421c"/>
          <path id="Path_90" data-name="Path 90" d="M66.75,299.2H201.165q-.413-.885-.831-1.765H67.59Q67.158,298.32,66.75,299.2Z" transform="translate(-56.185 -253.335)" fill="#99421c"/>
          <path id="Path_91" data-name="Path 91" d="M47.34,345.615H187.9c-.223-.592-.449-1.179-.684-1.765H48.02Q47.674,344.735,47.34,345.615Z" transform="translate(-39.847 -292.4)" fill="#99421c"/>
          <path id="Path_92" data-name="Path 92" d="M31.69,392.1H177.2c-.177-.59-.359-1.181-.544-1.765H32.234C32.048,390.919,31.866,391.514,31.69,392.1Z" transform="translate(-26.673 -331.533)" fill="#99421c"/>
          <path id="Path_93" data-name="Path 93" d="M19.44,438.555H168.832q-.2-.886-.419-1.765H19.859Q19.643,437.668,19.44,438.555Z" transform="translate(-16.365 -370.632)" fill="#99421c"/>
          <path id="Path_94" data-name="Path 94" d="M10.3,485H162.583q-.144-.885-.3-1.766H10.6Q10.444,484.11,10.3,485Z" transform="translate(-8.67 -409.723)" fill="#99421c"/>
          <path id="Path_95" data-name="Path 95" d="M4.11,531.446H158.352c-.06-.589-.123-1.179-.193-1.766H4.3C4.23,530.267,4.17,530.857,4.11,531.446Z" transform="translate(-3.46 -448.822)" fill="#99421c"/>
          <path id="Path_96" data-name="Path 96" d="M.74,577.9H156.05c-.024-.589-.054-1.179-.089-1.766H.829Q.778,577.011.74,577.9Z" transform="translate(-0.624 -487.921)" fill="#99421c"/>
          <path id="Path_97" data-name="Path 97" d="M0,622.58c0,.59,0,1.179.014,1.766H155.529q.014-.881.014-1.766Z" transform="translate(0 -527.02)" fill="#99421c"/>
          <path id="Path_98" data-name="Path 98" d="M1.42,669q.052.886.119,1.766H156.4q.066-.881.117-1.766Z" transform="translate(-1.197 -566.094)" fill="#99421c"/>
          <path id="Path_99" data-name="Path 99" d="M5.58,715.48q.106.886.225,1.766H159.134q.119-.881.225-1.766Z" transform="translate(-4.699 -605.218)" fill="#99421c"/>
          <path id="Path_100" data-name="Path 100" d="M12.59,761.93c.106.59.22,1.179.335,1.766h150.89q.173-.881.334-1.766Z" transform="translate(-10.599 -644.317)" fill="#99421c"/>
          <path id="Path_101" data-name="Path 101" d="M22.55,808.38c.146.59.3,1.181.454,1.766H170.5c.158-.586.307-1.176.454-1.766Z" transform="translate(-18.977 -683.416)" fill="#99421c"/>
          <path id="Path_102" data-name="Path 102" d="M35.75,854.83c.188.59.381,1.181.581,1.765H179.392q.3-.877.582-1.765Z" transform="translate(-30.089 -722.516)" fill="#99421c"/>
          <path id="Path_103" data-name="Path 103" d="M52.43,901.28q.351.888.72,1.765h137.5q.367-.875.723-1.765Z" transform="translate(-44.13 -761.615)" fill="#99421c"/>
          <path id="Path_104" data-name="Path 104" d="M73.01,947.73q.432.888.883,1.765h130.67c.3-.584.593-1.171.883-1.765Z" transform="translate(-61.457 -800.714)" fill="#99421c"/>
          <path id="Path_105" data-name="Path 105" d="M98.05,994.18q.527.891,1.071,1.765H221.49q.543-.874,1.071-1.765Z" transform="translate(-82.535 -839.813)" fill="#99421c"/>
          <path id="Path_106" data-name="Path 106" d="M128.48,1040.63q.633.893,1.307,1.765H242.056q.661-.874,1.3-1.765Z" transform="translate(-108.149 -878.912)" fill="#99421c"/>
          <path id="Path_107" data-name="Path 107" d="M165.74,1087.07q.8.9,1.619,1.766H267.2q.823-.869,1.624-1.766Z" transform="translate(-139.508 -918.003)" fill="#99421c"/>
          <path id="Path_108" data-name="Path 108" d="M212.64,1133.52q1.035.907,2.094,1.766h84.05q1.06-.862,2.1-1.766Z" transform="translate(-178.989 -957.102)" fill="#99421c"/>
          <path id="Path_109" data-name="Path 109" d="M275.31,1180q1.486.926,3.007,1.766h62.39q1.522-.845,3.007-1.766Z" transform="translate(-231.74 -996.226)" fill="#99421c"/>
          <path id="Path_110" data-name="Path 110" d="M377.69,1228.186H407.7a62.845,62.845,0,0,0,7.541-1.766H377.714Z" transform="translate(-319.473 -1035.3)" fill="#99421c"/>
        </g>
        <path id="Path_111" data-name="Path 111" d="M120.659,98.367c0,54.327,34.816,98.367,77.772,98.367,35.618,0,65.642-30.282,74.854-71.6A123.045,123.045,0,0,0,276.2,98.367C276.2,44.04,241.385,0,198.432,0a65.031,65.031,0,0,0-36.967,11.8C137.165,28.438,120.659,60.964,120.659,98.367Z" transform="translate(-120.659)" fill="url(#linear-gradient-2)"/>
        <ellipse id="Ellipse_14" data-name="Ellipse 14" cx="63.357" cy="80.135" rx="63.357" ry="80.135" transform="translate(11.796 18.232)" fill="url(#linear-gradient-3)"/>
        <ellipse id="Ellipse_15" data-name="Ellipse 15" cx="60.557" cy="75.278" rx="60.557" ry="75.278" transform="translate(16.829 23.089)" fill="url(#linear-gradient-4)"/>
      </g>
    </g>
    <g id="Group_42" data-name="Group 42" transform="translate(1176.695 260.102)" style="mix-blend-mode: soft-light;isolation: isolate">
      <g id="Group_35" data-name="Group 35" transform="translate(0 0)" clip-path="url(#clip-path)">
        <path id="Path_81" data-name="Path 81" d="M34.391,102.628a.981.981,0,0,0-.018-.2,1.018,1.018,0,0,0-.056-.189,1.288,1.288,0,0,0-.089-.177,1.931,1.931,0,0,0-.116-.171q-.2-.268-.4-.539t-.4-.543l-.4-.544-.4-.544a.306.306,0,0,0-.023-.027l-.025-.026a.3.3,0,0,1-.023-.027.139.139,0,0,1-.018-.03,3.329,3.329,0,0,0-.312-.569c-.118-.176-.246-.342-.374-.508s-.255-.332-.372-.508a3.2,3.2,0,0,1-.3-.571,3.074,3.074,0,0,0-.16-.334c-.059-.107-.121-.21-.185-.312s-.128-.2-.19-.308-.121-.211-.175-.324-.117-.228-.182-.337-.134-.216-.2-.321-.142-.21-.213-.315-.141-.21-.209-.318q-.033-.053-.065-.108c-.021-.037-.042-.074-.062-.112l-.06-.113-.06-.113a.218.218,0,0,1-.015-.034l-.012-.037a.334.334,0,0,0-.013-.035.1.1,0,0,0-.017-.028,2.833,2.833,0,0,1-.225-.274c-.07-.1-.135-.2-.2-.3s-.123-.209-.182-.316-.118-.215-.177-.323q-.043-.08-.089-.158l-.091-.157-.092-.157q-.046-.079-.09-.158c-.041-.074-.08-.151-.119-.227s-.077-.154-.117-.23-.081-.152-.125-.225a2.094,2.094,0,0,0-.145-.211,1.013,1.013,0,0,1-.1-.146c-.029-.053-.055-.109-.08-.166s-.048-.117-.072-.176-.047-.118-.071-.175c-.041-.1-.081-.192-.121-.29s-.081-.2-.124-.294-.087-.2-.135-.3-.1-.2-.155-.306c-.018.047-.038.09-.057.131s-.039.08-.056.117a.787.787,0,0,0-.041.109.359.359,0,0,0-.015.107,1.979,1.979,0,0,1-.034.421c-.024.134-.059.263-.095.392s-.073.256-.1.386a2.284,2.284,0,0,0-.06.406.356.356,0,0,0-.091.179,1,1,0,0,0-.016.214c0,.074,0,.15,0,.223a.564.564,0,0,1-.046.206c-.025.053-.049.109-.072.166s-.044.116-.062.177a1.705,1.705,0,0,0-.045.184,1.3,1.3,0,0,0-.022.188c0,.1-.01.2-.02.292s-.021.192-.033.287-.024.19-.034.285-.019.191-.025.288c0,.068-.009.134-.016.2s-.015.13-.024.195-.019.128-.03.192-.021.128-.032.192c-.027.163-.06.324-.093.485s-.068.321-.1.484a4.965,4.965,0,0,0-.065.5,3.282,3.282,0,0,0,0,.521.316.316,0,0,1-.008.1.8.8,0,0,1-.031.1c-.012.033-.025.065-.036.1a.473.473,0,0,0-.022.1c-.008.1-.022.19-.039.284s-.035.186-.051.28a2.592,2.592,0,0,0-.034.285,1.531,1.531,0,0,0,.011.3,3.112,3.112,0,0,0-.1.361c-.027.124-.048.25-.069.377s-.04.254-.062.381-.047.251-.078.373q-.055.217-.108.436t-.1.44q-.049.221-.1.442t-.089.444q-.033.175-.072.345t-.08.336q-.042.167-.087.332t-.092.33a1.276,1.276,0,0,0-.034.168c-.008.058-.013.118-.016.179s0,.123,0,.185,0,.124,0,.185,0,.139,0,.2-.01.131-.02.194a1.813,1.813,0,0,1-.038.186,1.843,1.843,0,0,1-.058.182c-.038.1-.073.21-.106.317s-.065.216-.1.324-.065.216-.1.323-.073.211-.116.313a1.831,1.831,0,0,1-.115.233.685.685,0,0,1-.136.168.37.37,0,0,1-.173.086.479.479,0,0,1-.224-.016.448.448,0,0,0-.137-.019.4.4,0,0,0-.125.023.439.439,0,0,0-.111.059.556.556,0,0,0-.1.089.51.51,0,0,1-.143.117.477.477,0,0,1-.155.051.769.769,0,0,1-.164.006c-.056,0-.113-.011-.17-.019l-.143-.019-.143-.018-.144-.016-.144-.013c-.066-.006-.133-.016-.2-.025s-.132-.019-.2-.022a.814.814,0,0,0-.195.01.559.559,0,0,0-.189.071.176.176,0,0,1-.075.022.4.4,0,0,1-.085,0c-.03,0-.06-.009-.09-.015s-.06-.01-.088-.012l-.128-.012a.87.87,0,0,0-.125,0,.437.437,0,0,0-.121.024.376.376,0,0,0-.115.066.2.2,0,0,1-.059.033.277.277,0,0,1-.071.016.272.272,0,0,1-.073,0,.2.2,0,0,1-.065-.023.622.622,0,0,0-.211-.08.913.913,0,0,0-.205-.011c-.068,0-.135.01-.2.014a1.018,1.018,0,0,1-.2-.005c-.072-.011-.143-.02-.214-.029l-.214-.025-.214-.024c-.071-.009-.143-.018-.214-.029a.5.5,0,0,0-.155.006c-.051.009-.1.021-.152.029a.478.478,0,0,1-.16,0,.437.437,0,0,1-.177-.079.42.42,0,0,0-.155-.067.962.962,0,0,0-.171-.019c-.058,0-.118,0-.177-.007a.707.707,0,0,1-.173-.032,1.483,1.483,0,0,1-.15-.061c-.05-.024-.1-.05-.149-.08s-.1-.062-.145-.1-.093-.072-.136-.111c-.062-.055-.122-.113-.181-.174s-.117-.123-.174-.187l-.171-.193c-.057-.065-.114-.129-.171-.192-.077-.084-.153-.17-.228-.257s-.151-.173-.227-.258-.153-.169-.231-.25-.158-.158-.24-.231a3.109,3.109,0,0,1-.336-.353,3.428,3.428,0,0,1-.281-.4,3.89,3.89,0,0,1-.228-.445,4.465,4.465,0,0,1-.176-.48,2.417,2.417,0,0,1-.074-.318,3.221,3.221,0,0,1-.037-.335c-.007-.113-.008-.226,0-.337s.011-.22.022-.323c.015-.139.037-.275.062-.41s.056-.268.087-.4.065-.265.1-.4.064-.266.092-.4a1.672,1.672,0,0,1,.123-.37,2.243,2.243,0,0,1,.179-.311c.066-.1.136-.19.206-.283s.139-.188.2-.288a1.749,1.749,0,0,1,.107-.15c.038-.048.077-.094.116-.14s.078-.092.116-.14a1.751,1.751,0,0,0,.107-.15.728.728,0,0,1,.12-.144.821.821,0,0,1,.138-.1,1.4,1.4,0,0,1,.147-.075l.149-.064a.466.466,0,0,1,.144-.036.422.422,0,0,1,.151.015.48.48,0,0,1,.15.075.7.7,0,0,1,.143.143q.037.048.075.094l.076.092.077.091.075.091a.445.445,0,0,0,.127-.028.169.169,0,0,0,.081-.065.2.2,0,0,0,.026-.115.631.631,0,0,0-.038-.179,1.088,1.088,0,0,1,.273-.184.752.752,0,0,1,.287-.07.841.841,0,0,1,.306.048,1.415,1.415,0,0,1,.33.17c.112.076.226.146.341.213s.233.131.352.193.24.124.362.187.246.127.371.2c.029-.1.059-.2.086-.3s.052-.193.072-.289a2.27,2.27,0,0,0,.043-.294,1.846,1.846,0,0,0,0-.314c0-.036-.005-.074-.006-.112s0-.077,0-.115a.731.731,0,0,1,.014-.107.35.35,0,0,1,.031-.088,1.313,1.313,0,0,0,.112-.287,2.013,2.013,0,0,0,.055-.306c.011-.1.017-.212.02-.321s.006-.22.009-.331a2.08,2.08,0,0,1,.027-.258c.014-.085.033-.169.054-.252s.045-.165.07-.247.051-.162.076-.242c.019-.061.039-.12.057-.18s.035-.12.048-.182a1.339,1.339,0,0,0,.027-.19,1.159,1.159,0,0,0,0-.207c-.007-.056-.012-.112-.014-.167a1.337,1.337,0,0,1,0-.164.892.892,0,0,1,.026-.157.674.674,0,0,1,.057-.146.15.15,0,0,0,.012-.03.245.245,0,0,0,.008-.035.294.294,0,0,0,0-.037.259.259,0,0,0,0-.036,4.929,4.929,0,0,1-.028-.706c.006-.233.023-.463.04-.693s.035-.461.042-.693a5.028,5.028,0,0,0-.024-.705.7.7,0,0,1,0-.076c0-.026,0-.051,0-.077a.667.667,0,0,0,0-.075.287.287,0,0,0-.016-.069,2.487,2.487,0,0,1-.122-.482,4.162,4.162,0,0,1-.042-.482c-.006-.161-.006-.321-.009-.482s-.007-.321-.022-.481c-.007-.074-.009-.148-.011-.223s0-.148-.009-.222a1.3,1.3,0,0,0-.034-.22.878.878,0,0,0-.086-.216.24.24,0,0,1-.02-.049.405.405,0,0,1-.012-.057.531.531,0,0,1,0-.059.509.509,0,0,1,0-.056,2.322,2.322,0,0,0,0-.464c-.015-.154-.041-.307-.072-.459s-.065-.305-.1-.458-.057-.305-.072-.459a1.5,1.5,0,0,0-.03-.181c-.013-.06-.029-.12-.046-.18s-.034-.12-.049-.181-.029-.121-.039-.182-.014-.11-.018-.165-.008-.11-.014-.165a1.242,1.242,0,0,0-.028-.164.79.79,0,0,0-.059-.163.362.362,0,0,1-.027-.082.785.785,0,0,1-.014-.093c0-.032-.005-.065-.007-.1s0-.065-.008-.1c-.008-.087-.012-.175-.016-.263s-.006-.177-.011-.265-.012-.174-.025-.259a1.444,1.444,0,0,0-.057-.246,1.189,1.189,0,0,1-.05-.237c-.01-.08-.015-.161-.023-.24a1.355,1.355,0,0,0-.042-.235.711.711,0,0,0-.105-.222.232.232,0,0,1-.032-.073.572.572,0,0,1-.016-.094c0-.033,0-.068,0-.1s0-.067,0-.1a2.34,2.34,0,0,0-.02-.431,3.46,3.46,0,0,0-.085-.416c-.036-.137-.078-.272-.122-.407s-.088-.269-.13-.4q-.04-.131-.084-.261t-.091-.261l-.095-.264q-.048-.133-.1-.271a.682.682,0,0,1-.194.044.513.513,0,0,1-.35-.1.7.7,0,0,1-.147-.152,1.749,1.749,0,0,0-.136-.164,1.7,1.7,0,0,0-.144-.137,1.839,1.839,0,0,0-.151-.114c-.051-.035-.1-.067-.156-.1a1.61,1.61,0,0,1-.352-.275,2.376,2.376,0,0,1-.283-.356,4.54,4.54,0,0,1-.238-.411c-.074-.143-.145-.291-.216-.439a1.406,1.406,0,0,1-.058-.137,1.3,1.3,0,0,1-.068-.285,1.384,1.384,0,0,1-.01-.15c0-.087,0-.174-.005-.261s0-.174-.006-.261-.006-.174-.011-.261-.013-.174-.022-.26a3.192,3.192,0,0,1-.021-.492,2.936,2.936,0,0,1,.053-.458,3.11,3.11,0,0,1,.118-.433,3.783,3.783,0,0,1,.176-.416l-.128-.183-.129-.186q-.065-.093-.131-.185t-.134-.181a5.377,5.377,0,0,1-.323-.486c-.11-.185-.221-.387-.324-.592s-.2-.414-.279-.612a4.623,4.623,0,0,1-.188-.546c-.006-.023-.013-.048-.019-.074s-.01-.052-.014-.078a.476.476,0,0,1,0-.075.22.22,0,0,1,.011-.064,1.7,1.7,0,0,0,.073-.3c.016-.1.027-.212.036-.319s.019-.214.034-.319a1.815,1.815,0,0,1,.066-.3.941.941,0,0,1,.041-.107c.015-.035.033-.068.051-.1s.038-.064.058-.094.041-.06.062-.089a1.394,1.394,0,0,1,.1-.116c.034-.037.068-.075.1-.117a.607.607,0,0,0,.079-.143.631.631,0,0,0,.04-.193c-.018-.018-.036-.037-.055-.058l-.055-.061a.718.718,0,0,0-.057-.056.313.313,0,0,0-.061-.042,1.068,1.068,0,0,1-.21-.148,1.843,1.843,0,0,1-.182-.19c-.058-.068-.113-.141-.168-.214s-.11-.147-.167-.218a1.876,1.876,0,0,1-.163-.239,1.7,1.7,0,0,1-.119-.255,1.748,1.748,0,0,1-.077-.276,2.047,2.047,0,0,1-.034-.3c0-.08-.008-.159-.015-.238s-.014-.157-.025-.236-.023-.157-.038-.237-.033-.159-.054-.24a2,2,0,0,1-.049-.251c-.011-.086-.018-.174-.022-.262s0-.177,0-.264.007-.174.012-.258a.638.638,0,0,1,.029-.145,1.084,1.084,0,0,1,.055-.139c.021-.045.045-.09.069-.134s.047-.088.069-.132l.157-.325c.053-.108.106-.215.163-.32s.115-.207.178-.3a2.757,2.757,0,0,1,.2-.279.7.7,0,0,0,.1-.147.275.275,0,0,0,.029-.134.4.4,0,0,0-.04-.148,1.523,1.523,0,0,0-.108-.189l-.049-.073-.05-.073-.052-.074-.054-.077q0-.1-.007-.189t-.007-.188q0-.093-.007-.187t-.009-.187c0-.061-.009-.122-.016-.183s-.016-.121-.025-.181-.02-.121-.031-.181-.023-.121-.034-.183a6.27,6.27,0,0,1-.088-.63,3.975,3.975,0,0,1-.007-.611,2.8,2.8,0,0,1,.1-.582,2.307,2.307,0,0,1,.236-.544c.057-.1.112-.194.165-.294s.1-.2.155-.306.1-.207.151-.31.1-.207.153-.308a.77.77,0,0,1,.13-.185.674.674,0,0,1,.157-.121.867.867,0,0,1,.178-.074,1.565,1.565,0,0,1,.193-.042.876.876,0,0,0,.092-.02c.031-.008.063-.018.1-.03l.106-.036.122-.039a1.3,1.3,0,0,1-.1-.222,2.092,2.092,0,0,1-.062-.218c-.017-.072-.032-.143-.049-.214a1.911,1.911,0,0,0-.061-.21,1.575,1.575,0,0,1-.07-.259,1.623,1.623,0,0,1-.026-.275,1.52,1.52,0,0,1,.023-.278,1.341,1.341,0,0,1,.077-.268c.043-.1.083-.209.123-.315s.079-.213.119-.319.081-.211.124-.315.088-.2.137-.3a1.363,1.363,0,0,1,.108-.179c.04-.056.082-.109.126-.162s.089-.1.134-.155.089-.1.13-.158a.591.591,0,0,0,.058-.084.286.286,0,0,0,.03-.086.736.736,0,0,0,.009-.123c0-.051,0-.114,0-.195-.077-.049-.153-.1-.229-.141l-.226-.138c-.075-.047-.149-.094-.222-.144s-.145-.1-.215-.157a1.207,1.207,0,0,0-.132-.092.893.893,0,0,0-.132-.065.775.775,0,0,0-.135-.039.815.815,0,0,0-.141-.015c-.095,0-.19-.007-.285-.012l-.285-.016-.285-.017-.285-.014a1.632,1.632,0,0,1-.312-.042,1.71,1.71,0,0,1-.3-.1,1.983,1.983,0,0,1-.289-.159,2.47,2.47,0,0,1-.279-.215.055.055,0,0,1-.01-.015l-.008-.019a.144.144,0,0,0-.008-.017.021.021,0,0,0-.009-.01,2.863,2.863,0,0,1-.354-.159c-.115-.061-.229-.13-.34-.2s-.221-.153-.33-.236-.216-.168-.324-.255a.173.173,0,0,0-.05-.027.326.326,0,0,0-.056-.013l-.058-.008A.475.475,0,0,1,11,48.374c-.116-.031-.231-.065-.346-.1s-.228-.082-.34-.133a3.126,3.126,0,0,1-.331-.172,2.821,2.821,0,0,1-.318-.222,2.113,2.113,0,0,0-.244-.168c-.083-.049-.166-.093-.25-.134l-.252-.123c-.084-.042-.167-.085-.25-.134a.206.206,0,0,0-.054-.021l-.058-.012a.342.342,0,0,1-.056-.014.143.143,0,0,1-.049-.03c-.137-.13-.279-.251-.422-.369s-.287-.235-.429-.356-.281-.246-.414-.383a3.766,3.766,0,0,1-.379-.452c-.017-.023-.032-.049-.048-.076s-.031-.053-.047-.079a.572.572,0,0,0-.05-.069.2.2,0,0,0-.056-.047.916.916,0,0,1-.251-.205,1.591,1.591,0,0,1-.188-.275c-.055-.1-.105-.206-.154-.312s-.1-.214-.15-.317c-.022-.044-.045-.086-.068-.125a1.039,1.039,0,0,0-.073-.108.707.707,0,0,0-.085-.092.644.644,0,0,0-.1-.076.823.823,0,0,1-.1-.069.961.961,0,0,1-.1-.089.91.91,0,0,1-.087-.1.738.738,0,0,1-.068-.116c-.075-.161-.156-.316-.239-.47s-.168-.306-.251-.46-.163-.31-.237-.471a4.462,4.462,0,0,1-.2-.5c-.042-.133-.087-.264-.132-.395s-.089-.262-.129-.395-.076-.267-.1-.4a3.037,3.037,0,0,1-.057-.425,1.312,1.312,0,0,0-.027-.193c-.014-.064-.031-.129-.049-.193s-.038-.13-.056-.195-.035-.131-.048-.2-.032-.156-.049-.234-.032-.155-.046-.233-.026-.156-.035-.235-.015-.158-.017-.239a.524.524,0,0,0-.018-.124.487.487,0,0,0-.043-.108.305.305,0,0,0-.06-.079.131.131,0,0,0-.068-.036.6.6,0,0,1-.254-.1,1.112,1.112,0,0,1-.206-.194c-.063-.074-.123-.156-.183-.236s-.12-.16-.185-.231c-.044-.048-.086-.1-.126-.154s-.081-.107-.123-.158a1,1,0,0,0-.134-.137.5.5,0,0,0-.16-.091.134.134,0,0,1-.037-.022.261.261,0,0,1-.036-.036.336.336,0,0,1-.031-.045.286.286,0,0,1-.023-.048c-.042-.117-.091-.229-.14-.342s-.1-.224-.144-.34a2.308,2.308,0,0,1-.108-.36,1.674,1.674,0,0,1-.034-.4c0-.115,0-.231,0-.346s0-.231,0-.346a2.961,2.961,0,0,1,.028-.337,1.659,1.659,0,0,1,.078-.321c.052-.142.1-.289.158-.431a2.678,2.678,0,0,1,.188-.4,1.046,1.046,0,0,1,.255-.3.678.678,0,0,1,.36-.139.681.681,0,0,0,.163-.036c.052-.018.1-.04.152-.062s.1-.045.15-.063a.7.7,0,0,1,.157-.04.173.173,0,0,0,.05-.013.342.342,0,0,0,.049-.026l.048-.033.048-.034a.652.652,0,0,1,.158-.077.544.544,0,0,1,.163-.027.522.522,0,0,1,.163.025.593.593,0,0,1,.157.078,1.088,1.088,0,0,0,.205.114.611.611,0,0,0,.2.046.5.5,0,0,0,.192-.026.7.7,0,0,0,.193-.1.34.34,0,0,1,.131-.063.243.243,0,0,1,.128.007.353.353,0,0,1,.123.074.728.728,0,0,1,.118.138c.029.042.059.083.09.122s.064.079.1.119l.1.121.11.13.151-.131.148-.127.144-.126.141-.126a1.249,1.249,0,0,1,.2-.137c.09-.052.2-.107.307-.156a2.778,2.778,0,0,1,.318-.123.619.619,0,0,1,.234-.038.472.472,0,0,0,.2-.017,1.032,1.032,0,0,0,.179-.076c.058-.03.116-.062.175-.088A.631.631,0,0,1,8,31.454a.055.055,0,0,0,.036-.027.36.36,0,0,0,.033-.062c.011-.025.022-.052.034-.08s.024-.056.038-.083c-.015-.023-.03-.045-.046-.067l-.048-.067C8.025,31.047,8.01,31.024,8,31a.563.563,0,0,1-.037-.074c-.035-.087-.077-.174-.115-.261a1.743,1.743,0,0,1-.1-.264.745.745,0,0,1-.022-.272.666.666,0,0,1,.106-.285c.008-.159.022-.316.042-.47s.045-.306.074-.456.062-.3.1-.446.075-.294.116-.44a.413.413,0,0,0,.013-.086c0-.03,0-.061,0-.092s0-.063,0-.095a.886.886,0,0,1,0-.094c.005-.059.011-.118.017-.178s.013-.121.02-.183l.022-.194.024-.211-.2-.211-.208-.223-.214-.231L7.422,26c-.009-.091-.015-.183-.024-.272a2.13,2.13,0,0,0-.037-.258.879.879,0,0,0-.083-.231.611.611,0,0,0-.159-.19.082.082,0,0,1-.019-.024.214.214,0,0,1-.015-.035.293.293,0,0,1-.01-.039.2.2,0,0,1,0-.036,1.591,1.591,0,0,0-.02-.3c-.015-.1-.037-.193-.06-.288s-.049-.19-.07-.285a2.363,2.363,0,0,1-.05-.287c-.01-.1-.018-.208-.021-.311s0-.206,0-.308a2.866,2.866,0,0,1,.032-.306,2.5,2.5,0,0,1,.068-.305c.043-.149.085-.3.127-.448s.085-.3.132-.445.1-.291.152-.431a3.859,3.859,0,0,1,.189-.407.717.717,0,0,1,.05-.078c.018-.025.038-.049.057-.072l.06-.069c.02-.023.04-.046.059-.069a.454.454,0,0,0,.077-.151.6.6,0,0,0,.025-.177A.576.576,0,0,0,7.851,20a.424.424,0,0,0-.082-.148c-.04-.046-.082-.089-.123-.132L7.519,19.6c-.042-.042-.084-.085-.125-.129s-.081-.09-.119-.138a3.015,3.015,0,0,1-.208-.294,2.129,2.129,0,0,1-.164-.322,1.8,1.8,0,0,1-.1-.358,1.867,1.867,0,0,1-.026-.4c0-.049,0-.1,0-.148s0-.1-.007-.149-.006-.1-.009-.149,0-.1-.005-.15c0-.1-.008-.2-.014-.3s-.011-.2-.009-.294a1.408,1.408,0,0,1,.031-.284.865.865,0,0,1,.1-.264,1.96,1.96,0,0,1,0-.243,2.089,2.089,0,0,1,.029-.233c.014-.076.032-.151.052-.224s.045-.145.071-.216a3.769,3.769,0,0,1,.171-.393,2.9,2.9,0,0,1,.207-.347,2.337,2.337,0,0,1,.246-.3,2.043,2.043,0,0,1,.289-.245L8,13.979l.059-.044.061-.046.064-.048-.123-.286-.121-.282L7.816,13q-.059-.139-.115-.278a2.311,2.311,0,0,1-.118-.374,2.1,2.1,0,0,1-.049-.375,2.062,2.062,0,0,1,.019-.374,2.194,2.194,0,0,1,.087-.372c.03-.093.058-.188.087-.283s.059-.189.093-.279a1.614,1.614,0,0,1,.122-.256.936.936,0,0,1,.173-.213.109.109,0,0,0,.025-.034.317.317,0,0,0,.018-.047c.005-.017.01-.035.015-.052s.01-.035.016-.051c.077-.207.147-.38.219-.527A2.21,2.21,0,0,1,8.634,9.1a1.7,1.7,0,0,1,.282-.29A3.159,3.159,0,0,1,9.3,8.548a.508.508,0,0,1,.074-.036.811.811,0,0,1,.079-.026l.081-.02.082-.019a.8.8,0,0,0,.163-.055.3.3,0,0,0,.108-.084.29.29,0,0,0,.055-.129.715.715,0,0,0,0-.192,1.67,1.67,0,0,1,.007-.351c.013-.114.035-.226.056-.338s.042-.224.054-.339a1.605,1.605,0,0,0,0-.353.444.444,0,0,1,0-.117.8.8,0,0,1,.031-.122c.013-.041.029-.081.046-.12s.034-.077.05-.112q.046-.1.1-.2t.1-.2q.051-.1.1-.192l.105-.19a.139.139,0,0,1,.027-.034.241.241,0,0,1,.034-.026l.037-.023.037-.024c.095-.072.19-.144.286-.211a3.09,3.09,0,0,1,.295-.185,1.762,1.762,0,0,1,.311-.134,1.294,1.294,0,0,1,.335-.06.144.144,0,0,0,.052-.015.437.437,0,0,0,.051-.029l.051-.032a.234.234,0,0,1,.053-.024,1.448,1.448,0,0,1,.178-.04,1.023,1.023,0,0,1,.178-.012.869.869,0,0,1,.181.023.911.911,0,0,1,.185.066c.058.028.117.051.175.076a1.539,1.539,0,0,1,.17.082.717.717,0,0,1,.29.3.3.3,0,0,0,.045.064.562.562,0,0,0,.058.054l.065.052c.023.018.045.037.068.057.031-.071.062-.139.09-.207s.054-.134.075-.2a1.417,1.417,0,0,0,.05-.209A1.229,1.229,0,0,0,14,4.442a.607.607,0,0,1,.008-.1c.006-.035.014-.07.023-.1s.019-.07.03-.1.02-.07.029-.1a2.058,2.058,0,0,1,.074-.235c.028-.075.06-.147.093-.219s.067-.141.1-.211.068-.141.1-.213.068-.146.1-.216.075-.136.113-.2l.116-.2c.039-.066.077-.132.114-.2a2.09,2.09,0,0,1,.245-.363,2,2,0,0,1,.285-.276,2.478,2.478,0,0,1,.315-.211c.109-.062.222-.118.337-.17a1.16,1.16,0,0,1,.11-.042.748.748,0,0,1,.118-.029.4.4,0,0,1,.114,0,.212.212,0,0,1,.1.036.871.871,0,0,0,.3.142,1.2,1.2,0,0,0,.152.028c.051.006.1.01.155.014a.371.371,0,0,1,.069.01.488.488,0,0,1,.07.023.607.607,0,0,1,.068.033.692.692,0,0,1,.065.041l.33.241.329.244.329.245.33.246a.2.2,0,0,1,.027-.016l.029-.014a.121.121,0,0,0,.024-.016.041.041,0,0,0,.013-.021,2.165,2.165,0,0,1,.128-.4,2.755,2.755,0,0,1,.181-.345c.067-.109.138-.213.211-.316s.146-.2.217-.309a.413.413,0,0,1,.06-.07.72.72,0,0,1,.07-.058l.075-.052c.025-.017.05-.035.073-.054.043-.035.087-.069.131-.1l.132-.1c.044-.034.087-.069.13-.106s.084-.076.124-.117a1.418,1.418,0,0,1,.164-.149A.982.982,0,0,1,20.68.186a.8.8,0,0,1,.188-.063.814.814,0,0,1,.2-.014c.063,0,.126,0,.188,0l.189,0c.063,0,.126,0,.189,0s.126,0,.189.011.123.016.185.026.123.023.185.037.123.03.184.047.122.036.182.056c.042.014.084.03.125.047s.083.038.124.06.081.046.12.072a1.292,1.292,0,0,1,.113.085.976.976,0,0,1,.1.1c.033.037.065.076.1.113a.737.737,0,0,0,.108.1.384.384,0,0,0,.13.063.123.123,0,0,1,.055.035.416.416,0,0,1,.052.068c.017.026.033.055.048.084l.043.084q.073.143.144.288l.143.292.143.3.145.3h.227c.05-.117.087-.205.123-.278a1.009,1.009,0,0,1,.114-.186,1.458,1.458,0,0,1,.172-.178c.074-.067.169-.147.3-.253l.095-.078.1-.078.094-.08q.047-.041.092-.083a1.332,1.332,0,0,1,.157-.13,1.016,1.016,0,0,1,.166-.1.889.889,0,0,1,.178-.058.926.926,0,0,1,.193-.02c.077,0,.155.006.233.011a1.927,1.927,0,0,0,.233,0,.783.783,0,0,0,.227-.046.647.647,0,0,0,.215-.135A.092.092,0,0,1,27.2.669a.16.16,0,0,1,.045-.007A.2.2,0,0,1,27.3.668a.171.171,0,0,1,.043.016A1.7,1.7,0,0,0,27.622.8c.1.029.192.053.289.076s.192.047.287.076a1.621,1.621,0,0,1,.278.113,2.361,2.361,0,0,1,.4.265,2.2,2.2,0,0,1,.342.352,2.335,2.335,0,0,1,.271.446,2.822,2.822,0,0,1,.187.547.52.52,0,0,1,.011.057c0,.019,0,.039.007.058s0,.038.008.057a.357.357,0,0,0,.014.054.374.374,0,0,0,.067.123.3.3,0,0,0,.1.077.252.252,0,0,0,.229,0l.054-.026.055-.025c.018-.009.036-.018.053-.028a.36.36,0,0,0,.05-.035.492.492,0,0,0,.092-.113c.028-.043.053-.09.081-.133a.492.492,0,0,1,.093-.113.211.211,0,0,1,.127-.052,1.468,1.468,0,0,0,.3-.053c.1-.027.2-.059.3-.087a1.63,1.63,0,0,1,.3-.06.822.822,0,0,1,.309.029c.079.023.162.039.244.056a1.9,1.9,0,0,1,.244.063.75.75,0,0,1,.425.353l.01.017.009.018a.12.12,0,0,0,.009.016.03.03,0,0,0,.01.01.758.758,0,0,1,.269.158,1.242,1.242,0,0,1,.206.245,3.087,3.087,0,0,1,.168.294c.052.1.1.206.155.306.076.144.154.287.229.432s.147.294.211.448a3.425,3.425,0,0,1,.161.482,2.8,2.8,0,0,1,.081.535l.112.021.107.021c.035.007.069.012.1.017a.953.953,0,0,0,.1.008l.45.006.45,0h.9a1.274,1.274,0,0,1,.337.043,1.083,1.083,0,0,1,.3.134,1.235,1.235,0,0,1,.266.234,1.8,1.8,0,0,1,.229.341c.066.126.129.253.186.382s.109.261.154.4a3.532,3.532,0,0,1,.111.416,3.2,3.2,0,0,1,.057.441c0,.032,0,.065,0,.1s0,.067,0,.1a.845.845,0,0,0,.008.1.4.4,0,0,0,.022.087,2.108,2.108,0,0,1,.1.334,1.89,1.89,0,0,1,.04.329,1.989,1.989,0,0,1-.017.331,2.442,2.442,0,0,1-.071.338.645.645,0,0,0-.027.216.406.406,0,0,0,.049.175.388.388,0,0,0,.121.131.578.578,0,0,0,.188.081.686.686,0,0,1,.123.043.6.6,0,0,1,.107.064.679.679,0,0,1,.095.086.941.941,0,0,1,.086.11,3.765,3.765,0,0,0,.327.421c.115.13.236.25.36.366s.251.227.377.337.254.221.378.336c.158.146.319.284.483.416s.331.257.5.378.339.238.511.352.346.225.52.335l.552.345q.276.172.552.346t.549.355q.273.181.543.373c.165.117.331.233.5.348s.333.231.5.349.331.236.5.359.327.248.487.378a1.368,1.368,0,0,1,.124.118c.04.042.079.087.118.132s.078.09.118.132a1.369,1.369,0,0,0,.124.118c.074.06.146.125.219.188s.147.126.222.182a1.414,1.414,0,0,0,.236.145.841.841,0,0,0,.259.077,1.8,1.8,0,0,0,.232.241,2.528,2.528,0,0,0,.254.191c.087.058.176.112.265.166s.178.107.265.165.175.115.264.171l.27.168.277.17.287.177c.023-.036.046-.07.07-.1l.069-.1c.022-.033.044-.065.063-.1a.729.729,0,0,0,.05-.106,1.564,1.564,0,0,1,.112-.237,1.144,1.144,0,0,1,.141-.193.887.887,0,0,1,.169-.145.788.788,0,0,1,.2-.093,1.692,1.692,0,0,0,.267-.114c.087-.045.174-.093.262-.134a1.164,1.164,0,0,1,.271-.094.679.679,0,0,1,.294.005.327.327,0,0,1,.192-.07.587.587,0,0,1,.193.032c.064.02.129.045.193.063a.49.49,0,0,0,.192.021.071.071,0,0,1,.029,0,.141.141,0,0,1,.031.014.2.2,0,0,1,.029.021.178.178,0,0,1,.023.025,1.068,1.068,0,0,0,.184.195,2.024,2.024,0,0,0,.207.147c.071.045.142.088.21.135a1.348,1.348,0,0,1,.2.158c.082.082.168.159.254.234l.26.223c.087.075.172.152.255.235a2.777,2.777,0,0,1,.239.27q.086.112.162.226t.146.233q.07.119.133.242t.124.254a2.529,2.529,0,0,1,.154.431,2.037,2.037,0,0,1,.063.426,1.893,1.893,0,0,1-.031.423,2.077,2.077,0,0,1-.128.421q-.027.067-.053.135t-.051.138q-.025.069-.048.14t-.046.14a1.073,1.073,0,0,0-.052.254.628.628,0,0,0,.02.218.441.441,0,0,0,.1.174.492.492,0,0,0,.174.122A2.523,2.523,0,0,1,56,23.8a3.467,3.467,0,0,1,.42.362,5.689,5.689,0,0,1,.383.429c.124.152.244.311.363.474.016.113.028.227.038.341s.019.229.03.345.024.231.043.348a3.019,3.019,0,0,0,.076.35,1.86,1.86,0,0,1,.058.3,3.139,3.139,0,0,1,.019.316c0,.107,0,.215,0,.322s-.008.213-.012.317a1.309,1.309,0,0,1-.118.507,1.5,1.5,0,0,1-.121.215,1.852,1.852,0,0,1-.149.193q-.124.141-.237.292t-.215.314q-.1.163-.193.337t-.172.36a1.083,1.083,0,0,0-.047.126.749.749,0,0,0-.026.123.683.683,0,0,0,0,.127.82.82,0,0,0,.021.136c.01.042.017.085.023.129s.011.088.017.131.013.087.022.128a.726.726,0,0,0,.036.12.412.412,0,0,0,.054.094c.022.029.047.057.072.084s.05.055.073.084a.467.467,0,0,1,.059.093,1.32,1.32,0,0,1,.054.141c.016.049.029.1.043.148s.027.1.041.149.03.1.048.145a4.919,4.919,0,0,1,.187.593,4.211,4.211,0,0,1,.1.595,4.022,4.022,0,0,1,.013.6,4.315,4.315,0,0,1-.079.621c-.05.25-.1.465-.157.656a2.791,2.791,0,0,1-.2.512,2.165,2.165,0,0,1-.3.43,3.48,3.48,0,0,1-.446.411c-.029.023-.058.048-.087.074s-.056.053-.083.082-.054.057-.079.087-.051.06-.076.091a.443.443,0,0,0-.068.107.285.285,0,0,0-.024.112.312.312,0,0,0,.024.119.551.551,0,0,0,.076.13.348.348,0,0,1,.042.074.613.613,0,0,1,.03.091.823.823,0,0,1,.018.1.792.792,0,0,1,.006.094c0,.114.009.23.018.346s.019.233.021.348a1.444,1.444,0,0,1-.03.335.866.866,0,0,1-.134.31,1.445,1.445,0,0,1-.008.345c-.015.112-.038.222-.06.333a3.155,3.155,0,0,0-.054.335,1.33,1.33,0,0,0,.011.352.951.951,0,0,1,.014.175.915.915,0,0,1-.018.167.956.956,0,0,1-.047.159,1.069,1.069,0,0,1-.073.151,1.184,1.184,0,0,0-.055.11c-.017.038-.032.078-.047.119s-.027.082-.039.125-.023.085-.032.127a1.811,1.811,0,0,1-.153.421,2.3,2.3,0,0,1-.222.348c-.082.108-.17.209-.258.309s-.177.2-.26.3a.793.793,0,0,1-.121.121.707.707,0,0,1-.146.091.615.615,0,0,1-.165.05.579.579,0,0,1-.179,0,1.706,1.706,0,0,0-.214-.016c-.071,0-.142,0-.214-.007a1.042,1.042,0,0,1-.214-.035.755.755,0,0,1-.215-.1.333.333,0,0,0-.109-.047.677.677,0,0,0-.124-.016c-.043,0-.089,0-.136,0a1.448,1.448,0,0,1-.145-.01,3.009,3.009,0,0,1-.017.408c-.014.131-.034.258-.053.384s-.039.25-.053.375a2.6,2.6,0,0,0-.015.382c0,.026,0,.052,0,.079s0,.054,0,.08a.6.6,0,0,1-.006.077.3.3,0,0,1-.018.069c-.054.131-.1.267-.151.4s-.095.273-.146.407a3.885,3.885,0,0,1-.17.39,2.079,2.079,0,0,1-.223.351c-.05.062-.1.122-.152.179s-.1.11-.16.16a1.8,1.8,0,0,1-.171.138,1.464,1.464,0,0,1-.187.113.207.207,0,0,1-.044.016l-.047.01a.263.263,0,0,0-.044.013.106.106,0,0,0-.037.024,1.564,1.564,0,0,1-.58.393,1.9,1.9,0,0,1-.627.115,5.271,5.271,0,0,1-.651-.032c-.218-.021-.437-.044-.652-.048a.322.322,0,0,1-.147-.048c-.049-.027-.1-.061-.146-.088A.355.355,0,0,0,47.545,47a.175.175,0,0,0-.142.057.46.46,0,0,0-.082.116c-.024.045-.044.094-.065.143s-.041.1-.064.144a.491.491,0,0,1-.081.119,2.223,2.223,0,0,0-.223.271,2.964,2.964,0,0,0-.185.3c-.057.106-.109.215-.158.328s-.1.229-.142.347a1.272,1.272,0,0,1-.1.2,1.151,1.151,0,0,1-.126.17,1.114,1.114,0,0,1-.154.142,1.16,1.16,0,0,1-.18.113c-.1.053-.209.1-.314.148a3.02,3.02,0,0,1-.317.116,2.244,2.244,0,0,1-.329.073,2.01,2.01,0,0,1-.348.019,4.361,4.361,0,0,1-.487-.039,3.4,3.4,0,0,1-.474-.1,3.035,3.035,0,0,1-.463-.176,3.135,3.135,0,0,1-.453-.265.7.7,0,0,0-.068-.041c-.023-.012-.047-.024-.071-.034l-.073-.029-.073-.026a.058.058,0,0,0-.026,0,.141.141,0,0,0-.028.008l-.029.011-.029.01a3.038,3.038,0,0,1-.264.489,5.6,5.6,0,0,1-.383.519,5.223,5.223,0,0,1-.429.461,2.372,2.372,0,0,1-.4.316c-.059.034-.119.067-.181.1a1.506,1.506,0,0,1-.192.079.972.972,0,0,1-.2.045.78.78,0,0,1-.215-.007c-.05-.009-.1-.016-.151-.021s-.1-.008-.151-.01l-.151,0-.151,0a.833.833,0,0,1-.121-.01.621.621,0,0,1-.117-.03.561.561,0,0,1-.112-.056.63.63,0,0,1-.107-.088,2.84,2.84,0,0,0-.291-.251c-.1-.077-.2-.149-.3-.223s-.2-.151-.3-.237a2.038,2.038,0,0,1-.272-.293.4.4,0,0,0-.114-.107.2.2,0,0,0-.117-.028.252.252,0,0,0-.119.045.59.59,0,0,0-.121.112c-.048.057-.092.121-.136.185s-.087.128-.134.187a.84.84,0,0,1-.155.155.474.474,0,0,1-.2.087,1.432,1.432,0,0,1-.324.28,1.359,1.359,0,0,1-.357.156,1.793,1.793,0,0,1-.382.061,3.032,3.032,0,0,1-.4-.007c-.089-.007-.177-.011-.265-.017s-.176-.012-.264-.023a1.808,1.808,0,0,1-.264-.053,1.383,1.383,0,0,1-.265-.106.544.544,0,0,0-.14-.049.832.832,0,0,0-.149-.016c-.05,0-.1,0-.152,0l-.15.012a.581.581,0,0,1-.167-.012.753.753,0,0,1-.157-.054,1.271,1.271,0,0,1-.151-.084c-.049-.032-.1-.066-.147-.1a.947.947,0,0,1-.076-.062l-.074-.068c-.024-.023-.049-.045-.074-.066a.588.588,0,0,0-.077-.054.668.668,0,0,1-.129-.091.516.516,0,0,1-.157-.262.7.7,0,0,1-.02-.177.88.88,0,0,0-.019-.2.909.909,0,0,0-.057-.175,1.311,1.311,0,0,0-.087-.164c-.033-.054-.07-.107-.109-.162q-.2.123-.4.258t-.392.282q-.195.147-.388.306t-.388.329c.028.045.053.093.078.142s.049.1.073.142a.893.893,0,0,0,.075.12.254.254,0,0,0,.084.075,1.108,1.108,0,0,1,.225.15,1.592,1.592,0,0,1,.19.195c.059.071.114.147.168.225s.105.159.157.24a3.713,3.713,0,0,0,.218.3c.076.1.155.187.234.277s.158.179.235.269.152.182.222.277a2.862,2.862,0,0,1,.055.4,2.524,2.524,0,0,1-.059.734,2.914,2.914,0,0,1-.1.348c-.034.092-.064.187-.093.283s-.056.194-.082.293-.052.2-.078.3-.053.2-.082.308a.806.806,0,0,0,.058.133.5.5,0,0,0,.078.107.312.312,0,0,0,.1.069.269.269,0,0,0,.12.021.543.543,0,0,1,.186.024.768.768,0,0,1,.172.079,1.312,1.312,0,0,1,.158.114c.05.042.1.086.144.13a2.412,2.412,0,0,0,.205.17c.071.053.142.105.211.162a1.569,1.569,0,0,1,.2.187,1.108,1.108,0,0,1,.163.246c.005.011.011.022.018.033a.372.372,0,0,0,.021.032.214.214,0,0,0,.023.027.1.1,0,0,0,.024.018,1.164,1.164,0,0,1,.394.294,1.564,1.564,0,0,1,.252.411,3.311,3.311,0,0,1,.161.486c.044.17.082.346.121.52.01.043.022.085.036.127s.029.084.044.126.028.083.04.125a.831.831,0,0,1,.025.127c.01.088.022.176.032.264s.019.177.022.265a1.5,1.5,0,0,1-.011.26.973.973,0,0,1-.068.25.674.674,0,0,0-.041.14.767.767,0,0,0-.011.148,1.007,1.007,0,0,0,.015.155,1.453,1.453,0,0,0,.039.164c.072.055.144.114.216.174s.145.121.218.18.147.116.223.168a1.857,1.857,0,0,0,.231.138,1.2,1.2,0,0,1,.246.161,1.529,1.529,0,0,1,.2.21,2.19,2.19,0,0,1,.171.245c.052.086.1.175.144.265.076.155.148.314.213.476a5.157,5.157,0,0,1,.172.5,4.034,4.034,0,0,1,.115.518,3.464,3.464,0,0,1,.04.541c0,.07,0,.139,0,.21s0,.141.008.213.007.145.011.22.007.151.01.23c.09.028.178.053.264.081s.17.057.253.092a1.591,1.591,0,0,1,.239.125,1.337,1.337,0,0,1,.224.18.247.247,0,0,0,.074.05.4.4,0,0,0,.089.027.708.708,0,0,0,.094.011c.031,0,.062,0,.091,0a.791.791,0,0,1,.314.051.761.761,0,0,1,.253.165,1.243,1.243,0,0,1,.2.267,2.573,2.573,0,0,1,.171.358c.053.135.1.271.15.407s.091.275.134.413.084.277.126.416.082.278.124.416a1.358,1.358,0,0,1,.038.149,1.4,1.4,0,0,1,.022.161.968.968,0,0,1,0,.155.48.48,0,0,1-.028.13,1.1,1.1,0,0,0-.069.275,1.834,1.834,0,0,0-.011.283c0,.1.01.193.017.292s.014.2.016.3c.03.01.06.021.09.032l.087.033c.029.011.057.02.086.028a.513.513,0,0,0,.085.016l.285.026.279.022.268.02.25.018.305.253.29.242.281.232c.093.076.185.15.278.223.058.046.116.09.172.136a1.65,1.65,0,0,1,.161.148.986.986,0,0,1,.237.42.462.462,0,0,0,.042.1.907.907,0,0,0,.06.093c.022.03.045.059.067.089s.043.058.062.087c.019.182.036.363.048.543s.018.358.016.535a4.508,4.508,0,0,1-.036.526,3.433,3.433,0,0,1-.107.516.825.825,0,0,0,.209.11.881.881,0,0,0,.2.044,1.806,1.806,0,0,0,.2.008c.064,0,.127,0,.19,0a1.678,1.678,0,0,1,.289.04,2.063,2.063,0,0,1,.28.086,2.822,2.822,0,0,1,.274.123c.091.046.181.1.271.152a.419.419,0,0,0,.061.029l.064.025a.312.312,0,0,1,.058.031.137.137,0,0,1,.042.045.959.959,0,0,0,.2.24,1.7,1.7,0,0,0,.231.166c.08.05.16.1.238.15a1.116,1.116,0,0,1,.217.193c.051.06.1.122.149.184s.1.126.146.189l.146.19c.049.063.1.125.148.187a.857.857,0,0,1,.086.128.825.825,0,0,1,.059.136.934.934,0,0,1,.035.146,1.215,1.215,0,0,1,.014.158q0,.164.01.329t.013.329q.006.164.012.328t.008.327c0,.037,0,.076,0,.114s-.006.076-.011.113a1.051,1.051,0,0,1-.021.108.748.748,0,0,1-.032.1.925.925,0,0,0-.068.269.756.756,0,0,0,.018.248.9.9,0,0,0,.094.232,1.388,1.388,0,0,0,.158.22c.02.023.039.048.057.073l.056.077a.876.876,0,0,0,.058.071.351.351,0,0,0,.063.055.446.446,0,0,0,.079.042.883.883,0,0,0,.089.03l.1.028c.036.01.073.021.114.034,0-.057,0-.112.006-.166s.008-.1.01-.152a.9.9,0,0,0,0-.134.317.317,0,0,0-.029-.109.642.642,0,0,1-.061-.188.541.541,0,0,1,0-.165.733.733,0,0,1,.04-.147c.018-.046.038-.091.058-.134.052-.107.1-.215.156-.322s.107-.214.163-.318.114-.207.174-.307.123-.2.189-.289A1.1,1.1,0,0,1,48.7,77.6a1.772,1.772,0,0,1,.167-.137c.058-.043.118-.083.178-.124s.12-.081.178-.123.1-.071.152-.1l.155-.1.155-.1c.052-.033.1-.067.154-.1a.477.477,0,0,0,.058-.049c.019-.018.036-.037.054-.057l.053-.061c.018-.02.035-.04.054-.06a3.023,3.023,0,0,1-.122-.448,2.626,2.626,0,0,1-.045-.431,2.657,2.657,0,0,1,.025-.423,3.133,3.133,0,0,1,.09-.422c.041-.145.08-.29.119-.435s.079-.29.123-.432.09-.282.143-.419a3.537,3.537,0,0,1,.182-.4,2.1,2.1,0,0,1,.125-.206.922.922,0,0,1,.144-.164.527.527,0,0,1,.394-.135.354.354,0,0,0,.072,0,.383.383,0,0,0,.074-.019.317.317,0,0,0,.068-.035.229.229,0,0,0,.054-.05,1.721,1.721,0,0,1,.219-.242,1.534,1.534,0,0,1,.248-.184,1.6,1.6,0,0,1,.279-.131,1.924,1.924,0,0,1,.309-.081l-.038-1.043-.035-.958.216-.273.216-.274.217-.273q.109-.136.219-.271A.214.214,0,0,1,53.4,68.8a.4.4,0,0,1,.053-.031l.056-.026a.576.576,0,0,0,.055-.028l.2-.115.2-.116.2-.117.2-.117c.064-.037.127-.073.192-.1a1.316,1.316,0,0,1,.2-.077.9.9,0,0,1,.207-.037.826.826,0,0,1,.222.018,1.147,1.147,0,0,0,.139.022c.046,0,.093.007.14.009l.14.007c.047,0,.094.007.141.014.025,0,.05.008.076.014a.754.754,0,0,1,.077.021.585.585,0,0,1,.075.031.46.46,0,0,1,.069.043c.106.08.211.161.313.248a3.079,3.079,0,0,1,.29.28,2.248,2.248,0,0,1,.25.334,2.152,2.152,0,0,1,.194.41c.021.061.045.12.07.179s.053.117.081.175.057.115.085.173.057.115.084.172a2.424,2.424,0,0,1,.155.434,2,2,0,0,1,.059.425,1.927,1.927,0,0,1-.034.419,2.2,2.2,0,0,1-.125.416c-.052.128-.108.251-.168.371s-.124.235-.191.347-.136.222-.207.33-.143.214-.217.32c-.049.071-.1.138-.135.206a.811.811,0,0,0-.089.21.569.569,0,0,0-.008.236.906.906,0,0,0,.107.285.455.455,0,0,1,.047.121.5.5,0,0,1,.013.129.591.591,0,0,1-.019.132.689.689,0,0,1-.048.129.694.694,0,0,0-.062.19.818.818,0,0,0-.008.2,1.3,1.3,0,0,0,.033.205c.017.07.038.142.062.216s.056.169.084.254.055.171.079.258.047.175.064.264a2.4,2.4,0,0,1,.039.272.646.646,0,0,0,.024.125,1.3,1.3,0,0,0,.044.126c.017.042.035.084.053.127s.036.085.052.129a2.656,2.656,0,0,1-.089.291,2.4,2.4,0,0,1-.118.268,2.263,2.263,0,0,1-.147.246,2.232,2.232,0,0,1-.175.223c-.033.036-.066.071-.1.1s-.068.064-.1.094-.072.058-.111.084-.078.051-.12.074c-.094.052-.186.107-.277.165s-.181.118-.271.18l-.269.187c-.09.063-.18.125-.27.187a.594.594,0,0,0-.018.293.777.777,0,0,0,.042.143,1.21,1.21,0,0,0,.069.145c.034.06.066.122.1.185s.06.127.09.191.06.128.09.19.063.124.1.183a1.5,1.5,0,0,1,.141.319,1.643,1.643,0,0,1,.065.325,2.01,2.01,0,0,1,0,.322,2.615,2.615,0,0,1-.039.31c-.023.125-.052.249-.085.37s-.071.241-.111.359-.083.235-.127.352l-.131.347a.581.581,0,0,1-.07.133.618.618,0,0,1-.1.106.82.82,0,0,1-.115.085,1.278,1.278,0,0,1-.128.069,1.44,1.44,0,0,0-.158.087c-.051.032-.1.068-.152.1l-.15.113c-.05.038-.1.076-.153.113,0,.047,0,.092,0,.136s0,.086,0,.126,0,.08,0,.119a1.041,1.041,0,0,0,.014.115.954.954,0,0,0,.035.13c.015.043.031.086.047.128s.03.085.042.127a.561.561,0,0,1,.021.125.439.439,0,0,1-.015.124c-.01.041-.024.081-.038.121s-.028.08-.038.12a.415.415,0,0,0-.013.122,1.706,1.706,0,0,1-.008.272,1.872,1.872,0,0,1-.045.249c-.02.08-.044.159-.071.237s-.056.156-.086.235a2.6,2.6,0,0,1-.147.313c-.054.1-.112.193-.171.287s-.119.186-.176.281-.113.192-.162.3a.926.926,0,0,1-.1.165,1.058,1.058,0,0,1-.132.139,1.284,1.284,0,0,1-.152.115,1.583,1.583,0,0,1-.165.093,1.049,1.049,0,0,0-.117.068c-.038.025-.076.053-.113.082l-.114.089c-.039.03-.078.061-.12.09.027.04.051.079.074.117l.067.109c.022.035.043.067.065.1a.818.818,0,0,0,.069.085,1.712,1.712,0,0,1,.206.268,2.642,2.642,0,0,1,.16.3c.048.1.091.21.133.318s.082.216.125.323a2.071,2.071,0,0,1,.073.459c.018.213.03.471.035.728s0,.515,0,.727a2.505,2.505,0,0,1-.044.455c-.015.053-.031.1-.048.154a1.437,1.437,0,0,1-.058.143.969.969,0,0,1-.074.13.778.778,0,0,1-.1.115q-.057.056-.11.117t-.1.127q-.05.066-.1.135t-.091.142a.381.381,0,0,0-.037.087.99.99,0,0,0-.024.1c-.007.038-.013.077-.02.119s-.015.085-.025.129a1,1,0,0,1,.425.236,1.229,1.229,0,0,1,.262.374,2.832,2.832,0,0,1,.162.458c.044.16.082.325.125.486.011.043.022.086.032.128l.03.128c.01.043.02.086.031.129s.023.086.035.13a2.673,2.673,0,0,1,.074.3,1.934,1.934,0,0,1,.032.3,1.472,1.472,0,0,1-.022.3,1.249,1.249,0,0,1-.089.288c-.056.126-.109.254-.162.383s-.1.258-.157.386-.105.257-.16.384-.11.252-.169.375a.986.986,0,0,1-.145.223,1.025,1.025,0,0,1-.184.165,1.353,1.353,0,0,1-.211.121,2.175,2.175,0,0,1-.226.089l-.042.013-.042.01-.041.009-.039.009c-.031.111-.065.22-.1.329s-.065.218-.089.33a2.033,2.033,0,0,0-.048.347,1.684,1.684,0,0,0,.026.381,2.512,2.512,0,0,0-.247.3,3.435,3.435,0,0,0-.208.335c-.064.117-.123.238-.18.362s-.11.252-.161.38a3.457,3.457,0,0,1-.153.328,2.587,2.587,0,0,1-.182.294,2.033,2.033,0,0,1-.216.255,1.727,1.727,0,0,1-.255.21.554.554,0,0,0-.071.058c-.023.021-.045.044-.067.067s-.044.046-.067.066a.518.518,0,0,1-.071.056,2.047,2.047,0,0,1-.224.126.979.979,0,0,1-.233.078.681.681,0,0,1-.247,0,.782.782,0,0,1-.265-.1l-.072-.039-.074-.035c-.025-.011-.05-.021-.075-.029s-.05-.016-.074-.023-.06-.013-.09-.018l-.094-.011-.1-.009-.114-.011c0,.044-.006.086-.009.126s-.007.079-.01.117-.005.074-.006.11a1.069,1.069,0,0,0,0,.108,1.154,1.154,0,0,1,0,.173,1.065,1.065,0,0,1-.024.159,1.147,1.147,0,0,1-.045.149,1.455,1.455,0,0,1-.063.142,3.955,3.955,0,0,1-.208.363,2.98,2.98,0,0,1-.238.32,2.373,2.373,0,0,1-.273.271,2.064,2.064,0,0,1-.313.217l-.052.031a3.566,3.566,0,0,1-.357.188,2.094,2.094,0,0,1-.37.129,1.54,1.54,0,0,1-.389.044,1.5,1.5,0,0,1-.414-.067.107.107,0,0,0-.041,0,.234.234,0,0,0-.044.008l-.047.014a.491.491,0,0,1-.051.013,1.292,1.292,0,0,0-.053.4,1.8,1.8,0,0,0,.054.389,3.594,3.594,0,0,0,.118.378c.045.124.094.246.138.366.058.156.107.314.151.473s.085.319.126.479.081.319.126.477.095.314.153.468a.1.1,0,0,1,.005.019.193.193,0,0,1,0,.02l0,.02c0,.007,0,.013,0,.02a2.328,2.328,0,0,1,.037.469.56.56,0,0,1-.081.292.35.35,0,0,1-.215.14,1.113,1.113,0,0,1-.365.014c-.1-.009-.2-.023-.3-.037s-.2-.027-.3-.034a1.709,1.709,0,0,0-.3,0,1.084,1.084,0,0,0-.291.069.2.2,0,0,1-.1.009.588.588,0,0,1-.118-.033c-.041-.015-.083-.033-.125-.05a1.148,1.148,0,0,0-.123-.044.8.8,0,0,1-.092-.034c-.032-.013-.064-.027-.095-.039a.389.389,0,0,0-.088-.024.111.111,0,0,0-.072.012.592.592,0,0,1-.2.074.841.841,0,0,1-.2.009c-.069,0-.138-.015-.207-.026s-.138-.023-.207-.031l-1.039-.118q-.519-.059-1.036-.119t-1.034-.127q-.516-.066-1.032-.141a1.73,1.73,0,0,0-.342-.014,2.749,2.749,0,0,0-.327.04c-.108.019-.214.042-.321.063s-.214.042-.322.057a.493.493,0,0,0-.082.019l-.081.027a.811.811,0,0,1-.081.024.342.342,0,0,1-.083.01c-.058,0-.117-.005-.175-.009s-.116-.008-.174-.007a.8.8,0,0,0-.171.018.557.557,0,0,0-.166.066.185.185,0,0,1-.076.025.392.392,0,0,1-.088,0c-.031,0-.062-.009-.093-.016l-.092-.017a2.209,2.209,0,0,0-.366-.028,2.908,2.908,0,0,0-.356.025c-.117.015-.234.036-.35.059s-.232.049-.348.075a1.1,1.1,0,0,1-.184.024,1.172,1.172,0,0,1-.193-.006,1.1,1.1,0,0,1-.192-.04.951.951,0,0,1-.181-.076,3.177,3.177,0,0,0-.3-.144c-.1-.042-.2-.078-.3-.111s-.2-.061-.3-.086-.2-.048-.3-.07-.2-.045-.294-.072-.2-.055-.292-.087-.192-.067-.286-.106-.186-.082-.277-.128a2.161,2.161,0,0,0-.233-.1,2.394,2.394,0,0,0-.229-.073c-.076-.02-.152-.037-.228-.051s-.152-.027-.229-.039c-.034-.006-.069-.01-.1-.014l-.1-.011-.1-.013c-.034-.005-.068-.012-.1-.02l-.073-.021a.676.676,0,0,1-.074-.029.405.405,0,0,1-.068-.04.26.26,0,0,1-.055-.054,1.759,1.759,0,0,0-.241-.261,2.1,2.1,0,0,0-.262-.2c-.09-.057-.181-.108-.274-.158s-.185-.1-.277-.147l-.124-.065-.124-.064c-.041-.022-.083-.044-.123-.067s-.081-.049-.12-.076a.928.928,0,0,1-.077-.058.982.982,0,0,1-.075-.069.925.925,0,0,1-.068-.079.8.8,0,0,1-.059-.086c-.086-.147-.175-.291-.265-.435s-.18-.288-.266-.434-.169-.3-.245-.452a4.183,4.183,0,0,1-.2-.487c-.018-.052-.039-.1-.062-.153s-.048-.1-.075-.148-.055-.1-.083-.144-.057-.094-.086-.14a1.3,1.3,0,0,1-.156-.359,1.631,1.631,0,0,1-.051-.361c0-.12,0-.241.008-.361s.017-.241.02-.362a.879.879,0,0,0,.114-.257,1.921,1.921,0,0,0,.053-.289c.012-.1.02-.2.03-.3a2.37,2.37,0,0,1,.046-.294,2.141,2.141,0,0,1,.061-.221.976.976,0,0,1,.084-.185.571.571,0,0,1,.119-.143.512.512,0,0,1,.167-.094.569.569,0,0,0,.115-.056c.037-.023.074-.048.111-.073a.9.9,0,0,1,.111-.065.329.329,0,0,1,.116-.033,1.828,1.828,0,0,0,.264-.043c.087-.02.175-.042.262-.059a1.309,1.309,0,0,1,.267-.027.822.822,0,0,1,.277.051c.052.019.1.039.155.06l.155.064c.052.021.1.042.155.062s.1.038.156.054l.141.041.141.044c.047.016.094.032.141.051s.1.039.143.062l.29.14c.1.046.195.091.294.131a2.542,2.542,0,0,0,.3.1,1.659,1.659,0,0,0,.31.053c.244.018.489.041.734.065s.491.052.736.081l.738.088q.369.044.739.086l.118.015a.447.447,0,0,0,.115,0,.215.215,0,0,0,.1-.044.3.3,0,0,0,.084-.116m-.208-57.29q-.034-.192-.065-.379l-.063-.368q-.031-.182-.063-.361t-.065-.358q-.018-.094-.037-.188T33.85,43.5q-.021-.094-.043-.187l-.044-.187q-.046-.2-.093-.392l-.094-.391-.094-.39-.094-.391-.071-.3-.071-.3-.07-.3q-.035-.149-.069-.3l-.248-1.083L32.612,38.2q-.123-.542-.246-1.083t-.244-1.084q-.025-.112-.048-.226t-.043-.227q-.02-.114-.037-.228t-.029-.229c-.05-.441-.117-.877-.2-1.31s-.171-.864-.268-1.293-.2-.856-.3-1.284-.2-.855-.3-1.284a.137.137,0,0,0-.023-.044.319.319,0,0,0-.039-.044.233.233,0,0,0-.04-.032c-.012-.007-.022-.01-.027-.007a.384.384,0,0,0-.047.033.392.392,0,0,0-.046.044.248.248,0,0,0-.035.05.119.119,0,0,0-.014.051c0,.057,0,.114,0,.171s0,.115.007.172.008.114.015.171.015.113.025.169c.066.358.125.717.18,1.077s.109.72.164,1.08.112.72.176,1.078.135.715.218,1.07q.011.047.02.094t.017.095q.008.048.015.1t.013.095c.066.489.143.975.228,1.46s.178.968.277,1.45.2.963.307,1.443.214.96.321,1.44l.192.861q.1.43.194.86t.2.859q.1.429.2.858a1.891,1.891,0,0,1,.047.26.9.9,0,0,1,0,.227.564.564,0,0,1-.068.2.6.6,0,0,1-.146.167.719.719,0,0,0-.069.063c-.022.023-.043.047-.064.073s-.041.052-.061.078l-.059.08a4,4,0,0,0-.267.409,3.821,3.821,0,0,0-.216.446,3.868,3.868,0,0,0-.161.486,4.162,4.162,0,0,0-.1.53c0,.03-.006.061-.008.092s0,.063,0,.1,0,.064.006.1.007.063.012.093a.351.351,0,0,0,.054.143.262.262,0,0,0,.1.088.2.2,0,0,0,.114.023.2.2,0,0,0,.111-.052.579.579,0,0,0,.077-.087.483.483,0,0,0,.056-.1.5.5,0,0,0,.031-.117.63.63,0,0,0,0-.136,1.464,1.464,0,0,1,0-.194,1.273,1.273,0,0,1,.024-.183,1.128,1.128,0,0,1,.05-.171,1.035,1.035,0,0,1,.075-.156q.068-.116.138-.231t.141-.228q.071-.113.146-.223t.152-.216c.055-.074.111-.146.168-.216s.115-.139.172-.207l.171-.2c.056-.065.111-.13.164-.193" transform="translate(49.437 24.567)" fill="#161615"/>
        <path id="Path_82" data-name="Path 82" d="M34,33.712l.055-.014.053-.015a.447.447,0,0,1,.051-.011.224.224,0,0,1,.051,0l1.068.081,1.071.082,1.074.082L38.5,34a2.813,2.813,0,0,1,.183.3c.054.1.1.21.146.317s.084.216.121.326.073.22.108.329.073.235.108.354.067.238.1.357l.1.358c.032.119.065.238.1.357a4.684,4.684,0,0,1,.13.625,6.227,6.227,0,0,1,.054.624c.008.208.008.415,0,.622s-.013.413-.021.619q-.022.591-.065,1.175t-.1,1.165q-.057.58-.124,1.158T39.2,43.839a7.57,7.57,0,0,1-.153.858,6.419,6.419,0,0,1-.242.786,5.7,5.7,0,0,1-.33.716,5.373,5.373,0,0,1-.417.646l-.2.265-.2.262q-.1.13-.207.259t-.209.255q-.162.2-.326.391l-.331.392-.34.4-.351.414-.187-.019-.2-.021-.212-.02c-.072-.006-.144-.012-.217-.016-.246-.015-.492-.04-.738-.067s-.492-.058-.737-.084-.49-.048-.735-.059a6.216,6.216,0,0,0-.73.007h-.04l-.041,0-.041-.005-.04-.01a3.034,3.034,0,0,0-.476-.1c-.158-.02-.315-.03-.472-.035s-.314-.005-.47-.006-.313,0-.47-.012q-.2-.012-.4-.029t-.4-.036l-.4-.04-.4-.04-.539-.05-.541-.051-.545-.052-.552-.053c-.078-.1-.16-.19-.243-.285s-.165-.191-.247-.291-.16-.205-.235-.318a3.031,3.031,0,0,1-.208-.365,2.191,2.191,0,0,0-.115-.211,1.988,1.988,0,0,0-.135-.192,1.765,1.765,0,0,0-.153-.169,1.549,1.549,0,0,0-.17-.142l-.05-.037a.631.631,0,0,1-.049-.043.373.373,0,0,1-.043-.049.226.226,0,0,1-.029-.055,3.288,3.288,0,0,0-.178-.4c-.066-.128-.138-.252-.208-.376s-.139-.25-.2-.381a2.649,2.649,0,0,1-.157-.414c-.008-.029-.015-.059-.021-.089s-.013-.061-.02-.091A.762.762,0,0,0,23.8,44.7a.322.322,0,0,0-.036-.072,3.906,3.906,0,0,1-.287-.5c-.084-.175-.159-.356-.229-.539s-.136-.37-.2-.556-.133-.372-.205-.554q-.066-.166-.13-.333t-.126-.332l-.123-.329q-.061-.163-.122-.324a.135.135,0,0,0-.075.008.073.073,0,0,0-.036.04.176.176,0,0,0-.01.06c0,.022,0,.046,0,.069q.033.649.067,1.3t.067,1.3q.033.649.067,1.3t.068,1.3q.009.181.021.361t.024.361q.012.18.024.36t.022.36c0,.028,0,.057,0,.086s0,.058,0,.087,0,.059-.007.09,0,.062-.006.094c-.139.007-.277.019-.413.029s-.271.019-.405.023a3.281,3.281,0,0,1-.4-.013,2.3,2.3,0,0,1-.411-.078,2.628,2.628,0,0,0-.329-.07c-.11-.017-.22-.027-.331-.035s-.221-.014-.331-.019-.22-.012-.33-.021l-1.33-.108-1.326-.106-1.321-.106-1.317-.106-.13-.011-.131-.013-.135-.013-.141-.014c-.008-.051-.016-.1-.024-.146s-.017-.091-.024-.134-.014-.085-.019-.126-.008-.081-.009-.121q-.011-.4-.022-.8t-.021-.8q-.009-.4-.017-.8t-.011-.8c.024-.01.045-.02.065-.031l.056-.029a.338.338,0,0,1,.05-.021.132.132,0,0,1,.047-.007l.416.03.416.032.417.033.417.033.143.012.144.013.144.014.144.015.248.026.248.027.248.026.248.024c.038,0,.076,0,.115.006h.371c0-.05,0-.1,0-.144s0-.09,0-.133,0-.084,0-.125,0-.082,0-.122q-.01-.286-.019-.573t-.019-.573q-.01-.286-.02-.573t-.021-.573q-.055-1.425-.111-2.851l-.111-2.852q-.056-1.426-.111-2.853t-.11-2.853q-.012-.314-.02-.628t-.016-.627Q17,28.353,17,28.04t-.017-.628c0-.059,0-.118,0-.178a1.61,1.61,0,0,0-.015-.181.916.916,0,0,0-.046-.183.8.8,0,0,0-.1-.182,2.291,2.291,0,0,0-.3-.072,1.339,1.339,0,0,0-.3-.018,1,1,0,0,0-.292.06,1.058,1.058,0,0,0-.286.162,6.128,6.128,0,0,0-.465.4,4.549,4.549,0,0,0-.42.459,4.02,4.02,0,0,0-.361.539,4.185,4.185,0,0,0-.289.641L14.064,29q-.025.069-.051.136t-.054.134q-.028.066-.058.131a1.7,1.7,0,0,0-.084.211,2.234,2.234,0,0,0-.059.223c-.016.076-.03.154-.041.234s-.02.161-.027.243q-.02.218-.041.435t-.043.434q-.022.216-.047.432t-.051.43c-.028.23-.054.46-.078.691s-.044.462-.061.695-.029.466-.036.7-.009.472,0,.711c0,.047,0,.094,0,.141s0,.094-.006.141-.006.094-.009.14-.006.094-.007.14l-.02.475q-.01.237-.02.475t-.02.475q-.01.237-.019.475c0,.03,0,.06,0,.09s0,.061,0,.091,0,.06,0,.089a.542.542,0,0,1-.007.085c-.035.2-.064.407-.087.613s-.043.413-.06.621-.032.417-.047.625-.031.417-.049.625a8.165,8.165,0,0,1-.144.979,8.009,8.009,0,0,1-.246.9,8.5,8.5,0,0,1-.332.837c-.123.269-.259.529-.4.782q-.146.256-.3.506t-.3.5q-.153.247-.308.493l-.308.493a2.228,2.228,0,0,1-.227.3,2.254,2.254,0,0,1-.257.246,2.624,2.624,0,0,1-.28.2c-.1.06-.2.114-.3.164q-.11.055-.221.107t-.223.1q-.112.048-.225.09t-.228.079a1.376,1.376,0,0,1-.286.058,1.765,1.765,0,0,1-.292,0,2.622,2.622,0,0,1-.295-.038c-.1-.018-.2-.041-.3-.066a3.264,3.264,0,0,1-.382-.125,4.039,4.039,0,0,1-.374-.171c-.124-.064-.246-.134-.367-.21s-.241-.157-.36-.243l-.356-.256-.354-.26q-.177-.131-.352-.265t-.35-.272q-.134-.106-.261-.226t-.249-.25q-.122-.131-.24-.271t-.233-.289c-.139-.18-.268-.369-.392-.565s-.24-.4-.354-.6-.224-.414-.335-.622-.221-.416-.335-.621c-.014-.025-.027-.05-.04-.076s-.025-.053-.037-.08-.022-.054-.031-.082a.829.829,0,0,1-.023-.083c-.048-.219-.1-.438-.15-.658s-.1-.44-.142-.66-.078-.442-.1-.663a5.212,5.212,0,0,1-.033-.666c0-.2.006-.392.012-.588s.014-.392.03-.585a5.343,5.343,0,0,1,.076-.57,3.386,3.386,0,0,1,.149-.541c.028-.075.048-.131.067-.178a.818.818,0,0,1,.059-.121.908.908,0,0,1,.087-.117c.037-.044.085-.1.15-.166a.172.172,0,0,1,.063.056.185.185,0,0,1,.028.072.356.356,0,0,1,0,.081c0,.028-.005.056-.009.084-.012.09-.023.179-.031.268s-.015.178-.019.269,0,.182,0,.275.011.188.023.286a3.477,3.477,0,0,0,.084.445,3.555,3.555,0,0,0,.132.407c.051.131.109.257.172.382s.132.248.2.371.165.27.252.394.177.243.271.355a4.225,4.225,0,0,0,.293.315,3.8,3.8,0,0,0,.317.276,2.108,2.108,0,0,0,.505.3,1.247,1.247,0,0,0,.486.1,1.1,1.1,0,0,0,.465-.113,1.624,1.624,0,0,0,.443-.326,2.933,2.933,0,0,0,.247-.285,3.393,3.393,0,0,0,.217-.322q.1-.17.19-.359t.166-.4q.083-.224.145-.454t.1-.467q.042-.237.065-.483t.029-.5c0-.035,0-.069.006-.1s.006-.069.009-.1.007-.069.011-.1l.011-.1.067-.617.067-.616.068-.617.068-.617c.043-.395.09-.788.143-1.178s.112-.777.181-1.16.146-.761.235-1.134.191-.74.307-1.1c.074-.23.154-.452.243-.665a5.613,5.613,0,0,1,.293-.607,3.878,3.878,0,0,1,.358-.532,2.936,2.936,0,0,1,.437-.44l.086-.069c.029-.023.057-.048.084-.073a.941.941,0,0,0,.078-.082.694.694,0,0,0,.067-.095,1.922,1.922,0,0,1,.24-.32,2.248,2.248,0,0,1,.274-.249c.1-.074.2-.141.3-.206s.2-.126.3-.189a.576.576,0,0,1,.092-.046.964.964,0,0,1,.1-.032l.1-.026.1-.026.368-.108c.123-.037.246-.076.369-.119s.245-.09.368-.144a3.781,3.781,0,0,0,.365-.185c-.013-.016-.025-.033-.036-.049l-.031-.045a.237.237,0,0,0-.027-.033.043.043,0,0,0-.025-.014l-.819-.074-.818-.072-.816-.069L9.54,24.73l-.721-.053-.719-.05-.717-.048-.714-.048q-.3-.439-.571-.9t-.51-.94q-.24-.48-.455-.981t-.406-1.023Q4.6,20.347,4.5,20t-.18-.7c-.053-.234-.1-.471-.142-.708s-.079-.477-.113-.718-.07-.494-.105-.74-.071-.494-.106-.741-.07-.494-.1-.741-.067-.494-.1-.741-.057-.522-.075-.782-.028-.52-.034-.78-.006-.518,0-.777.008-.516.014-.774q.009-.351.024-.7t.036-.7q.021-.349.047-.7t.058-.694q.018-.2.045-.393t.062-.389q.035-.193.078-.382T4,7.472q.088-.329.183-.654t.194-.648q.1-.323.2-.646t.2-.647c.093-.309.2-.608.309-.9s.234-.573.363-.849.264-.546.4-.812.284-.528.431-.789A1.76,1.76,0,0,1,6.508,1.2a1.186,1.186,0,0,1,.266-.22,1.04,1.04,0,0,1,.3-.121A1.253,1.253,0,0,1,7.414.835l.4.018.4.016.4.015.4.015,2.454.1,2.468.1,2.482.1,2.5.1.279.009.279.007.278.007.278.009c.03,0,.06,0,.091.007l.094.013.1.017.109.018c.015.121.026.24.034.358s.015.235.02.35.011.23.017.344.014.227.026.34c.008.084.018.168.027.252s.02.168.03.252.02.168.029.252.018.168.026.253.014.157.02.235.012.157.017.235.01.157.015.235.009.157.013.236q.016.326.03.652t.029.652q.014.326.029.652t.031.652c0,.058.006.116.01.176a1.763,1.763,0,0,0,.021.181,1.146,1.146,0,0,0,.049.188,1.087,1.087,0,0,0,.093.2L21.06,7.9l.063-.162.059-.152.059-.145c.021-.05.043-.1.065-.149l.067-.147c.022-.049.044-.1.065-.148s.042-.1.061-.151l.1-.262c.033-.087.066-.174.1-.259s.071-.17.11-.252.08-.163.125-.242a1.806,1.806,0,0,0,.092-.185c.028-.065.053-.132.078-.2s.047-.138.07-.208.045-.14.069-.209q.065-.192.138-.376t.157-.357q.084-.173.18-.335a3.526,3.526,0,0,1,.207-.31q.05-.066.1-.135t.1-.14q.047-.071.092-.145t.086-.151a4.4,4.4,0,0,1,.3-.48,5.03,5.03,0,0,1,.339-.421c.118-.132.241-.257.367-.378s.255-.237.385-.353a.845.845,0,0,1,.127-.094.715.715,0,0,1,.131-.062.747.747,0,0,1,.138-.034.957.957,0,0,1,.148-.01l1.089.017q.546.009,1.092.016t1.094.006q.548,0,1.1-.014.427-.011.855-.011t.857,0q.429.005.859.014l.86.016a1.228,1.228,0,0,1,.284.036.934.934,0,0,1,.253.105,1.046,1.046,0,0,1,.227.187A1.635,1.635,0,0,1,34,1.907c.05.085.1.167.157.247s.11.159.166.238l.17.234c.057.078.113.157.168.237.078.112.154.226.227.341s.144.234.211.355.132.246.192.375.116.262.168.4.11.284.17.423.123.276.188.412.133.269.2.4.142.264.215.394c.047.084.09.172.13.262s.077.184.113.278.071.189.106.284.072.189.111.282c.114.272.227.545.338.818s.219.55.322.828.2.559.291.844.173.574.245.868c.058.234.114.469.164.7s.1.472.134.709.068.476.089.716.03.481.027.724c0,.072,0,.145,0,.218s0,.145-.011.215a1.057,1.057,0,0,1-.039.2.642.642,0,0,1-.086.181c-.108.012-.455.007-.924-.008s-1.058-.041-1.65-.071-1.187-.065-1.668-.1-.848-.065-.987-.089a.463.463,0,0,1-.081-.142.7.7,0,0,1-.035-.156c-.006-.054-.008-.108-.01-.162s0-.108-.006-.16q-.023-.34-.044-.68t-.04-.68q-.02-.34-.04-.68t-.041-.68q-.027-.441-.055-.882t-.056-.881q-.028-.441-.057-.881t-.058-.881a.519.519,0,0,0-.007-.054c0-.018-.007-.038-.012-.058l-.015-.067c-.005-.024-.011-.05-.017-.08l-.076-.019-.077-.021c-.026-.007-.052-.013-.077-.018a.564.564,0,0,0-.077-.009c-.164-.005-.327-.008-.491-.011l-.49-.007c-.163,0-.327-.006-.49-.013s-.326-.015-.49-.028c-.3-.024-.607-.035-.909-.038s-.6,0-.9.007-.6.012-.9.014-.6,0-.9-.017q-.121-.006-.242-.01l-.242,0h-.242l-.242,0a.451.451,0,0,0-.156.029.3.3,0,0,0-.114.081.428.428,0,0,0-.078.138.989.989,0,0,0-.047.2c-.006.04-.01.081-.013.122s0,.084-.006.126,0,.085,0,.127,0,.085,0,.127q.021.355.043.71t.044.71q.022.355.044.71t.043.71q.015.255.03.51t.028.51q.014.255.027.51t.026.509q.028.537.054,1.074t.053,1.074q.027.537.054,1.073t.056,1.074q.049.891.1,1.782t.1,1.782l.1,1.782q.05.891.1,1.782.05.918.1,1.835t.1,1.835q.05.917.1,1.835t.1,1.834q.048.863.1,1.726l.1,1.725.1,1.725q.048.862.1,1.724.023.418.045.835t.044.834q.022.417.045.834t.047.835q.01.179.023.36t.027.364q.014.183.029.371t.03.383c.2.034.406.061.607.082s.4.038.6.051.4.024.592.034l.59.029.606.032.608.031.608.029q.3.013.609.024c.2.008.4.025.594.044s.4.041.595.058.395.029.59.029a3.58,3.58,0,0,0,.581-.043,1.017,1.017,0,0,0,.054-.217,1.4,1.4,0,0,0,.012-.21c0-.069-.006-.137-.01-.2s-.01-.134-.012-.2q-.039-.988-.078-1.976t-.08-1.976q-.04-.988-.08-1.977t-.079-1.977c0-.066-.008-.132-.012-.2s-.009-.134-.011-.2a1.735,1.735,0,0,1,0-.2,1.093,1.093,0,0,1,.036-.2M16.644,21.367q0-.058,0-.118l0-.121q0-.061-.005-.123t-.006-.124q-.017-.359-.034-.718t-.034-.718q-.017-.359-.034-.718t-.037-.718q-.03-.557-.063-1.115t-.066-1.115q-.033-.557-.064-1.115t-.06-1.115q-.042-.827-.081-1.655t-.078-1.655Q16.036,9.414,16,8.586T15.92,6.931c0-.036,0-.072,0-.108s0-.072,0-.108,0-.072-.007-.108-.007-.072-.012-.107a.834.834,0,0,0-.046-.183.5.5,0,0,0-.078-.137.372.372,0,0,0-.108-.091.4.4,0,0,0-.136-.045l-.04,0-.039,0-.039,0-.039,0L14.737,6l-.628-.032q-.314-.015-.627-.028t-.625-.021q-.41-.011-.819-.018l-.814-.012-.807-.009-.8-.009-.081.1-.074.087L9.4,6.138c-.022.027-.043.054-.063.082l-.07.094c-.024.031-.047.063-.069.1s-.044.066-.063.1a.867.867,0,0,0-.052.109.6.6,0,0,0-.027.108c-.006.038-.011.079-.014.119s-.007.082-.01.123-.009.081-.016.12-.012.055-.019.082-.016.053-.025.079l-.028.077c-.009.025-.019.051-.027.076-.044.129-.086.259-.123.39s-.07.265-.1.4-.048.275-.062.418a4,4,0,0,0-.019.439.8.8,0,0,1-.006.1c0,.033-.01.067-.016.1s-.014.066-.021.1-.014.066-.02.1-.015.077-.023.115-.017.076-.025.114-.015.076-.021.115a.944.944,0,0,0-.01.117q-.007.3-.012.6t-.009.6q0,.3-.007.6t-.007.6c0,.03,0,.061-.005.092s-.005.063-.006.093a.641.641,0,0,0,0,.088.27.27,0,0,0,.018.077,1.144,1.144,0,0,1,.064.228,1.683,1.683,0,0,1,.023.226c0,.075,0,.151,0,.226s0,.151,0,.228q.007.213.014.427t.016.427q.009.213.019.426t.024.426c.005.088.015.176.027.264s.025.176.037.264.023.175.03.262a2.093,2.093,0,0,1,.007.257,3.9,3.9,0,0,0,.006.394c.008.13.022.258.041.385s.042.254.067.38.055.253.085.379c.009.04.02.08.03.12s.02.08.03.12.018.08.024.12a1.161,1.161,0,0,1,.014.12c.015.235.042.479.079.727s.085.5.143.755.125.506.2.754.163.491.257.725l.094.017.1.018.1.016c.034,0,.067.008.1.01l.53.032.531.031.532.029.532.025.91.041.911.039.913.036.915.034c.065,0,.13.006.2,0a.927.927,0,0,0,.2-.023.668.668,0,0,0,.2-.083.85.85,0,0,0,.2-.174" transform="translate(13.956 59.512)" fill="#161615"/>
      </g>
    </g>
  </g>
</svg>
