<svg xmlns="http://www.w3.org/2000/svg" width="583.438" height="605.222" viewBox="0 0 583.438 605.222">
  <g id="Group_97" data-name="Group 97" transform="translate(-977.11 -4580.999)">
    <rect id="Rectangle_30" data-name="Rectangle 30" width="482" height="600" rx="50" transform="translate(1078 4586)" fill="#fff" opacity="0.2"/>
    <g id="Layer_2" data-name="Layer 2" transform="translate(977.11 4581.044)">
      <g id="Layer_2-2" data-name="Layer 2" transform="translate(0.5 0.459)">
        <path id="Path_177" data-name="Path 177" d="M242.041,246.211s34,55.584,34.326,54.431c.074-.264,2.4-7.385,2.714-12.831.988-17.239.745-50.623.745-50.623s-25.575-21.256-27.836-20.487S236.75,242.638,242.041,246.211Z" transform="translate(302.563 272.254)" fill="#f2b578" stroke="#000" stroke-miterlimit="10" stroke-width="1"/>
        <path id="Path_178" data-name="Path 178" d="M200.79,251.175s4.75,35.231,6.492,41.4c0,0,43.77.146,44.559,0s-17.2-42.828-18.217-43.168S204.815,245.16,200.79,251.175Z" transform="translate(252.12 311.566)" fill="#f2b578" stroke="#000" stroke-miterlimit="10" stroke-width="1"/>
        <path id="Path_179" data-name="Path 179" d="M92.877,71.175s-6.512,4.749-5.744,25.3-18.09,140.877-18.09,140.877-8.05,25.846,2.962,32.336a6.987,6.987,0,0,0,10.289-2.51s2.261,19.311,14.789,3.256c0,0,6.264,24.06,19.04,4.523,0,0,9.294,23.811,20.8-2.759,0,0,5.766,22.047,14.54,2.261,0,0,2.759,7.53,5.766,5.269S237.6,233.805,237.6,233.805,109.362,64.911,92.877,71.175Z" transform="translate(82.371 88.517)" fill="#f2b578" stroke="#000" stroke-miterlimit="10" stroke-width="1"/>
        <path id="Path_180" data-name="Path 180" d="M258.938,144.084c1.221-.362,20.8,1.018,20.8,1.018v57.662s-39.866-17.8-38.871-19.04S236.664,150.868,258.938,144.084Z" transform="translate(302.648 180.613)" fill="#f2b578" stroke="#000" stroke-miterlimit="10" stroke-width="1"/>
        <path id="Path_181" data-name="Path 181" d="M254.379,238.513s10.9,17.683,20.668-.746c0,0,12.414,12.03,16.553-7.146,0,0,15.829,9.045,14.653-9.769,0,0,17.3,8.276,13.907-14.291,0,0,22.183,4.884,9.407-15.829,0,0,16.914,2.623,7.53-15.829,0,0,10.515-2.261,1.492-15.4,0,0,19.922,0-4.138-21.075s-82.717-68.042-82.717-72.564-65.78-69.308-70.687-53.479,18.565,200.348,18.565,200.348Z" transform="translate(226.367 11.449)" fill="#f2b578" stroke="#000" stroke-miterlimit="10" stroke-width="1"/>
        <path id="Path_182" data-name="Path 182" d="M268.93,229.872c.724-.384-17.661-13.251-17.661-13.251-5.043-.249-10.9,25.191-10.9,25.191l16.711,22.748S253.327,237.967,268.93,229.872Z" transform="translate(302.041 272.176)" fill="#b7864e" opacity="0.5"/>
        <path id="Path_183" data-name="Path 183" d="M197.088,25.52s17.547,15.037,19.56,23.065,53.389,64.921,57.142,67.16,42.376,47.261,38.057,60.1c-3.392,10.244-13.025,4.523-13.025,4.523s8.864,18.09-5.518,17.05a64.9,64.9,0,0,1-8.027-2.51s5.517,14.291-5.02,14.042c-5.246-.136-7.01-2.51-7.01-2.51s.249,11.532-7.507,11.035a12.12,12.12,0,0,1-9.543-5.02s-1.99,6.9-6.015,9.045-20.035-8.525-19.04-14.042S192,26.605,192,26.605Z" transform="translate(241.033 31.149)" fill="#b7864e" opacity="0.5"/>
        <path id="Path_184" data-name="Path 184" d="M203.481,264.306c-.814,0-2.261-15.037-2.261-15.037,2.261-4.523,31.5,1.131,31.5,1.131l8.186,19.944S227.609,262.451,203.481,264.306Z" transform="translate(252.662 311.144)" fill="#b7864e" opacity="0.5"/>
        <path id="Path_185" data-name="Path 185" d="M258.263,148s2.8,8.276-2.646,26.321L282.074,187.1l.249,9.588L238.07,175.7Z" transform="translate(299.14 185.629)" fill="#b7864e" opacity="0.5"/>
        <path id="Path_186" data-name="Path 186" d="M180.07,282.733s26.3,39.482,74.8,31.952c28.9-4.523,48.052-22.432,58.793-36.18a73.83,73.83,0,0,0,14.359-32.449c2.261-13.228,4.025-32.11-1.741-45.632C316.538,177.494,180.07,282.733,180.07,282.733Z" transform="translate(225.986 247.626)" fill="#f2b578" stroke="#000" stroke-miterlimit="10" stroke-width="1"/>
        <path id="Path_187" data-name="Path 187" d="M180.26,278.763s3.754,6.965,5,6.965,53.389,3.935,87.217-18.655c34.869-23.268,47.238-40.432,49.228-43.8,1.492-2.51,9.249-15.671,3.256-24.128S181.006,269.4,180.26,278.763Z" transform="translate(226.226 249.335)" fill="#b7864e" opacity="0.5"/>
        <path id="Path_188" data-name="Path 188" d="M212.265,127.638a5.359,5.359,0,0,1,2.691-.746c12.5-.249,103.408-1.583,107.591,7.168s-15.693,77.584-33.015,86.833a5.223,5.223,0,0,1-4.523,0l-48.595-22.138-.43-.226C231.644,196.2,164.122,156.673,212.265,127.638Z" transform="translate(244.851 158.73)" fill="#ffc400" stroke="#000" stroke-miterlimit="10" stroke-width="1"/>
        <path id="Path_189" data-name="Path 189" d="M91.122,81.829C85.107,49.018,95.26,202.151,75.7,246.517c0,0-3.754,12.776,2.646,15.037a7.621,7.621,0,0,0,9.384-3.776s.769,11.306,8.276,10.538,12.414-8.638,12.414-8.638.746,13.568,6.784,12.392,11.1-11.939,11.849-14.947c0,0,1.56,13.455,6.58,13.455,1.854,0,13.093-14.608,18.339-21.573,1.945-2.555,3.935-5.065,6.015-7.507L208.075,182.7Z" transform="translate(92.968 96.406)" fill="#b7864e" opacity="0.5"/>
        <path id="Path_190" data-name="Path 190" d="M247.951,240.482c-8.525-6.512-43.665-28.876-70.732-55.966s-44.434-61.642-44.434-61.642-17.8-48.142-21.3-50.381c0,0-4.025-24.331-22.613-24.58S69.062,58.7,69.062,58.7s-31.251-3.5-34.213,23.065C34.849,81.763.5,80.5.5,110.572s47.871,73.943,47.871,73.943A440.718,440.718,0,0,0,134.1,242.178s94.973,43.349,107.636,38.442S247.951,240.482,247.951,240.482Z" transform="translate(-0.5 59.386)" fill="#f2b578" stroke="#000" stroke-miterlimit="10" stroke-width="1"/>
        <ellipse id="Ellipse_20" data-name="Ellipse 20" cx="17.434" cy="20.442" rx="17.434" ry="20.442" transform="translate(80.747 172.025) rotate(-11.01)" fill="#ffbeea" stroke="#000" stroke-miterlimit="10" stroke-width="1"/>
        <path id="Path_191" data-name="Path 191" d="M115.287,132.274A48.662,48.662,0,0,0,103.3,147.289a2.965,2.965,0,0,0-.181.475c-.543,1.877-4.07,14.382-4.183,16.236a17.344,17.344,0,0,0,.362,5.653,3.279,3.279,0,0,0,2.465,2.261l8.548,2.08a3.528,3.528,0,0,0,4.342-2.261L123.7,135.96c.384-1.583-1.9-1.809-3.663-2.261l-2.849-1.99C115.921,131.256,116.192,131.482,115.287,132.274Z" transform="translate(123.548 164.79)" fill="#b7864e" opacity="0.5"/>
        <path id="Path_192" data-name="Path 192" d="M321.3,117.85,126.67,144.8s-7.779-5.133-9.271-3.641-25.959,44.253-2.261,99.654c0,0,104.267-21.188,113.063-18.927,0,0,5.2,33.4,6.151,44.3,1.922,22.273,4.183,110.8,3.437,112.86s77.448,13.274,123.51-19.379c0,0,72.2-45.474,65.351-81.632,0,0-84.278-91.966-85.657-93.187" transform="translate(131.115 147.602)" fill="#ffc400" stroke="#000" stroke-miterlimit="10" stroke-width="1"/>
        <path id="Path_193" data-name="Path 193" d="M168.748,162.692a22.613,22.613,0,0,0,10.47,22.432c13.025,8.028,25.824,4.274,34.575-.995s20.351-19.537,15.309-35.592-14.291-17.8-14.291-17.8S173.067,151.295,168.748,162.692Z" transform="translate(211.416 163.86)" fill="#ffc400" stroke="#000" stroke-miterlimit="10" stroke-width="1"/>
        <path id="Path_194" data-name="Path 194" d="M171.48,157.7s0,19.877,27.135,13.907c25.575-5.631,18.746-33.467,14.359-34.959S171.593,150.418,171.48,157.7Z" transform="translate(215.152 171.181)" fill="#dfa75e" stroke="#000" stroke-miterlimit="10" stroke-width="1"/>
        <path id="Path_195" data-name="Path 195" d="M157.341,174.3c.136,1.244,20.8,9.045,40.364,3.256s54.135-24.58,53.886-45.632S156.844,169.279,157.341,174.3Z" transform="translate(197.316 159.601)" opacity="0.18"/>
        <path id="Path_196" data-name="Path 196" d="M165.97,278.077c-1.131-.746-14.653,9.769-18.429-13.568,0,0-17.66,6.015-21.414-16.168,0,0-18.429-1.515-13.161-19.176,0,0-21.052-1.131-11.306-23.314,0,0-17.683-.384-7.892-20.351,0,0-17.683-6.784-6.015-20.691,0,0-14.857-2.8-5.269-15.4,0,0-15.422-15.037,3.957-23.879,0,0-11.487-15.241,7.326-22,0,0-14.291-18.09,14.653-25.191,0,0-6.942-23.495,16.372-18.61,0,0-2.08-24.444,20.668-18.429,0,0,3.188-21.052,17.3-12.03,0,0,3.573-16.349,17.661-7.507,0,0,6.965-17.864,20.125-6.4,0,0,7.507-21.8,22.364-6.015,0,0,14.472-20.487,24.625.746,0,0,11.668-15.037,20.351,0,0,0,14.291-16.733,21.256,9.972,0,0,20.849-15.6,22.364,9.972,0,0,18.61-3.776,17.48,14.472,0,0,19.176,1.492,12.776,18.407,0,0,16.733,1.131,8.842,18.429,0,0,14.857,1.7,7.892,18.995,0,0,15.037,6.942,2.261,17.661,0,0,18.226,5.269,5.631,21.256,0,0,12.98,11.826,1.131,18.972,0,0,15.422,10.718,0,19.944,0,0,3.392,9.045-3.369,11.826,0,0,36.836,29.532,14.653,70.1,0,0-17.3,51.512-93.617,70.1,0,0-75.753,13.907-105.081-7.327S165.97,278.077,165.97,278.077Z" transform="translate(95.568 -0.459)" fill="#f2b578" stroke="#000" stroke-miterlimit="10" stroke-width="1"/>
        <path id="Path_197" data-name="Path 197" d="M146.569,128.454s-7.914,14.676,9.045,13.161,27.135-19.922,27.429-23.314c0,0,31.974,8.661,42.489-9.384,0,0,4.138-6.4-6.784-9.407" transform="translate(180.437 125.761)" fill="none" stroke="#000" stroke-miterlimit="10" stroke-width="1"/>
        <path id="Path_198" data-name="Path 198" d="M138.11,125.531c1.131-3.392,39.1-47.012,84.594-30.844" transform="translate(173.063 113.871)" fill="none" stroke="#000" stroke-miterlimit="10" stroke-width="1"/>
        <path id="Path_199" data-name="Path 199" d="M155.213,127.989s-10.4,27.633,18.09,35.525,42.489-18.791,43.235-20.668c4.613-12.909-1.884-32.954-12.878-34.731,0,0-8.835,3.3-31.783.812C171.969,108.994,165,122.72,155.213,127.989Z" transform="translate(192.299 135.405)" fill="#d1a1c8" stroke="#000" stroke-miterlimit="10" stroke-width="1"/>
        <path id="Path_200" data-name="Path 200" d="M159.311,147.545c-4.161-2.714,15.15-44.547,50.7-24.625C212.089,126.56,198.07,166.245,159.311,147.545Z" transform="translate(199.1 147.236)" fill="#ffc9ed"/>
        <path id="Path_201" data-name="Path 201" d="M148.737,111.713s-3.392,6.4,25.937,3.007c0,0,15.6-10.334,15.218-17.1S146.091,102.871,148.737,111.713Z" transform="translate(186.315 119.594)" fill="#6f502b" stroke="#000" stroke-miterlimit="10" stroke-width="1"/>
        <path id="Path_202" data-name="Path 202" d="M118.108,102.339s16.914-29.148,40.047-5.653c16.123,16.394,4.907,31.952-3.369,39.889a27.52,27.52,0,0,1-18.452,7.869,19.221,19.221,0,0,1-18.61-11.1C108.656,115.228,118.108,102.339,118.108,102.339Z" transform="translate(142.39 109.362)" stroke="#000" stroke-miterlimit="10" stroke-width="1"/>
        <ellipse id="Ellipse_21" data-name="Ellipse 21" cx="10.718" cy="13.296" rx="10.718" ry="13.296" transform="translate(263.438 208.784)" fill="#fff" stroke="#000" stroke-miterlimit="10" stroke-width="1"/>
        <path id="Path_203" data-name="Path 203" d="M168.331,85.123a21.437,21.437,0,0,1,9.746-16.892c6.784-4.229,18.339-5.811,35.66,7.1,0,0,14.857,9.95,5.45,25.733-8.208,13.794-22.861,13.839-26.457,13.568a9.2,9.2,0,0,1-1.583-.226C186.873,113.434,166.725,107.736,168.331,85.123Z" transform="translate(211.065 81.172)" stroke="#000" stroke-miterlimit="10" stroke-width="1"/>
        <ellipse id="Ellipse_22" data-name="Ellipse 22" cx="10.085" cy="10.402" rx="10.085" ry="10.402" transform="translate(385.456 157.295)" fill="#fff" stroke="#000" stroke-miterlimit="10" stroke-width="1"/>
        <path id="Path_204" data-name="Path 204" d="M179.48,70.484c5.156-2.261,11.917-4.409,15.173-9.294l.769.2a9.542,9.542,0,0,1-2.8,4.025A65.688,65.688,0,0,1,180.9,73.559Z" transform="translate(225.242 76.138)"/>
        <path id="Path_205" data-name="Path 205" d="M183.15,70.354c3.528-1.47,8.05-2.691,10.4-5.834l.769.2a11.6,11.6,0,0,1-4.364,5.02,56.535,56.535,0,0,1-5.382,3.686l-1.425-3.075Z" transform="translate(229.871 80.338)"/>
        <path id="Path_206" data-name="Path 206" d="M129.683,93.155a66.142,66.142,0,0,1-13.726,3.8,9.181,9.181,0,0,1-4.907-.407l.339-.7a8.548,8.548,0,0,0,4.3-.294,63.768,63.768,0,0,0,12.55-5.472l1.447,3.075Z" transform="translate(138.933 112.576)"/>
        <path id="Path_207" data-name="Path 207" d="M123.532,98.113c-4.183,1.153-8.57,3.234-12.912,1.945l.339-.724a11.148,11.148,0,0,0,5.653-1.4,57.074,57.074,0,0,0,5.472-2.872Z" transform="translate(138.391 118.857)"/>
        <path id="Path_208" data-name="Path 208" d="M38.39,89.25S32.962,70.956,16.41,69.6c0,0,2.261-13.568,9.791-11.6C26.2,58,41.668,59.265,38.39,89.25Z" transform="translate(19.567 71.867)" fill="#b7864e" opacity="0.5"/>
        <path id="Path_209" data-name="Path 209" d="M31.772,58.255c-1.108,0,1.764-8.276,6.784-8.887a14.268,14.268,0,0,1,2.42,0A17.706,17.706,0,0,1,56.261,61.421a16.869,16.869,0,0,1,.452,9.791C53.842,81.479,54.339,79.1,54.339,79.1S50.314,58.007,31.772,58.255Z" transform="translate(38.644 61.164)" fill="#b7864e" opacity="0.5"/>
        <path id="Path_210" data-name="Path 210" d="M39.04,88.933C38.226,76.519,27.733,67.022,16.02,64.6l.633-2.442C28.932,65.326,39.56,75.728,39.786,88.933Z" transform="translate(19.075 77.362)"/>
        <path id="Path_211" data-name="Path 211" d="M54.393,79.587c-.769-12.618-11.125-22.613-23.133-25.1L31.916,52c12.5,3.3,23.042,14.178,23.223,27.542Z" transform="translate(38.297 64.547)"/>
        <path id="Path_212" data-name="Path 212" d="M209.75,147.2c-.475-.814,8.525,1.9,10.4,2.261l1.289.249c5.676,1.131,25.6,5.789,30.685,7.824a246.473,246.473,0,0,0,30.64,6.784s6.942.611,5.45,3.3h0c-3.437,8.593-14.336,28.718-19.922,27-.317,0-24.309-10.379-25.507-11.6S211.084,149.4,209.75,147.2Z" transform="translate(263.398 184.435)" opacity="0.092"/>
      </g>
    </g>
  </g>
</svg>
