<svg xmlns="http://www.w3.org/2000/svg" xmlns:xlink="http://www.w3.org/1999/xlink" width="201" height="85" viewBox="0 0 201 85">
  <defs>
    <clipPath id="clip-path">
      <rect id="Rectangle_14" data-name="Rectangle 14" width="201" height="85" transform="translate(354 3109.5)" fill="#fff"/>
    </clipPath>
  </defs>
  <g id="Mask_Group_2" data-name="Mask Group 2" transform="translate(-354 -3109.5)" clip-path="url(#clip-path)">
    <g id="_16281453728345640_gateio_h_2" data-name="16281453728345640_gateio_h_2" transform="translate(344.222 3112.919)">
      <path id="Path_121" data-name="Path 121" d="M33.782,38.61l-.527-.539a.637.637,0,0,0-1.091.453v7.634a.641.641,0,0,0,.637.637h7.634a.64.64,0,0,0,.453-1.091.651.651,0,0,1,0-.907L49,36.661a.651.651,0,0,0,0-.907l-.735-.735a.64.64,0,0,1,.453-1.091H56.34a.633.633,0,0,1,.637.637V42.2a.64.64,0,0,1-1.091.453l-.515-.515a.629.629,0,0,0-.907,0L40.778,55.813a.651.651,0,0,1-.907,0L23.134,39.063a.64.64,0,0,1,0-.907h0L46.3,14.986a.651.651,0,0,0,0-.907L40.852,8.626a.651.651,0,0,0-.907,0L9.962,38.634a.651.651,0,0,0,0,.907l30,30a.651.651,0,0,0,.907,0l30-30a.651.651,0,0,0,0-.907L53.215,20.99a.651.651,0,0,0-.907,0L34.689,38.61a.651.651,0,0,1-.907,0Zm138.46,7.585A2.845,2.845,0,0,0,169.411,49a2.969,2.969,0,0,0,1.764,2.708,2.919,2.919,0,0,0,3.088-.674,2.747,2.747,0,0,0,.833-2.022,2.682,2.682,0,0,0-.833-2,2.813,2.813,0,0,0-2.022-.821ZM126.66,24.629h-2.12a1.647,1.647,0,0,0-1.654,1.654v1.176a10.35,10.35,0,0,0-7.646-3.5,10.569,10.569,0,0,0-8.21,3.664,13.162,13.162,0,0,0-3.284,9.141,13.661,13.661,0,0,0,3.272,9.325,10.814,10.814,0,0,0,15.856.4v2.328a2.06,2.06,0,0,0,2.046,2.059h3.615V26.528A1.88,1.88,0,0,0,126.66,24.629Zm-5.342,17.914a6.487,6.487,0,0,1-5.061,2.157,6.167,6.167,0,0,1-4.864-2.23,8.532,8.532,0,0,1-1.887-5.71,8.141,8.141,0,0,1,1.936-5.514,6.235,6.235,0,0,1,4.864-2.206,6.36,6.36,0,0,1,5.012,2.181,8.33,8.33,0,0,1,1.936,5.661,8.453,8.453,0,0,1-1.936,5.661Zm-17.571-13.8V26.332a1.7,1.7,0,0,0-1.7-1.7h-2.23a1.7,1.7,0,0,0-1.7,1.7v1.054a9.834,9.834,0,0,0-7.67-3.443A10.367,10.367,0,0,0,81.973,27.9,14.089,14.089,0,0,0,79,36.968a13.3,13.3,0,0,0,3.21,9.141,10.36,10.36,0,0,0,8.173,3.6,10.536,10.536,0,0,0,7.744-3.431v3.406q0,7.591-6.188,7.6A6.042,6.042,0,0,1,86.826,55a5,5,0,0,1-.747-1.446,1.992,1.992,0,0,0-1.887-1.336H82.059a1.663,1.663,0,0,0-1.605,2.071,10.266,10.266,0,0,0,3.394,5.416,12.161,12.161,0,0,0,8.038,2.634,11.417,11.417,0,0,0,9.092-3.811,10.44,10.44,0,0,0,2.353-4.742,20.381,20.381,0,0,0,.319-2.316c.074-.87.11-1.887.11-3.039V44.9a13.937,13.937,0,0,1-2.377-8.161,13.411,13.411,0,0,1,2.365-7.989ZM96.6,42.347a6.183,6.183,0,0,1-5.11,2.353,6.056,6.056,0,0,1-5.061-2.328,8.576,8.576,0,0,1-1.679-5.465,8.673,8.673,0,0,1,1.679-5.514,6.092,6.092,0,0,1,5.061-2.377A6.279,6.279,0,0,1,96.432,31.2a8.205,8.205,0,0,1,1.911,5.685,8.486,8.486,0,0,1-1.74,5.465Zm54.012-17.693v-.025H138.926V17.473a1.668,1.668,0,0,0-1.666-1.666H134.98a1.694,1.694,0,0,0-1.691,1.691v7.131h-2.4v5.257h2.4V50.85h3.21a2.429,2.429,0,0,0,2.426-2.414V29.9h5.783a12.1,12.1,0,0,1,1.666-2.414,10.275,10.275,0,0,1,4.24-2.83Zm28.77-8.847a3.471,3.471,0,0,0-2.573,1.078,3.53,3.53,0,0,0-1.078,2.561,3.682,3.682,0,0,0,3.688,3.713A3.433,3.433,0,0,0,182,22.08a3.533,3.533,0,0,0,1.078-2.61A3.433,3.433,0,0,0,182,16.9,3.517,3.517,0,0,0,179.386,15.807Zm1.14,11.591h-2.046a1.893,1.893,0,0,0-1.9,1.9V47.2a2.668,2.668,0,0,1,.637,1.789,2.7,2.7,0,0,1-.637,1.8v1h3.627a2.011,2.011,0,0,0,2.01-2.01V29.077a1.684,1.684,0,0,0-1.691-1.679Zm26.5,3.455a13.35,13.35,0,0,0-18.5-.025,12.117,12.117,0,0,0-3.786,8.994,12.652,12.652,0,0,0,3.713,9.325,12.429,12.429,0,0,0,9.19,3.762,12.914,12.914,0,0,0,9.349-3.688,12.412,12.412,0,0,0,3.786-9.2,12.422,12.422,0,0,0-3.749-9.165Zm-3.995,14.888A7.606,7.606,0,0,1,192.46,45.7a8.265,8.265,0,0,1-1.96-5.783,7.852,7.852,0,0,1,2.01-5.563,6.818,6.818,0,0,1,5.232-2.157,6.889,6.889,0,0,1,5.281,2.157,8.016,8.016,0,0,1,1.985,5.685,7.987,7.987,0,0,1-1.973,5.7Z" fill="#de5959"/>
      <path id="Path_122" data-name="Path 122" d="M152.71,44.748a7.316,7.316,0,0,1-1.96-4.779h16.162a1.358,1.358,0,0,0,1.36-1.323c0-4.031-1.042-7.18-3.1-9.447a12.236,12.236,0,0,0-17.093.1,13.5,13.5,0,0,0-3.21,9.374,13.15,13.15,0,0,0,3.308,9.374,10.745,10.745,0,0,0,5.661,3.186,12.027,12.027,0,0,0,2.892.319c4.019.086,7.511.172,11.518.245v-.588a2.756,2.756,0,0,1-.735-1.924,2.688,2.688,0,0,1,.76-1.9v-.711c-3.174-.074-10.844-.159-11.15-.159a5.927,5.927,0,0,1-4.411-1.764Zm-.784-11.273a5.809,5.809,0,0,1,1.262-1.409,5.515,5.515,0,0,1,1.642-.907,5.886,5.886,0,0,1,1.936-.319q4.5,0,5.685,4.509H151.118a7.22,7.22,0,0,1,.809-1.875Z" fill="#de5959"/>
    </g>
  </g>
</svg>
