<svg xmlns="http://www.w3.org/2000/svg" xmlns:xlink="http://www.w3.org/1999/xlink" width="201" height="85" viewBox="0 0 201 85">
  <defs>
    <clipPath id="clip-path">
      <rect id="Rectangle_14" data-name="Rectangle 14" width="201" height="85" transform="translate(854 3109.5)" fill="#fff"/>
    </clipPath>
    <linearGradient id="linear-gradient" x1="-0.655" y1="2.308" x2="-0.655" y2="2.274" gradientUnits="objectBoundingBox">
      <stop offset="0" stop-color="#ffe275"/>
      <stop offset="1" stop-color="#f0b736"/>
    </linearGradient>
  </defs>
  <g id="Mask_Group_1" data-name="Mask Group 1" transform="translate(-854 -3109.5)" clip-path="url(#clip-path)">
    <g id="Bitrue" transform="translate(819.809 3050.978)">
      <path id="Path_119" data-name="Path 119" d="M99.506,108.231a7.2,7.2,0,0,0,.573,2.83,7.7,7.7,0,0,0,1.516,2.324,7,7,0,0,0,10.038,0,7.2,7.2,0,0,0,2.055-5.154,7.493,7.493,0,0,0-2.055-5.154,6.926,6.926,0,0,0-2.257-1.55,7.116,7.116,0,0,0-2.762-.573,7.035,7.035,0,0,0-5.019,2.122,7.113,7.113,0,0,0-1.516,2.324,6.753,6.753,0,0,0-.573,2.83ZM93.544,88.222a3.155,3.155,0,0,1,.236-1.246,3.21,3.21,0,0,1,.64-1.011,3.712,3.712,0,0,1,.943-.674,2.838,2.838,0,0,1,1.179-.236,2.734,2.734,0,0,1,1.179.236,3.041,3.041,0,0,1,1.55,1.684,3.72,3.72,0,0,1,.2,1.246V98.529a6.172,6.172,0,0,1,1.213-1.482,7.98,7.98,0,0,1,1.752-1.179,10.549,10.549,0,0,1,2.021-.808,7.693,7.693,0,0,1,2.122-.3,12.345,12.345,0,0,1,5.053,1.044,12.626,12.626,0,0,1,4.143,2.9,14.451,14.451,0,0,1,2.8,4.278,13.884,13.884,0,0,1,1.044,5.221,12.98,12.98,0,0,1-1.044,5.188,14.293,14.293,0,0,1-2.8,4.244,13.05,13.05,0,0,1-4.143,2.863,11.821,11.821,0,0,1-5.053,1.044,12.345,12.345,0,0,1-5.053-1.044,13.05,13.05,0,0,1-4.143-2.863,13.385,13.385,0,0,1-2.83-4.244A13.1,13.1,0,0,1,93.51,108.2V88.222Zm29.98,9.6a3.057,3.057,0,0,1,1.853-2.8,2.838,2.838,0,0,1,1.179-.236,2.686,2.686,0,0,1,1.145.236,2.965,2.965,0,0,1,1.516,1.617,3.5,3.5,0,0,1,.236,1.179V118.5a3.21,3.21,0,0,1-.842,2.156,2.606,2.606,0,0,1-.943.64,2.686,2.686,0,0,1-1.145.236,2.585,2.585,0,0,1-1.145-.236,3.038,3.038,0,0,1-1.617-1.617,2.838,2.838,0,0,1-.236-1.179V97.822Zm-.236-9.1a3.319,3.319,0,0,1,1.954-3.065,3.224,3.224,0,0,1,1.28-.269,3.188,3.188,0,0,1,1.246.269,2.737,2.737,0,0,1,1.011.707,3.184,3.184,0,0,1,.707,1.044,3.353,3.353,0,0,1,.269,1.28,3.391,3.391,0,0,1-.269,1.314,3.184,3.184,0,0,1-.707,1.044,3.431,3.431,0,0,1-1.011.707,3.188,3.188,0,0,1-1.246.269,3.224,3.224,0,0,1-1.28-.269,3.045,3.045,0,0,1-1.011-.707,3.287,3.287,0,0,1-.943-2.324Zm10.038,1.179a3.1,3.1,0,0,1,1.853-2.863,2.686,2.686,0,0,1,1.145-.236,3.031,3.031,0,0,1,2.156.876,3.365,3.365,0,0,1,.674.977,2.906,2.906,0,0,1,.269,1.213v4.446h9.365a2.838,2.838,0,0,1,1.179.236,3.093,3.093,0,0,1,1.583,1.617,2.838,2.838,0,0,1,.236,1.179,2.686,2.686,0,0,1-.236,1.145,3,3,0,0,1-2.762,1.785h-9.365V108.3a7.177,7.177,0,0,0,.539,2.83,7.446,7.446,0,0,0,1.482,2.291,6.681,6.681,0,0,0,4.952,2.055,7.957,7.957,0,0,0,2.425-.371,6.373,6.373,0,0,0,2.089-1.246,6.041,6.041,0,0,1,1.044-.741,2.314,2.314,0,0,1,1.213-.3,1.993,1.993,0,0,1,.977.236,2.163,2.163,0,0,1,.842.606,3.781,3.781,0,0,1,.606.943,2.686,2.686,0,0,1,.236,1.145,3.875,3.875,0,0,1-.269,1.381,3.084,3.084,0,0,1-.808,1.179,10.89,10.89,0,0,1-3.806,2.459,13.13,13.13,0,0,1-9.668-.236,12.952,12.952,0,0,1-4.143-2.83,14.137,14.137,0,0,1-2.8-4.211,13.259,13.259,0,0,1-1.044-5.221V89.906Zm26.409,18.931a14.33,14.33,0,0,1,1.078-5.457,14.134,14.134,0,0,1,2.931-4.48,14.431,14.431,0,0,1,4.345-3.032,12.954,12.954,0,0,1,5.289-1.112h.067a2.875,2.875,0,0,1,2.257.842,3.086,3.086,0,0,1,.808,2.19A2.887,2.887,0,0,1,176.275,99a2.736,2.736,0,0,1-.64.977,3.11,3.11,0,0,1-2.19.876h-.135a7.122,7.122,0,0,0-2.9.64,8.046,8.046,0,0,0-2.425,1.684,8.394,8.394,0,0,0-1.684,2.459,7.206,7.206,0,0,0-.64,3.032v9.6a2.838,2.838,0,0,1-.236,1.179,4.766,4.766,0,0,1-.606.977,2.8,2.8,0,0,1-.91.64,3,3,0,0,1-2.291,0,3.275,3.275,0,0,1-.977-.64,3.063,3.063,0,0,1-.91-2.156v-9.432Zm20.649-11.049a3.21,3.21,0,0,1,.842-2.156,2.606,2.606,0,0,1,.943-.64,2.686,2.686,0,0,1,1.145-.236,2.953,2.953,0,0,1,2.122.876,3.274,3.274,0,0,1,.64.977,2.838,2.838,0,0,1,.236,1.179v10.88a7.1,7.1,0,0,0,.505,2.695,6.673,6.673,0,0,0,3.5,3.6,6.763,6.763,0,0,0,2.627.505,5.786,5.786,0,0,0,4.446-1.987,6.236,6.236,0,0,0,1.213-2.156,8.855,8.855,0,0,0,.438-2.695V97.822a3.063,3.063,0,0,1,.91-2.156,2.736,2.736,0,0,1,.977-.64,2.686,2.686,0,0,1,1.145-.236,2.8,2.8,0,0,1,2.055.876,3.148,3.148,0,0,1,.842,2.156v10.813a14.006,14.006,0,0,1-.91,5.053,12.67,12.67,0,0,1-2.526,4.11,11.984,11.984,0,0,1-3.806,2.8,11.385,11.385,0,0,1-4.783,1.011,12.124,12.124,0,0,1-4.918-1.011,12.828,12.828,0,0,1-4.009-2.8,13.2,13.2,0,0,1-3.672-9.162V97.788Zm35.134,13.171a7.226,7.226,0,0,0,2.459,3.436,7.149,7.149,0,0,0,1.886.977,6.587,6.587,0,0,0,2.156.371,8.2,8.2,0,0,0,1.987-.2,6.365,6.365,0,0,0,1.482-.64,3.564,3.564,0,0,1,1.752-.573,2.605,2.605,0,0,1,1.145.269,2.376,2.376,0,0,1,.91.707,3.3,3.3,0,0,1,.842,2.19,2.823,2.823,0,0,1-.573,1.684,5.082,5.082,0,0,1-1.651,1.314,8.717,8.717,0,0,1-2.56.808,17.965,17.965,0,0,1-3.3.3,12.617,12.617,0,0,1-5.086-1.044,13.193,13.193,0,0,1-4.177-2.863,13.386,13.386,0,0,1-2.83-4.244,13.1,13.1,0,0,1-1.044-5.188,13.543,13.543,0,0,1,1.044-5.255,13.385,13.385,0,0,1,2.83-4.244,13.581,13.581,0,0,1,4.177-2.863,12.076,12.076,0,0,1,5.086-1.044,12.232,12.232,0,0,1,5.053,1.044,13.705,13.705,0,0,1,4.143,2.83,13.24,13.24,0,0,1,2.83,4.211,13.379,13.379,0,0,1,1.112,5.188,2.773,2.773,0,0,1-2.9,2.931Zm13.508-5.12a7.142,7.142,0,0,0-.977-2.122,7.221,7.221,0,0,0-1.55-1.651,6.494,6.494,0,0,0-2.021-1.078,6.98,6.98,0,0,0-2.392-.371,6.8,6.8,0,0,0-2.358.4,6.73,6.73,0,0,0-1.987,1.112,7.819,7.819,0,0,0-1.516,1.651,6.609,6.609,0,0,0-.91,2.055Z"/>
      <path id="Path_120" data-name="Path 120" d="M74.141,110.286V82.967l7.983,4.548v27.352l-14.653,8.354-7.983-4.548ZM34.191,98.091l7.983-4.548v16.674h0l23.984,13.643h0l-7.983,4.548L34.191,114.766ZM58.174,73.636h0l14.653,8.32v9.129l-14.653-8.32h0L34.191,96.441h0v-9.1h0Zm-8.96,16.236,5.423-3.065V98.26a6.3,6.3,0,0,1,3.84-1.415,9.024,9.024,0,0,1,6.569,2.661,8.7,8.7,0,0,1,2.695,6.468,8.828,8.828,0,0,1-2.695,6.468,9.353,9.353,0,0,1-13.137,0,8.7,8.7,0,0,1-2.695-6.468Zm6.535,18.763a3.857,3.857,0,0,0,6.569-2.695,3.52,3.52,0,0,0-1.145-2.661,3.863,3.863,0,0,0-5.423,0A3.59,3.59,0,0,0,54.6,105.94,3.858,3.858,0,0,0,55.749,108.635Z" fill="url(#linear-gradient)"/>
    </g>
  </g>
</svg>
