<svg xmlns="http://www.w3.org/2000/svg" width="76.751" height="83.054" viewBox="0 0 76.751 83.054">
  <g id="Group_72" data-name="Group 72" transform="translate(-230.84 -956.857) rotate(60)">
    <g id="Group_13" data-name="Group 13" transform="translate(958.813 229.33)">
      <path id="Path_6" data-name="Path 6" d="M137.2,839.747c-2.572,3.54-.133,9.842,5.482,14.049,5.594,4.2,12.22,4.73,14.8,1.169,2.572-3.54.113-9.854-5.482-14.049s-12.221-4.73-14.8-1.169" transform="translate(-125.047 -832.103)" fill="#f2b578" fill-rule="evenodd"/>
      <path id="Path_7" data-name="Path 7" d="M171.653,908.537c-1.776,4.019,1.955,9.651,8.31,12.58s12.941,2.051,14.717-1.968-1.934-9.638-8.31-12.58c-6.355-2.929-12.941-2.051-14.717,1.968" transform="translate(-171.211 -881.168)" fill="#f2b578" fill-rule="evenodd"/>
      <path id="Path_8" data-name="Path 8" d="M151.047,996.368c.243,4.036,5.646,7.116,12.109,6.858s11.5-3.735,11.268-7.792c-.222-4.024-5.646-7.116-12.088-6.846-6.463.258-11.519,3.723-11.289,7.78" transform="translate(-145.02 -942.077)" fill="#f2b578" fill-rule="evenodd"/>
      <path id="Path_9" data-name="Path 9" d="M64.1,819.267c-3,2.727-1.991,8.864,2.247,13.745,4.25,4.86,10.12,6.608,13.14,3.893,3-2.727,1.991-8.864-2.259-13.724-4.238-4.88-10.12-6.608-13.128-3.914" transform="translate(-27.633 -817.997)" fill="#f2b578" fill-rule="evenodd"/>
      <path id="Path_10" data-name="Path 10" d="M.023,918.741a10.355,10.355,0,0,0,1.558,4.16c.877,1.5,2.114,3.188,3.008,4.892a17.188,17.188,0,0,1,1.819,5.345c.3,1.9.324,3.947.618,5.54a12.873,12.873,0,0,0,1.354,3.76,6.973,6.973,0,0,0,1.988,2.612,12.943,12.943,0,0,0,4.035,2.119,9.1,9.1,0,0,0,3.824.3,12,12,0,0,0,3.2-.885,5.944,5.944,0,0,0,2.424-1.906,17.925,17.925,0,0,0,1.939-3.782c.569-1.409,1.039-2.794,1.526-4.252.508-1.446,1.06-2.92,1.6-4.182.556-1.25,1.1-2.287,1.608-3.231a17.3,17.3,0,0,1,4.236-5.57c.85-.768,1.582-1.245,2.526-1.984a19.136,19.136,0,0,0,2.911-2.809,7.352,7.352,0,0,0,1.579-3.276,11.365,11.365,0,0,0-.042-3.86,13.432,13.432,0,0,0-1.1-3.633,8.159,8.159,0,0,0-2.049-2.787,8.908,8.908,0,0,0-3.3-1.624,11.991,11.991,0,0,0-4.125-.395,19.52,19.52,0,0,0-4.388.92c-1.553.457-3.232,1.032-4.838,1.484a25.529,25.529,0,0,1-4.834,1.014c-1.691.179-3.538.153-5.193.271a19.456,19.456,0,0,0-4.372.708,7.855,7.855,0,0,0-2.955,1.588A13.355,13.355,0,0,0,2.213,912a14.181,14.181,0,0,0-1.587,3.1,8.632,8.632,0,0,0-.6,3.64" transform="translate(28.667 -880.014)" fill="#f2b578" fill-rule="evenodd"/>
    </g>
  </g>
</svg>
