<svg xmlns="http://www.w3.org/2000/svg" width="835.159" height="297.278" viewBox="0 0 835.159 297.278">
  <g id="Group_10" data-name="Group 10" transform="translate(-196.249 -1.507)">
    <g id="Group_20" data-name="Group 20">
      <path id="Path_1" data-name="Path 1" d="M329.231,419.815c-2.645,3.642-.137,10.122,5.638,14.449,5.754,4.315,12.569,4.865,15.227,1.2,2.645-3.642.116-10.135-5.638-14.45s-12.569-4.865-15.227-1.2" transform="translate(588.255 -300.371)" fill="#f2b578" fill-rule="evenodd"/>
      <path id="Path_2" data-name="Path 2" d="M363.666,488.642c-1.826,4.134,2.011,9.926,8.547,12.939s13.31,2.109,15.137-2.024-1.99-9.913-8.547-12.939c-6.536-3.012-13.31-2.109-15.136,2.024" transform="translate(541.774 -348.911)" fill="#f2b578" fill-rule="evenodd"/>
      <path id="Path_3" data-name="Path 3" d="M343.047,576.59c.25,4.151,5.807,7.319,12.454,7.054s11.826-3.842,11.59-8.014c-.229-4.139-5.807-7.319-12.433-7.042-6.648.265-11.848,3.829-11.611,8" transform="translate(568.136 -409.17)" fill="#f2b578" fill-rule="evenodd"/>
      <path id="Path_4" data-name="Path 4" d="M256.149,399.3c-3.086,2.8-2.048,9.117,2.311,14.137,4.371,5,10.408,6.8,13.515,4,3.086-2.8,2.048-9.117-2.323-14.116-4.359-5.02-10.408-6.8-13.5-4.025" transform="translate(686.343 -286.417)" fill="#f2b578" fill-rule="evenodd"/>
      <path id="Path_5" data-name="Path 5" d="M192.023,499.183a10.646,10.646,0,0,0,1.6,4.279c.9,1.543,2.174,3.279,3.094,5.031a17.679,17.679,0,0,1,1.871,5.5c.31,1.958.334,4.059.635,5.7a13.238,13.238,0,0,0,1.393,3.867,7.169,7.169,0,0,0,2.045,2.686,13.307,13.307,0,0,0,4.15,2.179,9.36,9.36,0,0,0,3.933.305,12.331,12.331,0,0,0,3.291-.91,6.115,6.115,0,0,0,2.493-1.961,18.432,18.432,0,0,0,1.994-3.89c.585-1.449,1.069-2.873,1.57-4.373.522-1.487,1.09-3,1.641-4.3.572-1.285,1.128-2.352,1.654-3.322a17.794,17.794,0,0,1,4.357-5.729c.874-.789,1.627-1.281,2.6-2.04a19.687,19.687,0,0,0,2.994-2.889,7.562,7.562,0,0,0,1.624-3.369,11.69,11.69,0,0,0-.043-3.971,13.816,13.816,0,0,0-1.128-3.736,8.391,8.391,0,0,0-2.107-2.867,9.162,9.162,0,0,0-3.4-1.67,12.326,12.326,0,0,0-4.243-.406,20.081,20.081,0,0,0-4.513.947c-1.6.47-3.324,1.061-4.976,1.526a26.263,26.263,0,0,1-4.972,1.043c-1.74.184-3.639.157-5.341.278a20.008,20.008,0,0,0-4.5.728,8.082,8.082,0,0,0-3.039,1.633,13.735,13.735,0,0,0-2.426,2.8,14.59,14.59,0,0,0-1.633,3.192,8.887,8.887,0,0,0-.62,3.744" transform="translate(742.469 -347.77)" fill="#f2b578" fill-rule="evenodd"/>
      <path id="Path_6" data-name="Path 6" d="M137.231,839.814c-2.645,3.641-.137,10.122,5.638,14.449,5.754,4.315,12.569,4.865,15.227,1.2,2.645-3.641.116-10.135-5.638-14.449s-12.569-4.865-15.227-1.2" transform="translate(834.083 -602.622)" fill="#f2b578" fill-rule="evenodd"/>
      <path id="Path_7" data-name="Path 7" d="M171.666,908.642c-1.826,4.134,2.011,9.926,8.547,12.939s13.31,2.109,15.136-2.024-1.99-9.913-8.547-12.939c-6.536-3.012-13.31-2.109-15.136,2.024" transform="translate(787.602 -651.162)" fill="#f2b578" fill-rule="evenodd"/>
      <path id="Path_8" data-name="Path 8" d="M151.047,996.59c.25,4.151,5.807,7.319,12.454,7.054s11.826-3.842,11.59-8.014c-.228-4.139-5.807-7.319-12.433-7.042-6.648.265-11.848,3.829-11.611,8" transform="translate(813.964 -711.421)" fill="#f2b578" fill-rule="evenodd"/>
      <path id="Path_9" data-name="Path 9" d="M64.149,819.3c-3.086,2.805-2.048,9.117,2.311,14.137,4.371,5,10.408,6.8,13.515,4,3.086-2.8,2.048-9.117-2.323-14.116-4.359-5.02-10.408-6.8-13.5-4.025" transform="translate(932.171 -588.668)" fill="#f2b578" fill-rule="evenodd"/>
      <path id="Path_10" data-name="Path 10" d="M.024,919.183a10.65,10.65,0,0,0,1.6,4.279c.9,1.543,2.174,3.279,3.094,5.032a17.678,17.678,0,0,1,1.871,5.5c.31,1.958.334,4.059.635,5.7a13.238,13.238,0,0,0,1.393,3.867,7.171,7.171,0,0,0,2.045,2.686,13.312,13.312,0,0,0,4.15,2.179,9.359,9.359,0,0,0,3.933.305,12.333,12.333,0,0,0,3.291-.91,6.113,6.113,0,0,0,2.493-1.961,18.436,18.436,0,0,0,1.994-3.89c.585-1.449,1.069-2.873,1.57-4.373.522-1.487,1.09-3,1.641-4.3.572-1.285,1.128-2.352,1.654-3.323a17.793,17.793,0,0,1,4.357-5.729c.874-.789,1.627-1.28,2.6-2.041a19.68,19.68,0,0,0,2.994-2.889,7.562,7.562,0,0,0,1.624-3.369,11.689,11.689,0,0,0-.043-3.971,13.817,13.817,0,0,0-1.128-3.736,8.392,8.392,0,0,0-2.107-2.867,9.162,9.162,0,0,0-3.4-1.67,12.334,12.334,0,0,0-4.243-.406,20.075,20.075,0,0,0-4.513.947c-1.6.47-3.324,1.061-4.976,1.527a26.263,26.263,0,0,1-4.972,1.043c-1.74.184-3.639.157-5.341.278a20.005,20.005,0,0,0-4.5.728A8.078,8.078,0,0,0,4.7,909.446a13.734,13.734,0,0,0-2.426,2.8A14.589,14.589,0,0,0,.644,915.44a8.878,8.878,0,0,0-.62,3.744" transform="translate(988.297 -650.021)" fill="#f2b578" fill-rule="evenodd"/>
      <path id="Path_11" data-name="Path 11" d="M1082.007,35.293c-2.3,3.872.805,10.091,6.958,13.862,6.131,3.761,12.967,3.675,15.273-.219,2.295-3.872-.828-10.1-6.958-13.862s-12.967-3.675-15.273.219" transform="translate(-376.717 -23.253)" fill="#f2b578" fill-rule="evenodd"/>
      <path id="Path_12" data-name="Path 12" d="M1110.85,107.3c-1.434,4.286,2.925,9.7,9.714,12.087s13.449.862,14.883-3.423-2.9-9.685-9.714-12.087c-6.788-2.392-13.449-.862-14.883,3.423" transform="translate(-415.668 -73.944)" fill="#f2b578" fill-rule="evenodd"/>
      <path id="Path_13" data-name="Path 13" d="M1084.49,191.758c.635,4.11,6.462,6.747,13.056,5.865s11.418-4.925,10.794-9.057c-.613-4.1-6.462-6.747-13.034-5.855-6.594.882-11.44,4.914-10.816,9.047" transform="translate(-381.013 -131.362)" fill="#f2b578" fill-rule="evenodd"/>
      <path id="Path_14" data-name="Path 14" d="M1010.839,7.053c-2.812,3.08-1.191,9.268,3.615,13.86,4.817,4.57,11,5.8,13.829,2.73,2.812-3.08,1.191-9.268-3.626-13.838-4.806-4.592-10.995-5.8-13.818-2.752" transform="translate(-281.263 -3.867)" fill="#f2b578" fill-rule="evenodd"/>
      <path id="Path_15" data-name="Path 15" d="M940.8,102.115a10.646,10.646,0,0,0,1.994,4.111c1.042,1.452,2.47,3.062,3.548,4.722a17.665,17.665,0,0,1,2.374,5.3c.491,1.921.71,4.01,1.162,5.614a13.246,13.246,0,0,0,1.746,3.72,7.171,7.171,0,0,0,2.286,2.484,13.31,13.31,0,0,0,4.335,1.784,9.359,9.359,0,0,0,3.944-.062,12.336,12.336,0,0,0,3.192-1.212,6.118,6.118,0,0,0,2.3-2.184,18.464,18.464,0,0,0,1.623-4.058c.448-1.5.8-2.961,1.156-4.5.381-1.529.806-3.092,1.234-4.436.45-1.333.9-2.447,1.337-3.462a17.792,17.792,0,0,1,3.805-6.109c.8-.867,1.5-1.426,2.4-2.273a19.666,19.666,0,0,0,2.712-3.155,7.565,7.565,0,0,0,1.3-3.505,11.687,11.687,0,0,0-.413-3.949,13.8,13.8,0,0,0-1.471-3.615A8.39,8.39,0,0,0,979,84.67a9.163,9.163,0,0,0-3.539-1.347,12.326,12.326,0,0,0-4.263-.01,20.078,20.078,0,0,0-4.406,1.363c-1.546.616-3.211,1.366-4.813,1.983a26.269,26.269,0,0,1-4.853,1.5c-1.715.345-3.609.5-5.292.774a20,20,0,0,0-4.409,1.144,8.08,8.08,0,0,0-2.874,1.908A13.728,13.728,0,0,0,942.4,95a14.568,14.568,0,0,0-1.328,3.331,8.886,8.886,0,0,0-.269,3.785" transform="translate(-215.607 -59.825)" fill="#f2b578" fill-rule="evenodd"/>
      <path id="Path_16" data-name="Path 16" d="M1523.159,301.48c-2.3,3.872.806,10.091,6.958,13.862,6.13,3.761,12.967,3.675,15.273-.219,2.3-3.872-.828-10.1-6.958-13.862s-12.967-3.675-15.273.219" transform="translate(-941.549 -214.813)" fill="#f2b578" fill-rule="evenodd"/>
      <path id="Path_17" data-name="Path 17" d="M1552,373.493c-1.434,4.285,2.925,9.7,9.713,12.087s13.449.862,14.883-3.423-2.9-9.685-9.713-12.087c-6.788-2.392-13.449-.862-14.883,3.423" transform="translate(-980.501 -265.505)" fill="#f2b578" fill-rule="evenodd"/>
      <path id="Path_18" data-name="Path 18" d="M1525.642,457.946c.635,4.11,6.462,6.747,13.056,5.865s11.418-4.925,10.794-9.057c-.613-4.1-6.462-6.747-13.035-5.855-6.594.882-11.44,4.914-10.816,9.047" transform="translate(-945.845 -322.923)" fill="#f2b578" fill-rule="evenodd"/>
      <path id="Path_19" data-name="Path 19" d="M1451.993,273.241c-2.812,3.08-1.191,9.268,3.616,13.86,4.817,4.57,11,5.8,13.829,2.73,2.811-3.08,1.191-9.268-3.627-13.838-4.806-4.593-10.995-5.8-13.818-2.752" transform="translate(-846.095 -195.428)" fill="#f2b578" fill-rule="evenodd"/>
      <path id="Path_20" data-name="Path 20" d="M1381.955,368.3a10.649,10.649,0,0,0,1.994,4.111c1.042,1.452,2.47,3.062,3.548,4.722a17.673,17.673,0,0,1,2.374,5.3c.491,1.921.71,4.01,1.163,5.614a13.239,13.239,0,0,0,1.746,3.72,7.172,7.172,0,0,0,2.286,2.484,13.314,13.314,0,0,0,4.335,1.784,9.359,9.359,0,0,0,3.944-.062,12.332,12.332,0,0,0,3.192-1.212,6.117,6.117,0,0,0,2.3-2.184,18.458,18.458,0,0,0,1.624-4.058c.448-1.5.8-2.961,1.156-4.5.381-1.529.806-3.092,1.234-4.436.45-1.333.9-2.447,1.337-3.462a17.794,17.794,0,0,1,3.8-6.109c.8-.867,1.5-1.426,2.4-2.273a19.662,19.662,0,0,0,2.712-3.155,7.564,7.564,0,0,0,1.3-3.505,11.7,11.7,0,0,0-.413-3.949,13.812,13.812,0,0,0-1.47-3.615,8.393,8.393,0,0,0-2.365-2.659,9.163,9.163,0,0,0-3.539-1.347,12.325,12.325,0,0,0-4.263-.01,20.062,20.062,0,0,0-4.406,1.362c-1.546.616-3.211,1.366-4.812,1.983a26.267,26.267,0,0,1-4.853,1.5c-1.715.345-3.609.5-5.292.774a20,20,0,0,0-4.409,1.144,8.079,8.079,0,0,0-2.874,1.908,13.727,13.727,0,0,0-2.155,3.015,14.563,14.563,0,0,0-1.328,3.331,8.886,8.886,0,0,0-.269,3.785" transform="translate(-780.439 -251.386)" fill="#f2b578" fill-rule="evenodd"/>
      <path id="Path_21" data-name="Path 21" d="M1946.594,47.766c-2.3,3.872.805,10.091,6.958,13.862,6.131,3.761,12.967,3.675,15.273-.219,2.3-3.872-.827-10.1-6.958-13.862s-12.967-3.675-15.273.219" transform="translate(-1483.696 -32.229)" fill="#f2b578" fill-rule="evenodd"/>
      <path id="Path_22" data-name="Path 22" d="M1975.439,119.778c-1.434,4.286,2.925,9.7,9.713,12.087s13.449.862,14.882-3.423-2.9-9.685-9.714-12.088c-6.788-2.392-13.449-.862-14.882,3.423" transform="translate(-1522.648 -82.92)" fill="#f2b578" fill-rule="evenodd"/>
      <path id="Path_23" data-name="Path 23" d="M1949.078,204.231c.635,4.11,6.462,6.747,13.056,5.865s11.418-4.925,10.794-9.057c-.613-4.1-6.462-6.747-13.034-5.855-6.594.882-11.44,4.914-10.816,9.047" transform="translate(-1487.992 -140.338)" fill="#f2b578" fill-rule="evenodd"/>
      <path id="Path_24" data-name="Path 24" d="M1875.427,19.527c-2.812,3.08-1.191,9.268,3.615,13.86,4.817,4.57,11,5.8,13.829,2.73,2.812-3.08,1.191-9.268-3.626-13.838-4.806-4.592-10.995-5.8-13.818-2.752" transform="translate(-1388.242 -12.844)" fill="#f2b578" fill-rule="evenodd"/>
      <path id="Path_25" data-name="Path 25" d="M1805.39,114.589a10.649,10.649,0,0,0,1.993,4.111c1.042,1.452,2.47,3.062,3.548,4.722a17.668,17.668,0,0,1,2.374,5.3c.49,1.921.71,4.01,1.162,5.614a13.239,13.239,0,0,0,1.746,3.72,7.17,7.17,0,0,0,2.286,2.484,13.314,13.314,0,0,0,4.335,1.784,9.358,9.358,0,0,0,3.944-.062,12.336,12.336,0,0,0,3.192-1.212,6.116,6.116,0,0,0,2.3-2.184,18.464,18.464,0,0,0,1.624-4.058c.448-1.5.8-2.961,1.156-4.5.381-1.529.806-3.092,1.234-4.436.45-1.333.9-2.447,1.337-3.462a17.794,17.794,0,0,1,3.8-6.109c.8-.867,1.5-1.426,2.4-2.273a19.665,19.665,0,0,0,2.712-3.155,7.563,7.563,0,0,0,1.3-3.505,11.681,11.681,0,0,0-.413-3.949,13.8,13.8,0,0,0-1.47-3.615,8.39,8.39,0,0,0-2.365-2.659,9.163,9.163,0,0,0-3.539-1.347,12.327,12.327,0,0,0-4.263-.01,20.066,20.066,0,0,0-4.406,1.363c-1.546.616-3.211,1.366-4.812,1.983a26.269,26.269,0,0,1-4.853,1.5c-1.715.345-3.609.5-5.292.774a20,20,0,0,0-4.409,1.144,8.08,8.08,0,0,0-2.874,1.908,13.728,13.728,0,0,0-2.155,3.015,14.572,14.572,0,0,0-1.328,3.33,8.888,8.888,0,0,0-.269,3.785" transform="translate(-1322.586 -68.802)" fill="#f2b578" fill-rule="evenodd"/>
      <path id="Path_26" data-name="Path 26" d="M2326.557,345.4c-2.3,3.872.806,10.091,6.958,13.862,6.13,3.761,12.967,3.675,15.272-.219,2.295-3.872-.828-10.1-6.958-13.862s-12.967-3.675-15.273.219" transform="translate(-1970.184 -246.418)" fill="#f2b578" fill-rule="evenodd"/>
      <path id="Path_27" data-name="Path 27" d="M2355.4,417.41c-1.434,4.285,2.925,9.7,9.713,12.087s13.449.862,14.883-3.423-2.9-9.685-9.714-12.088c-6.788-2.392-13.448-.862-14.882,3.423" transform="translate(-2009.135 -297.11)" fill="#f2b578" fill-rule="evenodd"/>
      <path id="Path_28" data-name="Path 28" d="M2329.041,501.864c.634,4.11,6.462,6.747,13.056,5.865s11.417-4.925,10.794-9.057c-.612-4.1-6.463-6.747-13.034-5.855-6.594.882-11.44,4.914-10.816,9.047" transform="translate(-1974.479 -354.528)" fill="#f2b578" fill-rule="evenodd"/>
      <path id="Path_29" data-name="Path 29" d="M2255.391,317.159c-2.812,3.08-1.191,9.268,3.615,13.86,4.817,4.57,11,5.8,13.829,2.73,2.812-3.08,1.191-9.268-3.626-13.838-4.806-4.592-11-5.8-13.818-2.752" transform="translate(-1874.73 -227.033)" fill="#f2b578" fill-rule="evenodd"/>
      <path id="Path_30" data-name="Path 30" d="M2185.353,412.221a10.65,10.65,0,0,0,1.994,4.111c1.042,1.452,2.47,3.062,3.548,4.722a17.674,17.674,0,0,1,2.374,5.3c.49,1.921.71,4.01,1.162,5.614a13.24,13.24,0,0,0,1.746,3.72,7.169,7.169,0,0,0,2.286,2.484,13.308,13.308,0,0,0,4.335,1.784,9.354,9.354,0,0,0,3.944-.062,12.331,12.331,0,0,0,3.192-1.212,6.117,6.117,0,0,0,2.3-2.184,18.464,18.464,0,0,0,1.623-4.058c.448-1.5.8-2.961,1.156-4.5.381-1.529.806-3.092,1.234-4.436.45-1.333.9-2.447,1.337-3.462a17.8,17.8,0,0,1,3.805-6.109c.8-.867,1.5-1.426,2.4-2.273a19.676,19.676,0,0,0,2.712-3.155,7.569,7.569,0,0,0,1.3-3.505,11.694,11.694,0,0,0-.413-3.949,13.814,13.814,0,0,0-1.47-3.615,8.393,8.393,0,0,0-2.365-2.659,9.166,9.166,0,0,0-3.539-1.347,12.326,12.326,0,0,0-4.263-.01,20.058,20.058,0,0,0-4.406,1.363c-1.547.616-3.211,1.366-4.812,1.983a26.277,26.277,0,0,1-4.853,1.5c-1.715.345-3.609.5-5.292.774a20,20,0,0,0-4.41,1.144,8.081,8.081,0,0,0-2.874,1.908,13.719,13.719,0,0,0-2.155,3.015,14.558,14.558,0,0,0-1.329,3.331,8.886,8.886,0,0,0-.269,3.785" transform="translate(-1809.073 -282.992)" fill="#f2b578" fill-rule="evenodd"/>
      <path id="Path_31" data-name="Path 31" d="M2857.231,40.815c-2.645,3.642-.136,10.122,5.638,14.449,5.754,4.315,12.569,4.865,15.227,1.2,2.645-3.642.115-10.135-5.639-14.45s-12.569-4.865-15.227-1.2" transform="translate(-2648.481 -27.626)" fill="#f2b578" fill-rule="evenodd"/>
      <path id="Path_32" data-name="Path 32" d="M2891.666,109.642c-1.826,4.134,2.011,9.926,8.547,12.939s13.31,2.109,15.136-2.024-1.99-9.913-8.547-12.939c-6.536-3.012-13.31-2.109-15.136,2.024" transform="translate(-2694.963 -76.166)" fill="#f2b578" fill-rule="evenodd"/>
      <path id="Path_33" data-name="Path 33" d="M2871.046,197.59c.25,4.152,5.807,7.319,12.454,7.054s11.827-3.842,11.59-8.014c-.228-4.139-5.807-7.319-12.433-7.042-6.647.265-11.847,3.829-11.61,8" transform="translate(-2668.599 -136.424)" fill="#f2b578" fill-rule="evenodd"/>
      <path id="Path_34" data-name="Path 34" d="M2784.148,20.3c-3.086,2.8-2.048,9.117,2.311,14.137,4.371,5,10.408,6.8,13.515,4,3.086-2.8,2.048-9.117-2.323-14.116-4.359-5.02-10.408-6.8-13.5-4.025" transform="translate(-2550.393 -13.671)" fill="#f2b578" fill-rule="evenodd"/>
      <path id="Path_35" data-name="Path 35" d="M2720.023,120.183a10.648,10.648,0,0,0,1.6,4.278c.9,1.543,2.174,3.279,3.094,5.032a17.685,17.685,0,0,1,1.871,5.5c.31,1.958.334,4.059.635,5.7a13.246,13.246,0,0,0,1.393,3.867,7.168,7.168,0,0,0,2.045,2.686,13.316,13.316,0,0,0,4.15,2.179,9.359,9.359,0,0,0,3.933.305,12.339,12.339,0,0,0,3.291-.91,6.114,6.114,0,0,0,2.492-1.961,18.41,18.41,0,0,0,1.994-3.89c.585-1.449,1.069-2.873,1.57-4.373.522-1.487,1.09-3,1.642-4.3.572-1.286,1.127-2.352,1.653-3.323a17.786,17.786,0,0,1,4.357-5.729c.874-.789,1.626-1.281,2.6-2.04a19.685,19.685,0,0,0,2.994-2.889,7.564,7.564,0,0,0,1.624-3.369,11.7,11.7,0,0,0-.043-3.971,13.827,13.827,0,0,0-1.128-3.736,8.4,8.4,0,0,0-2.107-2.867,9.16,9.16,0,0,0-3.4-1.67,12.327,12.327,0,0,0-4.243-.406,20.086,20.086,0,0,0-4.514.947c-1.6.47-3.324,1.061-4.975,1.527a26.268,26.268,0,0,1-4.972,1.043c-1.74.184-3.639.157-5.341.278a20,20,0,0,0-4.5.728,8.075,8.075,0,0,0-3.039,1.633,13.736,13.736,0,0,0-2.426,2.8,14.6,14.6,0,0,0-1.633,3.192,8.89,8.89,0,0,0-.62,3.744" transform="translate(-2494.267 -75.024)" fill="#f2b578" fill-rule="evenodd"/>
      <path id="Path_46" data-name="Path 46" d="M851.772,435.613c-2.295,3.872.805,10.091,6.958,13.862,6.13,3.761,12.967,3.675,15.273-.219,2.295-3.872-.828-10.1-6.958-13.862s-12.967-3.675-15.273.219" transform="translate(-81.936 -311.341)" fill="#f2b578" fill-rule="evenodd"/>
      <path id="Path_47" data-name="Path 47" d="M880.616,507.625c-1.434,4.285,2.925,9.7,9.713,12.087s13.449.862,14.883-3.423-2.9-9.685-9.713-12.087c-6.788-2.392-13.449-.862-14.883,3.423" transform="translate(-120.887 -362.033)" fill="#f2b578" fill-rule="evenodd"/>
      <path id="Path_48" data-name="Path 48" d="M854.256,592.078c.635,4.11,6.462,6.747,13.056,5.865s11.418-4.925,10.794-9.057c-.613-4.1-6.462-6.747-13.034-5.855-6.594.882-11.44,4.914-10.816,9.047" transform="translate(-86.233 -419.451)" fill="#f2b578" fill-rule="evenodd"/>
      <path id="Path_49" data-name="Path 49" d="M780.606,407.374c-2.812,3.08-1.191,9.268,3.615,13.86,4.817,4.57,11,5.8,13.829,2.73,2.811-3.08,1.191-9.268-3.626-13.838-4.806-4.592-10.995-5.8-13.818-2.752" transform="translate(13.518 -291.956)" fill="#f2b578" fill-rule="evenodd"/>
      <path id="Path_50" data-name="Path 50" d="M710.568,502.436a10.645,10.645,0,0,0,1.994,4.111c1.042,1.452,2.47,3.062,3.548,4.722a17.677,17.677,0,0,1,2.374,5.3c.491,1.921.71,4.011,1.162,5.614a13.242,13.242,0,0,0,1.746,3.72,7.17,7.17,0,0,0,2.286,2.484,13.308,13.308,0,0,0,4.335,1.784,9.359,9.359,0,0,0,3.944-.062,12.332,12.332,0,0,0,3.192-1.212,6.117,6.117,0,0,0,2.3-2.184,18.462,18.462,0,0,0,1.624-4.058c.448-1.5.8-2.961,1.156-4.5.381-1.529.806-3.092,1.234-4.436.45-1.333.9-2.447,1.337-3.462a17.793,17.793,0,0,1,3.8-6.109c.8-.867,1.5-1.426,2.4-2.273a19.679,19.679,0,0,0,2.712-3.155,7.566,7.566,0,0,0,1.3-3.506,11.692,11.692,0,0,0-.413-3.949,13.818,13.818,0,0,0-1.47-3.615,8.393,8.393,0,0,0-2.365-2.659,9.163,9.163,0,0,0-3.539-1.347,12.328,12.328,0,0,0-4.263-.01A20.078,20.078,0,0,0,736.561,485c-1.546.616-3.211,1.366-4.813,1.983a26.264,26.264,0,0,1-4.853,1.5c-1.715.345-3.608.5-5.292.774a20,20,0,0,0-4.409,1.144,8.08,8.08,0,0,0-2.874,1.908,13.727,13.727,0,0,0-2.155,3.015,14.571,14.571,0,0,0-1.328,3.331,8.881,8.881,0,0,0-.269,3.785" transform="translate(79.174 -347.915)" fill="#f2b578" fill-rule="evenodd"/>
    </g>
  </g>
</svg>
