<svg xmlns="http://www.w3.org/2000/svg" xmlns:xlink="http://www.w3.org/1999/xlink" width="83.058" height="81.968" viewBox="0 0 83.058 81.968">
  <defs>
    <clipPath id="clip-path">
      <rect id="Rectangle_27" data-name="Rectangle 27" width="83.058" height="81.968" fill="#fff"/>
    </clipPath>
  </defs>
  <g id="Group_71" data-name="Group 71" transform="translate(0 0)">
    <g id="Group_70" data-name="Group 70" transform="translate(0 0)" clip-path="url(#clip-path)">
      <path id="Path_128" data-name="Path 128" d="M51.493,62.65a.462.462,0,0,0-.167-.369c-.342-.341-.675-.689-1.012-1.036-.018-.018-.046-.031-.057-.052-.211-.411-.655-.631-.857-1.045-.114-.233-.311-.4-.443-.626a5.657,5.657,0,0,0-.51-.629c-.056-.069-.1-.145-.155-.219-.014-.02-.017-.052-.035-.067a2.562,2.562,0,0,1-.5-.591c-.073-.1-.154-.2-.227-.31a2.692,2.692,0,0,0-.318-.439,1.185,1.185,0,0,1-.2-.33,5.2,5.2,0,0,0-.331-.593c-.054.1-.125.176-.126.251,0,.308-.206.557-.239.854-.139.117-.039.3-.126.438a.95.95,0,0,0-.155.385c-.019.207-.081.4-.106.608a3,3,0,0,1-.089.413,3.431,3.431,0,0,0-.225,1.054c0,.07-.064.141-.076.214a2.12,2.12,0,0,0-.106.608c-.121.254-.15.537-.248.8-.115.312-.221.63-.314.948a7.608,7.608,0,0,1-.261.725,1.064,1.064,0,0,0-.054.38.879.879,0,0,1-.1.41c-.116.227-.192.473-.319.7-.108.191-.225.318-.455.288a.387.387,0,0,0-.324.108.565.565,0,0,1-.437.121c-.13,0-.261,0-.392,0a1.107,1.107,0,0,0-.537.067.571.571,0,0,1-.232.017.554.554,0,0,0-.338.07.234.234,0,0,1-.186.029c-.193-.073-.377.012-.566.008s-.393,0-.589,0c-.146,0-.275.1-.445.018-.13-.061-.312,0-.466-.024a1.133,1.133,0,0,1-.393-.149,5.291,5.291,0,0,1-.464-.352,6.886,6.886,0,0,0-.618-.472,1.589,1.589,0,0,1-.667-.831,1.363,1.363,0,0,1-.029-.693,7.884,7.884,0,0,1,.281-.876,2.239,2.239,0,0,1,.53-.707c.1-.12.229-.214.327-.335a.914.914,0,0,1,.4-.236.364.364,0,0,1,.4.07c.064.062.135.119.2.177.137-.021.207-.07.148-.217a.761.761,0,0,1,.829-.088c.3.135.626.22.963.335a1.409,1.409,0,0,0,.169-.643.381.381,0,0,1,.039-.225,1.264,1.264,0,0,0,.169-.668,1.854,1.854,0,0,1,.183-.539.791.791,0,0,0,.108-.407.473.473,0,0,1,.067-.338.115.115,0,0,0,.019-.074c-.052-.5.143-.979.1-1.475,0-.051.013-.111-.007-.155a2.78,2.78,0,0,1-.082-1c-.011-.155.03-.314-.073-.456a.169.169,0,0,1-.018-.114,3.6,3.6,0,0,0-.117-.956c-.01-.126-.073-.246-.093-.373a.8.8,0,0,0-.064-.339.465.465,0,0,1-.029-.191,1.853,1.853,0,0,0-.048-.538c-.063-.158.006-.342-.126-.481a.273.273,0,0,1-.025-.189,1.867,1.867,0,0,0-.2-.856c-.064-.179-.145-.352-.224-.539a.424.424,0,0,1-.47-.08,1.029,1.029,0,0,0-.392-.243,1.491,1.491,0,0,1-.713-.732.518.518,0,0,1-.079-.3,4.689,4.689,0,0,0,0-.549,1.412,1.412,0,0,1,.275-.962c-.112-.12-.223-.248-.342-.366a3.372,3.372,0,0,1-.711-1.134.227.227,0,0,1-.01-.152c.106-.211.082-.456.18-.666a.809.809,0,0,1,.157-.214c.087-.092.213-.152.233-.312a.655.655,0,0,0-.152-.1,1.428,1.428,0,0,1-.483-.377.722.722,0,0,1-.244-.549,1.736,1.736,0,0,0-.065-.5A1.306,1.306,0,0,1,38,43.119a.836.836,0,0,1,.169-.3,3.512,3.512,0,0,1,.522-.673c.132-.12.126-.177,0-.324-.042-.049-.086-.1-.133-.149,0-.133,0-.263,0-.394a2.178,2.178,0,0,0-.054-.38,1.434,1.434,0,0,1,.232-1.254c.169-.208.31-.441.464-.661a.653.653,0,0,1,.467-.243c.086-.014.168-.045.291-.079a1.716,1.716,0,0,1-.166-.445.634.634,0,0,1,.032-.567c.129-.223.236-.461.381-.672a2.767,2.767,0,0,1,.361-.357c.071-.069.075-.089.077-.258-.206-.093-.411-.17-.6-.279a.661.661,0,0,0-.367-.1c-.262,0-.524,0-.786,0a1.408,1.408,0,0,1-.8-.238c-.01-.007-.013-.029-.023-.031a3.341,3.341,0,0,1-.913-.412A.475.475,0,0,0,37,35.287a2.612,2.612,0,0,1-.913-.3,5.351,5.351,0,0,0-.681-.268c-.046-.019-.111-.007-.15-.035a6.213,6.213,0,0,1-1.11-.781c-.044-.048-.079-.118-.133-.138-.268-.1-.356-.356-.492-.568A.461.461,0,0,0,33.3,33a.5.5,0,0,1-.238-.192,6.941,6.941,0,0,1-.6-.987,2.622,2.622,0,0,1-.252-.849,2.43,2.43,0,0,0-.106-.408,2.055,2.055,0,0,1-.077-.5.17.17,0,0,0-.124-.18c-.268-.023-.389-.243-.564-.388-.12-.1-.2-.238-.37-.275a.148.148,0,0,1-.086-.077c-.106-.244-.293-.452-.262-.757a1.857,1.857,0,0,1,.118-.719c.163-.306.314-.653.717-.689.163-.014.292-.1.447-.118a.434.434,0,0,0,.141-.06.5.5,0,0,1,.452-.012.537.537,0,0,0,.554,0,.256.256,0,0,1,.348.074,3.549,3.549,0,0,0,.269.252c.149-.1.289-.187.425-.28a2.206,2.206,0,0,1,.757-.258c.194.014.341-.117.52-.137.036,0,.063-.079.1-.135a.821.821,0,0,1-.116-.143c-.089-.181-.244-.358-.058-.568a3.548,3.548,0,0,1,.281-.959.914.914,0,0,0,.019-.193c.021-.125.048-.249.079-.4l-.56-.461c-.015-.192,0-.385-.186-.5a.092.092,0,0,1-.03-.07,3.331,3.331,0,0,0-.108-.606,1.319,1.319,0,0,1,.09-.649,4.267,4.267,0,0,1,.468-.917,1.282,1.282,0,0,1,.167-.154.234.234,0,0,0,.012-.342c-.107-.094-.229-.171-.33-.271a.854.854,0,0,1-.312-.719c.011-.1,0-.208,0-.313.006-.2-.042-.422.111-.6a.967.967,0,0,1,.133-.482,1.607,1.607,0,0,1,.674-.68c.056-.029.111-.061.174-.1-.1-.2-.207-.393-.3-.587a.851.851,0,0,1,0-.783,1.192,1.192,0,0,1,.36-.543c.029-.018.039-.063.057-.1a1.4,1.4,0,0,1,.813-.768,1.031,1.031,0,0,1,.223-.054c.179-.033.252-.082.242-.242-.018-.252.145-.468.12-.722a.455.455,0,0,1,.1-.246c.093-.141.2-.274.3-.406a.294.294,0,0,1,.1-.056,1.9,1.9,0,0,1,.864-.31c.049,0,.1-.042.145-.052a.863.863,0,0,1,.5.018c.157.057.324.081.425.239.031.049.1.075.156.118a.835.835,0,0,0,.181-.439.745.745,0,0,1,.073-.218,2.57,2.57,0,0,1,.276-.456c.1-.156.22-.281.329-.423a1.629,1.629,0,0,1,.836-.529.435.435,0,0,1,.3-.019.865.865,0,0,0,.41.1.417.417,0,0,1,.182.056c.292.166.58.336.87.5.023-.012.06-.018.065-.035a2.012,2.012,0,0,1,.536-.7.86.86,0,0,1,.194-.12,3.84,3.84,0,0,0,.361-.22.742.742,0,0,1,.5-.171c.169.007.341-.01.51,0a3,3,0,0,1,.492.087,1.05,1.05,0,0,1,.318.137c.094.063.155.169.285.2.05.01.093.086.126.139.12.2.235.4.355.6h.152c.145-.241.145-.241.5-.458.087-.054.176-.1.26-.163a.791.791,0,0,1,.472-.155.975.975,0,0,0,.61-.085.141.141,0,0,1,.114,0c.241.1.511.1.745.194a1.2,1.2,0,0,1,.756.823,1.167,1.167,0,0,0,.02.115.194.194,0,0,0,.255.1.836.836,0,0,0,.143-.058c.1-.061.136-.2.27-.21.271-.011.532-.151.806-.087.207.048.445.035.589.241.008.011.014.027.024.031.268.069.372.307.5.51a1.855,1.855,0,0,1,.4.963,2.481,2.481,0,0,0,.276.033q.589.005,1.178,0a.787.787,0,0,1,.722.379,1.613,1.613,0,0,1,.291.826.515.515,0,0,0,.012.193.8.8,0,0,1,0,.674c-.065.158.012.268.2.3a.414.414,0,0,1,.26.151,4.541,4.541,0,0,0,.9.731A8.328,8.328,0,0,0,59,16.973c.462.229.93.448,1.379.7.412.231.835.449,1.232.706.107.07.191.177.3.248a1.285,1.285,0,0,0,.583.289,2.243,2.243,0,0,0,.629.374c.217.113.439.216.681.333a1.248,1.248,0,0,0,.169-.206.636.636,0,0,1,.407-.339c.233-.06.441-.224.7-.177.166-.1.323.035.485.017a.1.1,0,0,1,.069.031c.133.151.341.192.487.31a5.36,5.36,0,0,1,.612.47,2.207,2.207,0,0,1,.333.47.819.819,0,0,1,0,.847c-.05.089-.1.183-.137.277-.081.18-.045.321.131.38a2.349,2.349,0,0,1,.992.745,3.941,3.941,0,0,0,.086.686,1.661,1.661,0,0,1,.01.624.7.7,0,0,1-.263.461,2.71,2.71,0,0,0-.542.661.315.315,0,0,0-.046.256,1.317,1.317,0,0,0,.05.252c.031.067.118.107.154.173.048.089.062.2.1.288a1.666,1.666,0,0,1,.085,1.2,1.487,1.487,0,0,1-.742,1.022,1.4,1.4,0,0,0-.212.173.143.143,0,0,0-.006.233.263.263,0,0,1,.052.176c-.011.227.07.472-.11.672.021.236-.143.443-.1.685a.416.416,0,0,1-.093.329.864.864,0,0,0-.12.244,1.9,1.9,0,0,1-.6.711.5.5,0,0,1-.392.144,1.341,1.341,0,0,1-.538-.06.929.929,0,0,0-.324-.027c0,.285-.125.52-.124.781a.328.328,0,0,1-.02.154,3.182,3.182,0,0,1-.474.8,1.44,1.44,0,0,1-.439.313c-.036.015-.083.013-.111.036-.485.4-1.062.264-1.612.277-.125,0-.244-.15-.368-.052-.086.067-.116.2-.2.271a2,2,0,0,0-.485.65.743.743,0,0,1-.373.33,2.176,2.176,0,0,1-.851.214,2.406,2.406,0,0,1-1.2-.245.794.794,0,0,0-.182-.058c-.021,0-.049.011-.074.017a3.024,3.024,0,0,1-1,.948.993.993,0,0,1-.52.131,3.089,3.089,0,0,0-.393,0,.432.432,0,0,1-.294-.081,5.644,5.644,0,0,1-.738-.481c-.093-.1-.2-.079-.308.024-.131.123-.225.294-.423.331a1.336,1.336,0,0,1-.975.292,2.022,2.022,0,0,1-.694-.073.908.908,0,0,0-.389-.01.691.691,0,0,1-.406-.112c-.067-.036-.124-.092-.193-.12a.253.253,0,0,1-.189-.264.462.462,0,0,0-.163-.351,8.668,8.668,0,0,0-1.072.648c.069.089.115.211.194.238a1.076,1.076,0,0,1,.472.4c.171.211.4.364.575.552a1.093,1.093,0,0,1-.108.764c-.1.194-.166.4-.252.62a.22.22,0,0,0,.227.16.644.644,0,0,1,.429.158c.167.119.382.179.5.369a.125.125,0,0,0,.055.054c.418.132.485.5.572.85a1.927,1.927,0,0,1,.083.255.842.842,0,0,1-.043.535.365.365,0,0,0-.014.312,3.555,3.555,0,0,0,.569.31.9.9,0,0,1,.482.426,1.787,1.787,0,0,1,.3,1.023c-.008.143,0,.286,0,.447a1.437,1.437,0,0,1,.632.21.372.372,0,0,0,.226.033.565.565,0,0,1,.6.4,8.312,8.312,0,0,1,.308.826.425.425,0,0,1,.006.3,1.207,1.207,0,0,0-.06.592,1.332,1.332,0,0,0,.225.043c.248,0,.5,0,.7,0,.266.161.494.306.729.441.146.085.3.155.354.337.021.069.1.123.141.179a2.263,2.263,0,0,1-.1,1.086.946.946,0,0,0,.513.051,1.7,1.7,0,0,1,.712.16c.048.02.118.021.143.057.139.192.391.2.554.345.125.114.239.241.362.357a.358.358,0,0,1,.112.281c0,.223,0,.445,0,.667a.512.512,0,0,1-.054.224.356.356,0,0,0,.107.485c.049.043.088.1.144.131a1.168,1.168,0,0,0,.243.051c0-.115.042-.223,0-.285a.284.284,0,0,1,.039-.324,4.76,4.76,0,0,1,.468-.657,1.95,1.95,0,0,1,.441-.306c.132-.082.271-.15.4-.231a1.176,1.176,0,0,0,.145-.124,1.1,1.1,0,0,1,.007-.872,4.1,4.1,0,0,1,.4-.875.529.529,0,0,1,.436-.282.266.266,0,0,0,.174-.065,1.239,1.239,0,0,1,.687-.363V45.046c.192-.194.381-.391.576-.582a.544.544,0,0,1,.136-.071q.259-.13.516-.263a.889.889,0,0,1,.522-.13c.115.014.235,0,.352.006a.443.443,0,0,1,.185.044,1.258,1.258,0,0,1,.63.6,2.938,2.938,0,0,0,.186.339.829.829,0,0,1,0,.849,3.95,3.95,0,0,1-.524.718c-.13.15-.238.273-.1.476a.228.228,0,0,1-.017.257.423.423,0,0,0,0,.406,1.772,1.772,0,0,1,.144.517.837.837,0,0,0,.1.248A1.3,1.3,0,0,1,66.4,49a1.22,1.22,0,0,1-.283.2c-.242.12-.469.269-.7.408a.281.281,0,0,0,.045.289c.081.115.138.249.22.362a.719.719,0,0,1,.08.637,4.058,4.058,0,0,1-.32.741.5.5,0,0,1-.268.217,3.387,3.387,0,0,0-.4.238,1.437,1.437,0,0,0,0,.25c.017.087.08.168.08.251s-.08.168-.077.251a1.065,1.065,0,0,1-.156.512c-.119.232-.31.408-.445.626a.828.828,0,0,1-.364.286,2.912,2.912,0,0,0-.3.189,1.448,1.448,0,0,0,.166.194,1.468,1.468,0,0,1,.369.582,3.647,3.647,0,0,1-.017,1.2.664.664,0,0,1-.188.289,1.74,1.74,0,0,0-.269.285.834.834,0,0,0-.079.229c.444.064.492.422.585.738.025.085.042.169.07.255a.7.7,0,0,1-.031.6c-.154.268-.287.548-.449.81a.9.9,0,0,1-.5.345c-.036.013-.074.02-.106.03a1.285,1.285,0,0,0-.167.717,2.5,2.5,0,0,0-.543.745,1.5,1.5,0,0,1-.543.6c-.065.039-.118.1-.183.142a.693.693,0,0,1-.626.108.784.784,0,0,0-.187-.048,2.552,2.552,0,0,0-.257,0,1.544,1.544,0,0,0-.026.237.534.534,0,0,1-.1.326,1.867,1.867,0,0,1-.7.66l-.035.019a1.554,1.554,0,0,1-1,.241.366.366,0,0,0-.12.026.938.938,0,0,0,.13.772c.135.306.179.638.316.939a.143.143,0,0,1,.006.039c.06.38-.043.5-.427.507a2.119,2.119,0,0,0-.772.073c-.083.033-.2-.019-.3-.032-.075-.01-.17-.052-.224-.023a1.04,1.04,0,0,1-.536.064c-.9,0-1.806.014-2.709,0a4.005,4.005,0,0,0-.872.157,2.073,2.073,0,0,1-.219.062,1.06,1.06,0,0,0-.456.077.481.481,0,0,1-.232.017,3.285,3.285,0,0,0-.948.157.906.906,0,0,1-.5,0,3.241,3.241,0,0,0-.8-.138,3.438,3.438,0,0,1-.76-.133,2.162,2.162,0,0,0-.611-.082c-.092,0-.183,0-.274,0a.32.32,0,0,1-.179-.058,1.656,1.656,0,0,0-.691-.332,3.374,3.374,0,0,1-.325-.112.466.466,0,0,1-.181-.136A4.088,4.088,0,0,1,46.4,64.7a1.2,1.2,0,0,0-.192-.288c-.191-.232-.106-.492-.083-.745.15-.176.124-.41.194-.613a.5.5,0,0,1,.31-.362c.108-.037.2-.13.312-.145a2.087,2.087,0,0,1,.725-.1c.138.027.274.068.413.089a2.642,2.642,0,0,1,.376.07,2.507,2.507,0,0,0,.792.152c.654-.019,1.309-.006,1.962-.006.1,0,.214.018.283-.1M52.8,33.1c-.046-.261-.086-.5-.132-.745-.025-.127-.057-.254-.09-.38-.068-.266-.139-.529-.208-.793-.052-.2-.106-.4-.156-.606q-.273-1.1-.543-2.2a3.223,3.223,0,0,1-.081-.463,20.061,20.061,0,0,0-.573-2.633c-.007-.027-.068-.07-.082-.063-.04.019-.1.06-.1.094a1.434,1.434,0,0,0,.014.35c.139.73.2,1.474.381,2.2a1.765,1.765,0,0,1,.033.193,27.013,27.013,0,0,0,.6,2.948c.141.583.281,1.166.433,1.746a.345.345,0,0,1-.135.441,1.04,1.04,0,0,0-.175.157,1.975,1.975,0,0,0-.541.98.553.553,0,0,0,0,.193.152.152,0,0,0,.243.094.26.26,0,0,0,.123-.231.542.542,0,0,1,.115-.366c.129-.163.26-.325.4-.475s.32-.3.467-.435" transform="translate(5.839 1.91)" fill="#fff"/>
      <path id="Path_129" data-name="Path 129" d="M31.978,43.438a.777.777,0,0,1,.152-.032h3.059a1.918,1.918,0,0,1,.361.658c.094.244.163.5.245.744a3.1,3.1,0,0,1,.048,1.323,23.928,23.928,0,0,1-.436,2.506,3.3,3.3,0,0,1-.9,1.666c-.2.2-.408.4-.619.6-.324.3-.654.6-1.012.926-.169,0-.377,0-.586,0-.706.018-1.412-.046-2.117.042a.425.425,0,0,1-.117,0,7.61,7.61,0,0,0-1.368.015c-.391.011-.782,0-1.174,0H25.925a3.008,3.008,0,0,1-.648-.637.953.953,0,0,0-.4-.36.245.245,0,0,1-.12-.092c-.132-.294-.4-.507-.5-.818a.484.484,0,0,0-.065-.179,4.488,4.488,0,0,1-.617-1.129c-.117-.233-.223-.47-.33-.7-.1,0-.1.052-.094.1q.02,1.411.04,2.822c0,.262.018.523.023.783a1.515,1.515,0,0,1-.023.2,4.781,4.781,0,0,1-1.212.064,6.723,6.723,0,0,0-.98-.011q-1.983.02-3.963.044c-.13,0-.26,0-.4,0a1.792,1.792,0,0,1-.042-.287c.011-.585.021-1.17.048-1.756a.686.686,0,0,1,.168-.06c.418-.007.836-.01,1.254-.013.143,0,.287,0,.431,0,.248,0,.5.007.743.007.114,0,.229-.013.364-.021.007-.111.015-.2.017-.288,0-.418.01-.836.012-1.254q.013-3.118.024-6.236c0-.457.02-.914.027-1.372a.477.477,0,0,0-.1-.391,1.213,1.213,0,0,0-.882.118,3.112,3.112,0,0,0-1.218,1.18,3.385,3.385,0,0,1-.177.3,1.264,1.264,0,0,0-.188.51c-.058.321-.12.642-.192.96a8.282,8.282,0,0,0-.224,1.548c0,.1-.024.207-.036.311q-.061.525-.12,1.05a1.165,1.165,0,0,1-.011.2,12.664,12.664,0,0,0-.263,1.381,4.371,4.371,0,0,1-.964,1.988c-.318.4-.657.778-.991,1.163a2.185,2.185,0,0,1-.839.562,6.709,6.709,0,0,1-.7.256,2.224,2.224,0,0,1-.9.038,3.682,3.682,0,0,1-1.118-.338c-.355-.164-.708-.332-1.056-.513a3.489,3.489,0,0,1-.728-.527,8.737,8.737,0,0,1-1.019-1.275.515.515,0,0,1-.092-.173,4.482,4.482,0,0,1-.244-1.46,3.09,3.09,0,0,1,.283-1.29.786.786,0,0,1,.3-.342c.086.029.073.1.057.16a1.71,1.71,0,0,0-.058.614,1.652,1.652,0,0,0,.407.868,2.526,2.526,0,0,0,.833.693,1.288,1.288,0,0,0,1.468-.117,2.518,2.518,0,0,0,.676-.8,2.653,2.653,0,0,0,.325-1.075c.008-.077.026-.155.042-.231q.143-.691.287-1.381a10.7,10.7,0,0,1,.811-2.57,2.99,2.99,0,0,1,1.088-1.294.985.985,0,0,0,.25-.188,2.513,2.513,0,0,1,.878-.575,1.558,1.558,0,0,1,.3-.087,6.548,6.548,0,0,0,1.13-.362c-.037-.033-.061-.073-.086-.073-.823-.013-1.647-.026-2.47-.031-.731,0-1.462,0-2.189,0a7.659,7.659,0,0,1-1.367-2.059,5.273,5.273,0,0,1-.418-1.537c-.075-.543-.156-1.086-.221-1.63a8.17,8.17,0,0,1,.026-1.723c.049-.519.124-1.038.219-1.551a4.045,4.045,0,0,1,.264-.859c.21-.492.451-.97.679-1.455A9.035,9.035,0,0,1,12.4,26.819a1.08,1.08,0,0,1,.891-.407c.406,0,.812,0,1.217,0h7.418c.275,0,.55-.006.824-.006.089,0,.177.012.289.021.03.261.011.508.03.753.014.181.039.362.052.544s.017.338.019.508c0,.47,0,.941.008,1.411a.573.573,0,0,0,.106.4c.079-.137.139-.245.2-.351s.145-.216.208-.329a3.707,3.707,0,0,1,.35-.561,2.436,2.436,0,0,0,.251-.442,2.767,2.767,0,0,1,.543-.761,2.821,2.821,0,0,0,.292-.317,4.193,4.193,0,0,1,1.069-.911.728.728,0,0,1,.4-.119c1.059-.02,2.118-.029,3.176-.079.824-.039,1.647-.046,2.47-.06a.753.753,0,0,1,.678.3c.133.176.3.33.445.5a2.97,2.97,0,0,1,.527.767,5,5,0,0,0,.506.85,4.538,4.538,0,0,1,.3.577,9.378,9.378,0,0,1,.755,1.756,4.425,4.425,0,0,1,.213,1.506.651.651,0,0,1-.121.438c-.307.038-3.333.044-3.728.008-.1-.09-.071-.218-.076-.329-.018-.483-.025-.967-.039-1.45q-.027-.941-.06-1.88a.944.944,0,0,0-.029-.137,1.67,1.67,0,0,0-.219-.029c-.47,0-.942.029-1.412.017-.876-.023-1.749.073-2.626.07-.235,0-.47.007-.706.019a.288.288,0,0,0-.3.251,1.088,1.088,0,0,0-.025.271c.012.51.03,1.018.042,1.528.01.366.015.732.02,1.1.011.772.017,1.542.03,2.314q.036,1.92.076,3.841.038,1.979.073,3.958.038,1.863.076,3.723c.012.6.019,1.2.033,1.8.006.258.023.517.036.8.594.035,1.166.007,1.737-.008.587-.015,1.175-.03,1.762-.054a11.7,11.7,0,0,0,1.7-.064.841.841,0,0,0,.055-.449c0-1.412,0-2.824,0-4.237a1.035,1.035,0,0,1,.036-.432M19.614,37.412c0-.085,0-.175,0-.266,0-.522-.006-1.043-.014-1.565-.014-.81-.04-1.618-.05-2.428-.014-1.2-.018-2.4-.027-3.6a1.71,1.71,0,0,0-.007-.235.259.259,0,0,0-.262-.239c-.039,0-.079,0-.118,0-.626,0-1.254-.008-1.88,0-.823.011-1.644.036-2.446.055-.09.079-.162.135-.227.2a1.151,1.151,0,0,0-.206.226,1.466,1.466,0,0,0-.067.261,1.083,1.083,0,0,1-.086.175,2.16,2.16,0,0,0-.282.916.944.944,0,0,1-.061.221,1.361,1.361,0,0,0-.075.256c-.04.442-.071.885-.1,1.328-.006.065-.032.143-.006.193a1,1,0,0,1,.04.5c0,.313-.007.626,0,.938a4.3,4.3,0,0,1,.043.574,2.2,2.2,0,0,0,.1.842,1.141,1.141,0,0,1,.06.262,3.953,3.953,0,0,0,.424,1.61c.092.007.194.02.3.02.536,0,1.072,0,1.607-.011q1.372-.018,2.743-.046a.83.83,0,0,0,.6-.179" transform="translate(1.452 4.98)" fill="#fff"/>
      <path id="Path_130" data-name="Path 130" d="M41.528,81.968a41.54,41.54,0,0,1-29.364-12,40.607,40.607,0,0,1,0-57.964,41.92,41.92,0,0,1,58.727,0,40.6,40.6,0,0,1,0,57.964,41.536,41.536,0,0,1-29.363,12m0-81.15A40.722,40.722,0,0,0,12.739,12.585a39.791,39.791,0,0,0,0,56.8,41.1,41.1,0,0,0,57.578,0,39.788,39.788,0,0,0,0-56.8A40.722,40.722,0,0,0,41.528.818" transform="translate(0 0)" fill="#fff"/>
      <path id="Path_131" data-name="Path 131" d="M41.048,78.538A38.54,38.54,0,0,1,13.8,67.4a37.678,37.678,0,0,1,0-53.782,38.9,38.9,0,0,1,54.489,0,37.678,37.678,0,0,1,0,53.782A38.54,38.54,0,0,1,41.048,78.538m0-75.236A37.725,37.725,0,0,0,14.379,14.2a36.858,36.858,0,0,0,0,52.617,38.074,38.074,0,0,0,53.339,0,36.858,36.858,0,0,0,0-52.617A37.725,37.725,0,0,0,41.048,3.3" transform="translate(0.48 0.474)" fill="#fff"/>
    </g>
  </g>
</svg>
