<?xml version="1.0" encoding="utf-8"?>
<!-- Generator: Adobe Illustrator 26.0.3, SVG Export Plug-In . SVG Version: 6.00 Build 0)  -->
<svg version="1.1" id="Layer_1" xmlns="http://www.w3.org/2000/svg" xmlns:xlink="http://www.w3.org/1999/xlink" x="0px" y="0px"
	 viewBox="0 0 258.5 268.2" style="enable-background:new 0 0 258.5 268.2;" xml:space="preserve">
<style type="text/css">
	.st0{fill:#DFA75E;stroke:#000000;stroke-miterlimit:10;}
	.st1{fill:#B7864E;}
	.st2{fill:#FFC400;stroke:#000000;stroke-miterlimit:10;}
	.st3{fill:#FFBEEA;stroke:#000000;stroke-miterlimit:10;}
	.st4{opacity:0.18;enable-background:new    ;}
	.st5{fill:none;stroke:#000000;stroke-miterlimit:10;}
	.st6{fill:#D1A1C8;stroke:#000000;stroke-miterlimit:10;}
	.st7{fill:#FFC9ED;}
	.st8{fill:#6F502B;stroke:#000000;stroke-miterlimit:10;}
	.st9{stroke:#000000;stroke-miterlimit:10;}
	.st10{fill:#FFFFFF;stroke:#000000;stroke-miterlimit:10;}
	.st11{opacity:0.14;enable-background:new    ;}
</style>
<g id="Layer_2_00000015351320009116889550000011148400836220553919_">
	<g id="Layer_2-2">
		<path class="st0" d="M241.3,229.7c0,0,16.7,23.5,16.5,23.9s0.2-27.9,0.2-27.9s-11.3-9.4-12.3-9.1S239,228.2,241.3,229.7z"/>
		<path class="st0" d="M200.8,249.3c0,0,2.1,15.3,2.9,18c0,0,19.4,0.9,19.4,0.2s-7.3-18.9-7.8-19S202.6,246.7,200.8,249.3z"/>
		<path class="st0" d="M78,71.1c0,0-2.9,2.1-2.5,11.2s-8,62.3-8,62.3s-3.6,11.4,1.3,14.3c1.4,1,3.3,0.7,4.3-0.7
			c0.1-0.1,0.2-0.3,0.2-0.4c0,0,1,8.5,6.5,1.4c0,0,2.8,10.6,8.4,2c0,0,4.1,10.5,9.2-1.2c0,0,2.6,9.8,6.4,1c0,0,1.2,3.3,2.6,2.3
			S142,143,142,143S85.3,68.3,78,71.1z"/>
		<path class="st0" d="M248.9,144.1c0.5-0.2,9.2,0.4,9.2,0.4V170c0,0-17.6-7.9-17.2-8.4S239,147.1,248.9,144.1z"/>
		<path class="st0" d="M213.1,111c0,0,4.8,7.8,9.1-0.3c0,0,5.5,5.3,7.3-3.2c0,0,7,4,6.5-4.3c0,0,7.6,3.7,6.1-6.3c0,0,9.8,2.2,4.2-7
			c0,0,7.5,1.2,3.3-7c0,0,4.6-1,0.7-6.8c0,0,8.8,0-1.8-9.3s-36.6-30.1-36.6-32.1S182.8,4,180.7,11s8.2,88.6,8.2,88.6L213.1,111z"/>
		<path class="st1" d="M253,222.5c0.3-0.2-7.8-5.9-7.8-5.9c-2.2-0.1-4.8,11.1-4.8,11.1l7.4,10.1C247.8,237.8,246.1,226.1,253,222.5z
			"/>
		<path class="st1" d="M194.2,25.5c0,0,7.8,6.7,8.6,10.2s23.6,28.7,25.3,29.7S246.9,86.3,245,92c-1.5,4.5-5.8,2-5.8,2s3.9,8-2.4,7.5
			c-1.2-0.3-2.4-0.7-3.6-1.1c0,0,2.4,6.3-2.2,6.2c-2.3-0.1-3.1-1.1-3.1-1.1s0.1,5.1-3.3,4.9c-1.7,0-3.2-0.9-4.2-2.2
			c0,0-0.9,3.1-2.7,4s-8.9-3.8-8.4-6.2S192,26,192,26L194.2,25.5z"/>
		<path class="st1" d="M202.2,254.9c-0.4,0-1-6.6-1-6.6c1-2,13.9,0.5,13.9,0.5l3.6,8.8C218.8,257.6,212.9,254.1,202.2,254.9z"/>
		<path class="st1" d="M247,148c0,0,1.2,3.7-1.2,11.6l11.7,5.6l0.1,4.2l-19.6-9.3L247,148z"/>
		<path class="st0" d="M180.1,235c0,0,11.6,17.5,33.1,14.1c12.8-2,21.2-9.9,26-16c3.3-4.2,5.4-9.1,6.4-14.4c1-5.9,1.8-14.2-0.8-20.2
			C240.4,188.5,180.1,235,180.1,235z"/>
		<path class="st1" d="M180.3,234c0,0,1.7,3.1,2.2,3.1s23.6,1.7,38.6-8.2c15.4-10.3,20.9-17.9,21.8-19.4c0.7-1.1,4.1-6.9,1.4-10.7
			S180.6,229.9,180.3,234z"/>
		<path class="st2" d="M202.6,127.1c0.4-0.2,0.8-0.3,1.2-0.3c5.5-0.1,45.7-0.7,47.6,3.2c1.9,3.9-6.9,34.3-14.6,38.4
			c-0.6,0.3-1.4,0.3-2,0l-21.5-9.8l-0.2-0.1C211.2,157.4,181.4,139.9,202.6,127.1z"/>
		<path class="st1" d="M81.9,79.3c-2.7-14.5,1.8,53.2-6.8,72.8c0,0-1.7,5.6,1.2,6.6c1.6,0.6,3.4-0.1,4.2-1.7c0,0,0.3,5,3.7,4.7
			s5.5-3.8,5.5-3.8s0.3,6,3,5.5s4.9-5.3,5.2-6.6c0,0,0.7,5.9,2.9,5.9c0.8,0,5.8-6.5,8.1-9.5c0.9-1.1,1.7-2.2,2.7-3.3l22.1-26
			L81.9,79.3z"/>
		<path class="st0" d="M109.9,133.1c-3.8-2.9-19.3-12.8-31.3-24.8S59,81.1,59,81.1s-7.9-21.3-9.4-22.3c0,0-1.8-10.8-10-10.9
			s-8.8,4.8-8.8,4.8S17,51.1,15.7,62.9c0,0-15.2-0.6-15.2,12.7s21.2,32.7,21.2,32.7c11.6,10,24.3,18.5,37.9,25.5
			c0,0,42,19.2,47.6,17S109.9,133.1,109.9,133.1z"/>
		<ellipse transform="matrix(0.9816 -0.191 0.191 0.9816 -15.1925 10.2352)" class="st3" cx="45.5" cy="83.9" rx="7.7" ry="9"/>
		<path class="st1" d="M106.1,131.8c-2.2,1.8-4,4.1-5.3,6.6c0,0.1-0.1,0.1-0.1,0.2c-0.2,0.8-1.8,6.4-1.8,7.2c-0.1,0.8,0,1.7,0.2,2.5
			c0.2,0.5,0.6,0.9,1.1,1l3.8,0.9c0.8,0.2,1.7-0.2,1.9-1l4-15.8c0.2-0.7-0.8-0.8-1.6-1l-1.3-0.9
			C106.4,131.4,106.5,131.5,106.1,131.8z"/>
		<path class="st2" d="M200.6,117.8l-86.1,11.9c0,0-3.4-2.3-4.1-1.6c-0.7,0.7-11.5,19.6-1,44.1c0,0,46.1-9.4,50-8.4
			c0,0,2.3,14.8,2.7,19.6c0.9,9.9,1.9,49,1.5,49.9s34.2,5.9,54.6-8.6c0,0,31.9-20.1,28.9-36.1c0,0-37.3-40.7-37.9-41.2"/>
		<path class="st2" d="M168.6,144.9c-0.6,3.9,1.3,7.8,4.6,9.9c5.8,3.6,11.4,1.9,15.3-0.4s9-8.6,6.8-15.7s-6.3-7.9-6.3-7.9
			S170.5,139.8,168.6,144.9z"/>
		<path class="st0" d="M171.5,145.9c0,0,0,8.8,12,6.1c11.3-2.5,8.3-14.8,6.4-15.5S171.5,142.7,171.5,145.9z"/>
		<path class="st4" d="M157.3,148.1c0.1,0.6,9.2,4,17.9,1.4s23.9-10.9,23.8-20.2S157.1,145.9,157.3,148.1z"/>
		<path class="st0" d="M116.2,123.2c-0.5-0.3-6.5,4.3-8.2-6c0,0-7.8,2.7-9.5-7.2c0,0-8.2-0.7-5.8-8.5c0,0-9.3-0.5-5-10.3
			c0,0-7.8-0.2-3.5-9c0,0-7.8-3-2.7-9.2c0,0-6.6-1.2-2.3-6.8c0,0-6.8-6.7,1.8-10.6c0,0-5.1-6.7,3.2-9.7c0,0-6.3-8,6.5-11.1
			c0,0-3.1-10.4,7.2-8.2c0,0-0.9-10.8,9.1-8.1c0,0,1.4-9.3,7.7-5.3c0,0,1.6-7.2,7.8-3.3c0,0,3.1-7.9,8.9-2.8c0,0,3.3-9.6,9.9-2.7
			c0,0,6.4-9.1,10.9,0.3c0,0,5.2-6.7,9,0c0,0,6.3-7.4,9.4,4.4c0,0,9.2-6.9,9.9,4.4c0,0,8.2-1.7,7.7,6.4c0,0,8.5,0.7,5.6,8.1
			c0,0,7.4,0.5,3.9,8.2c0,0,6.6,0.8,3.5,8.4c0,0,6.6,3.1,1,7.8c0,0,8.1,2.3,2.5,9.4c0,0,5.7,5.2,0.5,8.4c0,0,6.8,4.7,0,8.8
			c0,0,1.5,4-1.5,5.2c0,0,16.3,13.1,6.5,31c0,0-7.6,22.8-41.4,31c0,0-33.5,6.1-46.5-3.2S116.2,123.2,116.2,123.2z"/>
		<path class="st5" d="M145.5,112.3c0,0-3.5,6.5,4,5.8s12-8.8,12.1-10.3c0,0,14.1,3.8,18.8-4.2c0,0,1.8-2.8-3-4.2"/>
		<path class="st5" d="M138.1,106.3c0.5-1.5,17.3-20.8,37.4-13.6"/>
		<path class="st6" d="M154.2,116.9c0,0-4.6,12.2,8,15.7s18.8-8.3,19.1-9.1c2-5.7-0.4-12.1-5.6-15c0,0-12.8,2.2-14.1-0.3
			C161.6,108.2,158.5,114.6,154.2,116.9z"/>
		<path class="st7" d="M159,130.8c-1.8-1.2,6.7-19.7,22.4-10.9C182.3,121.5,176.1,139.1,159,130.8z"/>
		<path class="st8" d="M148.7,102.8c0,0-1.5,2.8,11.5,1.3c0,0,6.9-4.6,6.7-7.6S147.5,98.8,148.7,102.8z"/>
		<path class="st9" d="M115.7,94.1c0,0,7.5-12.9,17.7-2.5c7.1,7.2,2.2,14.1-1.5,17.6c-2.2,2.1-5.1,3.4-8.2,3.5
			c-3.5,0.2-6.8-1.7-8.2-4.9C111.5,99.8,115.7,94.1,115.7,94.1z"/>
		<ellipse class="st10" cx="121.7" cy="98.7" rx="4.7" ry="5.9"/>
		<path class="st9" d="M168.3,74c0.2-3,1.8-5.8,4.3-7.5c3-1.9,8.1-2.6,15.8,3.1c0,0,6.6,4.4,2.4,11.4c-3.6,6.1-10.1,6.1-11.7,6
			c-0.2,0-0.5,0-0.7-0.1C176.5,86.5,167.6,84,168.3,74z"/>
		<ellipse class="st10" cx="175.4" cy="74.6" rx="4.5" ry="4.6"/>
		<path d="M179.5,65.3c2.3-1,5.3-2,6.7-4.1l0.3,0.1c-0.3,0.7-0.7,1.3-1.2,1.8c-1.6,1.4-3.3,2.6-5.2,3.6L179.5,65.3z"/>
		<path d="M183.1,67.1c1.6-0.7,3.6-1.2,4.6-2.6l0.3,0.1c-0.4,0.9-1.1,1.7-1.9,2.2c-0.8,0.6-1.6,1.1-2.4,1.6
			C183.8,68.5,183.1,67.1,183.1,67.1z"/>
		<path d="M119.3,91.4c-2,0.8-4,1.3-6.1,1.7c-0.7,0.1-1.5,0.1-2.2-0.2l0.2-0.3c0.6,0.1,1.3,0.1,1.9-0.1c1.9-0.6,3.8-1.4,5.6-2.4
			C118.7,90.1,119.3,91.4,119.3,91.4z"/>
		<path d="M116.3,96.4c-1.8,0.5-3.8,1.4-5.7,0.9l0.2-0.3c0.9,0,1.7-0.2,2.5-0.6c0.8-0.4,1.6-0.8,2.4-1.3L116.3,96.4z"/>
		<path class="st1" d="M26.1,71.7c0,0-2.4-8.1-9.7-8.7c0,0,1-6,4.3-5.1C20.7,57.9,27.6,58.5,26.1,71.7z"/>
		<path class="st1" d="M31.6,53.3c-0.5,0,0.8-3.7,3-3.9c0.4,0,0.7,0,1.1,0c3.1,0.3,5.8,2.4,6.8,5.3c0.5,1.4,0.6,2.9,0.2,4.3
			c-1.3,4.5-1,3.5-1,3.5S39.8,53.2,31.6,53.3z"/>
		<path d="M26.2,74c-0.4-5.5-5-9.7-10.2-10.8l0.3-1.1c5.4,1.4,10.1,6,10.2,11.8H26.2z"/>
		<path d="M41.5,64.2c-0.3-5.6-4.9-10-10.2-11.1l0.3-1.1c5.5,1.5,10.2,6.3,10.3,12.2L41.5,64.2z"/>
		<path class="st11" d="M209.7,147.1c-0.2-0.4,3.8,0.8,4.6,1l0.6,0.1c2.5,0.5,11.3,2.6,13.6,3.5c4.4,1.3,9,2.3,13.6,3
			c0,0,3.1,0.3,2.4,1.5l0,0c-1.5,3.8-6.3,12.7-8.8,11.9c-0.1,0-10.8-4.6-11.3-5.1S210.3,148.1,209.7,147.1z"/>
	</g>
</g>
</svg>
