<?xml version="1.0" encoding="utf-8"?>
<!-- Generator: Adobe Illustrator 26.0.3, SVG Export Plug-In . SVG Version: 6.00 Build 0)  -->
<svg version="1.1" id="Layer_1" xmlns="http://www.w3.org/2000/svg" xmlns:xlink="http://www.w3.org/1999/xlink" x="0px" y="0px"
	 viewBox="0 0 159.6 139.3" style="enable-background:new 0 0 159.6 139.3;" xml:space="preserve">
<style type="text/css">
	.st0{fill:#FFC400;stroke:#1D1D1B;stroke-miterlimit:10;}
	.st1{fill:#DDA864;stroke:#1D1D1B;stroke-miterlimit:10;}
	.st2{fill:none;stroke:#1D1D1B;stroke-miterlimit:10;}
	.st3{fill:#B58451;}
	.st4{fill:#0B0C0D;}
	.st5{fill:#6D4E2D;stroke:#1D1D1B;stroke-miterlimit:10;}
	.st6{fill:#1D1D1B;}
	.st7{fill:#FFFFFF;stroke:#1D1D1B;stroke-miterlimit:10;}
	.st8{fill:#CE8AB2;stroke:#1D1D1B;stroke-miterlimit:10;}
	.st9{fill:#F1ACCC;}
</style>
<g id="Layer_2_00000129900099060865896610000000808710812890967945_">
	<g id="Layer_3">
		<path class="st0" d="M117.6,89.1c0,0,20.1-5.5,31.5-0.2l-0.1,49.8h-48.2L94.1,106L117.6,89.1"/>
		<path class="st0" d="M94.1,106c0,0-9.3,9.9-18.5,32.8l25.3-0.1C100.9,138.7,100.5,110.7,94.1,106"/>
		<path class="st0" d="M100.6,103.2c0,0-1,9.6,8.6,8.7c5.4-0.4,9.8-4.3,11-9.6c0,0,0.8-5.5-5-9.6"/>
		<path class="st1" d="M102.6,103.4c0,0,1.5,10.3,11.1,3.5c8.8-6.2-0.7-11.9-0.7-11.9S102.8,102.3,102.6,103.4z"/>
		<path class="st1" d="M100.6,103.2c0,0,12.4-10.9,14.6-10.5"/>
		<path class="st2" d="M121.4,89.7c0.7,0.2,21.8,8.3,27.8,19.4"/>
		<path class="st1" d="M24.3,45.2c0,0-2.3-1.4-4.7,14.8c-0.9,6-2.5,11.9-4.9,17.6c-2.6,6.1-2.2,3.2-8,14.8
			c-8.4,16.8-7.6,29.1-1.2,30.8s6-2.8,6-2.8s0.2,8.6,8.1,3.3c0,0,1,8.7,8,1.7c0,0,4,7.8,8.1,0.5c0,0,4.8,6.6,8.8-2.8
			c0,0,6.7,4.8,7-3.8c0,0,7,3.7,6.5-6.3c0,0,7.7,3.2,5.6-5.7C63.7,107.1,113.6,44.5,24.3,45.2z"/>
		<path class="st3" d="M26.1,55.3c-2,6.3-1.6,13.1,1.1,19.2c0,0,2.7,10.2,0.7,18.1s-6.4,18.8-4.6,23.3S28,121,28,121s3.4-0.3,4.3-3
			c0,0-0.5,4.2,2.9,3.8s5-4.9,5-4.9s0.4,3.7,3.4,3.2s6.7-6.5,7.2-8.7c0,0,1.2,3.3,4.2,1.8s4.1-5.4,4.1-5.4c0.5,0.6,1.2,0.9,2,0.8
			c1.2-0.1,1.8-2.2,1.8-2.2l1.9-24.1L28.4,53.5L26.1,55.3z"/>
		<path class="st1" d="M142.9,79.1c0,0-1.4,8-8.1,3.8c0,0-3.7,7.2-10.5,3.7c0,0-1.6,6.1-6.9,1.7c3.7-13.1,3.8-26.9,0.3-40
			c0,0,5.8-4.5-0.8-7.2c0,0,3.8-5.5-3.2-6.5c0,0,3.5-8.2-4.5-7.9c0,0,3.8-7.5-4.5-7.2c0,0,2.7-8.4-4-7c0.5-2.9-1.3-5.7-4.1-6.3
			c0,0,3.5-5.9,11.2-0.7s29.2,18.3,42.8,44.1c13.3,25.3,7.1,26.8,6.6,27.3c-2.2,2.1-6,1.2-8.8-1C148.3,75.8,150.2,80.5,142.9,79.1z"
			/>
		<path class="st3" d="M120.6,53.5c0,0,11-2.2,1.5-24C115,13.2,107.6,8.9,104.3,7.8c-0.9-0.3-1.9,0.2-2.3,1.1l-2.9,6.5L115.4,54
			L120.6,53.5z"/>
		<path class="st1" d="M118.3,86.7c-1.3,3.6-3.5,6.8-6.4,9.3c-6.2,5.2-13.5,9-21.3,11c-8.4,2.2-19.8,3.9-27,0.2
			c-12.5-6.5-8.5-22.8-8.5-22.8c-1.1,1.2-2.7,1.8-4.3,1.4c-3-0.4-5.4-6.1-5.4-6.1c-5.3,4-6-2.3-6-2.3c-4.8,0.4-5-5.3-5-5.3
			c-6.5-0.2-4.7-7-4.7-7c-8.1-4.2-2.3-9-2.3-9c-5.9-3-1.1-7.4-1.1-7.4c-4.7-8.3,3.8-9.1,3.8-9.1s-5.6-7,3.3-9.5c0,0-4.5-9.6,6-9
			c0,0-4.2-8.8,6.2-7.1c0,0-0.8-8.6,7.5-5.8c0,0,1.8-8.8,7.8-3.5c0,0,3.8-7,8,0c0,0,4.2-8.5,9.3-1c0,0,4.5-6.8,9.3,0.5
			c0,0,5.3-5.2,6.7,2.8c1-0.5,2.1-0.8,3.3-0.8c1.8,0.1,3.7,1.2,4.4,5.2c0,0,6-1.5,4,7c0,0,7.8,0.3,4.5,7.1c0,0,7.2,0,4.5,7.8
			c0,0,7.2,1.2,3.2,6.5c0,0,6.5,1.7,0.8,7.2C118.6,47,124.2,71.4,118.3,86.7z"/>
		<path class="st4" d="M88.7,34.6c0,0,5.4-3.2,11.6,2.1c5.4,4.7,4.1,9.2,4.1,9.2s-2.8,8.1-10.6,6.6s-9.2-9.7-9.2-9.7
			S83.6,37.2,88.7,34.6z"/>
		<path class="st5" d="M69.8,68.9c-0.1,0.5,0.5,1,1.1,1c1.8,0,3.7-0.3,5.5-0.8c0.8-0.3,1.6-0.7,2.3-1.2c0.8-1.1,1.4-2.2,1.9-3.4
			c0.1-0.3,2-3.6,0.8-4.8c-1-1-4.8,1.6-7.1,3.4c-1.5,1.1-2.8,2.5-3.7,4.1C70.2,67.7,69.9,68.3,69.8,68.9z"/>
		<path class="st4" d="M50.2,58.8c0,0,8.1-4.7,12,6.2s-7.1,13.4-7.1,13.4s-8.2,1-8.7-11.9C46.4,66.5,46.4,60.8,50.2,58.8z"/>
		<path class="st6" d="M63.3,73.7c3.9-11.9,14.4-21,27.5-18.1l-0.1,0.5C77.5,54.4,67.9,61.9,63.3,73.7z"/>
		<path class="st7" d="M50.3,63.4c-0.3,2-0.2,4.9,2.9,5.6c0.8,0.2,1.5,0.1,2.2-0.2c1.4-0.6,3.5-2.1,2.2-5.4
			c-0.4-1.1-1.2-2.1-2.3-2.6c-0.4-0.2-0.8-0.3-1.2-0.3C52.3,60.2,50.6,61.6,50.3,63.4z"/>
		<path class="st7" d="M96,41.1c0,2.3-1.8,4.2-4.2,4.3c-2.2,0-4-1.8-4-4c0,0,0,0,0-0.1c-0.1-2.1,1.4-3.8,3.5-4c0.1,0,0.2,0,0.3,0
			C93.9,37.1,95.8,38.8,96,41.1C96,41,96,41.1,96,41.1z"/>
		<path class="st6" d="M96.8,30.6c-0.7,1.7-1.5,3.4-3.2,4.4l-0.4-0.9c1.5-0.6,2.6-2.2,3.4-3.6L96.8,30.6L96.8,30.6z"/>
		<path class="st6" d="M98.8,33.3c-0.4,1-1.1,1.9-2.1,2.4l-0.3-0.9c0.9-0.3,1.6-0.9,2.2-1.6C98.5,33.1,98.8,33.3,98.8,33.3z"/>
		<path class="st6" d="M42.6,64.2c1.6-0.1,3.5-0.3,4.8-1.3l0.6,0.8c-1.7,1-3.6,0.9-5.4,0.8L42.6,64.2L42.6,64.2z"/>
		<path class="st6" d="M44,67.2c0.9-0.1,1.8-0.5,2.5-1.1l0.7,0.7c-0.9,0.6-2,0.8-3.1,0.7V67.2z"/>
		<path class="st8" d="M75.8,79.3c-0.2,5.1,2.9,9.7,7.7,11.5c8.4,3.4,15.3-5.8,15.3-5.8s5.1-6.2-1.5-12.9c0,0-4.4-5.3-7.6-5
			c0,0-4.1,5.2-9.4,4.2C80.3,71.3,80.6,74.8,75.8,79.3z"/>
		<path class="st9" d="M83,89.3c0,0-1.2-3-0.8-3.9s2.7-6,6.7-7.6s7.2-0.8,8.1,0.4s2.6,2.8,2.5,3.8S91.6,95.8,83,89.3z"/>
		<path class="st6" d="M88.7,62.5c0.7-0.7,1.5,0.6,1.6,1.2c1.2,5.6-5.5,8.1-10,8.2l0.5-0.5c-0.7,4.3-4,8.9-8.7,8.9
			c-2-0.1-2.8-1.8-1.9-3.5l0.4,0.1c-0.2,0.6-0.1,1.2,0.1,1.8c0.7,1,2.3,0.6,3.3,0.2c3.2-1.2,5-4.5,5.7-7.7l0.1-0.5h0.4
			c3.6-0.2,8.3-1.1,9.4-5.1c0.2-0.9,0.2-1.8-0.2-2.7c-0.2-0.2-0.3-0.5-0.6-0.3L88.7,62.5L88.7,62.5z"/>
	</g>
</g>
</svg>
