<svg xmlns="http://www.w3.org/2000/svg" xmlns:xlink="http://www.w3.org/1999/xlink" viewBox="0 0 403.14 403.14"><defs><style>.cls-1{fill:none;}.cls-2{isolation:isolate;}.cls-3{fill:url(#linear-gradient);}.cls-4{fill:url(#linear-gradient-2);}.cls-5{fill:url(#linear-gradient-3);}.cls-6{fill:url(#linear-gradient-4);}.cls-7{mix-blend-mode:overlay;}.cls-8{clip-path:url(#clip-path);}.cls-9{fill:#161615;}</style><linearGradient id="linear-gradient" x1="1.68" y1="840.61" x2="1.68" y2="841.61" gradientTransform="matrix(403.14, 0, 0, -403.14, -475.4, 339285.32)" gradientUnits="userSpaceOnUse"><stop offset="0" stop-color="#9a431c"/><stop offset="0.11" stop-color="#9f4c25"/><stop offset="0.28" stop-color="#ac643e"/><stop offset="0.51" stop-color="#c38d67"/><stop offset="0.77" stop-color="#e1c5a0"/><stop offset="1" stop-color="#fefad8"/></linearGradient><linearGradient id="linear-gradient-2" x1="1.31" y1="841.47" x2="2.04" y2="840.74" gradientTransform="matrix(391.86, 0, 0, -391.87, -374.61, 329974.23)" gradientUnits="userSpaceOnUse"><stop offset="0" stop-color="#eea05a"/><stop offset="0.17" stop-color="#feebc0"/><stop offset="0.21" stop-color="#fbdcac"/><stop offset="0.31" stop-color="#f3bb7f"/><stop offset="0.39" stop-color="#efa663"/><stop offset="0.44" stop-color="#ee9e59"/><stop offset="0.49" stop-color="#efa562"/><stop offset="0.58" stop-color="#f3b77b"/><stop offset="0.69" stop-color="#fcd5a4"/><stop offset="0.75" stop-color="#ffe7bd"/><stop offset="1" stop-color="#ed9d57"/></linearGradient><linearGradient id="linear-gradient-3" x1="0.88" y1="841.37" x2="1.67" y2="840.58" gradientTransform="matrix(212.06, -212.06, -212.06, -212.06, 178256.07, 178805.92)" xlink:href="#linear-gradient-2"/><linearGradient id="linear-gradient-4" x1="1.5" y1="841.66" x2="1.5" y2="840.96" gradientTransform="matrix(459.51, 0, 0, -459.51, -405.94, 386956.12)" xlink:href="#linear-gradient"/><clipPath id="clip-path" transform="translate(-83.88 -169.11)"><polygon class="cls-1" points="123.68 215.03 429.67 213.41 429.67 519.26 123.68 507.09 123.68 215.03"/></clipPath></defs><g class="cls-2"><g id="Layer_1" data-name="Layer 1"><g id="Layer_2" data-name="Layer 2"><g id="Layer_1-2" data-name="Layer 1"><circle id="Ellipse_23" data-name="Ellipse 23" class="cls-3" cx="201.57" cy="201.57" r="201.57"/><path id="Path_213" data-name="Path 213" class="cls-4" d="M481.38,370.69c0,108.21-87.73,195.93-195.94,195.93S89.65,479.27,89.52,371.2a4.34,4.34,0,0,1,0-.51c0-108.21,87.72-195.94,195.93-195.94s195.87,87.57,195.93,195.72Z" transform="translate(-83.88 -169.11)"/><circle id="Ellipse_24" data-name="Ellipse 24" class="cls-5" cx="201.57" cy="201.57" r="149.95"/><path id="Path_214" data-name="Path 214" class="cls-6" d="M285.45,211.06A159.62,159.62,0,1,0,445.07,370.68,159.62,159.62,0,0,0,285.45,211.06ZM134.39,370.26a150,150,0,1,1,149.94,150,149.94,149.94,0,0,1-149.94-150Z" transform="translate(-83.88 -169.11)"/></g></g><g id="Group_42" data-name="Group 42" class="cls-7"><g class="cls-8"><g id="Group_35" data-name="Group 35"><path id="Path_81" data-name="Path 81" class="cls-9" d="M331.85,451.35a1.7,1.7,0,0,0,0-.39,1.48,1.48,0,0,0-.13-.35,1.55,1.55,0,0,0-.2-.32,2.73,2.73,0,0,0-.27-.31l-1-1-.95-1-.94-1-.94-1-.06-.05-.06-.05-.06,0,0-.05a5.43,5.43,0,0,0-.72-1.05c-.28-.32-.59-.62-.89-.92a12.65,12.65,0,0,1-.88-.92,5,5,0,0,1-.71-1.05,4.72,4.72,0,0,0-.37-.61c-.14-.2-.29-.39-.44-.58s-.3-.37-.44-.56a4.89,4.89,0,0,1-.41-.6c-.13-.21-.27-.42-.42-.62l-.48-.59-.5-.57-.5-.58-.15-.2-.15-.21-.14-.21-.14-.2,0-.07,0-.07a.14.14,0,0,0,0-.06l-.05-.05a5,5,0,0,1-.53-.5,6,6,0,0,1-.47-.55c-.15-.19-.29-.38-.43-.58l-.41-.6-.21-.29-.22-.28-.21-.29-.21-.29c-.1-.14-.19-.28-.28-.42l-.27-.43c-.09-.14-.19-.28-.29-.41a3.25,3.25,0,0,0-.35-.39,1.44,1.44,0,0,1-.22-.27,3,3,0,0,1-.19-.3c-.06-.11-.11-.22-.16-.33l-.17-.33-.27-.54-.29-.54c-.09-.19-.2-.37-.31-.56s-.23-.38-.36-.57a2.26,2.26,0,0,1-.16.26l-.15.23a1.51,1.51,0,0,0-.11.22.46.46,0,0,0-.05.2,2.75,2.75,0,0,1-.13.81,6.21,6.21,0,0,1-.27.76c-.1.25-.21.5-.3.76a3.42,3.42,0,0,0-.19.78.73.73,0,0,0-.25.35,1.52,1.52,0,0,0-.06.42c0,.14,0,.28,0,.42a.9.9,0,0,1-.13.4c-.07.11-.14.22-.2.33a3.84,3.84,0,0,0-.18.35,3,3,0,0,0-.13.36,2.09,2.09,0,0,0-.07.36c0,.19-.05.37-.08.56s-.07.37-.11.55l-.12.55-.09.56a2.32,2.32,0,0,1-.06.38c0,.13,0,.26-.08.38l-.09.37c0,.13-.07.25-.1.37-.08.32-.18.63-.28.94s-.2.63-.29.94a8.3,8.3,0,0,0-.22,1,4.79,4.79,0,0,0-.05,1,.46.46,0,0,1,0,.2.82.82,0,0,1-.09.19l-.1.19a.76.76,0,0,0-.06.2,3.39,3.39,0,0,1-.13.55l-.15.55a4.88,4.88,0,0,0-.12.55,2.71,2.71,0,0,0,0,.57,5.52,5.52,0,0,0-.28.71c-.08.24-.15.48-.21.73s-.13.49-.2.74a6,6,0,0,1-.23.72c-.11.29-.21.57-.31.86s-.21.57-.3.85-.2.58-.29.87l-.27.86c-.06.23-.14.45-.21.67s-.16.44-.24.66-.17.44-.25.65l-.27.65c0,.11-.07.22-.1.33l-.06.34c0,.12,0,.24,0,.36s0,.24,0,.36a2.56,2.56,0,0,1,0,.39,1.51,1.51,0,0,1-.07.37,2.26,2.26,0,0,1-.11.37,3.73,3.73,0,0,1-.16.35c-.11.2-.21.42-.3.63s-.19.43-.28.64-.19.42-.29.63-.2.42-.32.62a3,3,0,0,1-.32.47,1.46,1.46,0,0,1-.36.34,1,1,0,0,1-.44.19,1.37,1.37,0,0,1-.57,0,1.37,1.37,0,0,0-.35,0,1.2,1.2,0,0,0-.32.06,1,1,0,0,0-.28.13,1.51,1.51,0,0,0-.26.18,1.34,1.34,0,0,1-.37.25,1.42,1.42,0,0,1-.4.12l-.42,0h-.43l-.36,0h-1.09l-.5,0-.5,0a2.73,2.73,0,0,0-.5.05,1.68,1.68,0,0,0-.49.17.67.67,0,0,1-.19.05h-.22l-.23,0h-.55a1.74,1.74,0,0,0-.32,0,1.7,1.7,0,0,0-.31.06,1.4,1.4,0,0,0-.3.15.69.69,0,0,1-.15.07l-.18,0h-.19a.51.51,0,0,1-.17,0,1.79,1.79,0,0,0-.53-.13,3,3,0,0,0-.52,0l-.52.06a3,3,0,0,1-.52,0l-.55,0-.54,0-.55,0-.54,0a2.6,2.6,0,0,0-.4,0l-.39.08a1.44,1.44,0,0,1-.41,0,1.17,1.17,0,0,1-.45-.13,1.07,1.07,0,0,0-.39-.1,2.16,2.16,0,0,0-.44,0h-.45a2.12,2.12,0,0,1-.44,0l-.38-.1-.38-.13-.36-.17a3,3,0,0,1-.34-.2c-.15-.1-.3-.2-.44-.31l-.43-.34-.42-.34-.42-.35-.56-.46-.56-.47-.57-.45c-.19-.15-.39-.28-.59-.41a5.73,5.73,0,0,1-.83-.64,5.28,5.28,0,0,1-.68-.74,5.68,5.68,0,0,1-.55-.83,7.25,7.25,0,0,1-.4-.9,4.21,4.21,0,0,1-.16-.61c0-.21-.05-.43-.06-.64s0-.44,0-.65a6,6,0,0,1,.09-.63c.06-.27.12-.54.2-.8s.17-.53.27-.79.19-.53.29-.79.19-.52.28-.79a2.89,2.89,0,0,1,.35-.73,5.91,5.91,0,0,1,.49-.63c.18-.2.37-.39.56-.58s.38-.38.55-.58.19-.21.29-.31.21-.19.32-.28l.31-.29c.1-.1.2-.2.29-.31a2.89,2.89,0,0,1,.32-.29,2.71,2.71,0,0,1,.37-.21,2.59,2.59,0,0,1,.38-.17l.39-.14a1.31,1.31,0,0,1,.38-.09,1.28,1.28,0,0,1,.39,0,1.23,1.23,0,0,1,.37.12,1.5,1.5,0,0,1,.36.26c0,.06.12.11.18.17l.18.17.19.16.18.17a1.6,1.6,0,0,0,.33-.07.55.55,0,0,0,.22-.14.38.38,0,0,0,.08-.23.81.81,0,0,0-.08-.34,3.13,3.13,0,0,1,.72-.39,2.76,2.76,0,0,1,.74-.18,2.57,2.57,0,0,1,.78.06,3.46,3.46,0,0,1,.82.28c.28.13.57.25.86.36s.58.23.88.33l.9.31.93.33c.09-.2.17-.4.25-.59s.15-.38.21-.57a3,3,0,0,0,.14-.57,3,3,0,0,0,0-.6c0-.07,0-.14,0-.22a1.64,1.64,0,0,1,0-.22.8.8,0,0,1,.05-.21.89.89,0,0,1,.08-.17,2.68,2.68,0,0,0,.32-.57,3.78,3.78,0,0,0,.17-.6,6.17,6.17,0,0,0,.08-.62l.06-.64a3,3,0,0,1,.1-.5c.05-.16.1-.33.16-.49l.2-.48.22-.48c.05-.12.11-.24.16-.35s.1-.24.14-.36a2.22,2.22,0,0,0,.09-.37,1.79,1.79,0,0,0,0-.4c0-.11,0-.21,0-.32a1.73,1.73,0,0,1,0-.32,1.11,1.11,0,0,1,.08-.3,1.18,1.18,0,0,1,.16-.29l0-.06,0-.07s0,0,0-.07v-.07a7.61,7.61,0,0,1,0-1.35c0-.45.1-.9.17-1.34s.14-.89.18-1.34a7.61,7.61,0,0,0,0-1.35v-.15s0-.1,0-.15a.33.33,0,0,0,0-.14.31.31,0,0,0,0-.13,3.26,3.26,0,0,1-.26-.91,4.85,4.85,0,0,1-.06-.93c0-.3,0-.61,0-.92a7,7,0,0,0,0-.92c0-.15,0-.29,0-.43s0-.29,0-.43a1.85,1.85,0,0,0-.07-.41,1.16,1.16,0,0,0-.2-.4,1,1,0,0,1,0-.1.36.36,0,0,1,0-.1.81.81,0,0,1,0-.22,3.88,3.88,0,0,0,0-.9,8.74,8.74,0,0,0-.14-.87c-.06-.29-.14-.58-.2-.87a6.56,6.56,0,0,1-.14-.87,2.14,2.14,0,0,0-.06-.35c0-.11-.06-.22-.1-.34s-.07-.22-.11-.34-.06-.23-.08-.34l0-.32c0-.1,0-.21,0-.31a1.06,1.06,0,0,0-.05-.31,1.44,1.44,0,0,0-.13-.31.77.77,0,0,1-.07-.16.88.88,0,0,1,0-.17c0-.06,0-.13,0-.19a1.09,1.09,0,0,0,0-.18c0-.17,0-.34,0-.5v-.51a4,4,0,0,0,0-.49,3.59,3.59,0,0,0-.12-.47,1.34,1.34,0,0,1-.1-.45c0-.15,0-.31,0-.46a2.14,2.14,0,0,0-.08-.44,1.12,1.12,0,0,0-.25-.42.33.33,0,0,1-.07-.13,1.16,1.16,0,0,1,0-.18v-.2a1,1,0,0,1,0-.18,3.29,3.29,0,0,0,0-.83,4.3,4.3,0,0,0-.18-.79,7,7,0,0,0-.27-.77c-.09-.25-.2-.51-.29-.76s-.12-.33-.19-.49-.13-.33-.2-.5-.14-.33-.22-.5l-.22-.51a1.71,1.71,0,0,1-.5.1,1.77,1.77,0,0,1-.46,0,1.5,1.5,0,0,1-.42-.15,1.54,1.54,0,0,1-.36-.27,2.35,2.35,0,0,0-.33-.3c-.11-.09-.23-.17-.35-.25l-.38-.2-.39-.17a3.74,3.74,0,0,1-.87-.49,3.91,3.91,0,0,1-.69-.66,8.36,8.36,0,0,1-.57-.76l-.51-.83c-.05-.08-.09-.17-.13-.25a1.43,1.43,0,0,1-.09-.27,1.31,1.31,0,0,1-.06-.27c0-.1,0-.2,0-.29s0-.34,0-.5,0-.34,0-.5v-.5c0-.17,0-.33,0-.5a3.78,3.78,0,0,1,0-1,4.44,4.44,0,0,1,.18-.88,5.64,5.64,0,0,1,.35-.85,6.71,6.71,0,0,1,.49-.81l-.31-.34-.31-.35-.32-.34-.33-.34a9.59,9.59,0,0,1-.77-.9,11.45,11.45,0,0,1-.77-1.11,11.27,11.27,0,0,1-.66-1.15,6.18,6.18,0,0,1-.42-1,.57.57,0,0,1,0-.14l0-.15v-.14a.5.5,0,0,1,0-.13,2.32,2.32,0,0,0,.22-.59c.05-.2.09-.41.13-.62s.07-.41.12-.61a2.42,2.42,0,0,1,.2-.59,2.12,2.12,0,0,1,.11-.21c.05-.07.09-.14.14-.2a1.46,1.46,0,0,1,.16-.19l.17-.18.26-.23.26-.23a1.18,1.18,0,0,0,.22-.28,1,1,0,0,0,.12-.38l-.13-.1-.14-.11a.71.71,0,0,0-.14-.1l-.15-.08a3.16,3.16,0,0,1-.52-.26,5.37,5.37,0,0,1-.45-.35c-.14-.13-.28-.26-.41-.4a5.14,5.14,0,0,0-.41-.4,4.19,4.19,0,0,1-.39-.45,2.87,2.87,0,0,1-.28-.48,2.43,2.43,0,0,1-.17-.52,2.78,2.78,0,0,1-.06-.58c0-.15,0-.3,0-.45s0-.3,0-.45,0-.3-.07-.45-.07-.3-.12-.46a2.73,2.73,0,0,1-.1-.48,4.19,4.19,0,0,1,0-.5c0-.17,0-.34,0-.51l.06-.5a1.31,1.31,0,0,1,.09-.28,2.4,2.4,0,0,1,.16-.27l.19-.27.19-.25c.14-.22.29-.43.43-.64l.45-.63c.16-.21.32-.41.49-.6a5.71,5.71,0,0,1,.55-.55,1.45,1.45,0,0,0,.27-.29.43.43,0,0,0,.09-.26.47.47,0,0,0-.09-.28,2.31,2.31,0,0,0-.25-.36l-.12-.13-.12-.14-.13-.13-.13-.15v-1.44c0-.11,0-.23,0-.35s0-.23,0-.34a2.14,2.14,0,0,0-.06-.35c0-.12,0-.23-.07-.35a9.37,9.37,0,0,1-.16-1.2,5.73,5.73,0,0,1,.05-1.17,4.35,4.35,0,0,1,1-2.19c.16-.18.31-.38.45-.57l.43-.6.42-.61.42-.6a1.71,1.71,0,0,1,.35-.36,2.5,2.5,0,0,1,.41-.25,3.68,3.68,0,0,1,.47-.15l.5-.1.24-.05.24-.06.28-.08.31-.08a2.86,2.86,0,0,1-.24-.42,2.8,2.8,0,0,1-.13-.41c0-.14-.07-.27-.1-.41a3.17,3.17,0,0,0-.14-.4,2.13,2.13,0,0,1-.15-.49,3,3,0,0,1,0-.52,2.46,2.46,0,0,1,.31-1.06c.12-.2.24-.4.35-.61l.33-.62.35-.61c.12-.2.25-.4.38-.59s.19-.24.29-.35l.34-.31.36-.31c.12-.1.24-.2.35-.31a1.22,1.22,0,0,0,.15-.17.51.51,0,0,0,.09-.16,1,1,0,0,0,0-.24c0-.1,0-.22,0-.37l-.57-.26-.56-.25-.55-.26a5.45,5.45,0,0,1-.53-.29,2.49,2.49,0,0,0-.33-.16l-.33-.12-.34-.07-.36,0H285a5.29,5.29,0,0,1-.8-.06,4.94,4.94,0,0,1-.76-.18,4.48,4.48,0,0,1-.72-.28,5.9,5.9,0,0,1-.69-.4s0,0,0,0l0,0,0,0,0,0a7.11,7.11,0,0,1-.89-.29,9.1,9.1,0,0,1-.85-.37c-.28-.13-.55-.28-.82-.43l-.8-.47-.13-.05-.14,0h-.15l-.15,0-.87-.18a8.37,8.37,0,0,1-.86-.23,8.46,8.46,0,0,1-.84-.31,6.71,6.71,0,0,1-.8-.41,5.76,5.76,0,0,0-.61-.3c-.2-.09-.41-.17-.63-.25l-.63-.22a5.87,5.87,0,0,1-.63-.24l-.14,0-.15,0-.14,0-.13-.05c-.34-.25-.69-.47-1.05-.69l-1.07-.66c-.35-.22-.7-.46-1-.71a8.29,8.29,0,0,1-.93-.85.76.76,0,0,1-.11-.14l-.12-.15a.74.74,0,0,0-.12-.13.42.42,0,0,0-.14-.09,2.25,2.25,0,0,1-.63-.38,2.8,2.8,0,0,1-.45-.52,5.27,5.27,0,0,1-.37-.59c-.12-.21-.23-.41-.36-.6a1.43,1.43,0,0,0-.16-.24,1.12,1.12,0,0,0-.18-.2,1.2,1.2,0,0,0-.21-.17l-.26-.14-.25-.13-.25-.16-.21-.2a1.12,1.12,0,0,1-.16-.22c-.18-.31-.37-.6-.57-.9l-.6-.87q-.3-.43-.57-.9a7,7,0,0,1-.46-1l-.3-.75c-.1-.26-.2-.5-.29-.76a6.82,6.82,0,0,1-.23-.77,4.48,4.48,0,0,1-.1-.82,1.57,1.57,0,0,0-.05-.37c0-.12-.07-.25-.11-.37l-.12-.37c0-.13-.07-.25-.1-.38s-.07-.3-.1-.45-.07-.3-.1-.45-.05-.3-.07-.45a3.46,3.46,0,0,1,0-.46.71.71,0,0,0-.13-.44.54.54,0,0,0-.15-.15.36.36,0,0,0-.17-.07,1.8,1.8,0,0,1-.65-.18,2.38,2.38,0,0,1-.51-.37c-.16-.14-.3-.29-.46-.45a6.14,6.14,0,0,0-.45-.43c-.11-.09-.21-.19-.31-.29l-.3-.3a3.07,3.07,0,0,0-.36-.27,1.59,1.59,0,0,0-.41-.16l-.1,0-.09-.06-.07-.09-.06-.09c-.1-.22-.21-.44-.33-.65l-.34-.65a4,4,0,0,1-.24-.69,2.48,2.48,0,0,1-.05-.77c0-.22,0-.45.05-.67s0-.45,0-.67a4.9,4.9,0,0,1,.11-.65,2.48,2.48,0,0,1,.24-.62l.45-.84a5,5,0,0,1,.53-.77,3,3,0,0,1,.69-.59,2.48,2.48,0,0,1,.95-.28,2,2,0,0,0,.43-.07l.4-.13c.13,0,.26-.09.4-.12a3,3,0,0,1,.41-.09.28.28,0,0,0,.13,0l.13-.05.13-.06.13-.07a2,2,0,0,1,.41-.15,1.59,1.59,0,0,1,.43-.06,2,2,0,0,1,.42,0,1.9,1.9,0,0,1,.4.14,3.38,3.38,0,0,0,.52.22,2.74,2.74,0,0,0,.5.08,2.07,2.07,0,0,0,.5-.06,2.28,2.28,0,0,0,.51-.21,1,1,0,0,1,.35-.12.92.92,0,0,1,.33,0,1,1,0,0,1,.3.14,1.84,1.84,0,0,1,.29.26l.22.24.24.22.26.23.27.24.4-.25.4-.25.38-.25.38-.25a4.53,4.53,0,0,1,.54-.27c.23-.1.52-.21.8-.31a8.59,8.59,0,0,1,.84-.25,2.41,2.41,0,0,1,.6-.08,1.76,1.76,0,0,0,.51,0,3.68,3.68,0,0,0,.47-.15c.15-.06.3-.13.46-.18a2.4,2.4,0,0,1,.48-.11.16.16,0,0,0,.09,0,.47.47,0,0,0,.09-.12l.1-.16.1-.16-.11-.12-.12-.13-.11-.13a.64.64,0,0,1-.08-.14c-.08-.17-.18-.33-.27-.5a3.16,3.16,0,0,1-.22-.5,1,1,0,0,1,.27-1.07c0-.3.09-.6.16-.9a8.75,8.75,0,0,1,.23-.88c.09-.29.19-.57.3-.86s.23-.56.35-.84a1,1,0,0,0,0-.17,1,1,0,0,0,0-.17v-.19c0-.06,0-.12,0-.18s.05-.22.07-.34,0-.23.07-.35,0-.24.07-.37.06-.27.08-.41l-.48-.4-.51-.42-.53-.44-.54-.44,0-.52a2.76,2.76,0,0,0-.07-.49,1.25,1.25,0,0,0-.18-.45,1.23,1.23,0,0,0-.39-.36l-.05,0,0-.07a.19.19,0,0,1,0-.07.2.2,0,0,1,0-.07,2.18,2.18,0,0,0,0-.57,3.39,3.39,0,0,0-.13-.55l-.15-.55a3.33,3.33,0,0,1-.1-.55c0-.2,0-.4,0-.6s0-.39,0-.59.07-.39.12-.58a3.72,3.72,0,0,1,.2-.59c.13-.29.25-.58.38-.86s.25-.58.38-.86.28-.56.44-.83a6.7,6.7,0,0,1,.53-.78L272,297l.16-.14.16-.13.16-.14a.86.86,0,0,0,.21-.29.76.76,0,0,0,.08-.33.78.78,0,0,0-.05-.34.63.63,0,0,0-.2-.28l-.3-.25-.31-.24-.31-.25-.29-.26a4.44,4.44,0,0,1-.5-.56,3.51,3.51,0,0,1-.39-.61,2.62,2.62,0,0,1-.25-1.46,2.62,2.62,0,0,0,0-.28v-.57a2.81,2.81,0,0,1,0-.29c0-.19,0-.38,0-.56a5.42,5.42,0,0,1,0-.57,2,2,0,0,1,.11-.54,1.46,1.46,0,0,1,.3-.51,1.78,1.78,0,0,1,0-.46,2.26,2.26,0,0,1,.1-.45,3.12,3.12,0,0,1,.15-.43c.06-.14.13-.28.2-.41a8.18,8.18,0,0,1,.48-.76c.18-.23.37-.46.57-.67a5.64,5.64,0,0,1,1.43-1l.16-.08.15-.08.16-.09.17-.09c-.09-.19-.19-.37-.28-.55l-.29-.54-.27-.53-.27-.53a4.71,4.71,0,0,1-.27-.71,3.14,3.14,0,0,1,0-1.43,3.67,3.67,0,0,1,.27-.72c.08-.17.16-.36.25-.54a5.28,5.28,0,0,1,.27-.53,2.69,2.69,0,0,1,.34-.49,2,2,0,0,1,.46-.41l.07-.06a.41.41,0,0,0,.05-.09.93.93,0,0,1,.05-.1.3.3,0,0,1,0-.1,9.41,9.41,0,0,1,.62-1,4.23,4.23,0,0,1,.61-.72,4.14,4.14,0,0,1,.76-.56,8.62,8.62,0,0,1,1-.5l.19-.07.2-.05.21,0,.21,0a3,3,0,0,0,.43-.11.78.78,0,0,0,.28-.16.49.49,0,0,0,.16-.24,1.16,1.16,0,0,0,0-.37,2.15,2.15,0,0,1,.05-.67c0-.22.11-.43.18-.64s.12-.43.17-.65a2.16,2.16,0,0,0,0-.67.9.9,0,0,1,0-.23l.09-.23.13-.23.14-.21.27-.38.27-.37L281,268l.29-.36a.23.23,0,0,1,.07-.07l.09-.05.1,0,.1-.05.75-.4c.25-.12.51-.25.77-.35a5.44,5.44,0,0,1,.81-.25,4.14,4.14,0,0,1,.86-.12l.13,0,.14-.06.13-.06.14-.05a3.5,3.5,0,0,1,.45-.07l.46,0a3.59,3.59,0,0,1,.46.05,3.45,3.45,0,0,1,.46.12l.44.15a3.12,3.12,0,0,1,.43.15,2.14,2.14,0,0,1,.38.23,1.56,1.56,0,0,1,.33.35.4.4,0,0,0,.1.12l.14.1.17.1.16.11c.09-.13.17-.26.25-.39a2.82,2.82,0,0,0,.21-.38,1.63,1.63,0,0,0,.15-.4,1.61,1.61,0,0,0,.06-.44.75.75,0,0,1,0-.2c0-.06,0-.13.07-.2l.09-.2c0-.06,0-.13.08-.2a3.55,3.55,0,0,1,.21-.44c.08-.14.17-.28.26-.42l.28-.4c.09-.13.19-.26.27-.4l.29-.4c.1-.14.2-.26.31-.39s.21-.24.31-.37.21-.25.31-.38a4.78,4.78,0,0,1,.66-.69,5,5,0,0,1,.75-.52,7.77,7.77,0,0,1,.82-.4c.28-.11.57-.22.87-.32l.28-.08.3-.05h.29a.73.73,0,0,1,.24.07,2.48,2.48,0,0,0,.37.17l.38.1.38.05.39,0,.17,0,.18,0,.16.07.16.07.81.46.81.47.81.46.81.47.07,0,.06,0a.11.11,0,0,0,.07,0l0,0a3.38,3.38,0,0,1,.36-.74,6.26,6.26,0,0,1,.49-.66l.56-.6.58-.58.16-.13.18-.11.19-.1.19-.1.34-.19.35-.19.33-.2.33-.22c.13-.1.28-.19.42-.28a4.43,4.43,0,0,1,.45-.2,4.21,4.21,0,0,1,.48-.12,3,3,0,0,1,.52,0h1.42l.47,0,.46,0,.46.07.46.09.45.11.31.09a2.85,2.85,0,0,1,.31.12l.29.13a2.61,2.61,0,0,1,.28.17,1.16,1.16,0,0,1,.24.2l.24.21a2.48,2.48,0,0,0,.26.19,1.24,1.24,0,0,0,.32.12.35.35,0,0,1,.14.06l.12.13a.91.91,0,0,1,.11.16l.1.16.33.54.33.55.33.56.34.57h.56c.14-.22.24-.39.34-.53a3.27,3.27,0,0,1,.3-.35,3.72,3.72,0,0,1,.45-.33l.76-.47.24-.15.25-.15.24-.14.24-.16a3.26,3.26,0,0,1,.4-.24l.42-.18a2.46,2.46,0,0,1,.45-.11,3.88,3.88,0,0,1,.48,0c.2,0,.39,0,.58,0h.58a2.12,2.12,0,0,0,.57-.08,1.83,1.83,0,0,0,.55-.25l.09,0h.23l.11,0a4.54,4.54,0,0,0,.69.21l.71.15.71.14a5.39,5.39,0,0,1,.68.22,5.24,5.24,0,0,1,1,.5,4.74,4.74,0,0,1,.82.66,4.39,4.39,0,0,1,.63.84,4.27,4.27,0,0,1,.41,1,.52.52,0,0,1,0,.11s0,.07,0,.11,0,.07,0,.11a.19.19,0,0,0,0,.1.65.65,0,0,0,.15.23.68.68,0,0,0,.23.14.66.66,0,0,0,.28.05.71.71,0,0,0,.29-.05l.14-.05.13,0,.14-.05.13-.06a1.21,1.21,0,0,0,.24-.21l.21-.25a1,1,0,0,1,.24-.21.53.53,0,0,1,.32-.1,6.59,6.59,0,0,0,.76-.1l.75-.17a6.46,6.46,0,0,1,.75-.11,2.83,2.83,0,0,1,.77.06l.6.11.6.12a1.89,1.89,0,0,1,.55.23,1.57,1.57,0,0,1,.46.43l0,0,0,0,0,0h0a2,2,0,0,1,.65.3,2.67,2.67,0,0,1,.49.46,4.91,4.91,0,0,1,.38.55l.36.58c.17.27.35.53.52.81s.33.55.48.83a5.78,5.78,0,0,1,.35.9,4.32,4.32,0,0,1,.15,1l.27,0,.27,0,.25,0h4.68a3.8,3.8,0,0,1,.82.08,2.74,2.74,0,0,1,.73.25,2.7,2.7,0,0,1,.63.43,3.22,3.22,0,0,1,.53.64,7.34,7.34,0,0,1,.42.71,7.12,7.12,0,0,1,.35.74,6.41,6.41,0,0,1,.23.78,4.48,4.48,0,0,1,.1.82v.18c0,.07,0,.13,0,.19a1.09,1.09,0,0,0,0,.18.43.43,0,0,0,.05.16,3.33,3.33,0,0,1,.21.63,2.48,2.48,0,0,1,.07.61,3.18,3.18,0,0,1-.07.62,3.58,3.58,0,0,1-.21.63.92.92,0,0,0-.08.4.56.56,0,0,0,.1.33.76.76,0,0,0,.29.24,1.7,1.7,0,0,0,.45.15,1.67,1.67,0,0,1,.3.08,1.51,1.51,0,0,1,.26.12,1.12,1.12,0,0,1,.22.16,1.26,1.26,0,0,1,.2.2,7,7,0,0,0,.76.78c.27.24.56.46.85.68l.89.63.89.62c.38.27.76.53,1.15.77s.78.48,1.18.7l1.22.65,1.23.62,1.32.64,1.31.63,1.3.66,1.29.68,1.17.65,1.18.64,1.17.66c.38.22.77.45,1.14.7a1.54,1.54,0,0,1,.29.21l.28.25.27.24.29.22.52.34.52.34a3.57,3.57,0,0,0,.56.26,2.15,2.15,0,0,0,.62.14,2.93,2.93,0,0,0,.54.45c.19.12.39.24.6.35l.62.3c.21.09.42.2.63.3l.62.31.63.3.66.31.67.33.18-.19.18-.19.16-.18a2.12,2.12,0,0,0,.12-.2,3.41,3.41,0,0,1,.3-.44,2,2,0,0,1,.35-.36,1.88,1.88,0,0,1,.42-.27,2.15,2.15,0,0,1,.48-.18,5,5,0,0,0,.65-.22l.65-.25a3.57,3.57,0,0,1,.66-.18,2.35,2.35,0,0,1,.7,0,1,1,0,0,1,.47-.13,1.8,1.8,0,0,1,.46.05l.46.12a1.75,1.75,0,0,0,.46,0h.07l.07,0,.07,0,0,0a2.11,2.11,0,0,0,.43.36,3.72,3.72,0,0,0,.48.27l.49.24a2.66,2.66,0,0,1,.45.29l.59.43.6.4c.2.14.4.28.59.43a5.27,5.27,0,0,1,.55.5c.13.14.26.27.37.41s.23.29.33.43.2.29.3.45.19.3.28.46a3.89,3.89,0,0,1,.33.79,3,3,0,0,1,.11.79,2.94,2.94,0,0,1-.11.78,3.62,3.62,0,0,1-.34.78l-.14.25-.14.26-.12.26-.12.26a1.29,1.29,0,0,0-.15.47.91.91,0,0,0,0,.4.75.75,0,0,0,.21.32,1.2,1.2,0,0,0,.4.22,6.46,6.46,0,0,1,1.11.49,6.91,6.91,0,0,1,1,.66,9.26,9.26,0,0,1,.88.78c.28.28.55.57.83.86,0,.21,0,.42.06.63s0,.43,0,.64,0,.43.07.64.09.43.15.64a2.66,2.66,0,0,1,.12.56,3.75,3.75,0,0,1,0,.58c0,.2,0,.4,0,.59l-.06.59a1.66,1.66,0,0,1-.11.49,1.88,1.88,0,0,1-.22.45,3,3,0,0,1-.3.4,3.24,3.24,0,0,1-.38.36c-.2.18-.4.36-.59.55s-.37.38-.54.58-.33.41-.49.63-.3.44-.44.67c0,.08-.09.16-.13.24a1.55,1.55,0,0,0-.07.23,1.64,1.64,0,0,0,0,.23,2.17,2.17,0,0,0,0,.25,2,2,0,0,1,0,.24l0,.24c0,.08,0,.16,0,.24a2,2,0,0,0,.08.22.66.66,0,0,0,.12.17l.17.15.16.16a.55.55,0,0,1,.13.17,1.23,1.23,0,0,1,.12.26l.09.27.09.27c0,.09.06.18.1.27a8.36,8.36,0,0,1,.4,1.09,5.89,5.89,0,0,1,.19,1.1,6,6,0,0,1,0,1.12,6.56,6.56,0,0,1-.25,1.15,11.06,11.06,0,0,1-.43,1.22,5.22,5.22,0,0,1-.53.95,4.86,4.86,0,0,1-.76.81,8.42,8.42,0,0,1-1.1.78L390,325l-.2.15-.2.17a1.54,1.54,0,0,0-.19.17.86.86,0,0,0-.18.2.47.47,0,0,0-.06.21.43.43,0,0,0,0,.22,2,2,0,0,0,.17.23.71.71,0,0,1,.1.14.49.49,0,0,1,.06.17.8.8,0,0,1,0,.18,1,1,0,0,1,0,.17c0,.21,0,.43,0,.64s0,.43,0,.64a2.19,2.19,0,0,1-.1.63,1.73,1.73,0,0,1-.35.58,1.9,1.9,0,0,1,0,.63,6.29,6.29,0,0,1-.17.62,4.85,4.85,0,0,0-.16.63,1.78,1.78,0,0,0,0,.65,1.77,1.77,0,0,1,0,.32,1.55,1.55,0,0,1-.06.31,1,1,0,0,1-.13.3,1.81,1.81,0,0,1-.19.29c-.05.06-.09.13-.14.2l-.12.23a1.6,1.6,0,0,0-.1.23l-.09.24a3.09,3.09,0,0,1-.4.79,5.81,5.81,0,0,1-.56.65l-.65.59c-.22.18-.44.38-.65.57a1.33,1.33,0,0,1-.3.23l-.36.18a1.8,1.8,0,0,1-.4.1,2.06,2.06,0,0,1-.43,0,4.43,4.43,0,0,0-.52,0h-.51a3,3,0,0,1-.51-.06,1.8,1.8,0,0,1-.51-.17.79.79,0,0,0-.26-.08,1.51,1.51,0,0,0-.3,0h-.33a1.94,1.94,0,0,1-.34,0,4.78,4.78,0,0,1-.08.76c-.05.25-.1.49-.16.72a6.36,6.36,0,0,0-.16.7,3.42,3.42,0,0,0-.07.71v.15a.76.76,0,0,1,0,.15.68.68,0,0,1,0,.14.5.5,0,0,1-.05.13c-.14.25-.27.5-.4.76s-.25.51-.39.76a6.87,6.87,0,0,1-.44.74,4.5,4.5,0,0,1-.57.66l-.39.35c-.13.1-.26.21-.4.3a3.74,3.74,0,0,1-.42.27,4.81,4.81,0,0,1-.46.22.45.45,0,0,1-.11,0l-.12,0-.1,0a.19.19,0,0,0-.09,0,4.43,4.43,0,0,1-1.44.76,5.69,5.69,0,0,1-1.53.25c-.52,0-1.05,0-1.58,0s-1.05-.06-1.57-.05a.85.85,0,0,1-.35-.08l-.35-.16a1.06,1.06,0,0,0-.35-.09.51.51,0,0,0-.35.11,1.15,1.15,0,0,0-.21.23,3.18,3.18,0,0,0-.17.27c0,.09-.11.18-.17.27a.87.87,0,0,1-.2.23,5.57,5.57,0,0,0-.57.52,6.57,6.57,0,0,0-.48.57,6.81,6.81,0,0,0-.41.63c-.13.21-.26.43-.38.65a2.49,2.49,0,0,1-.25.38,2.57,2.57,0,0,1-.33.33,3.28,3.28,0,0,1-.38.27,3.11,3.11,0,0,1-.45.22l-.78.3a7.75,7.75,0,0,1-.78.24,5.76,5.76,0,0,1-.81.15,6.07,6.07,0,0,1-.85.06c-.4,0-.8,0-1.19,0a11.35,11.35,0,0,1-1.15-.16,10.06,10.06,0,0,1-1.11-.3,8.73,8.73,0,0,1-1.09-.47l-.16-.08-.17-.05-.18,0-.17-.05h-.07l-.07,0-.07,0-.07,0a5.75,5.75,0,0,1-.69.93,10.39,10.39,0,0,1-1,1,12,12,0,0,1-1.1.9,6,6,0,0,1-1,.61l-.45.2-.48.16a3,3,0,0,1-.5.1,2.35,2.35,0,0,1-.53,0c-.12,0-.24,0-.37,0h-1.11a1.51,1.51,0,0,1-.3,0,1.26,1.26,0,0,1-.28,0,.94.94,0,0,1-.28-.1A1.28,1.28,0,0,1,348,353a6.36,6.36,0,0,0-.69-.46l-.73-.4a7,7,0,0,1-.71-.42,4.24,4.24,0,0,1-.65-.54.79.79,0,0,0-.27-.2.53.53,0,0,0-.28,0,.75.75,0,0,0-.3.09,1.34,1.34,0,0,0-.31.22l-.35.35c-.12.13-.23.25-.35.36a1.9,1.9,0,0,1-.4.3,1.45,1.45,0,0,1-.49.18,3.86,3.86,0,0,1-.83.55,4.2,4.2,0,0,1-.9.32,6,6,0,0,1-.95.14c-.33,0-.66,0-1,0l-.66,0-.65,0a4.84,4.84,0,0,1-.65-.09,3.69,3.69,0,0,1-.65-.18,1.3,1.3,0,0,0-.34-.08,2.3,2.3,0,0,0-.37,0h-.38l-.37,0a1.4,1.4,0,0,1-.41,0l-.39-.09a3,3,0,0,1-.38-.15l-.35-.18-.19-.11-.17-.13-.18-.12-.19-.1a1.3,1.3,0,0,1-.31-.16,1.15,1.15,0,0,1-.23-.21,1,1,0,0,1-.14-.28,1.19,1.19,0,0,1,0-.33,1.16,1.16,0,0,0,0-.37,1.1,1.1,0,0,0-.12-.33l-.2-.3a3.48,3.48,0,0,0-.26-.3c-.34.17-.68.34-1,.52s-.67.36-1,.55l-1,.6c-.34.21-.67.43-1,.65l.18.26a1.78,1.78,0,0,0,.17.27,1.84,1.84,0,0,0,.17.22.56.56,0,0,0,.2.14,2.81,2.81,0,0,1,.55.27,3,3,0,0,1,.45.35,4,4,0,0,1,.4.42c.13.14.25.29.37.44a6.77,6.77,0,0,0,.51.56l.56.51c.19.16.38.32.56.49a6.26,6.26,0,0,1,.52.51,3.66,3.66,0,0,1,.1.75,3.29,3.29,0,0,1,0,.7,4.09,4.09,0,0,1-.17.69,4.88,4.88,0,0,1-.29.66c-.09.18-.18.36-.26.54s-.16.37-.23.56-.15.38-.22.58-.15.39-.24.59a1.16,1.16,0,0,0,.14.24.8.8,0,0,0,.42.33.77.77,0,0,0,.3,0,1.78,1.78,0,0,1,.46,0,1.88,1.88,0,0,1,.42.14l.38.2.35.24.49.31c.17.1.34.18.51.29a2.69,2.69,0,0,1,.47.34,1.82,1.82,0,0,1,.38.45l0,.06.05.06.05.05.06,0a2.6,2.6,0,0,1,1.54,1.28,5,5,0,0,1,.35.91c.1.32.17.65.25,1a1.55,1.55,0,0,0,.08.23l.1.24a2.18,2.18,0,0,1,.09.23,2,2,0,0,1,.05.24c0,.16,0,.33.05.5a4.07,4.07,0,0,1,0,.5,2,2,0,0,1-.05.49,1.66,1.66,0,0,1-.19.48,1.14,1.14,0,0,0-.16.55c0,.09,0,.19,0,.29a1.81,1.81,0,0,0,.09.31l.51.31.53.32a5.54,5.54,0,0,0,.53.3,3,3,0,0,0,.56.24,3.32,3.32,0,0,1,.6.29,3,3,0,0,1,.48.38,3.39,3.39,0,0,1,.4.45,5.25,5.25,0,0,1,.33.49,9.42,9.42,0,0,1,.49.88c.14.3.27.61.38.92a6.51,6.51,0,0,1,.23,1,5,5,0,0,1,0,1c0,.13,0,.26,0,.4s0,.26,0,.4v.41c0,.14,0,.29,0,.43l.65.13.61.16a3.32,3.32,0,0,1,1.12.53.51.51,0,0,0,.18.09.78.78,0,0,0,.21,0l.24,0h.22a2.22,2.22,0,0,1,.77.07,1.56,1.56,0,0,1,.61.29,2.43,2.43,0,0,1,.48.48,4.4,4.4,0,0,1,.39.66c.12.25.22.5.33.76s.2.51.29.77l.27.77.27.77c0,.09.06.19.08.28s0,.2,0,.3a1.37,1.37,0,0,1,0,.29.73.73,0,0,1-.08.25,1.93,1.93,0,0,0-.2.52,3.29,3.29,0,0,0-.05.54c0,.18,0,.36,0,.55a5.32,5.32,0,0,1,0,.57l.22.05.21.06.21,0,.21,0,.7,0h.69l.65,0h.61l.73.45.69.43.67.41.66.39.41.24a3.62,3.62,0,0,1,.38.26,2,2,0,0,1,.32.33,1.69,1.69,0,0,1,.23.44.66.66,0,0,0,.09.19,1.07,1.07,0,0,0,.14.16l.15.17.15.15c0,.34.05.68.07,1s0,.67,0,1a6.74,6.74,0,0,1-.14,1,5.33,5.33,0,0,1-.31,1,1.91,1.91,0,0,0,.5.19,2.05,2.05,0,0,0,.49.06h.95a4.2,4.2,0,0,1,.7.05,5.28,5.28,0,0,1,.67.13,6.37,6.37,0,0,1,.66.21c.22.08.44.16.65.26l.15.05.15,0,.14.05a.27.27,0,0,1,.1.08,1.75,1.75,0,0,0,.47.43,3.6,3.6,0,0,0,.55.29l.56.26a2.59,2.59,0,0,1,.52.34l.35.34.34.34.33.34.35.33a1.59,1.59,0,0,1,.2.24,1,1,0,0,1,.13.25,1.07,1.07,0,0,1,.07.27,1,1,0,0,1,0,.29v1.85c0,.21,0,.41,0,.62a1.48,1.48,0,0,1,0,.21,1.55,1.55,0,0,1,0,.21l-.06.21a1.11,1.11,0,0,1-.09.19,1.57,1.57,0,0,0-.19.51,1.06,1.06,0,0,0,0,.47,1.5,1.5,0,0,0,.21.42,2.34,2.34,0,0,0,.37.4l.13.14.13.13.13.13a.65.65,0,0,0,.15.1.73.73,0,0,0,.19.07l.22.05.24,0,.27.05c0-.1,0-.21,0-.31s0-.2,0-.29a2,2,0,0,0,0-.25.66.66,0,0,0-.06-.2.85.85,0,0,1-.14-.34,1.06,1.06,0,0,1,0-.31,1.17,1.17,0,0,1,.11-.28l.15-.26.41-.62c.14-.21.28-.42.43-.62s.3-.4.45-.59a6.55,6.55,0,0,1,.49-.56,2.17,2.17,0,0,1,.36-.32c.14-.1.27-.19.42-.28l.44-.25.45-.25.38-.21.38-.2.39-.2a3.59,3.59,0,0,0,.38-.21l.15-.1.13-.11.14-.12.13-.11a4.16,4.16,0,0,1-.25-.83,3.06,3.06,0,0,1-.07-.8,3.65,3.65,0,0,1,.1-.8,4.63,4.63,0,0,1,.25-.8l.33-.82c.11-.28.22-.55.34-.82a8.34,8.34,0,0,1,.38-.8,5.41,5.41,0,0,1,.48-.76,4.31,4.31,0,0,1,.32-.4,2.17,2.17,0,0,1,.36-.32,1.51,1.51,0,0,1,.44-.22,1.58,1.58,0,0,1,.53-.07l.18,0,.18,0,.17-.07.13-.1a4,4,0,0,1,.55-.47,4.41,4.41,0,0,1,.62-.37,4.12,4.12,0,0,1,.69-.27,5.11,5.11,0,0,1,.75-.18v-3.75l.55-.53.54-.53.55-.52.55-.53.12-.08.13-.06.14-.06.13,0,.49-.24.49-.23.49-.23.49-.24.48-.21a3.38,3.38,0,0,1,.48-.16,4,4,0,0,1,.5-.09,2.37,2.37,0,0,1,.53,0l.33,0H387l.34,0,.18,0,.18,0,.18.05.16.07c.25.14.5.29.73.44a6.6,6.6,0,0,1,.68.5,4,4,0,0,1,.57.6,3.48,3.48,0,0,1,.43.75,3.13,3.13,0,0,0,.15.32,2,2,0,0,0,.18.32l.19.32.18.31a3.43,3.43,0,0,1,.34.79,3.06,3.06,0,0,1,.1.79,3.34,3.34,0,0,1-.12.78,3.69,3.69,0,0,1-.34.79c-.13.24-.28.48-.43.71l-.49.66c-.17.21-.35.43-.53.63l-.54.62c-.13.14-.25.27-.35.4a2,2,0,0,0-.23.4.93.93,0,0,0,0,.44,1.36,1.36,0,0,0,.23.52.49.49,0,0,1,.1.22.65.65,0,0,1,0,.24.7.7,0,0,1-.05.25,2,2,0,0,1-.13.25,1.1,1.1,0,0,0-.2.72,2.32,2.32,0,0,0,.06.38c0,.14.08.27.13.4l.18.47c.06.16.12.31.17.47a4.43,4.43,0,0,1,.13.49,2.74,2.74,0,0,1,.07.5.86.86,0,0,0,.05.23,1.6,1.6,0,0,0,.1.23l.12.23.11.24a4.85,4.85,0,0,1-.55,1.06,4.25,4.25,0,0,1-.37.47,6.09,6.09,0,0,1-.44.44l-.25.2-.26.18a2.61,2.61,0,0,1-.28.17l-.3.15-.68.34-.67.36-.66.38-.67.37a1,1,0,0,0-.08.28.82.82,0,0,0,0,.27,1.43,1.43,0,0,0,.09.27,1.35,1.35,0,0,0,.15.26,4,4,0,0,1,.22.34l.2.34a4,4,0,0,0,.2.35,3.78,3.78,0,0,0,.22.33,2.32,2.32,0,0,1,.31.58,2.58,2.58,0,0,1,.13.6,3,3,0,0,1,0,.6,2.94,2.94,0,0,1-.12.59,4.83,4.83,0,0,1-.24.7c-.09.23-.19.46-.3.68s-.22.45-.33.67l-.35.66a1.29,1.29,0,0,1-.42.47,2.61,2.61,0,0,1-.28.17l-.32.14-.38.18-.38.21-.37.23-.38.23a2,2,0,0,1,0,.25,1.93,1.93,0,0,0,0,.24v.22a1.49,1.49,0,0,0,0,.21,1.35,1.35,0,0,0,.08.24l.1.24.09.23a.93.93,0,0,1,0,.23,1,1,0,0,1-.05.24c0,.07-.06.15-.1.23a1.6,1.6,0,0,0-.1.23.59.59,0,0,0,0,.23,2.92,2.92,0,0,1,0,.51,3.62,3.62,0,0,1-.13.47,4.43,4.43,0,0,1-.2.45l-.22.45a6.17,6.17,0,0,1-.39.6c-.14.19-.29.37-.44.56l-.45.54q-.22.28-.42.57a2.1,2.1,0,0,1-.26.33,2.88,2.88,0,0,1-.34.27,2.85,2.85,0,0,1-.37.23,3.86,3.86,0,0,1-.41.2l-.29.14a2.61,2.61,0,0,0-.28.17l-.29.18-.3.18.17.21.15.2.15.18.16.15a2.67,2.67,0,0,1,.47.48,3.17,3.17,0,0,1,.36.54c.11.19.2.38.3.58l.27.59a3.09,3.09,0,0,1,.14.85c0,.4,0,.88,0,1.36s0,1-.07,1.37a4.09,4.09,0,0,1-.15.85c0,.1-.08.2-.13.3l-.15.28a2.43,2.43,0,0,1-.2.25,1.31,1.31,0,0,1-.24.23l-.28.23-.26.26-.25.26-.23.28a.86.86,0,0,0-.1.16c0,.07-.05.14-.07.2l-.06.23c0,.08,0,.16-.07.25a2.32,2.32,0,0,1,1,.39,1.94,1.94,0,0,1,.6.67,4.05,4.05,0,0,1,.35.83c.09.3.17.6.26.9,0,.08.05.16.07.24l.06.24.06.24a2.25,2.25,0,0,0,.08.24,4.94,4.94,0,0,1,.15.55,3.43,3.43,0,0,1,.05.56,2.1,2.1,0,0,1-.08.56,2.48,2.48,0,0,1-.24.55l-.43.74-.41.75-.42.74c-.15.24-.29.49-.45.72a2,2,0,0,1-.37.44,3,3,0,0,1-.46.34,5,5,0,0,1-.52.25c-.19.08-.37.14-.56.2l-.1,0-.1,0-.1,0-.1,0-.27.63c-.09.21-.18.42-.25.63a3.11,3.11,0,0,0-.14.66,2.18,2.18,0,0,0,0,.72,4.47,4.47,0,0,0-.63.6,6.89,6.89,0,0,0-.54.65c-.17.23-.32.47-.47.71s-.29.49-.43.74a5.16,5.16,0,0,1-.4.63,4.41,4.41,0,0,1-.47.58,3.78,3.78,0,0,1-.55.51,4,4,0,0,1-.64.43l-.17.12-.17.13-.17.14-.18.11a5.77,5.77,0,0,1-.56.27,2.9,2.9,0,0,1-.57.18,2.43,2.43,0,0,1-.6,0,2,2,0,0,1-.64-.16l-.17-.06-.18-.06-.18,0-.18,0-.22,0H366a1.5,1.5,0,0,1,0,.24l0,.22,0,.21v.2a1.66,1.66,0,0,1-.08.63,2.55,2.55,0,0,1-.13.29,2.09,2.09,0,0,1-.17.28,7,7,0,0,1-.54.71,6.15,6.15,0,0,1-.61.64,7.23,7.23,0,0,1-.69.55,5.56,5.56,0,0,1-.79.45l-.13.07c-.29.15-.59.29-.89.41a7.07,7.07,0,0,1-.92.3,5,5,0,0,1-1,.13,4.2,4.2,0,0,1-1-.06.17.17,0,0,0-.1,0l-.11,0-.12,0-.13,0a2,2,0,0,0-.16.76,2.22,2.22,0,0,0,.1.73,4.16,4.16,0,0,0,.25.7c.1.23.21.46.31.68a8.18,8.18,0,0,1,.32.87c.1.29.18.59.27.89s.17.59.26.88a8.09,8.09,0,0,0,.34.86s0,0,0,0v.11a3.72,3.72,0,0,1,.05.88.92.92,0,0,1-.77.87,3.87,3.87,0,0,1-.9.08l-.73,0-.73,0a6,6,0,0,0-.73.05,3.44,3.44,0,0,0-.72.17.57.57,0,0,1-.26,0,1.45,1.45,0,0,1-.29,0l-.3-.08-.3-.06-.22-.05a1,1,0,0,0-.23-.06l-.21,0a.34.34,0,0,0-.18,0,2.27,2.27,0,0,1-.5.17,2.94,2.94,0,0,1-.51.05l-.51,0c-.16,0-.33,0-.5,0l-2.55-.11-2.55-.07q-1.28,0-2.55-.09l-2.54-.11a4.83,4.83,0,0,0-.85,0,7.37,7.37,0,0,0-.82.13l-.8.16c-.26.06-.53.12-.8.16l-.21.05-.2.06-.2.06-.21,0h-.86a3,3,0,0,0-.43.06,1.62,1.62,0,0,0-.42.15.6.6,0,0,1-.19.06h-.22l-.23,0-.23,0a6.91,6.91,0,0,0-.91,0c-.3,0-.6.06-.89.1s-.59.1-.88.17l-.87.2a4,4,0,0,1-.46.07,4,4,0,0,1-.49,0,2.42,2.42,0,0,1-.47-.05,2.28,2.28,0,0,1-.45-.11,6.34,6.34,0,0,0-.74-.23c-.25-.07-.5-.12-.75-.17s-.5-.08-.74-.12l-.75-.09-.73-.09-.72-.12c-.24-.05-.47-.1-.7-.17s-.46-.12-.69-.2l-.57-.16-.57-.11-.57-.06-.57,0h-.77l-.25,0-.18,0-.19-.05-.16-.06a.71.71,0,0,1-.14-.1,3.26,3.26,0,0,0-.58-.46,4.89,4.89,0,0,0-.64-.34c-.22-.1-.45-.18-.67-.26l-.69-.24-.3-.11-.31-.1-.3-.11-.3-.13-.19-.1-.18-.12-.17-.14a1,1,0,0,1-.13-.16c-.2-.27-.42-.53-.63-.8s-.43-.52-.63-.79a9.38,9.38,0,0,1-.57-.83,6,6,0,0,1-.47-.91c0-.09-.09-.19-.14-.28a2.61,2.61,0,0,0-.17-.28l-.2-.26a2.26,2.26,0,0,1-.2-.26,1.71,1.71,0,0,1-.36-.66,2.35,2.35,0,0,1-.1-.69q0-.35.06-.69l.09-.7a2,2,0,0,0,.31-.51,3.41,3.41,0,0,0,.16-.57c0-.19.07-.38.1-.58s.08-.38.14-.57a3.93,3.93,0,0,1,.18-.43,2.06,2.06,0,0,1,.23-.37,1.7,1.7,0,0,1,.31-.29,2.19,2.19,0,0,1,.44-.2l.3-.12.28-.15a1.55,1.55,0,0,1,.29-.14,1,1,0,0,1,.3-.08c.22,0,.45-.07.67-.12l.66-.15a4,4,0,0,1,.68-.09,2.69,2.69,0,0,1,.69.06l.39.09.38.1.39.1a2.33,2.33,0,0,0,.38.08l.35.06.35.07.35.07.36.1.71.23c.24.08.48.15.73.21a6.08,6.08,0,0,0,.74.16,6.81,6.81,0,0,0,.78.05l1.83,0,1.84.05,1.83.06,1.84.06.29,0,.29,0a.82.82,0,0,0,.26-.1.69.69,0,0,0,.22-.23m4.89-108.59c0-.24-.08-.48-.13-.71l-.12-.69-.12-.68-.12-.67c0-.12-.05-.24-.08-.35s-.05-.24-.08-.35L336,339l-.09-.35c-.07-.25-.14-.49-.2-.74s-.13-.49-.2-.73l-.2-.73c-.06-.24-.13-.49-.2-.73l-.15-.56-.14-.56-.15-.56c-.05-.19-.09-.37-.14-.56l-.51-2c-.17-.68-.35-1.35-.52-2s-.33-1.35-.5-2-.34-1.36-.5-2c0-.14-.07-.28-.1-.43s-.06-.28-.09-.42-.05-.29-.07-.43,0-.29-.05-.43c-.08-.83-.21-1.65-.36-2.46s-.35-1.62-.55-2.43-.41-1.6-.62-2.4-.42-1.6-.61-2.41a.47.47,0,0,0-.06-.09.36.36,0,0,0-.09-.08l-.1-.06h-.07l-.12.07-.11.08-.1.1a.42.42,0,0,0,0,.1c0,.11,0,.22,0,.33v.32c0,.11,0,.21,0,.32s0,.21.05.32c.13.67.24,1.35.34,2s.2,1.36.31,2,.21,1.36.34,2,.26,1.34.43,2a.85.85,0,0,1,0,.17,1.16,1.16,0,0,1,0,.18l0,.18a1.1,1.1,0,0,0,0,.18c.12.92.26,1.83.43,2.74s.35,1.82.55,2.72.41,1.81.63,2.71.44,1.8.66,2.7l.4,1.61c.13.54.26,1.08.4,1.61s.27,1.08.41,1.61.27,1.08.42,1.61a3.86,3.86,0,0,1,.09.49,1.56,1.56,0,0,1,0,.43,1.09,1.09,0,0,1-.19.37,1.3,1.3,0,0,1-.38.32l-.18.13-.16.14-.16.15-.15.15a7.46,7.46,0,0,0-.7.79,6.72,6.72,0,0,0-.58.85,6.63,6.63,0,0,0-.45.93,5.87,5.87,0,0,0-.3,1l0,.17c0,.06,0,.12,0,.18a1.09,1.09,0,0,0,0,.18,1.1,1.1,0,0,0,0,.18.42.42,0,0,0,.12.26.48.48,0,0,0,.22.16.61.61,0,0,0,.57-.06l.2-.17a1.43,1.43,0,0,0,.14-.2.47.47,0,0,0,.09-.22,1.09,1.09,0,0,0,0-.26,2.17,2.17,0,0,1,0-.36,1.55,1.55,0,0,1,.08-.36,1.3,1.3,0,0,1,.14-.32,1.21,1.21,0,0,1,.2-.3l.36-.44.37-.44.38-.43.4-.42.44-.41.45-.4c.14-.14.3-.26.44-.39l.42-.37" transform="translate(-83.88 -169.11)"/><path id="Path_82" data-name="Path 82" class="cls-9" d="M243.46,390.1l.14,0,.14,0,.14,0H244l2.8.06,2.8.05,2.8.06,2.8.06a4.81,4.81,0,0,1,.44.57c.13.2.24.4.35.6s.2.42.28.63.17.41.25.62.16.45.24.68.15.45.22.68.14.46.22.69l.21.68a7,7,0,0,1,.28,1.2,8.05,8.05,0,0,1,.07,1.2c0,.4,0,.8,0,1.21l-.12,1.2c-.08.76-.18,1.52-.29,2.28s-.25,1.52-.39,2.28-.29,1.5-.44,2.26l-.48,2.25a11.59,11.59,0,0,1-2.14,4.67,11.87,11.87,0,0,1-1.15,1.3l-.56.54-.57.53-.56.53-.58.52-.89.8-.91.8-.94.82-1,.87-.49,0h-.53l-.55,0h-.57c-.65,0-1.29,0-1.93,0l-1.94-.08q-1,0-1.92,0c-.65,0-1.29,0-1.93.1h-.32l-.11,0a10.22,10.22,0,0,0-1.24-.13c-.42,0-.83,0-1.25,0l-1.24.05-1.24,0h-1.07l-1.07,0-1.07,0-1.06,0-1.43,0-1.43,0-1.44,0-1.47,0-.61-.53-.63-.54c-.2-.19-.4-.39-.59-.6a5,5,0,0,1-.51-.7,3.58,3.58,0,0,0-1.45-1.33l-.13-.07-.13-.08-.1-.09-.08-.1a4.86,4.86,0,0,0-.43-.77c-.16-.24-.34-.47-.51-.71a8.59,8.59,0,0,1-.5-.73,3.87,3.87,0,0,1-.37-.8c0-.05,0-.11-.05-.17s0-.12,0-.18a1,1,0,0,0-.06-.16.42.42,0,0,0-.09-.14,7.44,7.44,0,0,1-.71-1,10.17,10.17,0,0,1-.55-1c-.17-.36-.32-.72-.48-1.08s-.31-.71-.49-1.06-.21-.43-.31-.64l-.3-.65-.29-.63c-.1-.21-.19-.42-.29-.62a.44.44,0,0,0-.2,0,.16.16,0,0,0-.1.08.56.56,0,0,0,0,.12v.14c0,.85,0,1.7,0,2.55l0,2.55c0,.84,0,1.69,0,2.54s0,1.7,0,2.55c0,.24,0,.48,0,.71s0,.47,0,.71,0,.47,0,.71,0,.47,0,.7v.17l0,.18a1.11,1.11,0,0,1,0,.17l0,.19-1.11.1-1.09.1c-.36,0-.72,0-1.08,0a8,8,0,0,1-1.1-.1,8.78,8.78,0,0,0-.88-.1c-.29,0-.59,0-.88,0h-1.78l-3.57-.06-3.56-.05-3.56-.06-3.56-.05h-.7l-.37,0h-.38c0-.1,0-.19-.05-.28a2.56,2.56,0,0,1,0-.27,2,2,0,0,1,0-.24,1.93,1.93,0,0,1,0-.24l0-1.58,0-1.58c0-.53,0-1.05,0-1.58l.06-1.58.18-.07.15-.06.14-.05.13,0,1.13,0h1.12l1.13,0,1.13,0h1.54l.67,0,.67,0,.66,0,.67,0h.63l.33,0h.35a2.83,2.83,0,0,0,0-.29,2.28,2.28,0,0,0,0-.26c0-.08,0-.16,0-.25v-.24c0-.37,0-.75,0-1.13s0-.75,0-1.13,0-.75,0-1.13v-1.13c0-1.87,0-3.74,0-5.62l0-5.61c0-1.88,0-3.75,0-5.62s0-3.75,0-5.62c0-.41,0-.82,0-1.24s0-.82,0-1.23,0-.82,0-1.24,0-.82,0-1.23c0-.12,0-.23,0-.35a2.17,2.17,0,0,0,0-.36,1.39,1.39,0,0,0-.34-.71,7.14,7.14,0,0,0-.79-.11,4.35,4.35,0,0,0-1.6.13,3.73,3.73,0,0,0-.79.35c-.45.26-.88.53-1.3.83a13.27,13.27,0,0,0-1.19.94,9.72,9.72,0,0,0-1,1.1,8.51,8.51,0,0,0-.86,1.29l-.15.28-.15.27-.16.27-.17.27a2.22,2.22,0,0,0-.25.42,2.53,2.53,0,0,0-.19.45c0,.15-.1.31-.14.46s-.07.32-.1.49-.1.57-.16.86-.11.58-.16.86l-.18.86-.18.86c-.1.45-.2.91-.29,1.37s-.18.92-.25,1.38-.13.93-.18,1.39-.07.94-.09,1.41a2.64,2.64,0,0,1,0,.28l0,.28c0,.09,0,.18,0,.28l0,.28-.11.94-.11.94-.11.94-.11.94v.53l0,.17c-.12.4-.22.81-.31,1.22s-.16.82-.23,1.24-.14.83-.2,1.24-.14.83-.2,1.24a14.43,14.43,0,0,1-.5,2,17.11,17.11,0,0,1-.77,1.82,19.39,19.39,0,0,1-1,1.7c-.37.55-.77,1.08-1.19,1.6-.28.35-.57.69-.87,1l-.88,1-.9,1c-.31.33-.61.67-.9,1a4.92,4.92,0,0,1-.66.63,6.41,6.41,0,0,1-.73.52,7.52,7.52,0,0,1-.79.43c-.27.13-.55.25-.83.36l-.61.24-.62.23-.63.2-.63.19a5.49,5.49,0,0,1-.79.15,7.14,7.14,0,0,1-.8,0c-.27,0-.54,0-.8,0l-.8-.1c-.35-.05-.7-.12-1-.2s-.67-.19-1-.3-.66-.24-1-.38-.64-.28-1-.44l-.95-.47c-.32-.16-.63-.31-.94-.48l-.94-.48-.93-.5-.7-.42q-.33-.22-.66-.48l-.63-.51-.6-.55a13,13,0,0,1-1-1.08c-.32-.38-.62-.77-.91-1.17l-.85-1.2c-.28-.4-.57-.81-.86-1.2a1.3,1.3,0,0,0-.1-.15l-.09-.16-.08-.16a.75.75,0,0,1-.05-.16c-.11-.43-.22-.87-.34-1.3s-.22-.87-.31-1.31-.16-.87-.21-1.31a8.45,8.45,0,0,1,0-1.33c0-.39.07-.79.1-1.18s.09-.79.15-1.17a8.77,8.77,0,0,1,.28-1.15,5.64,5.64,0,0,1,.48-1.1l.2-.36a2.7,2.7,0,0,1,.18-.25,1.88,1.88,0,0,1,.25-.24c.11-.1.25-.2.44-.35a.42.42,0,0,1,.17.1.35.35,0,0,1,.06.14.43.43,0,0,1,0,.16,1,1,0,0,1,0,.17l-.12.54c0,.18-.06.36-.08.54a4.91,4.91,0,0,0,0,.55,5.44,5.44,0,0,0,0,.57,5.5,5.5,0,0,0,.18.88,6.07,6.07,0,0,0,.32.8,7.89,7.89,0,0,0,.43.74c.16.24.33.48.52.72a9.61,9.61,0,0,0,.65.76,9,9,0,0,0,.7.68,9.59,9.59,0,0,0,1.62,1.13,6.43,6.43,0,0,0,1.36.54,4.53,4.53,0,0,0,1.32.14,4.38,4.38,0,0,0,1.29-.28,5.73,5.73,0,0,0,1.26-.7,8.32,8.32,0,0,0,.71-.6,8,8,0,0,0,.64-.66c.2-.24.38-.48.56-.74a9.22,9.22,0,0,0,.5-.81,7.69,7.69,0,0,0,.45-.91c.13-.31.24-.63.34-.94s.17-.65.23-1,.11-.66.14-1l0-.21a1.55,1.55,0,0,1,0-.21,1.18,1.18,0,0,1,0-.2c0-.07,0-.14,0-.2l.25-1.24.26-1.23.26-1.23.25-1.24c.17-.79.34-1.57.53-2.35s.4-1.56.63-2.33.49-1.52.78-2.27a22.7,22.7,0,0,1,1-2.21c.23-.46.47-.91.74-1.34a12.07,12.07,0,0,1,.88-1.24,8.9,8.9,0,0,1,1-1.09,8.59,8.59,0,0,1,1.24-.91l.24-.14.24-.16.22-.16.2-.2a3.88,3.88,0,0,1,.69-.65,5.77,5.77,0,0,1,.77-.52,9.33,9.33,0,0,1,.83-.43l.85-.4a1.3,1.3,0,0,1,.25-.1l.27-.08.27-.06.28-.06,1-.24,1-.27c.34-.09.68-.2,1-.31s.67-.25,1-.4l-.09-.1L188,375l-.07-.07-.07,0-2.21-.08-2.22-.07-2.21-.07-2.21-.06-2,0-2,0-2,0-1.95,0c-.52-.57-1-1.15-1.46-1.74s-.88-1.2-1.28-1.82-.78-1.27-1.14-1.92-.69-1.32-1-2c-.2-.44-.38-.9-.54-1.35s-.29-.91-.41-1.37-.22-.93-.31-1.4-.16-.94-.23-1.42-.13-1-.2-1.46-.13-1-.2-1.47-.13-1-.2-1.46l-.18-1.47c-.06-.51-.1-1-.12-1.55s0-1,0-1.54.05-1,.08-1.55.09-1,.13-1.54l.15-1.39.18-1.39.21-1.39c.08-.46.16-.92.25-1.38,0-.26.1-.52.16-.78s.14-.52.22-.77.17-.52.26-.77.19-.5.3-.74c.19-.44.38-.88.58-1.31s.4-.87.61-1.3l.61-1.29c.21-.43.42-.86.62-1.29.29-.62.61-1.22.95-1.8s.71-1.15,1.09-1.7.79-1.1,1.2-1.63.84-1.06,1.27-1.58a4.57,4.57,0,0,1,.67-.65,3.83,3.83,0,0,1,.75-.45,3.53,3.53,0,0,1,.84-.25,4.08,4.08,0,0,1,.92-.07h1.09l1.09,0h2.18l6.64.08,6.66.08,6.68.08,6.68.08h3.22l.25,0,.26,0,.29,0c0,.23.05.46.06.7s0,.45,0,.68,0,.45,0,.67,0,.45,0,.67,0,.32,0,.49,0,.32.05.49,0,.33.05.49,0,.33,0,.49,0,.31,0,.46,0,.31,0,.46,0,.31,0,.46,0,.31,0,.46c0,.42,0,.85,0,1.27v2.55c0,.43,0,.85,0,1.28v.34c0,.12,0,.23,0,.35a1.58,1.58,0,0,0,.11.37,1.76,1.76,0,0,0,.23.37l.2-.35.18-.32.18-.3.17-.29.19-.29.19-.29c.07-.1.13-.2.2-.29s.12-.2.17-.3l.29-.52.3-.52c.11-.16.21-.33.32-.5s.23-.32.36-.47a3.18,3.18,0,0,0,.27-.37l.23-.4.21-.41c.06-.14.13-.28.2-.41s.27-.5.41-.74a6.62,6.62,0,0,1,.46-.71,8.27,8.27,0,0,1,.51-.66,6.88,6.88,0,0,1,.59-.62,3.44,3.44,0,0,0,.27-.27l.28-.27.26-.29.24-.3a9.6,9.6,0,0,1,.85-.95,12.67,12.67,0,0,1,1-.84c.33-.26.67-.51,1-.75s.7-.48,1.07-.7a2.27,2.27,0,0,1,.34-.19l.36-.13.37-.07.39,0h2.88l2.89,0,2.88,0c1,0,1.93,0,2.89-.07l2.25-.06,2.25,0,2.25,0h2.25a3.64,3.64,0,0,1,.74,0,2.93,2.93,0,0,1,.65.22,2.24,2.24,0,0,1,.57.35,2.85,2.85,0,0,1,.51.53c.12.16.25.32.38.47l.41.46.42.44.42.45c.19.21.37.43.55.65s.36.44.52.68.32.47.46.71a8,8,0,0,1,.4.77c.12.27.26.54.4.81s.29.53.45.78.32.52.48.77l.52.75a3.76,3.76,0,0,1,.31.5c.1.17.18.35.27.53l.24.55c.09.18.17.36.26.53.27.52.54,1,.8,1.57s.52,1.05.75,1.58.47,1.07.67,1.61.39,1.1.55,1.67.25.9.36,1.35.2.9.27,1.36a13,13,0,0,1,.16,1.38,10.9,10.9,0,0,1,0,1.4l0,.42c0,.14,0,.28,0,.42a2,2,0,0,1-.13.39,1.41,1.41,0,0,1-.24.36c-.28,0-1.18,0-2.4,0l-4.3,0c-1.55,0-3.1-.05-4.35-.09s-2.22-.07-2.58-.1a.84.84,0,0,1-.27-.58c0-.1,0-.2,0-.31s0-.21,0-.31c0-.44,0-.88,0-1.32s0-.87,0-1.31l0-1.32,0-1.31c0-.57,0-1.14-.05-1.71l-.06-1.71c0-.57,0-1.13,0-1.7s-.05-1.14-.07-1.72c0,0,0-.06,0-.1l0-.11,0-.13a1.13,1.13,0,0,0,0-.15l-.2,0-.2,0-.2,0h-4.06l-1.28,0c-.8,0-1.6,0-2.39,0s-1.59,0-2.39.06l-2.38.08c-.8,0-1.59,0-2.39,0h-1.28l-.64,0-.64,0a1.4,1.4,0,0,0-.41.06.91.91,0,0,0-.54.44,1.64,1.64,0,0,0-.14.39,2,2,0,0,0,0,.24,1.9,1.9,0,0,0,0,.25,1.93,1.93,0,0,0,0,.24,2.08,2.08,0,0,0,0,.25l0,1.38,0,1.39,0,1.38c0,.46,0,.92,0,1.38s0,.66,0,1,0,.66,0,1,0,.66,0,1,0,.66,0,1l0,2.1,0,2.09,0,2.09,0,2.09c0,1.16,0,2.32.07,3.48s0,2.31.07,3.47,0,2.32.07,3.48,0,2.32.07,3.48l.06,3.58c0,1.19.05,2.38.07,3.58l.06,3.58c0,1.19.05,2.38.07,3.58s.05,2.25.07,3.37l.07,3.37c0,1.12.05,2.24.07,3.37s.05,2.24.07,3.37l0,1.63c0,.54,0,1.09,0,1.63l0,1.63c0,.54,0,1.09,0,1.63,0,.24,0,.47,0,.7l0,.71c0,.24,0,.48,0,.73s0,.49,0,.74c.54,0,1.07.08,1.6.1s1,0,1.58,0h7.92l1.6,0c.52,0,1,0,1.56,0l1.56.05c.52,0,1,0,1.55,0a11.3,11.3,0,0,0,1.54-.14,2.23,2.23,0,0,0,.16-.43,1.92,1.92,0,0,0,0-.41v-.4c0-.14,0-.26,0-.39V391.67c0-.13,0-.26,0-.39s0-.26,0-.39a1.74,1.74,0,0,1,.05-.39,1.68,1.68,0,0,1,.11-.4m-44.81-22.67v-1c0-.47,0-.94,0-1.41v-1.41c0-.47,0-.94,0-1.41s0-.94,0-1.41c0-.73,0-1.46,0-2.19s0-1.46-.05-2.19,0-1.46-.05-2.18,0-1.46,0-2.19l0-3.25c0-1.08,0-2.17,0-3.25l0-3.25c0-1.08,0-2.16,0-3.25v-.42a1.48,1.48,0,0,0,0-.21c0-.07,0-.14,0-.21a1.61,1.61,0,0,0-.1-.36.73.73,0,0,0-.2-.26.75.75,0,0,0-.28-.18,1.45,1.45,0,0,0-.36-.08h-.42l-1.69,0-1.7,0-1.69,0H188l-2.2,0-2.19,0-2.17,0-.23.2-.21.17-.19.17-.18.16-.2.19-.2.19-.18.2a1.77,1.77,0,0,0-.16.22,1.43,1.43,0,0,0-.08.22l-.06.23a1.87,1.87,0,0,1,0,.25,1.05,1.05,0,0,1-.06.24.52.52,0,0,1-.06.16c0,.05,0,.1-.07.16l-.09.15a1.09,1.09,0,0,0-.08.15c-.14.26-.26.52-.38.78a7.77,7.77,0,0,0-.53,1.63,6.09,6.09,0,0,0-.1.87.75.75,0,0,1,0,.2,1.94,1.94,0,0,1,0,.2c0,.06-.05.13-.07.2s0,.13-.07.2,0,.15-.07.23a2,2,0,0,0-.08.22,2,2,0,0,0-.07.23.93.93,0,0,0,0,.23c0,.4-.07.8-.1,1.19s-.07.8-.1,1.19l-.09,1.2c0,.39-.05.79-.09,1.19a1.1,1.1,0,0,1,0,.18l0,.18a1.09,1.09,0,0,0,0,.18.83.83,0,0,0,0,.15,1.7,1.7,0,0,1,.15.45,2.12,2.12,0,0,1,0,.44c0,.15,0,.3,0,.45s0,.3,0,.45,0,.57,0,.85,0,.56,0,.84v.84c0,.28,0,.56,0,.84a3.17,3.17,0,0,0,.05.53c0,.17,0,.34.07.52s0,.34,0,.51a4.34,4.34,0,0,1,0,.51,5.09,5.09,0,0,0,0,.78,6.48,6.48,0,0,0,.06.76c0,.25.09.5.14.75s.12.5.19.74c0,.08,0,.16.07.24s0,.15.07.23a2,2,0,0,1,.05.24,2,2,0,0,1,0,.23,14,14,0,0,0,.14,1.44,12.52,12.52,0,0,0,.3,1.48,14.05,14.05,0,0,0,1.08,2.9l.25,0,.27,0,.27,0h.27l1.44,0,1.44,0,1.44,0H197a2.48,2.48,0,0,0,.54-.06,2.72,2.72,0,0,0,.55-.18,2.17,2.17,0,0,0,.55-.36" transform="translate(-83.88 -169.11)"/></g></g></g></g></g></svg>