<svg xmlns="http://www.w3.org/2000/svg" viewBox="0 0 184.92 113.3"><defs><style>.cls-1{fill:#3a99fb;}</style></defs><g id="Layer_2" data-name="Layer 2"><g id="katman_1" data-name="katman 1"><path class="cls-1" d="M37.88,22.14c30.15-29.52,79-29.52,109.2,0l3.63,3.55a3.7,3.7,0,0,1,0,5.34L138.3,43.2a2,2,0,0,1-2.73,0l-5-4.87a54.68,54.68,0,0,0-76.17,0l-5.34,5.22a2,2,0,0,1-2.73,0L33.9,31.39a3.71,3.71,0,0,1,0-5.35ZM172.74,47.26l11,10.8a3.7,3.7,0,0,1,0,5.34L134,112.19a3.89,3.89,0,0,1-5.46,0L93.14,77.56a1,1,0,0,0-1.36,0L56.44,112.19a3.89,3.89,0,0,1-5.46,0L1.14,63.44a3.7,3.7,0,0,1,0-5.34l11-10.8a3.91,3.91,0,0,1,5.46,0L53,81.93a1,1,0,0,0,1.37,0L89.71,47.3a3.91,3.91,0,0,1,5.46,0l35.37,34.63a1,1,0,0,0,1.37,0L167.28,47.3A3.87,3.87,0,0,1,172.74,47.26Z"/></g></g></svg>